<svg id="core" xmlns="http://www.w3.org/2000/svg" width="936" height="704" viewBox="0 0 936 704">
  <g id="Group_48" data-name="Group 48" transform="translate(268)">
    <g id="Group_7" data-name="Group 7">
      <g id="Group_73" data-name="Group 73">
        <text id="We_believe_in_open_c" data-name="We believe in open c" transform="translate(0 32)" fill="#4d6e81" font-size="16" font-family="Rubik-Regular, Rubik" letter-spacing="0.05em"><tspan x="0" y="15">We believe in open </tspan><tspan x="0" y="34">communication</tspan></text>
        <text id="Lucidity" fill="#030303" font-size="18" font-family="Rubik-Medium, Rubik" font-weight="500" letter-spacing="0.05em"><tspan x="0" y="17">Lucidity</tspan></text>
      </g>
    </g>
  </g>
  <g id="Group_48_Copy_10" data-name="Group 48 Copy 10" transform="translate(521)">
    <g id="Group_7-2" data-name="Group 7">
      <g id="Group_73-2" data-name="Group 73">
        <text id="We_are_accountable_" data-name="We are accountable …" transform="translate(0 32)" fill="#4d6e81" font-size="16" font-family="Rubik-Regular, Rubik" letter-spacing="0.05em"><tspan x="0" y="15">We are accountable …</tspan><tspan x="0" y="34">you can count on us</tspan></text>
        <text id="Integrity" fill="#030303" font-size="18" font-family="Rubik-Medium, Rubik" font-weight="500" letter-spacing="0.05em"><tspan x="0" y="17">Integrity</tspan></text>
      </g>
    </g>
  </g>
  <g id="Group_48_Copy_11" data-name="Group 48 Copy 11" transform="translate(718 136)">
    <g id="Group_7-3" data-name="Group 7">
      <g id="Group_73-3" data-name="Group 73">
        <g id="Group_2" data-name="Group 2">
          <text id="We_respect_one_and_a" data-name="We respect one and a" transform="translate(0 32)" fill="#4d6e81" font-size="16" font-family="Rubik-Regular, Rubik" letter-spacing="0.05em"><tspan x="0" y="15">We respect one and </tspan><tspan x="0" y="34">all</tspan></text>
          <text id="Respect" fill="#030303" font-size="18" font-family="Rubik-Medium, Rubik" font-weight="500" letter-spacing="0.05em"><tspan x="0" y="17">Respect</tspan></text>
        </g>
      </g>
    </g>
  </g>
  <g id="Group_48_Copy_12" data-name="Group 48 Copy 12" transform="translate(753 322)">
    <g id="Group_7-4" data-name="Group 7">
      <g id="Group_73-4" data-name="Group 73">
        <text id="We_are_positive_even" data-name="We are positive even" transform="translate(0 32)" fill="#4d6e81" font-size="16" font-family="Rubik-Regular, Rubik" letter-spacing="0.05em"><tspan x="0" y="15">We are positive even </tspan><tspan x="0" y="34">when the going gets </tspan><tspan x="0" y="53">tough</tspan></text>
        <text id="Leadership" fill="#030303" font-size="18" font-family="Rubik-Medium, Rubik" font-weight="500" letter-spacing="0.05em"><tspan x="0" y="17">Leadership</tspan></text>
      </g>
    </g>
  </g>
  <g id="Group_48_Copy_13" data-name="Group 48 Copy 13" transform="translate(718 478)">
    <g id="Group_7-5" data-name="Group 7">
      <g id="Group_73-5" data-name="Group 73">
        <text id="We_are_a_team_we_w" data-name="We are a team … we w" transform="translate(0 32)" fill="#4d6e81" font-size="16" font-family="Rubik-Regular, Rubik" letter-spacing="0.05em"><tspan x="0" y="15">We are a team … we </tspan><tspan x="0" y="34">work like one</tspan></text>
        <text id="Teamwork" fill="#030303" font-size="18" font-family="Rubik-Medium, Rubik" font-weight="500" letter-spacing="0.05em"><tspan x="0" y="17">Teamwork</tspan></text>
      </g>
    </g>
  </g>
  <g id="Group_48_Copy_14" data-name="Group 48 Copy 14" transform="translate(550 615)">
    <g id="Group_7-6" data-name="Group 7">
      <g id="Group_73-6" data-name="Group 73">
        <text id="We_improve_continu" data-name="We improve … continu" transform="translate(0 32)" fill="#4d6e81" font-size="16" font-family="Rubik-Regular, Rubik" letter-spacing="0.05em"><tspan x="0" y="15">We improve … </tspan><tspan x="0" y="34">continuously &amp;</tspan><tspan x="0" y="53">Consistently</tspan></text>
        <text id="Ethics" fill="#030303" font-size="18" font-family="Rubik-Medium, Rubik" font-weight="500" letter-spacing="0.05em"><tspan x="0" y="17">Ethics</tspan></text>
      </g>
    </g>
  </g>
  <g id="Group_48_Copy_16" data-name="Group 48 Copy 16" transform="translate(35 479)">
    <g id="Group_7-7" data-name="Group 7">
      <g id="Group_73-7" data-name="Group 73">
        <text id="We_are_true_to_ourse" data-name="We are true to ourse" transform="translate(0 32)" fill="#4d6e81" font-size="16" font-family="Rubik-Regular, Rubik" letter-spacing="0.05em"><tspan x="0" y="15">We are true to </tspan><tspan x="0" y="34">ourselves and others</tspan></text>
        <text id="Trust" fill="#030303" font-size="18" font-family="Rubik-Medium, Rubik" font-weight="500" letter-spacing="0.05em"><tspan x="0" y="17">Trust</tspan></text>
      </g>
    </g>
  </g>
  <g id="Group_48_Copy_17" data-name="Group 48 Copy 17" transform="translate(0 332)">
    <g id="Group_7-8" data-name="Group 7">
      <g id="Group_73-8" data-name="Group 73">
        <text id="We_celebrate_pretty" data-name="We celebrate… pretty" transform="translate(0 32)" fill="#4d6e81" font-size="16" font-family="Rubik-Regular, Rubik" letter-spacing="0.05em"><tspan x="0" y="15">We celebrate… pretty </tspan><tspan x="0" y="34">much everything!</tspan></text>
        <text id="Celebrate" fill="#030303" font-size="18" font-family="Rubik-Medium, Rubik" font-weight="500" letter-spacing="0.05em"><tspan x="0" y="17">Celebrate</tspan></text>
      </g>
    </g>
  </g>
  <g id="Group_48_Copy_18" data-name="Group 48 Copy 18" transform="translate(35 126)">
    <g id="Group_7-9" data-name="Group 7">
      <g id="Group_73-9" data-name="Group 73">
        <text id="We_deliver_positivel" data-name="We deliver positivel" transform="translate(0 32)" fill="#4d6e81" font-size="16" font-family="Rubik-Regular, Rubik" letter-spacing="0.05em"><tspan x="0" y="15">We deliver positively </tspan><tspan x="0" y="34">outrageous service… </tspan><tspan x="0" y="53">always</tspan></text>
        <text id="Innovation" fill="#030303" font-size="18" font-family="Rubik-Medium, Rubik" font-weight="500" letter-spacing="0.05em"><tspan x="0" y="17">Innovation</tspan></text>
      </g>
    </g>
  </g>
  <g id="Group_3" data-name="Group 3" transform="translate(336 225)">
    <g id="Oval" fill="#d8d8d8" stroke="#979797" stroke-miterlimit="10" stroke-width="1" opacity="0">
      <circle cx="122.5" cy="122.5" r="122.5" stroke="none"/>
      <circle cx="122.5" cy="122.5" r="122" fill="none"/>
    </g>
    <g id="Group_72" data-name="Group 72" transform="translate(78 78)">
      <path id="path26" d="M0-90V0H90V-90Z" transform="translate(0 90)" fill="#56bfd8"/>
      <path id="Path_11" data-name="Path 11" d="M0,0,70,70V0Z" transform="translate(10 9)" fill="#fff"/>
    </g>
  </g>
  <g id="Group_48_Copy_15" data-name="Group 48 Copy 15" transform="translate(318 622)">
    <g id="Group_7-10" data-name="Group 7">
      <g id="Group_73-10" data-name="Group 73">
        <g id="Group">
          <text id="We_do_MORE_with_less" data-name="We do MORE with less" transform="translate(0 32)" fill="#4d6e81" font-size="16" font-family="Rubik-Regular, Rubik" letter-spacing="0.05em"><tspan x="0" y="15">We do MORE with </tspan><tspan x="0" y="34">less</tspan></text>
          <text id="Quality" fill="#030303" font-size="18" font-family="Rubik-Medium, Rubik" font-weight="500" letter-spacing="0.05em"><tspan x="0" y="17">Quality</tspan></text>
        </g>
      </g>
    </g>
  </g>
  <g id="Oval-2" data-name="Oval">
    <circle id="Oval-3" data-name="Oval" cx="246.5" cy="246.5" r="246.5" transform="translate(212 101)" fill="none"/>
    <g id="Oval-4" data-name="Oval" transform="translate(212 101)" fill="none" stroke="#707070" stroke-miterlimit="10" stroke-width="125">
      <circle cx="246.5" cy="246.5" r="246.5" stroke="none"/>
      <circle cx="246.5" cy="246.5" r="184" fill="none"/>
    </g>
  </g>
  <g id="Group_71" data-name="Group 71" transform="translate(222 147)">
    <path id="Path_10_Copy_2" data-name="Path 10 Copy 2" d="M0,0,73.5,102" transform="translate(165.699 102.856) rotate(179.776)" fill="none" stroke="#fff" stroke-miterlimit="10" stroke-width="1"/>
    <path id="Path_10_Copy_3" data-name="Path 10 Copy 3" d="M0,0,73.5,102" transform="translate(120.535 163.425) rotate(143.776)" fill="none" stroke="#fff" stroke-miterlimit="10" stroke-width="1"/>
    <path id="Path_10_Copy_3-2" data-name="Path 10 Copy 3" d="M0,0,73.5,102" transform="translate(123.535 237.575) rotate(107.776)" fill="none" stroke="#fff" stroke-miterlimit="10" stroke-width="1"/>
    <path id="Path_10_Copy_3-3" data-name="Path 10 Copy 3" d="M0,0,73.5,102" transform="translate(165.699 299.144) rotate(71.776)" fill="none" stroke="#fff" stroke-miterlimit="10" stroke-width="1"/>
    <path id="Path_10_Copy" data-name="Path 10 Copy" d="M0,0,1.7,125.711" transform="translate(235.851 320.994) rotate(0.776)" fill="none" stroke="#fff" stroke-miterlimit="10" stroke-width="1"/>
    <path id="Path_10_Copy_3-4" data-name="Path 10 Copy 3" d="M0,0,73.5,102" transform="translate(381.5 401) rotate(180)" fill="none" stroke="#fff" stroke-miterlimit="10" stroke-width="1"/>
    <path id="Path_10_Copy_3-5" data-name="Path 10 Copy 3" d="M0,0,73.5,102" transform="matrix(-0.809, 0.588, -0.588, -0.809, 470.458, 276.659)" fill="none" stroke="#fff" stroke-miterlimit="10" stroke-width="1"/>
  </g>
  <g id="idea" transform="translate(288 219)">
    <path id="Shape" d="M12.228,40a3.109,3.109,0,0,1-3.1-3.114V34.1H8.478a.654.654,0,0,1-.652-.656V31.476a.654.654,0,0,1,.652-.656h1.3V29.227a15,15,0,1,1,10.435,0V30.82h1.3a.654.654,0,0,1,.653.656v1.966a.654.654,0,0,1-.653.656h-.653v2.787A3.109,3.109,0,0,1,17.771,40Z" transform="translate(0)" fill="#fff"/>
    <path id="Path" d="M12.175,0A13.048,13.048,0,0,0,.046,8.283a.659.659,0,0,0,.095.649.651.651,0,0,0,1.118-.165A11.744,11.744,0,0,1,12.175,1.311a.656.656,0,0,0,0-1.311Z" transform="translate(2.825 1.967)" fill="#fff"/>
  </g>
  <g id="timer" transform="translate(248 331)">
    <path id="Path-2" data-name="Path" d="M34.142,5.858A20,20,0,0,0,20,0a.645.645,0,0,0-.645.645V5.806a.645.645,0,0,0,1.29,0V1.3A18.71,18.71,0,1,1,6.77,6.77a.645.645,0,0,0-.912-.912,20,20,0,1,0,28.284,0Z" transform="translate(0)" fill="#fff"/>
    <path id="Shape-2" data-name="Shape" d="M9.005,11.587a2.548,2.548,0,0,1,.366-1.3L.181,1.094A.645.645,0,0,1,1.094.181l9.19,9.191a2.548,2.548,0,0,1,1.3-.366,2.581,2.581,0,1,1-2.581,2.581Z" transform="translate(8.413 8.414)" fill="#fff"/>
  </g>
  <g id="accept" transform="translate(288 438)">
    <path id="Shape-3" data-name="Shape" d="M0,20A20,20,0,1,1,20,40,20.022,20.022,0,0,1,0,20Z" fill="#fff"/>
    <path id="Path-3" data-name="Path" d="M21.634.233,7.682,14.083,1.366,7.813a.8.8,0,0,0-1.131,0,.79.79,0,0,0,0,1.123l6.882,6.831a.8.8,0,0,0,1.131,0L22.766,1.356a.79.79,0,0,0,0-1.123A.8.8,0,0,0,21.634.233Z" transform="translate(9 12)" fill="#fff"/>
  </g>
  <g id="star" transform="translate(375 503)">
    <path id="Shape-4" data-name="Shape" d="M8.1,39.3a2.954,2.954,0,0,1-1.2-2.919L8.643,26.343a1.313,1.313,0,0,0-.383-1.166L.911,18.07a2.948,2.948,0,0,1-.761-3.059A2.984,2.984,0,0,1,2.578,12.98l10.157-1.465a1.327,1.327,0,0,0,1-.72l4.541-9.131a3.02,3.02,0,0,1,5.4,0l4.541,9.131a1.324,1.324,0,0,0,1,.72l10.157,1.464A2.985,2.985,0,0,1,41.8,15.011a2.95,2.95,0,0,1-.761,3.059L33.69,25.177a1.313,1.313,0,0,0-.383,1.166l1.736,10.035a2.956,2.956,0,0,1-1.2,2.919,3.013,3.013,0,0,1-3.169.228l-9.085-4.738a1.34,1.34,0,0,0-1.237,0l-9.084,4.738A3,3,0,0,1,8.1,39.3Z" transform="translate(0 0.039)" fill="#fff"/>
  </g>
  <path id="Shape-5" data-name="Shape" d="M31.02,38.479a.585.585,0,0,1,.5-1.06c3.263,1.529,5.71,1.829,6.715.824,1.2-1.2.535-4.4-1.767-8.558a58.011,58.011,0,0,0-6.156-8.773c-1.327,1.538-2.752,3.081-4.259,4.6a.586.586,0,0,1-.832-.825c1.534-1.547,2.983-3.117,4.324-4.68-1.42-1.655-2.96-3.317-4.594-4.951C23.33,13.435,21.666,11.893,20,10.461c-1.653,1.42-3.314,2.96-4.947,4.594s-3.173,3.3-4.594,4.951c1.318,1.535,2.74,3.077,4.244,4.6a.586.586,0,0,1-.833.823c-1.476-1.492-2.875-3.006-4.176-4.516a57.882,57.882,0,0,0-6.156,8.773c-2.3,4.163-2.964,7.362-1.768,8.558,1.005,1.005,3.453.706,6.715-.824a.586.586,0,1,1,.5,1.06A13.467,13.467,0,0,1,3.561,40,3.557,3.557,0,0,1,.94,39.071c-1.658-1.658-1.114-5.1,1.571-9.955A59.463,59.463,0,0,1,8.922,20a59.086,59.086,0,0,1-6.5-9.262C-.185,5.968-.7,2.579.94.94,2.21-.331,4.611-.294,7.88,1.047A46.226,46.226,0,0,1,18.365,7.592a.586.586,0,0,1-.727.919,45.1,45.1,0,0,0-10.2-6.38C4.678,1,2.665.871,1.768,1.769.589,2.948,1.219,6.093,3.454,10.18A57.48,57.48,0,0,0,9.691,19.1c1.406-1.63,2.924-3.265,4.531-4.873A71,71,0,0,1,29.109,2.511C33.962-.175,37.4-.718,39.061.94c1.642,1.643,1.121,5.045-1.507,9.838A59.143,59.143,0,0,1,31.079,20a59.531,59.531,0,0,1,6.412,9.112c2.685,4.854,3.227,8.3,1.57,9.954A3.559,3.559,0,0,1,36.439,40,13.467,13.467,0,0,1,31.02,38.479Z" transform="translate(490 503)" fill="#fff"/>
  <g id="united" transform="translate(592 438)">
    <path id="Path-4" data-name="Path" d="M35.011,9.176a.586.586,0,0,0-.829,0l-3.039,3.039a.586.586,0,0,0-.164.509l.189,1.155a5.005,5.005,0,0,1-1.4,4.337L24.6,23.391a1.174,1.174,0,0,1-1.053.325v-2.6l2.425-2.425a.586.586,0,1,0-.829-.829l-1.6,1.6V17.2a2.31,2.31,0,0,0-3.559-1.945,2.31,2.31,0,0,0-3.345-1.315v-.412a2.307,2.307,0,0,0-.8-1.748L17.7,9.918a.586.586,0,0,0-.829-.829l-1.634,1.634L11.093,6.575A5.029,5.029,0,0,0,6.527,5.2l-.415.084L1,.172A.586.586,0,0,0,.172,1l5.2,5.2a.938.938,0,0,0,.851.256l.537-.109a3.86,3.86,0,0,1,3.5,1.056l3.827,3.827a2.317,2.317,0,0,0-1.9,1.416,2.31,2.31,0,0,0-3.628,1.9V21.1a2.374,2.374,0,0,0-.182-.207L5.343,17.858a.586.586,0,1,0-.829.829l3.038,3.038a1.18,1.18,0,0,1,.238.341,2.351,2.351,0,0,0-.978,1.667,1.177,1.177,0,0,1-.926-.342L2.151,19.656a.586.586,0,0,0-.829.829L5.057,24.22a2.347,2.347,0,0,0,1.661.689l.081,0V31.3a6.18,6.18,0,0,0,2.567,5.006l.706.507v2.6a.586.586,0,0,0,1.172,0v-2.9A.586.586,0,0,0,11,36.037l-.95-.683A5.005,5.005,0,0,1,7.971,31.3V23.981a1.178,1.178,0,1,1,2.357,0v4.3a.586.586,0,0,0,1.172,0v-4.3A2.354,2.354,0,0,0,9.735,21.7V14.547a1.14,1.14,0,1,1,2.28,0v7.67a.586.586,0,0,0,1.172,0V13.532a1.14,1.14,0,1,1,2.28,0v8.992a.586.586,0,0,0,1.172,0v-6.57a1.14,1.14,0,1,1,2.28,0v6.57a.586.586,0,0,0,1.172,0V17.2h0a1.14,1.14,0,1,1,2.28,0v9.768a.586.586,0,0,0,1.172,0V24.9c.074.007.148.011.221.011a2.345,2.345,0,0,0,1.661-.69L30.6,19.045a6.179,6.179,0,0,0,1.725-5.355l-.14-.858,2.827-2.827A.586.586,0,0,0,35.011,9.176Z" transform="translate(4.8)" fill="#fff"/>
    <path id="Path-5" data-name="Path" d="M3.194,0a.586.586,0,0,0-.586.586V3.307A3.86,3.86,0,0,1,.877,6.532l-.457.3A.937.937,0,0,0,0,7.618v2.91a.586.586,0,0,0,1.172,0V7.742l.353-.234a5.029,5.029,0,0,0,2.255-4.2V.586A.586.586,0,0,0,3.194,0Z" transform="translate(24.563 28.883)" fill="#fff"/>
    <path id="Path-6" data-name="Path" d="M.586,8.324A.584.584,0,0,0,1,8.152L1.748,7.4a3.86,3.86,0,0,1,3.5-1.056l.537.109A.938.938,0,0,0,6.641,6.2l5.2-5.2a.586.586,0,0,0-.829-.829L5.9,5.284,5.485,5.2A5.03,5.03,0,0,0,.92,6.575l-.748.748a.586.586,0,0,0,.414,1Z" transform="translate(23.269 0)" fill="#fff"/>
    <path id="Path-7" data-name="Path" d="M4.1,4.959,4.288,3.8A.586.586,0,0,0,4.124,3.3L1,.172A.586.586,0,0,0,.172,1L3.083,3.912l-.14.858A6.156,6.156,0,0,0,4.322,9.748a.586.586,0,1,0,.894-.757A4.986,4.986,0,0,1,4.1,4.959Z" transform="translate(0.014 8.92)" fill="#fff"/>
  </g>
  <g id="fire_1_" data-name="fire (1)" transform="translate(626 331)">
    <path id="Shape-6" data-name="Shape" d="M15.433,40a12.6,12.6,0,0,1-4.39-.772c-5.044-1.868-8.41-4.81-10-8.743-2.612-6.458.489-13.187.622-13.47a.564.564,0,0,1,1.056.092A7.52,7.52,0,0,0,5.04,20.442C6.334,13.877,12,9.9,12.254,9.73c3.658-2.958.67-8.834.64-8.894A.576.576,0,0,1,13.036.13a.562.562,0,0,1,.715,0c10.072,8.258,9.492,16.574,8.68,19.992a5.569,5.569,0,0,0,2.052-5.128.572.572,0,0,1,.357-.612.561.561,0,0,1,.671.212,26.02,26.02,0,0,1,2.643,5.5A15.744,15.744,0,0,1,25.5,35.158l-.122.149A12.789,12.789,0,0,1,15.5,40Z" fill="#fff"/>
    <path id="Path-8" data-name="Path" d="M4.234,22.743a.565.565,0,0,1-.365-.134C-3.349,16.494,1.736,8.674,1.788,8.6a.566.566,0,0,1,1.036.281,3.83,3.83,0,0,0,.884,2.386A11.593,11.593,0,0,1,8.7.077a.564.564,0,0,1,.675.079A.571.571,0,0,1,9.489.83a3.968,3.968,0,0,0-.457,1.927,4.193,4.193,0,0,0,.711,2.184l.227.348a35.678,35.678,0,0,0,2.436,3.223,10.047,10.047,0,0,1,1.608,2.751c2.839,5.883-2.039,10.52-2.087,10.566a.564.564,0,0,1-.793-.037.571.571,0,0,1,.023-.8c.177-.166,4.319-4.133,1.826-9.26a.551.551,0,0,1-.025-.062A8.963,8.963,0,0,0,11.535,9.24,36.719,36.719,0,0,1,9.022,5.913L8.8,5.565a5.336,5.336,0,0,1-.9-2.784,5.149,5.149,0,0,1,.029-.664A10.525,10.525,0,0,0,5.034,12.364a.571.571,0,0,1-.172.537.564.564,0,0,1-.547.125,3.88,3.88,0,0,1-2.3-2.441A9.053,9.053,0,0,0,4.6,21.74a.57.57,0,0,1-.365,1Z" transform="translate(8.627 17.255)" fill="#fff"/>
  </g>
  <path id="Shape-7" data-name="Shape" d="M.106,29.6A11.985,11.985,0,0,1,8.86,16.446a12,12,0,1,1,22.282,0A11.981,11.981,0,1,1,20,36.921,11.981,11.981,0,0,1,.106,29.6Z" transform="translate(492 151)" fill="#fff"/>
  <path id="Shape-8" data-name="Shape" d="M19.694,35.927a53.229,53.229,0,0,1-9.8-6.76C3.42,23.526,0,17.4,0,11.454,0,5.353,5.14,0,11,0a11.083,11.083,0,0,1,9,4.6A11.084,11.084,0,0,1,29,0c5.86,0,11,5.353,11,11.454,0,5.947-3.419,12.072-9.894,17.713a53.209,53.209,0,0,1-9.8,6.76.679.679,0,0,1-.612,0Z" transform="translate(583 223)" fill="#fff"/>
  <g id="safety" transform="translate(383 151)">
    <path id="Shape-9" data-name="Shape" d="M16.7,39.921l-4.753-2.709A23.569,23.569,0,0,1,0,16.82V6.57a.591.591,0,0,1,.39-.553L16.792.037a.6.6,0,0,1,.416,0l16.4,5.981A.591.591,0,0,1,34,6.57V16.82A23.57,23.57,0,0,1,22.054,37.212L17.3,39.921a.608.608,0,0,1-.6,0Z" fill="#fff"/>
    <path id="Shape-10" data-name="Shape" d="M13.055,31.122,9.787,29.291A18.927,18.927,0,0,1,0,12.87V5.153a.582.582,0,0,1,.391-.544L13.149.036a.627.627,0,0,1,.418,0L26.322,4.609a.582.582,0,0,1,.392.544V12.87a18.926,18.926,0,0,1-9.788,16.421l-3.269,1.832a.618.618,0,0,1-.6,0Z" transform="translate(3.238 4)" fill="#fff"/>
    <path id="Shape-11" data-name="Shape" d="M5.86,15.2a.605.605,0,0,1-.608-.6V10.011H.609A.605.605,0,0,1,0,9.41V5.791a.605.605,0,0,1,.609-.6H5.252V.6A.605.605,0,0,1,5.86,0H9.521a.605.605,0,0,1,.609.6V5.189h4.641a.605.605,0,0,1,.609.6V9.41a.605.605,0,0,1-.609.6H10.13V14.6a.605.605,0,0,1-.609.6Z" transform="translate(9.714 12)" fill="#fff"/>
  </g>
  <path id="Path_10" data-name="Path 10" d="M0,0,74,102" transform="translate(314 148)" fill="none" stroke="#fff" stroke-miterlimit="10" stroke-width="1"/>
  <path id="Path_10_Copy_2-2" data-name="Path 10 Copy 2" d="M0,0,73.5,102" transform="matrix(0.309, 0.951, -0.951, 0.309, 602.898, 149.289)" fill="none" stroke="#fff" stroke-miterlimit="10" stroke-width="1"/>
  <path id="Path_10_Copy_3-6" data-name="Path 10 Copy 3" d="M0,0,73.5,102" transform="matrix(-0.309, 0.951, -0.951, -0.309, 692.61, 271.809)" fill="none" stroke="#fff" stroke-miterlimit="10" stroke-width="1"/>
  <path id="Path_10_Copy-2" data-name="Path 10 Copy" d="M0,0,1.7,125.711" transform="translate(457.851 100.994) rotate(0.776)" fill="none" stroke="#fff" stroke-miterlimit="10" stroke-width="1"/>
</svg>
