<?xml version="1.0" encoding="utf-8"?>
<svg width="41px" height="40px" viewBox="0 0 41 40" version="1.1" xmlns:xlink="http://www.w3.org/1999/xlink" xmlns="http://www.w3.org/2000/svg">
  <g id="coronavirus">
    <path d="M35.8921 9.29751C35.4115 9.20335 34.9233 9.3018 34.5169 9.57481C34.1804 9.80098 33.9334 10.1246 33.805 10.502L31.7167 9.59008C31.721 9.44717 31.7232 9.30633 31.7232 9.16915C31.7232 7.94138 31.5695 6.72227 31.2661 5.54125L32.2029 4.90585C32.7966 5.42586 33.6595 5.58133 34.415 5.25313C35.4316 4.81137 35.9185 3.63497 35.5234 2.57491L35.0824 1.3915C34.6827 0.318482 33.5327 -0.246858 32.4646 0.103686C31.9241 0.281185 31.4891 0.65988 31.2398 1.16995C31.098 1.46005 31.0265 1.77123 31.0264 2.08392L29.9637 2.23232C29.8181 1.96543 29.659 1.69497 29.4892 1.42554C29.3135 1.14689 28.9451 1.06347 28.6666 1.23906C28.3878 1.41473 28.3043 1.783 28.48 2.06166C28.6805 2.37968 28.8642 2.69833 29.026 3.00895C29.1885 3.32037 29.5311 3.49699 29.8778 3.44864L31.7942 3.18112C31.972 3.15631 32.1292 3.05269 32.2221 2.89905C32.315 2.74541 32.3338 2.55805 32.2732 2.38906C32.1909 2.15971 32.2045 1.91279 32.3115 1.69378C32.4182 1.4754 32.6047 1.31325 32.8367 1.23707C33.2866 1.08947 33.7923 1.34562 33.9647 1.80813L34.4056 2.99154C34.5763 3.44952 34.3672 3.97335 33.9395 4.15927C33.5301 4.33709 33.0481 4.18464 32.8177 3.80475C32.733 3.66503 32.5945 3.56618 32.4349 3.53135C32.2753 3.49644 32.1082 3.5288 31.973 3.6205L30.3835 4.69861C30.0886 4.89853 29.9544 5.26411 30.0495 5.60829C30.3686 6.76354 30.5303 7.96165 30.5303 9.16923C30.5303 9.36709 30.5253 9.57385 30.5156 9.78388C30.4998 10.126 30.6996 10.4477 31.0128 10.5845L33.9927 11.8858C34.1585 11.9582 34.3481 11.9515 34.5082 11.8676C34.6684 11.7837 34.7818 11.6316 34.8167 11.4541L34.9112 10.973C34.9441 10.8053 35.0404 10.6604 35.1823 10.565C35.324 10.4697 35.4945 10.4353 35.6623 10.4683C36.0087 10.5362 36.2352 10.8732 36.1672 11.2195L35.6786 13.7099C35.6445 13.8833 35.5438 14.0311 35.3947 14.1262C35.2459 14.2213 35.0688 14.25 34.8964 14.2079C34.5703 14.1278 34.3608 13.7786 34.4292 13.4294L34.4423 13.3628C34.4774 13.1832 34.4282 12.9973 34.3087 12.8587C34.1891 12.7199 34.0113 12.6433 33.8298 12.6522L30.6063 12.7993C30.2651 12.8148 29.9633 13.0437 29.8555 13.3691C29.5569 14.2707 29.1605 15.1419 28.6773 15.9583C28.4973 16.2623 28.5289 16.6476 28.7558 16.9172L30.1818 18.6113C30.2878 18.7372 30.441 18.8136 30.6051 18.8228C30.7694 18.8317 30.9302 18.7727 31.0492 18.6594C31.3689 18.3553 31.8548 18.3293 32.2047 18.5971C32.3941 18.742 32.5156 18.9519 32.5471 19.1883C32.5786 19.4246 32.516 19.6591 32.3712 19.8484L31.958 20.3885C31.6611 20.7763 31.1067 20.876 30.722 20.611C30.3951 20.3857 30.2553 19.9658 30.3821 19.5899C30.4808 19.2971 30.3397 18.9775 30.0567 18.8532L28.0025 17.951C27.6758 17.8073 27.2945 17.8885 27.0533 18.153C26.1374 19.1589 25.0796 20.0158 23.9094 20.7001C23.6138 20.8727 23.4525 21.2151 23.5077 21.5521L24.0336 24.7588C24.0628 24.9373 24.1715 25.0928 24.329 25.1817C24.4865 25.2706 24.6757 25.2832 24.8438 25.2161L25.2988 25.034C25.4629 24.9684 25.6418 24.9726 25.8026 25.0461C25.9633 25.1195 26.0837 25.2523 26.1419 25.4203C26.2518 25.7375 26.0723 26.1032 25.7418 26.2354L23.418 27.1651C23.2539 27.2307 23.0751 27.2264 22.9142 27.153C22.7535 27.0796 22.6331 26.9468 22.5748 26.7789C22.4649 26.4617 22.6443 26.0959 22.9746 25.9638L23.0375 25.9386C23.2075 25.8706 23.3368 25.7284 23.3884 25.5527C23.4398 25.377 23.4079 25.1874 23.3015 25.0384L21.4267 22.4116C21.2283 22.1335 20.8721 22.0044 20.541 22.0903C19.4479 22.3736 18.318 22.5173 17.1824 22.5173C16.2832 22.5173 15.3818 22.4265 14.5034 22.2474C14.168 22.1791 13.8195 22.3265 13.6356 22.6144L11.759 25.5576C11.6618 25.71 11.639 25.8984 11.6972 26.0697C11.7551 26.241 11.8878 26.3767 12.0577 26.4386L12.1241 26.4629C12.352 26.5459 12.5338 26.7127 12.6362 26.9326C12.7385 27.1524 12.7491 27.399 12.6661 27.6269C12.6422 27.6923 12.63 27.7615 12.63 27.8312C12.63 28.0568 12.5634 28.2277 12.4426 28.3122C12.3218 28.3968 12.1385 28.4009 11.9264 28.3235L9.62119 27.4829C9.15955 27.3146 8.91382 26.7999 9.07326 26.3355C9.14937 26.1141 9.31319 25.934 9.53458 25.8284C9.76847 25.7168 10.0404 25.703 10.2803 25.7905L10.3331 25.8097C10.5049 25.8725 10.6963 25.8527 10.8518 25.7562C11.0075 25.6597 11.11 25.497 11.1302 25.3151L11.5122 21.8659C11.5498 21.5265 11.3707 21.193 11.0666 21.036C9.67216 20.3159 8.4245 19.3633 7.35864 18.2052C7.12404 17.9501 6.75155 17.8668 6.4317 17.9981L3.61852 19.1518C3.46242 19.2158 3.34074 19.3429 3.28365 19.5016C3.22647 19.6603 3.23927 19.8358 3.31872 19.9846C3.49725 20.3186 3.39267 20.7278 3.07553 20.9363C2.74861 21.1514 2.29086 21.0508 2.05547 20.712L1.3349 19.6748C1.1038 19.3422 1.15883 18.8956 1.46015 18.6582C1.61594 18.5354 1.80926 18.4816 2.0041 18.5067C2.20044 18.532 2.37412 18.6326 2.49333 18.7903C2.60117 18.9329 2.76737 19.0197 2.94614 19.0266C3.12428 19.0334 3.29724 18.9598 3.41574 18.8258L5.39717 16.5862C5.6297 16.3234 5.67137 15.9401 5.50079 15.632C5.28774 15.2478 5.08957 14.8431 4.91191 14.4293C4.78181 14.1267 4.43118 13.9867 4.12843 14.1167C3.82576 14.2467 3.6858 14.5974 3.81574 14.9001C3.97503 15.2707 4.14943 15.635 4.33567 15.9858L2.91648 17.59C2.68825 17.45 2.43075 17.3587 2.15647 17.3234C1.64059 17.2572 1.13148 17.3984 0.721845 17.7211C-0.0741149 18.3484 -0.235072 19.5055 0.355397 20.3553L1.07597 21.3925C1.67725 22.258 2.86821 22.5003 3.73113 21.9328C4.37647 21.5084 4.68749 20.7681 4.57894 20.047L6.65294 19.1964C7.71809 20.3148 8.94276 21.2496 10.2995 21.9797L10.0157 24.5418C9.67518 24.5321 9.33259 24.6029 9.02102 24.7515C8.50824 24.9961 8.12613 25.4208 7.94513 25.9477C7.57598 27.0226 8.14458 28.214 9.21259 28.6034L11.5178 29.444C11.7492 29.5284 11.9816 29.57 12.2055 29.57C12.5427 29.57 12.8605 29.4754 13.1265 29.2893C13.5439 28.9972 13.7934 28.5078 13.8205 27.9355C13.9752 27.4367 13.9397 26.9056 13.7177 26.4288C13.5754 26.1231 13.3666 25.8618 13.1083 25.6601L14.5088 23.4635C16.52 23.8377 18.6172 23.7826 20.5991 23.305L21.96 25.2119C21.4244 25.6967 21.2019 26.4596 21.4477 27.1693C21.6137 27.6482 21.9585 28.0277 22.4187 28.2379C22.8724 28.4451 23.3979 28.4576 23.861 28.2725L26.1849 27.3429C27.1135 26.9714 27.5897 25.9553 27.2691 25.0297C27.1031 24.5508 26.7583 24.1712 26.2982 23.961C25.9207 23.7886 25.4932 23.7508 25.0935 23.8499L24.7249 21.6026C25.8412 20.9241 26.86 20.0994 27.7587 19.1468L29.1466 19.7563C29.1078 20.4693 29.4384 21.175 30.0452 21.5933C30.9605 22.224 32.2169 22.0131 32.9054 21.1134L33.3186 20.5734C33.6571 20.131 33.8031 19.5832 33.7297 19.031C33.6562 18.4788 33.3721 17.9882 32.9296 17.6496C32.2841 17.1557 31.4415 17.0892 30.7476 17.4311L29.8325 16.3438C30.2602 15.5908 30.621 14.7975 30.9077 13.9796L33.247 13.8729C33.363 14.586 33.8827 15.1872 34.6121 15.3663C35.1043 15.4872 35.6103 15.4037 36.0367 15.1316C36.457 14.8632 36.7532 14.4287 36.8492 13.9394L37.3378 11.449C37.5324 10.4572 36.8838 9.4921 35.8921 9.29751L35.8921 9.29751Z" transform="translate(3.2626474 10.354891)" id="Path" fill="#40B5F0" stroke="none" />
    <path d="M3.84278 21.1898L6.07837 21.7062C6.12704 22.017 6.18724 22.3326 6.25802 22.6475C6.32028 22.9249 6.56649 23.1134 6.83942 23.1133C6.88268 23.1133 6.92666 23.1086 6.97063 23.0987C7.29199 23.0265 7.49406 22.7075 7.42186 22.3861C7.33971 22.02 7.27299 21.6533 7.22368 21.2962C7.17668 20.9564 6.92109 20.6763 6.5878 20.5994L3.42154 19.8682C3.24555 19.8275 3.0601 19.869 2.91815 19.9809C2.77612 20.0928 2.69254 20.2632 2.69095 20.444L2.68769 20.8147C2.68395 21.2296 2.34335 21.5673 1.92831 21.5673C1.73069 21.5673 1.54516 21.49 1.40607 21.3496C1.2669 21.2092 1.19128 21.0231 1.19302 20.8255L1.2137 18.5253C1.21553 18.3144 1.30515 18.1081 1.45951 17.9592C1.60456 17.8192 1.78787 17.7442 1.98151 17.7499C2.38438 17.7605 2.71043 18.0974 2.7082 18.5008C2.70717 18.6835 2.78996 18.8566 2.93286 18.9705C3.07577 19.0845 3.26313 19.1266 3.44078 19.0848L6.58478 18.3476C6.91783 18.2695 7.17231 17.9887 7.21819 17.6488C7.45017 15.9285 8.00835 14.293 8.87715 12.7878C9.05243 12.4839 9.01791 12.1004 8.79087 11.8335L7.2916 10.0727C7.17438 9.93511 7.00205 9.85781 6.82025 9.86314C6.63949 9.86839 6.47082 9.95531 6.36172 10.0995L6.23177 10.2713C6.13467 10.3996 5.99312 10.4803 5.83312 10.4987C5.67367 10.517 5.51693 10.4701 5.39263 10.3665C5.15772 10.1708 5.12607 9.80071 5.32209 9.54154L6.32076 8.22112C6.51464 7.96481 6.88093 7.91391 7.13724 8.10787C7.37724 8.28935 7.43872 8.63027 7.27728 8.88403C7.1836 9.03139 7.15919 9.21231 7.21048 9.37923C7.26177 9.54615 7.38361 9.68222 7.54377 9.75148L9.64027 10.6582C9.96529 10.7989 10.3447 10.7173 10.5844 10.4549C11.5388 9.40937 12.6452 8.52633 13.873 7.83033C14.1705 7.66158 14.3363 7.32154 14.2857 6.98388L13.8027 3.77045C13.7759 3.5916 13.6692 3.43462 13.513 3.34364C13.3565 3.25259 13.1673 3.23748 12.9987 3.30237L12.5412 3.47836C12.3763 3.54166 12.1975 3.53506 12.0378 3.45951C11.8781 3.38404 11.7594 3.24957 11.7035 3.0809C11.5978 2.76216 11.7821 2.39897 12.1144 2.27118L14.4505 1.37263C14.6155 1.30917 14.7942 1.31593 14.954 1.39148C15.1137 1.46695 15.2324 1.60142 15.2883 1.77009C15.3939 2.08883 15.2097 2.45202 14.8774 2.57989L14.8142 2.60423C14.6434 2.66999 14.5122 2.81051 14.4583 2.98547C14.4046 3.16042 14.434 3.3504 14.5384 3.50078L16.3775 6.15197C16.572 6.43237 16.926 6.56621 17.2583 6.48486C18.2948 6.23102 19.367 6.10227 20.4463 6.10227L20.4466 6.10227C20.7985 6.10227 21.114 5.88047 21.2316 5.55069L21.8405 3.8468C21.8951 3.69395 21.8851 3.52536 21.8127 3.38015C21.7403 3.23485 21.6119 3.12527 21.4569 3.07684C21.0135 2.93815 20.7314 2.50267 20.7861 2.04143C20.8153 1.79602 20.9442 1.57264 21.149 1.41239C21.3642 1.24412 21.6394 1.16674 21.9046 1.20022L22.7409 1.30551C23.2829 1.37374 23.6778 1.8532 23.6211 2.37424C23.5772 2.77648 23.2957 3.10269 22.9037 3.20527C22.6166 3.28042 22.4284 3.55526 22.4622 3.85014L22.6738 5.69653C22.7141 6.04891 22.9745 6.33694 23.3219 6.41337C24.6541 6.70602 25.9307 7.20201 27.1158 7.88735C27.4127 8.05913 27.7905 8.02954 28.056 7.81403L30.5792 5.76588C30.7197 5.65192 30.8007 5.48039 30.7997 5.29955C30.7987 5.11879 30.7158 4.94813 30.5742 4.83568L30.1903 4.53086C30.052 4.42104 29.9669 4.26358 29.9508 4.08744C29.9348 3.91161 29.9903 3.74111 30.1073 3.60727C30.3282 3.3543 30.7346 3.32869 31.0136 3.55001L32.9739 5.10638C33.1122 5.21621 33.1973 5.37366 33.2134 5.54973C33.2294 5.72556 33.1739 5.89606 33.0569 6.02998C32.836 6.28279 32.4293 6.30839 32.1508 6.08732L32.0979 6.04533C31.9544 5.93137 31.7666 5.8897 31.5887 5.93216C31.4106 5.97463 31.2619 6.09654 31.1853 6.26283L29.8338 9.19664C29.6908 9.50695 29.7557 9.88008 29.9948 10.1251C30.0796 10.2119 30.1633 10.3018 30.2629 10.41C30.486 10.6524 30.8634 10.668 31.1057 10.4449C31.3481 10.2217 31.3636 9.84445 31.1406 9.60206C31.0984 9.55617 31.0587 9.51323 31.0203 9.47212L32.0018 7.34134C32.6885 7.56591 33.4612 7.38054 33.9553 6.81489C34.2888 6.43309 34.4472 5.94537 34.4012 5.44158C34.356 4.94487 34.106 4.48228 33.7155 4.17229L31.7552 2.616C30.972 1.99419 29.8536 2.08477 29.2089 2.82268C28.8754 3.20448 28.717 3.6922 28.763 4.19599C28.8007 4.60936 28.98 4.99918 29.2644 5.297L27.4968 6.73202C26.3422 6.09034 25.1108 5.61152 23.8301 5.30607L23.6991 4.16195C24.3053 3.82668 24.7305 3.20925 24.8074 2.50347C24.9341 1.33939 24.074 0.271138 22.8903 0.12203L22.054 0.0167394C21.4762 -0.0559459 20.8784 0.11026 20.4147 0.472812C19.9576 0.830274 19.6689 1.3374 19.6021 1.90083C19.5047 2.71993 19.8826 3.50261 20.5389 3.94525L20.1936 4.91155C19.1885 4.92873 18.1896 5.04873 17.2171 5.26909L15.8824 3.34492C16.4243 2.86745 16.6571 2.1076 16.4208 1.39474C16.2612 0.913536 15.9215 0.529433 15.4642 0.313127C15.0133 0.099922 14.488 0.0802794 14.0225 0.259289L11.6865 1.15776C10.753 1.51673 10.2632 2.52637 10.5715 3.45625C10.731 3.93745 11.0707 4.32156 11.528 4.53786C11.9032 4.71528 12.3299 4.75878 12.7311 4.66502L13.0696 6.917C11.8919 7.61132 10.8206 8.46589 9.87916 9.4617L8.53257 8.87934C8.642 8.24179 8.39842 7.56591 7.85701 7.15636C7.47872 6.87024 7.01183 6.74832 6.54184 6.81377C6.07201 6.8789 5.6557 7.1232 5.36965 7.5015L4.3709 8.82192C3.78648 9.59442 3.89996 10.6755 4.6292 11.283C5.00654 11.5973 5.48234 11.7398 5.96934 11.6838C6.27639 11.6485 6.56808 11.5325 6.81477 11.3526L7.71824 12.4138C6.8834 13.9198 6.33014 15.5421 6.07137 17.2428L3.76349 17.7839C3.48333 17.0848 2.80546 16.5783 2.01308 16.5574C1.49721 16.5445 1.00837 16.7368 0.631105 17.1008C0.248115 17.4704 0.025606 17.9857 0.020755 18.5145L7.86438e-05 20.8148C-0.00453377 21.3331 0.19388 21.8213 0.558658 22.1894C0.923437 22.5575 1.40989 22.7603 1.92823 22.7603C2.87059 22.7603 3.66385 22.0832 3.84278 21.1898Z" transform="translate(8.8066616E-07 0.07367988)" id="Path" fill="#40B5F0" stroke="none" />
    <path d="M6.12404 8.00406C6.41502 7.84986 6.52596 7.48882 6.37168 7.19776C6.21748 6.90686 5.8566 6.79569 5.5653 6.95012C4.13998 7.70561 2.51538 7.50592 1.70288 6.47497C1.24696 5.89666 1.09014 5.13029 1.26128 4.31715C1.44069 3.46449 1.95378 2.66837 2.706 2.07551C3.45806 1.48258 4.35208 1.17005 5.22295 1.19422C6.05358 1.21768 6.76206 1.54914 7.21806 2.12752C7.9026 2.99601 7.89394 4.29234 7.19587 5.43009C7.02362 5.71089 7.11149 6.07814 7.39237 6.25039C7.6731 6.42264 8.04034 6.33468 8.21259 6.05396C9.17499 4.48542 9.15225 2.65437 8.15478 1.38906C7.47619 0.528128 6.44691 0.0354738 5.25667 0.00191444C4.10642 -0.0314858 2.93869 0.373135 1.96754 1.13872C0.996224 1.9043 0.330923 2.94591 0.0939398 4.0715C-0.151314 5.23669 0.0874188 6.35258 0.766001 7.21343C1.48053 8.11985 2.59936 8.59668 3.80304 8.5966C4.56989 8.5966 5.3711 8.40319 6.12404 8.00406L6.12404 8.00406Z" transform="translate(11.368315 10.003612)" id="Path" fill="#40B5F0" stroke="none" />
    <path d="M5.13036 2.24251C5.13036 1.00598 3.97964 0 2.56522 0C1.1508 0 0 1.00598 0 2.24251C0 3.47904 1.1508 4.48502 2.56522 4.48502C3.97964 4.48502 5.13036 3.47904 5.13036 2.24251ZM1.19295 2.24251C1.19295 1.66373 1.80854 1.19287 2.5653 1.19287C3.32197 1.19287 3.93757 1.66373 3.93757 2.24251C3.93757 2.82129 3.32197 3.29215 2.5653 3.29215C1.80854 3.29215 1.19295 2.82129 1.19295 2.24251Z" transform="translate(23.935026 10.41627)" id="Shape" fill="#40B5F0" stroke="none" />
    <path d="M5.49665 2.74829C5.49665 1.23287 4.26378 0 2.74836 0C1.23287 0 0 1.23287 0 2.74829C0 4.2637 1.23287 5.49657 2.74836 5.49657C4.26378 5.49657 5.49665 4.2637 5.49665 2.74829ZM1.19295 2.74829C1.19295 1.89061 1.89069 1.19287 2.74844 1.19287C3.60604 1.19287 4.30386 1.89061 4.30386 2.74829C4.30386 3.60596 3.60612 4.3037 2.74844 4.3037C1.89069 4.3037 1.19295 3.60596 1.19295 2.74829L1.19295 2.74829Z" transform="translate(16.647327 20.161274)" id="Shape" fill="#40B5F0" stroke="none" />
    <path d="M4.27436 2.13722C4.27436 0.958747 3.31561 0 2.13714 0C0.958747 0 0 0.958747 0 2.13722C0 3.31569 0.958747 4.27444 2.13714 4.27444C3.31561 4.27436 4.27436 3.31569 4.27436 2.13722ZM1.19279 2.13722C1.19279 1.61649 1.61641 1.19287 2.13706 1.19287C2.65779 1.19287 3.08141 1.61649 3.08141 2.13722C3.08141 2.65795 2.65779 3.08157 2.13706 3.08157C1.61649 3.08149 1.19279 2.65795 1.19279 2.13722Z" transform="translate(25.64504 19.651283)" id="Shape" fill="#40B5F0" stroke="none" />
    <path d="M2.09444 4.18871C3.24921 4.18871 4.18879 3.24921 4.18879 2.09436C4.18879 0.939581 3.24929 0 2.09444 0C0.939581 0 0 0.939502 0 2.09436C0 3.24921 0.939502 4.18871 2.09444 4.18871ZM2.09444 1.19287C2.59154 1.19287 2.99592 1.59725 2.99592 2.09436C2.99592 2.59146 2.59154 2.99584 2.09444 2.99584C1.59733 2.99584 1.19287 2.59146 1.19287 2.09436C1.19287 1.59725 1.59733 1.19287 2.09444 1.19287Z" transform="translate(19.997614 27.213024)" id="Shape" fill="#40B5F0" stroke="none" />
    <path d="M2.15686 4.31372C3.34615 4.31372 4.31372 3.34615 4.31372 2.15686C4.31372 0.967574 3.34615 0 2.15686 0C0.967574 0 0 0.967574 0 2.15686C0 3.34615 0.967574 4.31372 2.15686 4.31372ZM2.15686 1.19287C2.68848 1.19287 3.12086 1.62532 3.12086 2.15686C3.12086 2.6884 2.6884 3.12086 2.15686 3.12086C1.62532 3.12086 1.19287 2.6884 1.19287 2.15686C1.19287 1.62532 1.62532 1.19287 2.15686 1.19287Z" transform="translate(10.562277 23.567385)" id="Shape" fill="#40B5F0" stroke="none" />
    <path d="M1.72011 0.596433C1.72011 0.267043 1.45315 0 1.12368 0L0.596433 0C0.266964 0 0 0.267043 0 0.596433C0 0.925824 0.266964 1.19287 0.596433 1.19287L1.12368 1.19287C1.45315 1.19287 1.72011 0.925824 1.72011 0.596433Z" transform="translate(23.144236 17.663412)" id="Path" fill="#40B5F0" stroke="none" />
    <path d="M0.596433 1.19287L1.13815 1.19287C1.46762 1.19287 1.73459 0.925824 1.73459 0.596433C1.73459 0.267043 1.46762 0 1.13815 0L0.596433 0C0.266964 0 0 0.267043 0 0.596433C0 0.925824 0.267043 1.19287 0.596433 1.19287Z" transform="translate(16.105686 28.089066)" id="Path" fill="#40B5F0" stroke="none" />
    <path d="M1.11827 1.19287C1.44774 1.19287 1.71471 0.925824 1.71471 0.596433C1.71471 0.267043 1.44774 0 1.11827 0L0.596433 0C0.266964 0 0 0.267043 0 0.596433C0 0.925824 0.266964 1.19287 0.596433 1.19287L1.11827 1.19287Z" transform="translate(10.562277 19.403248)" id="Path" fill="#40B5F0" stroke="none" />
    <path d="M1.32265 1.19287C1.65212 1.19287 1.91908 0.925824 1.91908 0.596433C1.91908 0.267043 1.65212 0 1.32265 0L0.596433 0C0.266964 0 0 0.267043 0 0.596433C0 0.925824 0.266964 1.19287 0.596433 1.19287L1.32265 1.19287Z" transform="translate(20.95111 8.968289)" id="Path" fill="#40B5F0" stroke="none" />
    <path d="M0.596433 0C0.266964 0 0 0.267043 0 0.596433C0 0.925824 0.266964 1.19287 0.596433 1.19287L1.39836 1.19287C1.72783 1.19287 1.99479 0.925824 1.99479 0.596433C1.99479 0.267043 1.72783 0 1.39836 0L0.596433 0Z" transform="translate(25.644962 26.147396)" id="Path" fill="#40B5F0" stroke="none" />
  </g>
</svg>