<?xml version="1.0" encoding="utf-8"?>
<svg width="39px" height="40px" viewBox="0 0 39 40" version="1.1" xmlns:xlink="http://www.w3.org/1999/xlink" xmlns="http://www.w3.org/2000/svg">
  <g id="donation">
    <path d="M37.8906 22.1237L28.9414 22.1237C29.0188 22.0005 29.0932 21.875 29.1619 21.7455C30.3296 19.5462 29.9822 16.9374 28.4891 15.1237L25.4253 9.71859C23.7101 6.5418 20.7611 6.25172 17.909 5.97117C17.5001 5.93094 17.0772 5.88937 16.6614 5.83977C13.7771 5.495 13.2142 5.18609 11.1196 4.03687C10.8722 3.90109 10.6042 3.75406 10.3103 3.59492C10.3524 3.30937 10.3306 3.01531 10.243 2.73039C10.0885 2.22789 9.74894 1.81687 9.28972 1.57461L6.76659 0.230077C6.30417 -0.0156257 5.77284 -0.0665632 5.27074 0.0870305C4.76792 0.240702 4.35581 0.580312 4.1105 1.04281L0.230189 8.34766C-0.0155925 8.80945 -0.06653 9.34039 0.0869075 9.84281C0.240423 10.3455 0.57972 10.7578 1.0423 11.0035L3.56456 12.3477C3.85722 12.5031 4.17175 12.5768 4.48222 12.5768C5.18566 12.5767 5.86745 12.1982 6.22066 11.5348L6.25816 11.4642C7.05433 11.9581 7.52066 12.425 7.94542 13.1152C9.19425 15.1409 10.4151 15.731 11.5958 16.3016C12.0064 16.5 12.3943 16.6875 12.7991 16.94L17.9239 20.1359C17.9618 20.1594 18.0002 20.1828 18.0389 20.2061C18.1875 20.8903 18.4525 21.5386 18.82 22.1237L10.699 22.1237C10.2675 22.1237 9.91777 22.4734 9.91777 22.9049L9.91777 37.538C9.91777 38.8955 11.0215 40 12.3783 40L36.2114 40C37.5681 40 38.6718 38.8955 38.6718 37.538L38.6718 22.905C38.6718 22.4735 38.3221 22.1237 37.8906 22.1237ZM27.782 21.0129C27.5616 21.428 27.2799 21.8002 26.9441 22.1237L20.8194 22.1237C20.4049 21.7255 20.0736 21.2516 19.8426 20.7291C19.9055 20.7199 19.9685 20.7077 20.0315 20.6908C20.508 20.5626 20.8919 20.2298 21.1725 19.7019C21.6994 18.7105 21.488 17.1015 20.7583 15.8084C22.1151 14.4457 24.2185 14.1071 25.9561 15.031C28.1056 16.1773 28.9246 18.8606 27.782 21.0129L27.782 21.0129ZM19.7909 14.5706L17.2054 11.8859C17.1981 11.877 17.1912 11.8684 17.1848 11.8603C17.2757 11.8252 17.4157 11.7836 17.6247 11.7484C19.6746 11.4056 20.2641 11.9824 21.2186 13.5743C20.7036 13.8308 20.2221 14.1645 19.7909 14.5706ZM4.84105 10.8012C4.73863 10.9937 4.48972 11.0701 4.29839 10.9684L1.77613 9.62422C1.77581 9.62406 1.7755 9.62391 1.77519 9.62375C1.64886 9.55664 1.59941 9.44633 1.5812 9.38656C1.56292 9.3268 1.5423 9.20781 1.60972 9.08133L5.49066 1.77539C5.55769 1.64898 5.66777 1.59953 5.72738 1.58133C5.75597 1.57266 5.79808 1.56336 5.848 1.56336C5.90269 1.56336 5.96675 1.57445 6.03269 1.60945L8.55792 2.95516C8.68222 3.0207 8.73136 3.13008 8.74956 3.18937C8.76808 3.24953 8.78902 3.36937 8.72136 3.49648L4.84105 10.8012ZM18.75 18.8097L13.6259 15.6143C13.15 15.3173 12.7054 15.1026 12.2757 14.8948C11.1634 14.3573 10.2849 13.9327 9.27574 12.2958C8.64495 11.2709 7.91339 10.6385 6.993 10.0809L9.67675 5.02875C9.92456 5.16336 10.1543 5.28937 10.3682 5.40672C12.4953 6.57383 13.2912 7.01055 16.4764 7.39125C16.9085 7.44273 17.3395 7.48516 17.7563 7.52617C20.5372 7.79969 22.7339 8.01578 24.0539 10.467C24.0567 10.472 24.0593 10.477 24.0621 10.4819L25.6059 13.2054C24.6587 12.9187 23.6721 12.8766 22.7307 13.0611C21.591 11.1238 20.5368 9.67719 17.3666 10.2075C16.4162 10.367 15.8269 10.7419 15.6151 11.3217C15.4864 11.6744 15.4535 12.237 16.0288 12.9142C16.0393 12.9266 16.0502 12.9387 16.0615 12.9504L18.8984 15.8962C19.798 16.8285 20.0832 18.4223 19.7929 18.9686C19.7077 19.129 19.6419 19.1776 19.6257 19.182C19.5932 19.1906 19.3992 19.2136 18.75 18.8097L18.75 18.8097ZM36.2113 38.4375L12.3783 38.4375C11.8832 38.4375 11.4803 38.034 11.4803 37.538L11.4803 28.3166L15.7059 28.3166C16.1374 28.3166 16.4871 27.9668 16.4871 27.5353C16.4871 27.1038 16.1374 26.7541 15.7059 26.7541L11.4803 26.7541L11.4803 23.6862L37.1093 23.6862L37.1093 26.7541L22.715 26.7541C22.2835 26.7541 21.9338 27.1038 21.9338 27.5353C21.9338 27.9668 22.2835 28.3166 22.715 28.3166L37.1093 28.3166L37.1093 37.538C37.1093 38.034 36.7065 38.4375 36.2113 38.4375Z" transform="translate(0.03910815 7.306168E-07)" id="Shape" fill="#40B5F0" stroke="none" />
    <path d="M15.6982 4.44089e-15L0.78125 4.44089e-15C0.349766 4.44089e-15 0 0.349766 0 0.78125L0 4.76516C0 5.19664 0.349766 5.54641 0.78125 5.54641L15.6982 5.54641C16.1297 5.54641 16.4795 5.19664 16.4795 4.76516L16.4795 0.78125C16.4795 0.349766 16.1297 0 15.6982 0L15.6982 4.44089e-15ZM14.917 3.98391L1.5625 3.98391L1.5625 1.5625L14.917 1.5625L14.917 3.98391Z" transform="translate(16.094297 30.603046)" id="Shape" fill="#40B5F0" stroke="none" />
    <path d="M0.781172 1.5625L0.785625 1.5625C1.21711 1.5625 1.56469 1.21273 1.56469 0.78125C1.56469 0.349766 1.21273 0 0.78125 0C0.349766 0 0 0.349766 0 0.78125C0 1.21273 0.349688 1.5625 0.781172 1.5625Z" transform="translate(18.468359 26.75422)" id="Path" fill="#40B5F0" stroke="none" />
  </g>
</svg>