<svg id="dooted" xmlns="http://www.w3.org/2000/svg" width="340" height="563" viewBox="0 0 340 563">
  <path id="Oval_Copy_167" data-name="Oval Copy 167" d="M335.944,270.973A2.028,2.028,0,1,1,337.973,273,2.028,2.028,0,0,1,335.944,270.973Zm-22.982-1.352a2.028,2.028,0,1,1,2.028,2.028A2.027,2.027,0,0,1,312.962,269.621Zm-22.306,0a2.028,2.028,0,1,1,2.028,2.028A2.027,2.027,0,0,1,290.656,269.621Zm-22.306,0a2.028,2.028,0,1,1,2.028,2.028A2.027,2.027,0,0,1,268.35,269.621Zm-22.307,0a2.028,2.028,0,1,1,2.028,2.028A2.027,2.027,0,0,1,246.044,269.621Zm-24.334,0a2.028,2.028,0,1,1,2.028,2.028A2.027,2.027,0,0,1,221.71,269.621Zm-20.954,0a2.028,2.028,0,1,1,2.028,2.028A2.027,2.027,0,0,1,200.756,269.621Zm-22.982,0a2.028,2.028,0,1,1,2.028,2.028A2.027,2.027,0,0,1,177.773,269.621Zm-21.631,0a2.028,2.028,0,1,1,2.029,2.028A2.027,2.027,0,0,1,156.143,269.621Zm-22.982,0a2.028,2.028,0,1,1,2.028,2.028A2.027,2.027,0,0,1,133.161,269.621Zm-20.955,0a2.028,2.028,0,1,1,2.028,2.028A2.027,2.027,0,0,1,112.207,269.621Zm-24.334,0a2.028,2.028,0,1,1,2.029,2.028A2.027,2.027,0,0,1,87.872,269.621Zm-20.278,0a2.028,2.028,0,1,1,2.028,2.028A2.027,2.027,0,0,1,67.595,269.621Zm-22.307,0a2.028,2.028,0,1,1,2.028,2.028A2.027,2.027,0,0,1,45.288,269.621Zm-22.306,0a2.028,2.028,0,1,1,2.028,2.028A2.027,2.027,0,0,1,22.982,269.621ZM0,269.621a2.028,2.028,0,1,1,2.028,2.028A2.027,2.027,0,0,1,0,269.621ZM335.944,248a2.028,2.028,0,1,1,2.029,2.027A2.028,2.028,0,0,1,335.944,248Zm-22.982,0a2.028,2.028,0,1,1,2.028,2.027A2.028,2.028,0,0,1,312.962,248Zm-22.306,0a2.028,2.028,0,1,1,2.028,2.027A2.028,2.028,0,0,1,290.656,248Zm-22.306,0a2.028,2.028,0,1,1,2.028,2.027A2.027,2.027,0,0,1,268.35,248Zm-23.658,0a2.028,2.028,0,1,1,2.028,2.027A2.028,2.028,0,0,1,244.692,248Zm-22.982,0a2.028,2.028,0,1,1,2.028,2.027A2.028,2.028,0,0,1,221.71,248Zm-18.926,0a2.028,2.028,0,1,1,2.028,2.027A2.028,2.028,0,0,1,202.784,248Zm-25.01,0a2.028,2.028,0,1,1,2.028,2.027A2.028,2.028,0,0,1,177.773,248Zm-21.631,0a2.028,2.028,0,1,1,2.029,2.027A2.028,2.028,0,0,1,156.143,248Zm-22.982,0a2.028,2.028,0,1,1,2.028,2.027A2.027,2.027,0,0,1,133.161,248Zm-22.982,0a2.028,2.028,0,1,1,2.028,2.027A2.028,2.028,0,0,1,110.179,248Zm-22.307,0a2.028,2.028,0,1,1,2.029,2.027A2.028,2.028,0,0,1,87.872,248Zm-20.278,0a2.028,2.028,0,1,1,2.028,2.027A2.028,2.028,0,0,1,67.595,248Zm-22.307,0a2.028,2.028,0,1,1,2.028,2.027A2.028,2.028,0,0,1,45.288,248Zm-22.306,0a2.028,2.028,0,1,1,2.028,2.027A2.027,2.027,0,0,1,22.982,248ZM0,248a2.028,2.028,0,1,1,2.028,2.027A2.028,2.028,0,0,1,0,248Zm335.944-22.3a2.028,2.028,0,1,1,2.029,2.027A2.028,2.028,0,0,1,335.944,225.7Zm-22.982,0a2.028,2.028,0,1,1,2.028,2.027A2.028,2.028,0,0,1,312.962,225.7Zm-22.306,0a2.028,2.028,0,1,1,2.028,2.027A2.028,2.028,0,0,1,290.656,225.7Zm-22.306,0a2.028,2.028,0,1,1,2.028,2.027A2.027,2.027,0,0,1,268.35,225.7Zm-23.658,0a2.028,2.028,0,1,1,2.028,2.027A2.028,2.028,0,0,1,244.692,225.7Zm-22.982,0a2.028,2.028,0,1,1,2.028,2.027A2.028,2.028,0,0,1,221.71,225.7Zm-18.926,0a2.028,2.028,0,1,1,2.028,2.027A2.028,2.028,0,0,1,202.784,225.7Zm-25.01,0a2.028,2.028,0,1,1,2.028,2.027A2.028,2.028,0,0,1,177.773,225.7Zm-21.631,0a2.028,2.028,0,1,1,2.029,2.027A2.028,2.028,0,0,1,156.143,225.7Zm-22.982,0a2.028,2.028,0,1,1,2.028,2.027A2.027,2.027,0,0,1,133.161,225.7Zm-22.982,0a2.028,2.028,0,1,1,2.028,2.027A2.028,2.028,0,0,1,110.179,225.7Zm-22.307,0a2.028,2.028,0,1,1,2.029,2.027A2.028,2.028,0,0,1,87.872,225.7Zm-20.278,0a2.028,2.028,0,1,1,2.028,2.027A2.028,2.028,0,0,1,67.595,225.7Zm-22.307,0a2.028,2.028,0,1,1,2.028,2.027A2.028,2.028,0,0,1,45.288,225.7Zm-22.306,0a2.028,2.028,0,1,1,2.028,2.027A2.027,2.027,0,0,1,22.982,225.7ZM0,225.7a2.028,2.028,0,1,1,2.028,2.027A2.028,2.028,0,0,1,0,225.7Zm335.944-22.975a2.028,2.028,0,1,1,2.029,2.027A2.028,2.028,0,0,1,335.944,202.723Zm-22.982,0a2.028,2.028,0,1,1,2.028,2.027A2.028,2.028,0,0,1,312.962,202.723Zm-22.306,0a2.028,2.028,0,1,1,2.028,2.027A2.028,2.028,0,0,1,290.656,202.723Zm-22.306,0a2.028,2.028,0,1,1,2.028,2.027A2.027,2.027,0,0,1,268.35,202.723Zm-22.307,0a2.028,2.028,0,1,1,2.028,2.027A2.028,2.028,0,0,1,246.044,202.723Zm-24.334,0a2.028,2.028,0,1,1,2.028,2.027A2.028,2.028,0,0,1,221.71,202.723Zm-20.954,0a2.028,2.028,0,1,1,2.028,2.027A2.027,2.027,0,0,1,200.756,202.723Zm-22.982,0a2.028,2.028,0,1,1,2.028,2.027A2.028,2.028,0,0,1,177.773,202.723Zm-21.631,0a2.028,2.028,0,1,1,2.029,2.027A2.028,2.028,0,0,1,156.143,202.723Zm-22.982,0a2.028,2.028,0,1,1,2.028,2.027A2.027,2.027,0,0,1,133.161,202.723Zm-20.955,0a2.028,2.028,0,1,1,2.028,2.027A2.028,2.028,0,0,1,112.207,202.723Zm-24.334,0A2.028,2.028,0,1,1,89.9,204.75,2.028,2.028,0,0,1,87.872,202.723Zm-20.278,0a2.028,2.028,0,1,1,2.028,2.027A2.028,2.028,0,0,1,67.595,202.723Zm-22.307,0a2.028,2.028,0,1,1,2.028,2.027A2.028,2.028,0,0,1,45.288,202.723Zm-22.306,0a2.028,2.028,0,1,1,2.028,2.027A2.027,2.027,0,0,1,22.982,202.723ZM0,202.723a2.028,2.028,0,1,1,2.028,2.027A2.028,2.028,0,0,1,0,202.723ZM335.944,181.1a2.028,2.028,0,1,1,2.029,2.028A2.027,2.027,0,0,1,335.944,181.1Zm-22.982,0a2.028,2.028,0,1,1,2.028,2.028A2.027,2.027,0,0,1,312.962,181.1Zm-22.306,0a2.028,2.028,0,1,1,2.028,2.028A2.027,2.027,0,0,1,290.656,181.1Zm-22.306,0a2.028,2.028,0,1,1,2.028,2.028A2.027,2.027,0,0,1,268.35,181.1Zm-23.658,0a2.028,2.028,0,1,1,2.028,2.028A2.027,2.027,0,0,1,244.692,181.1Zm-22.982,0a2.028,2.028,0,1,1,2.028,2.028A2.027,2.027,0,0,1,221.71,181.1Zm-18.926,0a2.028,2.028,0,1,1,2.028,2.028A2.027,2.027,0,0,1,202.784,181.1Zm-25.01,0a2.028,2.028,0,1,1,2.028,2.028A2.027,2.027,0,0,1,177.773,181.1Zm-21.631,0a2.028,2.028,0,1,1,2.029,2.028A2.027,2.027,0,0,1,156.143,181.1Zm-22.982,0a2.028,2.028,0,1,1,2.028,2.028A2.027,2.027,0,0,1,133.161,181.1Zm-22.982,0a2.028,2.028,0,1,1,2.028,2.028A2.027,2.027,0,0,1,110.179,181.1Zm-22.307,0a2.028,2.028,0,1,1,2.029,2.028A2.027,2.027,0,0,1,87.872,181.1Zm-20.278,0a2.028,2.028,0,1,1,2.028,2.028A2.027,2.027,0,0,1,67.595,181.1Zm-22.307,0a2.028,2.028,0,1,1,2.028,2.028A2.027,2.027,0,0,1,45.288,181.1Zm-22.306,0a2.028,2.028,0,1,1,2.028,2.028A2.027,2.027,0,0,1,22.982,181.1ZM0,181.1a2.028,2.028,0,1,1,2.028,2.028A2.027,2.027,0,0,1,0,181.1Zm335.944-22.3a2.028,2.028,0,1,1,2.029,2.027A2.028,2.028,0,0,1,335.944,158.8Zm-22.982,0a2.028,2.028,0,1,1,2.028,2.027A2.028,2.028,0,0,1,312.962,158.8Zm-22.306,0a2.028,2.028,0,1,1,2.028,2.027A2.028,2.028,0,0,1,290.656,158.8Zm-22.306,0a2.028,2.028,0,1,1,2.028,2.027A2.027,2.027,0,0,1,268.35,158.8Zm-23.658,0a2.028,2.028,0,1,1,2.028,2.027A2.028,2.028,0,0,1,244.692,158.8Zm-22.982,0a2.028,2.028,0,1,1,2.028,2.027A2.028,2.028,0,0,1,221.71,158.8Zm-18.926,0a2.028,2.028,0,1,1,2.028,2.027A2.028,2.028,0,0,1,202.784,158.8Zm-25.01,0a2.028,2.028,0,1,1,2.028,2.027A2.028,2.028,0,0,1,177.773,158.8Zm-21.631,0a2.028,2.028,0,1,1,2.029,2.027A2.028,2.028,0,0,1,156.143,158.8Zm-22.982,0a2.028,2.028,0,1,1,2.028,2.027A2.027,2.027,0,0,1,133.161,158.8Zm-22.982,0a2.028,2.028,0,1,1,2.028,2.027A2.028,2.028,0,0,1,110.179,158.8Zm-22.307,0a2.028,2.028,0,1,1,2.029,2.027A2.028,2.028,0,0,1,87.872,158.8Zm-20.278,0a2.028,2.028,0,1,1,2.028,2.027A2.028,2.028,0,0,1,67.595,158.8Zm-22.307,0a2.028,2.028,0,1,1,2.028,2.027A2.028,2.028,0,0,1,45.288,158.8Zm-22.306,0a2.028,2.028,0,1,1,2.028,2.027A2.027,2.027,0,0,1,22.982,158.8ZM0,158.8a2.028,2.028,0,1,1,2.028,2.027A2.028,2.028,0,0,1,0,158.8Zm335.944-22.975a2.028,2.028,0,1,1,2.029,2.027A2.028,2.028,0,0,1,335.944,135.824Zm-22.982,0a2.028,2.028,0,1,1,2.028,2.027A2.028,2.028,0,0,1,312.962,135.824Zm-22.306,0a2.028,2.028,0,1,1,2.028,2.027A2.028,2.028,0,0,1,290.656,135.824Zm-22.306,0a2.028,2.028,0,1,1,2.028,2.027A2.027,2.027,0,0,1,268.35,135.824Zm-23.658,0a2.028,2.028,0,1,1,2.028,2.027A2.028,2.028,0,0,1,244.692,135.824Zm-22.982,0a2.028,2.028,0,1,1,2.028,2.027A2.028,2.028,0,0,1,221.71,135.824Zm-18.926,0a2.028,2.028,0,1,1,2.028,2.027A2.028,2.028,0,0,1,202.784,135.824Zm-25.01,0a2.028,2.028,0,1,1,2.028,2.027A2.028,2.028,0,0,1,177.773,135.824Zm-21.631,0a2.028,2.028,0,1,1,2.029,2.027A2.028,2.028,0,0,1,156.143,135.824Zm-22.982,0a2.028,2.028,0,1,1,2.028,2.027A2.027,2.027,0,0,1,133.161,135.824Zm-22.982,0a2.028,2.028,0,1,1,2.028,2.027A2.028,2.028,0,0,1,110.179,135.824Zm-22.307,0a2.028,2.028,0,1,1,2.029,2.027A2.028,2.028,0,0,1,87.872,135.824Zm-20.278,0a2.028,2.028,0,1,1,2.028,2.027A2.028,2.028,0,0,1,67.595,135.824Zm-22.307,0a2.028,2.028,0,1,1,2.028,2.027A2.028,2.028,0,0,1,45.288,135.824Zm-22.306,0a2.028,2.028,0,1,1,2.028,2.027A2.027,2.027,0,0,1,22.982,135.824ZM0,135.824a2.028,2.028,0,1,1,2.028,2.027A2.028,2.028,0,0,1,0,135.824Zm22.982-22.975a2.028,2.028,0,1,1,2.028,2.027A2.027,2.027,0,0,1,22.982,112.849ZM0,112.849a2.028,2.028,0,1,1,2.028,2.027A2.028,2.028,0,0,1,0,112.849Zm335.944-.676a2.028,2.028,0,1,1,2.029,2.027A2.028,2.028,0,0,1,335.944,112.173Zm-22.982,0a2.028,2.028,0,1,1,2.028,2.027A2.028,2.028,0,0,1,312.962,112.173Zm-22.306,0a2.028,2.028,0,1,1,2.028,2.027A2.028,2.028,0,0,1,290.656,112.173Zm-22.306,0a2.028,2.028,0,1,1,2.028,2.027A2.027,2.027,0,0,1,268.35,112.173Zm-23.658,0a2.028,2.028,0,1,1,2.028,2.027A2.028,2.028,0,0,1,244.692,112.173Zm-22.982,0a2.028,2.028,0,1,1,2.028,2.027A2.028,2.028,0,0,1,221.71,112.173Zm-18.926,0a2.028,2.028,0,1,1,2.028,2.027A2.028,2.028,0,0,1,202.784,112.173Zm-25.01,0A2.028,2.028,0,1,1,179.8,114.2,2.028,2.028,0,0,1,177.773,112.173Zm-21.631,0a2.028,2.028,0,1,1,2.029,2.027A2.028,2.028,0,0,1,156.143,112.173Zm-22.982,0a2.028,2.028,0,1,1,2.028,2.027A2.027,2.027,0,0,1,133.161,112.173Zm-22.982,0a2.028,2.028,0,1,1,2.028,2.027A2.028,2.028,0,0,1,110.179,112.173Zm-22.307,0A2.028,2.028,0,1,1,89.9,114.2,2.028,2.028,0,0,1,87.872,112.173Zm-20.278,0a2.028,2.028,0,1,1,2.028,2.027A2.028,2.028,0,0,1,67.595,112.173Zm-22.307,0a2.028,2.028,0,1,1,2.028,2.027A2.028,2.028,0,0,1,45.288,112.173ZM335.944,91.225a2.028,2.028,0,1,1,2.029,2.028A2.027,2.027,0,0,1,335.944,91.225Zm-22.982,0a2.028,2.028,0,1,1,2.028,2.028A2.027,2.027,0,0,1,312.962,91.225Zm-22.306,0a2.028,2.028,0,1,1,2.028,2.028A2.027,2.027,0,0,1,290.656,91.225Zm-22.306,0a2.028,2.028,0,1,1,2.028,2.028A2.027,2.027,0,0,1,268.35,91.225Zm-23.658,0a2.028,2.028,0,1,1,2.028,2.028A2.027,2.027,0,0,1,244.692,91.225Zm-22.982,0a2.028,2.028,0,1,1,2.028,2.028A2.027,2.027,0,0,1,221.71,91.225Zm-18.926,0a2.028,2.028,0,1,1,2.028,2.028A2.027,2.027,0,0,1,202.784,91.225Zm-25.01,0a2.028,2.028,0,1,1,2.028,2.028A2.027,2.027,0,0,1,177.773,91.225Zm-21.631,0a2.028,2.028,0,1,1,2.029,2.028A2.027,2.027,0,0,1,156.143,91.225Zm-22.982,0a2.028,2.028,0,1,1,2.028,2.028A2.027,2.027,0,0,1,133.161,91.225Zm-22.982,0a2.028,2.028,0,1,1,2.028,2.028A2.027,2.027,0,0,1,110.179,91.225Zm-22.307,0A2.028,2.028,0,1,1,89.9,93.253,2.027,2.027,0,0,1,87.872,91.225Zm-20.278,0a2.028,2.028,0,1,1,2.028,2.028A2.027,2.027,0,0,1,67.595,91.225Zm-22.307,0a2.028,2.028,0,1,1,2.028,2.028A2.027,2.027,0,0,1,45.288,91.225Zm-22.306,0a2.028,2.028,0,1,1,2.028,2.028A2.027,2.027,0,0,1,22.982,91.225ZM0,91.225a2.028,2.028,0,1,1,2.028,2.028A2.027,2.027,0,0,1,0,91.225Zm335.944-22.3a2.028,2.028,0,1,1,2.029,2.028A2.027,2.027,0,0,1,335.944,68.926Zm-22.982,0a2.028,2.028,0,1,1,2.028,2.028A2.027,2.027,0,0,1,312.962,68.926Zm-22.306,0a2.028,2.028,0,1,1,2.028,2.028A2.027,2.027,0,0,1,290.656,68.926Zm-22.306,0a2.028,2.028,0,1,1,2.028,2.028A2.027,2.027,0,0,1,268.35,68.926Zm-23.658,0a2.028,2.028,0,1,1,2.028,2.028A2.027,2.027,0,0,1,244.692,68.926Zm-22.982,0a2.028,2.028,0,1,1,2.028,2.028A2.027,2.027,0,0,1,221.71,68.926Zm-18.926,0a2.028,2.028,0,1,1,2.028,2.028A2.027,2.027,0,0,1,202.784,68.926Zm-25.01,0a2.028,2.028,0,1,1,2.028,2.028A2.027,2.027,0,0,1,177.773,68.926Zm-21.631,0a2.028,2.028,0,1,1,2.029,2.028A2.027,2.027,0,0,1,156.143,68.926Zm-22.982,0a2.028,2.028,0,1,1,2.028,2.028A2.027,2.027,0,0,1,133.161,68.926Zm-22.982,0a2.028,2.028,0,1,1,2.028,2.028A2.027,2.027,0,0,1,110.179,68.926Zm-22.307,0A2.028,2.028,0,1,1,89.9,70.953,2.027,2.027,0,0,1,87.872,68.926Zm-20.278,0a2.028,2.028,0,1,1,2.028,2.028A2.027,2.027,0,0,1,67.595,68.926Zm-22.307,0a2.028,2.028,0,1,1,2.028,2.028A2.027,2.027,0,0,1,45.288,68.926ZM22.982,68.25a2.028,2.028,0,1,1,2.028,2.028A2.027,2.027,0,0,1,22.982,68.25ZM0,68.25a2.028,2.028,0,1,1,2.028,2.028A2.027,2.027,0,0,1,0,68.25ZM335.944,45.275a2.028,2.028,0,1,1,2.029,2.028A2.027,2.027,0,0,1,335.944,45.275Zm-22.982,0A2.028,2.028,0,1,1,314.99,47.3,2.027,2.027,0,0,1,312.962,45.275Zm-22.306,0a2.028,2.028,0,1,1,2.028,2.028A2.027,2.027,0,0,1,290.656,45.275Zm-22.306,0a2.028,2.028,0,1,1,2.028,2.028A2.027,2.027,0,0,1,268.35,45.275Zm-23.658,0A2.028,2.028,0,1,1,246.72,47.3,2.027,2.027,0,0,1,244.692,45.275Zm-22.982,0a2.028,2.028,0,1,1,2.028,2.028A2.027,2.027,0,0,1,221.71,45.275Zm-18.926,0a2.028,2.028,0,1,1,2.028,2.028A2.027,2.027,0,0,1,202.784,45.275Zm-25.01,0A2.028,2.028,0,1,1,179.8,47.3,2.027,2.027,0,0,1,177.773,45.275Zm-21.631,0a2.028,2.028,0,1,1,2.029,2.028A2.027,2.027,0,0,1,156.143,45.275Zm-22.982,0a2.028,2.028,0,1,1,2.028,2.028A2.027,2.027,0,0,1,133.161,45.275Zm-22.982,0a2.028,2.028,0,1,1,2.028,2.028A2.027,2.027,0,0,1,110.179,45.275Zm-22.307,0A2.028,2.028,0,1,1,89.9,47.3,2.027,2.027,0,0,1,87.872,45.275Zm-20.278,0A2.028,2.028,0,1,1,69.622,47.3,2.027,2.027,0,0,1,67.595,45.275Zm-22.307,0A2.028,2.028,0,1,1,47.316,47.3,2.027,2.027,0,0,1,45.288,45.275Zm-22.306,0A2.028,2.028,0,1,1,25.01,47.3,2.027,2.027,0,0,1,22.982,45.275ZM0,45.275A2.028,2.028,0,1,1,2.028,47.3,2.027,2.027,0,0,1,0,45.275ZM335.944,25a2.028,2.028,0,1,1,2.029,2.027A2.028,2.028,0,0,1,335.944,25Zm-22.982,0a2.028,2.028,0,1,1,2.028,2.027A2.028,2.028,0,0,1,312.962,25Zm-22.306,0a2.028,2.028,0,1,1,2.028,2.027A2.028,2.028,0,0,1,290.656,25ZM268.35,25a2.028,2.028,0,1,1,2.028,2.027A2.027,2.027,0,0,1,268.35,25Zm-23.658,0a2.028,2.028,0,1,1,2.028,2.027A2.028,2.028,0,0,1,244.692,25ZM221.71,25a2.028,2.028,0,1,1,2.028,2.027A2.028,2.028,0,0,1,221.71,25Zm-18.926,0a2.028,2.028,0,1,1,2.028,2.027A2.028,2.028,0,0,1,202.784,25Zm-25.01,0A2.028,2.028,0,1,1,179.8,27.03,2.028,2.028,0,0,1,177.773,25Zm-21.631,0a2.028,2.028,0,1,1,2.029,2.027A2.028,2.028,0,0,1,156.143,25Zm-22.982,0a2.028,2.028,0,1,1,2.028,2.027A2.027,2.027,0,0,1,133.161,25Zm-22.982,0a2.028,2.028,0,1,1,2.028,2.027A2.028,2.028,0,0,1,110.179,25ZM87.872,25A2.028,2.028,0,1,1,89.9,27.03,2.028,2.028,0,0,1,87.872,25ZM67.595,25a2.028,2.028,0,1,1,2.028,2.027A2.028,2.028,0,0,1,67.595,25ZM45.288,25a2.028,2.028,0,1,1,2.028,2.027A2.028,2.028,0,0,1,45.288,25ZM22.982,25A2.028,2.028,0,1,1,25.01,27.03,2.027,2.027,0,0,1,22.982,25ZM0,25A2.028,2.028,0,1,1,2.028,27.03,2.028,2.028,0,0,1,0,25ZM335.944,2.027a2.028,2.028,0,1,1,2.029,2.028A2.027,2.027,0,0,1,335.944,2.027Zm-22.982,0a2.028,2.028,0,1,1,2.028,2.028A2.027,2.027,0,0,1,312.962,2.027Zm-22.306,0a2.028,2.028,0,1,1,2.028,2.028A2.027,2.027,0,0,1,290.656,2.027Zm-22.306,0a2.028,2.028,0,1,1,2.028,2.028A2.027,2.027,0,0,1,268.35,2.027Zm-23.658,0a2.028,2.028,0,1,1,2.028,2.028A2.027,2.027,0,0,1,244.692,2.027Zm-22.982,0a2.028,2.028,0,1,1,2.028,2.028A2.027,2.027,0,0,1,221.71,2.027Zm-18.926,0a2.028,2.028,0,1,1,2.028,2.028A2.027,2.027,0,0,1,202.784,2.027Zm-25.01,0A2.028,2.028,0,1,1,179.8,4.055,2.027,2.027,0,0,1,177.773,2.027Zm-21.631,0a2.028,2.028,0,1,1,2.029,2.028A2.027,2.027,0,0,1,156.143,2.027Zm-22.982,0a2.028,2.028,0,1,1,2.028,2.028A2.027,2.027,0,0,1,133.161,2.027Zm-22.982,0a2.028,2.028,0,1,1,2.028,2.028A2.027,2.027,0,0,1,110.179,2.027Zm-22.307,0A2.028,2.028,0,1,1,89.9,4.055,2.027,2.027,0,0,1,87.872,2.027Zm-20.278,0a2.028,2.028,0,1,1,2.028,2.028A2.027,2.027,0,0,1,67.595,2.027Zm-22.307,0a2.028,2.028,0,1,1,2.028,2.028A2.027,2.027,0,0,1,45.288,2.027Zm-22.306,0A2.028,2.028,0,1,1,25.01,4.055,2.027,2.027,0,0,1,22.982,2.027ZM0,2.027A2.028,2.028,0,1,1,2.028,4.055,2.027,2.027,0,0,1,0,2.027Z" fill="rgba(255,255,255,0.15)"/>
  <path id="Oval_Copy_168" data-name="Oval Copy 168" d="M335.944-270.973a2.028,2.028,0,0,0,2.029,2.028A2.028,2.028,0,0,0,340-270.973,2.027,2.027,0,0,0,337.973-273,2.027,2.027,0,0,0,335.944-270.973Zm-22.982,1.352a2.027,2.027,0,0,0,2.028,2.027,2.027,2.027,0,0,0,2.028-2.027,2.028,2.028,0,0,0-2.028-2.028A2.028,2.028,0,0,0,312.962-269.621Zm-22.306,0a2.027,2.027,0,0,0,2.028,2.027,2.027,2.027,0,0,0,2.028-2.027,2.027,2.027,0,0,0-2.028-2.028A2.028,2.028,0,0,0,290.656-269.621Zm-22.306,0a2.027,2.027,0,0,0,2.028,2.027,2.027,2.027,0,0,0,2.028-2.027,2.028,2.028,0,0,0-2.028-2.028A2.027,2.027,0,0,0,268.35-269.621Zm-22.307,0a2.027,2.027,0,0,0,2.028,2.027,2.027,2.027,0,0,0,2.028-2.027,2.028,2.028,0,0,0-2.028-2.028A2.028,2.028,0,0,0,246.044-269.621Zm-24.334,0a2.027,2.027,0,0,0,2.028,2.027,2.027,2.027,0,0,0,2.028-2.027,2.027,2.027,0,0,0-2.028-2.028A2.028,2.028,0,0,0,221.71-269.621Zm-20.954,0a2.027,2.027,0,0,0,2.028,2.027,2.027,2.027,0,0,0,2.028-2.027,2.028,2.028,0,0,0-2.028-2.028A2.027,2.027,0,0,0,200.756-269.621Zm-22.982,0a2.027,2.027,0,0,0,2.028,2.027,2.027,2.027,0,0,0,2.028-2.027,2.028,2.028,0,0,0-2.028-2.028A2.028,2.028,0,0,0,177.773-269.621Zm-21.631,0a2.027,2.027,0,0,0,2.029,2.027,2.027,2.027,0,0,0,2.028-2.027,2.028,2.028,0,0,0-2.028-2.028A2.028,2.028,0,0,0,156.143-269.621Zm-22.982,0a2.027,2.027,0,0,0,2.028,2.027,2.027,2.027,0,0,0,2.028-2.027,2.028,2.028,0,0,0-2.028-2.028A2.027,2.027,0,0,0,133.161-269.621Zm-20.955,0a2.027,2.027,0,0,0,2.028,2.027,2.027,2.027,0,0,0,2.028-2.027,2.027,2.027,0,0,0-2.028-2.028A2.028,2.028,0,0,0,112.207-269.621Zm-24.334,0a2.027,2.027,0,0,0,2.029,2.027,2.027,2.027,0,0,0,2.028-2.027,2.028,2.028,0,0,0-2.028-2.028A2.028,2.028,0,0,0,87.872-269.621Zm-20.278,0a2.027,2.027,0,0,0,2.028,2.027,2.027,2.027,0,0,0,2.028-2.027,2.028,2.028,0,0,0-2.028-2.028A2.028,2.028,0,0,0,67.595-269.621Zm-22.307,0a2.027,2.027,0,0,0,2.028,2.027,2.027,2.027,0,0,0,2.029-2.027,2.028,2.028,0,0,0-2.029-2.028A2.028,2.028,0,0,0,45.288-269.621Zm-22.306,0a2.027,2.027,0,0,0,2.028,2.027,2.027,2.027,0,0,0,2.028-2.027,2.028,2.028,0,0,0-2.028-2.028A2.027,2.027,0,0,0,22.982-269.621ZM0-269.621a2.027,2.027,0,0,0,2.028,2.027,2.027,2.027,0,0,0,2.028-2.027,2.027,2.027,0,0,0-2.028-2.028A2.028,2.028,0,0,0,0-269.621ZM335.944-248a2.028,2.028,0,0,0,2.029,2.028A2.028,2.028,0,0,0,340-248a2.027,2.027,0,0,0-2.028-2.027A2.027,2.027,0,0,0,335.944-248Zm-22.982,0a2.028,2.028,0,0,0,2.028,2.028A2.028,2.028,0,0,0,317.018-248a2.027,2.027,0,0,0-2.028-2.027A2.027,2.027,0,0,0,312.962-248Zm-22.306,0a2.028,2.028,0,0,0,2.028,2.028A2.027,2.027,0,0,0,294.711-248a2.027,2.027,0,0,0-2.028-2.027A2.027,2.027,0,0,0,290.656-248Zm-22.306,0a2.027,2.027,0,0,0,2.028,2.028A2.028,2.028,0,0,0,272.406-248a2.027,2.027,0,0,0-2.028-2.027A2.027,2.027,0,0,0,268.35-248Zm-23.658,0a2.028,2.028,0,0,0,2.028,2.028A2.028,2.028,0,0,0,248.747-248a2.027,2.027,0,0,0-2.028-2.027A2.027,2.027,0,0,0,244.692-248Zm-22.982,0a2.028,2.028,0,0,0,2.028,2.028A2.027,2.027,0,0,0,225.765-248a2.027,2.027,0,0,0-2.028-2.027A2.027,2.027,0,0,0,221.71-248Zm-18.926,0a2.028,2.028,0,0,0,2.028,2.028A2.028,2.028,0,0,0,206.839-248a2.027,2.027,0,0,0-2.028-2.027A2.027,2.027,0,0,0,202.784-248Zm-25.01,0a2.028,2.028,0,0,0,2.028,2.028A2.028,2.028,0,0,0,181.829-248a2.027,2.027,0,0,0-2.028-2.027A2.027,2.027,0,0,0,177.773-248Zm-21.631,0a2.028,2.028,0,0,0,2.029,2.028A2.028,2.028,0,0,0,160.2-248a2.027,2.027,0,0,0-2.028-2.027A2.027,2.027,0,0,0,156.143-248Zm-22.982,0a2.027,2.027,0,0,0,2.028,2.028A2.028,2.028,0,0,0,137.217-248a2.027,2.027,0,0,0-2.028-2.027A2.027,2.027,0,0,0,133.161-248Zm-22.982,0a2.028,2.028,0,0,0,2.028,2.028A2.027,2.027,0,0,0,114.234-248a2.027,2.027,0,0,0-2.028-2.027A2.027,2.027,0,0,0,110.179-248Zm-22.307,0A2.028,2.028,0,0,0,89.9-245.97,2.028,2.028,0,0,0,91.929-248a2.027,2.027,0,0,0-2.028-2.027A2.027,2.027,0,0,0,87.872-248Zm-20.278,0a2.028,2.028,0,0,0,2.028,2.028A2.028,2.028,0,0,0,71.65-248a2.027,2.027,0,0,0-2.028-2.027A2.027,2.027,0,0,0,67.595-248Zm-22.307,0a2.028,2.028,0,0,0,2.028,2.028A2.028,2.028,0,0,0,49.344-248a2.027,2.027,0,0,0-2.029-2.027A2.027,2.027,0,0,0,45.288-248Zm-22.306,0a2.027,2.027,0,0,0,2.028,2.028A2.028,2.028,0,0,0,27.038-248a2.027,2.027,0,0,0-2.028-2.027A2.027,2.027,0,0,0,22.982-248ZM0-248a2.028,2.028,0,0,0,2.028,2.028A2.027,2.027,0,0,0,4.055-248a2.027,2.027,0,0,0-2.028-2.027A2.027,2.027,0,0,0,0-248Zm335.944,22.3a2.028,2.028,0,0,0,2.029,2.028A2.028,2.028,0,0,0,340-225.7a2.027,2.027,0,0,0-2.028-2.027A2.027,2.027,0,0,0,335.944-225.7Zm-22.982,0a2.028,2.028,0,0,0,2.028,2.028,2.028,2.028,0,0,0,2.028-2.028,2.027,2.027,0,0,0-2.028-2.027A2.027,2.027,0,0,0,312.962-225.7Zm-22.306,0a2.028,2.028,0,0,0,2.028,2.028,2.027,2.027,0,0,0,2.028-2.028,2.027,2.027,0,0,0-2.028-2.027A2.027,2.027,0,0,0,290.656-225.7Zm-22.306,0a2.027,2.027,0,0,0,2.028,2.028,2.028,2.028,0,0,0,2.028-2.028,2.027,2.027,0,0,0-2.028-2.027A2.027,2.027,0,0,0,268.35-225.7Zm-23.658,0a2.028,2.028,0,0,0,2.028,2.028,2.028,2.028,0,0,0,2.028-2.028,2.027,2.027,0,0,0-2.028-2.027A2.027,2.027,0,0,0,244.692-225.7Zm-22.982,0a2.028,2.028,0,0,0,2.028,2.028,2.027,2.027,0,0,0,2.028-2.028,2.027,2.027,0,0,0-2.028-2.027A2.027,2.027,0,0,0,221.71-225.7Zm-18.926,0a2.028,2.028,0,0,0,2.028,2.028,2.028,2.028,0,0,0,2.028-2.028,2.027,2.027,0,0,0-2.028-2.027A2.027,2.027,0,0,0,202.784-225.7Zm-25.01,0a2.028,2.028,0,0,0,2.028,2.028,2.028,2.028,0,0,0,2.028-2.028,2.027,2.027,0,0,0-2.028-2.027A2.027,2.027,0,0,0,177.773-225.7Zm-21.631,0a2.028,2.028,0,0,0,2.029,2.028A2.028,2.028,0,0,0,160.2-225.7a2.027,2.027,0,0,0-2.028-2.027A2.027,2.027,0,0,0,156.143-225.7Zm-22.982,0a2.027,2.027,0,0,0,2.028,2.028,2.028,2.028,0,0,0,2.028-2.028,2.027,2.027,0,0,0-2.028-2.027A2.027,2.027,0,0,0,133.161-225.7Zm-22.982,0a2.028,2.028,0,0,0,2.028,2.028,2.027,2.027,0,0,0,2.028-2.028,2.027,2.027,0,0,0-2.028-2.027A2.027,2.027,0,0,0,110.179-225.7Zm-22.307,0a2.028,2.028,0,0,0,2.029,2.028,2.028,2.028,0,0,0,2.028-2.028,2.027,2.027,0,0,0-2.028-2.027A2.027,2.027,0,0,0,87.872-225.7Zm-20.278,0a2.028,2.028,0,0,0,2.028,2.028A2.028,2.028,0,0,0,71.65-225.7a2.027,2.027,0,0,0-2.028-2.027A2.027,2.027,0,0,0,67.595-225.7Zm-22.307,0a2.028,2.028,0,0,0,2.028,2.028,2.028,2.028,0,0,0,2.029-2.028,2.027,2.027,0,0,0-2.029-2.027A2.027,2.027,0,0,0,45.288-225.7Zm-22.306,0a2.027,2.027,0,0,0,2.028,2.028,2.028,2.028,0,0,0,2.028-2.028,2.027,2.027,0,0,0-2.028-2.027A2.027,2.027,0,0,0,22.982-225.7ZM0-225.7a2.028,2.028,0,0,0,2.028,2.028A2.027,2.027,0,0,0,4.055-225.7a2.027,2.027,0,0,0-2.028-2.027A2.027,2.027,0,0,0,0-225.7Zm335.944,22.975a2.028,2.028,0,0,0,2.029,2.028A2.028,2.028,0,0,0,340-202.723a2.027,2.027,0,0,0-2.028-2.027A2.027,2.027,0,0,0,335.944-202.723Zm-22.982,0a2.028,2.028,0,0,0,2.028,2.028,2.028,2.028,0,0,0,2.028-2.028,2.027,2.027,0,0,0-2.028-2.027A2.027,2.027,0,0,0,312.962-202.723Zm-22.306,0a2.028,2.028,0,0,0,2.028,2.028,2.027,2.027,0,0,0,2.028-2.028,2.027,2.027,0,0,0-2.028-2.027A2.027,2.027,0,0,0,290.656-202.723Zm-22.306,0a2.027,2.027,0,0,0,2.028,2.028,2.028,2.028,0,0,0,2.028-2.028,2.027,2.027,0,0,0-2.028-2.027A2.027,2.027,0,0,0,268.35-202.723Zm-22.307,0a2.028,2.028,0,0,0,2.028,2.028,2.028,2.028,0,0,0,2.028-2.028,2.027,2.027,0,0,0-2.028-2.027A2.027,2.027,0,0,0,246.044-202.723Zm-24.334,0a2.028,2.028,0,0,0,2.028,2.028,2.027,2.027,0,0,0,2.028-2.028,2.027,2.027,0,0,0-2.028-2.027A2.027,2.027,0,0,0,221.71-202.723Zm-20.954,0a2.027,2.027,0,0,0,2.028,2.028,2.028,2.028,0,0,0,2.028-2.028,2.027,2.027,0,0,0-2.028-2.027A2.027,2.027,0,0,0,200.756-202.723Zm-22.982,0A2.028,2.028,0,0,0,179.8-200.7a2.028,2.028,0,0,0,2.028-2.028,2.027,2.027,0,0,0-2.028-2.027A2.027,2.027,0,0,0,177.773-202.723Zm-21.631,0a2.028,2.028,0,0,0,2.029,2.028,2.028,2.028,0,0,0,2.028-2.028,2.027,2.027,0,0,0-2.028-2.027A2.027,2.027,0,0,0,156.143-202.723Zm-22.982,0a2.027,2.027,0,0,0,2.028,2.028,2.028,2.028,0,0,0,2.028-2.028,2.027,2.027,0,0,0-2.028-2.027A2.027,2.027,0,0,0,133.161-202.723Zm-20.955,0a2.028,2.028,0,0,0,2.028,2.028,2.027,2.027,0,0,0,2.028-2.028,2.027,2.027,0,0,0-2.028-2.027A2.027,2.027,0,0,0,112.207-202.723Zm-24.334,0A2.028,2.028,0,0,0,89.9-200.7a2.028,2.028,0,0,0,2.028-2.028A2.027,2.027,0,0,0,89.9-204.75,2.027,2.027,0,0,0,87.872-202.723Zm-20.278,0a2.028,2.028,0,0,0,2.028,2.028,2.028,2.028,0,0,0,2.028-2.028,2.027,2.027,0,0,0-2.028-2.027A2.027,2.027,0,0,0,67.595-202.723Zm-22.307,0a2.028,2.028,0,0,0,2.028,2.028,2.028,2.028,0,0,0,2.029-2.028,2.027,2.027,0,0,0-2.029-2.027A2.027,2.027,0,0,0,45.288-202.723Zm-22.306,0A2.027,2.027,0,0,0,25.01-200.7a2.028,2.028,0,0,0,2.028-2.028,2.027,2.027,0,0,0-2.028-2.027A2.027,2.027,0,0,0,22.982-202.723ZM0-202.723A2.028,2.028,0,0,0,2.028-200.7a2.027,2.027,0,0,0,2.028-2.028,2.027,2.027,0,0,0-2.028-2.027A2.027,2.027,0,0,0,0-202.723ZM335.944-181.1a2.027,2.027,0,0,0,2.029,2.027A2.027,2.027,0,0,0,340-181.1a2.028,2.028,0,0,0-2.028-2.028A2.028,2.028,0,0,0,335.944-181.1Zm-22.982,0a2.027,2.027,0,0,0,2.028,2.027,2.027,2.027,0,0,0,2.028-2.027,2.028,2.028,0,0,0-2.028-2.028A2.028,2.028,0,0,0,312.962-181.1Zm-22.306,0a2.027,2.027,0,0,0,2.028,2.027,2.027,2.027,0,0,0,2.028-2.027,2.027,2.027,0,0,0-2.028-2.028A2.028,2.028,0,0,0,290.656-181.1Zm-22.306,0a2.027,2.027,0,0,0,2.028,2.027,2.027,2.027,0,0,0,2.028-2.027,2.028,2.028,0,0,0-2.028-2.028A2.027,2.027,0,0,0,268.35-181.1Zm-23.658,0a2.027,2.027,0,0,0,2.028,2.027,2.027,2.027,0,0,0,2.028-2.027,2.028,2.028,0,0,0-2.028-2.028A2.028,2.028,0,0,0,244.692-181.1Zm-22.982,0a2.027,2.027,0,0,0,2.028,2.027,2.027,2.027,0,0,0,2.028-2.027,2.027,2.027,0,0,0-2.028-2.028A2.028,2.028,0,0,0,221.71-181.1Zm-18.926,0a2.027,2.027,0,0,0,2.028,2.027,2.027,2.027,0,0,0,2.028-2.027,2.028,2.028,0,0,0-2.028-2.028A2.028,2.028,0,0,0,202.784-181.1Zm-25.01,0a2.027,2.027,0,0,0,2.028,2.027,2.027,2.027,0,0,0,2.028-2.027,2.028,2.028,0,0,0-2.028-2.028A2.028,2.028,0,0,0,177.773-181.1Zm-21.631,0a2.027,2.027,0,0,0,2.029,2.027A2.027,2.027,0,0,0,160.2-181.1a2.028,2.028,0,0,0-2.028-2.028A2.028,2.028,0,0,0,156.143-181.1Zm-22.982,0a2.027,2.027,0,0,0,2.028,2.027,2.027,2.027,0,0,0,2.028-2.027,2.028,2.028,0,0,0-2.028-2.028A2.027,2.027,0,0,0,133.161-181.1Zm-22.982,0a2.027,2.027,0,0,0,2.028,2.027,2.027,2.027,0,0,0,2.028-2.027,2.027,2.027,0,0,0-2.028-2.028A2.028,2.028,0,0,0,110.179-181.1Zm-22.307,0a2.027,2.027,0,0,0,2.029,2.027,2.027,2.027,0,0,0,2.028-2.027,2.028,2.028,0,0,0-2.028-2.028A2.028,2.028,0,0,0,87.872-181.1Zm-20.278,0a2.027,2.027,0,0,0,2.028,2.027A2.027,2.027,0,0,0,71.65-181.1a2.028,2.028,0,0,0-2.028-2.028A2.028,2.028,0,0,0,67.595-181.1Zm-22.307,0a2.027,2.027,0,0,0,2.028,2.027,2.027,2.027,0,0,0,2.029-2.027,2.028,2.028,0,0,0-2.029-2.028A2.028,2.028,0,0,0,45.288-181.1Zm-22.306,0a2.027,2.027,0,0,0,2.028,2.027,2.027,2.027,0,0,0,2.028-2.027,2.028,2.028,0,0,0-2.028-2.028A2.027,2.027,0,0,0,22.982-181.1ZM0-181.1a2.027,2.027,0,0,0,2.028,2.027A2.027,2.027,0,0,0,4.055-181.1a2.027,2.027,0,0,0-2.028-2.028A2.028,2.028,0,0,0,0-181.1Zm335.944,22.3a2.028,2.028,0,0,0,2.029,2.028A2.028,2.028,0,0,0,340-158.8a2.027,2.027,0,0,0-2.028-2.027A2.027,2.027,0,0,0,335.944-158.8Zm-22.982,0a2.028,2.028,0,0,0,2.028,2.028,2.028,2.028,0,0,0,2.028-2.028,2.027,2.027,0,0,0-2.028-2.027A2.027,2.027,0,0,0,312.962-158.8Zm-22.306,0a2.028,2.028,0,0,0,2.028,2.028,2.027,2.027,0,0,0,2.028-2.028,2.027,2.027,0,0,0-2.028-2.027A2.027,2.027,0,0,0,290.656-158.8Zm-22.306,0a2.027,2.027,0,0,0,2.028,2.028,2.028,2.028,0,0,0,2.028-2.028,2.027,2.027,0,0,0-2.028-2.027A2.027,2.027,0,0,0,268.35-158.8Zm-23.658,0a2.028,2.028,0,0,0,2.028,2.028,2.028,2.028,0,0,0,2.028-2.028,2.027,2.027,0,0,0-2.028-2.027A2.027,2.027,0,0,0,244.692-158.8Zm-22.982,0a2.028,2.028,0,0,0,2.028,2.028,2.027,2.027,0,0,0,2.028-2.028,2.027,2.027,0,0,0-2.028-2.027A2.027,2.027,0,0,0,221.71-158.8Zm-18.926,0a2.028,2.028,0,0,0,2.028,2.028,2.028,2.028,0,0,0,2.028-2.028,2.027,2.027,0,0,0-2.028-2.027A2.027,2.027,0,0,0,202.784-158.8Zm-25.01,0a2.028,2.028,0,0,0,2.028,2.028,2.028,2.028,0,0,0,2.028-2.028,2.027,2.027,0,0,0-2.028-2.027A2.027,2.027,0,0,0,177.773-158.8Zm-21.631,0a2.028,2.028,0,0,0,2.029,2.028A2.028,2.028,0,0,0,160.2-158.8a2.027,2.027,0,0,0-2.028-2.027A2.027,2.027,0,0,0,156.143-158.8Zm-22.982,0a2.027,2.027,0,0,0,2.028,2.028,2.028,2.028,0,0,0,2.028-2.028,2.027,2.027,0,0,0-2.028-2.027A2.027,2.027,0,0,0,133.161-158.8Zm-22.982,0a2.028,2.028,0,0,0,2.028,2.028,2.027,2.027,0,0,0,2.028-2.028,2.027,2.027,0,0,0-2.028-2.027A2.027,2.027,0,0,0,110.179-158.8Zm-22.307,0a2.028,2.028,0,0,0,2.029,2.028,2.028,2.028,0,0,0,2.028-2.028,2.027,2.027,0,0,0-2.028-2.027A2.027,2.027,0,0,0,87.872-158.8Zm-20.278,0a2.028,2.028,0,0,0,2.028,2.028A2.028,2.028,0,0,0,71.65-158.8a2.027,2.027,0,0,0-2.028-2.027A2.027,2.027,0,0,0,67.595-158.8Zm-22.307,0a2.028,2.028,0,0,0,2.028,2.028,2.028,2.028,0,0,0,2.029-2.028,2.027,2.027,0,0,0-2.029-2.027A2.027,2.027,0,0,0,45.288-158.8Zm-22.306,0a2.027,2.027,0,0,0,2.028,2.028,2.028,2.028,0,0,0,2.028-2.028,2.027,2.027,0,0,0-2.028-2.027A2.027,2.027,0,0,0,22.982-158.8ZM0-158.8a2.028,2.028,0,0,0,2.028,2.028A2.027,2.027,0,0,0,4.055-158.8a2.027,2.027,0,0,0-2.028-2.027A2.027,2.027,0,0,0,0-158.8Zm335.944,22.975a2.028,2.028,0,0,0,2.029,2.028A2.028,2.028,0,0,0,340-135.824a2.027,2.027,0,0,0-2.028-2.027A2.027,2.027,0,0,0,335.944-135.824Zm-22.982,0a2.028,2.028,0,0,0,2.028,2.028,2.028,2.028,0,0,0,2.028-2.028,2.027,2.027,0,0,0-2.028-2.027A2.027,2.027,0,0,0,312.962-135.824Zm-22.306,0a2.028,2.028,0,0,0,2.028,2.028,2.027,2.027,0,0,0,2.028-2.028,2.027,2.027,0,0,0-2.028-2.027A2.027,2.027,0,0,0,290.656-135.824Zm-22.306,0a2.027,2.027,0,0,0,2.028,2.028,2.028,2.028,0,0,0,2.028-2.028,2.027,2.027,0,0,0-2.028-2.027A2.027,2.027,0,0,0,268.35-135.824Zm-23.658,0a2.028,2.028,0,0,0,2.028,2.028,2.028,2.028,0,0,0,2.028-2.028,2.027,2.027,0,0,0-2.028-2.027A2.027,2.027,0,0,0,244.692-135.824Zm-22.982,0a2.028,2.028,0,0,0,2.028,2.028,2.027,2.027,0,0,0,2.028-2.028,2.027,2.027,0,0,0-2.028-2.027A2.027,2.027,0,0,0,221.71-135.824Zm-18.926,0a2.028,2.028,0,0,0,2.028,2.028,2.028,2.028,0,0,0,2.028-2.028,2.027,2.027,0,0,0-2.028-2.027A2.027,2.027,0,0,0,202.784-135.824Zm-25.01,0A2.028,2.028,0,0,0,179.8-133.8a2.028,2.028,0,0,0,2.028-2.028,2.027,2.027,0,0,0-2.028-2.027A2.027,2.027,0,0,0,177.773-135.824Zm-21.631,0a2.028,2.028,0,0,0,2.029,2.028,2.028,2.028,0,0,0,2.028-2.028,2.027,2.027,0,0,0-2.028-2.027A2.027,2.027,0,0,0,156.143-135.824Zm-22.982,0a2.027,2.027,0,0,0,2.028,2.028,2.028,2.028,0,0,0,2.028-2.028,2.027,2.027,0,0,0-2.028-2.027A2.027,2.027,0,0,0,133.161-135.824Zm-22.982,0a2.028,2.028,0,0,0,2.028,2.028,2.027,2.027,0,0,0,2.028-2.028,2.027,2.027,0,0,0-2.028-2.027A2.027,2.027,0,0,0,110.179-135.824Zm-22.307,0A2.028,2.028,0,0,0,89.9-133.8a2.028,2.028,0,0,0,2.028-2.028,2.027,2.027,0,0,0-2.028-2.027A2.027,2.027,0,0,0,87.872-135.824Zm-20.278,0a2.028,2.028,0,0,0,2.028,2.028,2.028,2.028,0,0,0,2.028-2.028,2.027,2.027,0,0,0-2.028-2.027A2.027,2.027,0,0,0,67.595-135.824Zm-22.307,0a2.028,2.028,0,0,0,2.028,2.028,2.028,2.028,0,0,0,2.029-2.028,2.027,2.027,0,0,0-2.029-2.027A2.027,2.027,0,0,0,45.288-135.824Zm-22.306,0A2.027,2.027,0,0,0,25.01-133.8a2.028,2.028,0,0,0,2.028-2.028,2.027,2.027,0,0,0-2.028-2.027A2.027,2.027,0,0,0,22.982-135.824ZM0-135.824A2.028,2.028,0,0,0,2.028-133.8a2.027,2.027,0,0,0,2.028-2.028,2.027,2.027,0,0,0-2.028-2.027A2.027,2.027,0,0,0,0-135.824Zm22.982,22.975a2.027,2.027,0,0,0,2.028,2.028,2.028,2.028,0,0,0,2.028-2.028,2.027,2.027,0,0,0-2.028-2.027A2.027,2.027,0,0,0,22.982-112.849ZM0-112.849a2.028,2.028,0,0,0,2.028,2.028,2.027,2.027,0,0,0,2.028-2.028,2.027,2.027,0,0,0-2.028-2.027A2.027,2.027,0,0,0,0-112.849Zm335.944.676a2.028,2.028,0,0,0,2.029,2.028A2.028,2.028,0,0,0,340-112.173a2.027,2.027,0,0,0-2.028-2.027A2.027,2.027,0,0,0,335.944-112.173Zm-22.982,0a2.028,2.028,0,0,0,2.028,2.028,2.028,2.028,0,0,0,2.028-2.028,2.027,2.027,0,0,0-2.028-2.027A2.027,2.027,0,0,0,312.962-112.173Zm-22.306,0a2.028,2.028,0,0,0,2.028,2.028,2.027,2.027,0,0,0,2.028-2.028,2.027,2.027,0,0,0-2.028-2.027A2.027,2.027,0,0,0,290.656-112.173Zm-22.306,0a2.027,2.027,0,0,0,2.028,2.028,2.028,2.028,0,0,0,2.028-2.028,2.027,2.027,0,0,0-2.028-2.027A2.027,2.027,0,0,0,268.35-112.173Zm-23.658,0a2.028,2.028,0,0,0,2.028,2.028,2.028,2.028,0,0,0,2.028-2.028,2.027,2.027,0,0,0-2.028-2.027A2.027,2.027,0,0,0,244.692-112.173Zm-22.982,0a2.028,2.028,0,0,0,2.028,2.028,2.027,2.027,0,0,0,2.028-2.028,2.027,2.027,0,0,0-2.028-2.027A2.027,2.027,0,0,0,221.71-112.173Zm-18.926,0a2.028,2.028,0,0,0,2.028,2.028,2.028,2.028,0,0,0,2.028-2.028,2.027,2.027,0,0,0-2.028-2.027A2.027,2.027,0,0,0,202.784-112.173Zm-25.01,0a2.028,2.028,0,0,0,2.028,2.028,2.028,2.028,0,0,0,2.028-2.028A2.027,2.027,0,0,0,179.8-114.2,2.027,2.027,0,0,0,177.773-112.173Zm-21.631,0a2.028,2.028,0,0,0,2.029,2.028,2.028,2.028,0,0,0,2.028-2.028,2.027,2.027,0,0,0-2.028-2.027A2.027,2.027,0,0,0,156.143-112.173Zm-22.982,0a2.027,2.027,0,0,0,2.028,2.028,2.028,2.028,0,0,0,2.028-2.028,2.027,2.027,0,0,0-2.028-2.027A2.027,2.027,0,0,0,133.161-112.173Zm-22.982,0a2.028,2.028,0,0,0,2.028,2.028,2.027,2.027,0,0,0,2.028-2.028,2.027,2.027,0,0,0-2.028-2.027A2.027,2.027,0,0,0,110.179-112.173Zm-22.307,0a2.028,2.028,0,0,0,2.029,2.028,2.028,2.028,0,0,0,2.028-2.028A2.027,2.027,0,0,0,89.9-114.2,2.027,2.027,0,0,0,87.872-112.173Zm-20.278,0a2.028,2.028,0,0,0,2.028,2.028,2.028,2.028,0,0,0,2.028-2.028,2.027,2.027,0,0,0-2.028-2.027A2.027,2.027,0,0,0,67.595-112.173Zm-22.307,0a2.028,2.028,0,0,0,2.028,2.028,2.028,2.028,0,0,0,2.029-2.028,2.027,2.027,0,0,0-2.029-2.027A2.027,2.027,0,0,0,45.288-112.173ZM335.944-91.225a2.027,2.027,0,0,0,2.029,2.027A2.027,2.027,0,0,0,340-91.225a2.028,2.028,0,0,0-2.028-2.028A2.028,2.028,0,0,0,335.944-91.225Zm-22.982,0A2.027,2.027,0,0,0,314.99-89.2a2.027,2.027,0,0,0,2.028-2.027,2.028,2.028,0,0,0-2.028-2.028A2.028,2.028,0,0,0,312.962-91.225Zm-22.306,0a2.027,2.027,0,0,0,2.028,2.027,2.027,2.027,0,0,0,2.028-2.027,2.027,2.027,0,0,0-2.028-2.028A2.028,2.028,0,0,0,290.656-91.225Zm-22.306,0a2.027,2.027,0,0,0,2.028,2.027,2.027,2.027,0,0,0,2.028-2.027,2.028,2.028,0,0,0-2.028-2.028A2.027,2.027,0,0,0,268.35-91.225Zm-23.658,0A2.027,2.027,0,0,0,246.72-89.2a2.027,2.027,0,0,0,2.028-2.027,2.028,2.028,0,0,0-2.028-2.028A2.028,2.028,0,0,0,244.692-91.225Zm-22.982,0a2.027,2.027,0,0,0,2.028,2.027,2.027,2.027,0,0,0,2.028-2.027,2.027,2.027,0,0,0-2.028-2.028A2.028,2.028,0,0,0,221.71-91.225Zm-18.926,0a2.027,2.027,0,0,0,2.028,2.027,2.027,2.027,0,0,0,2.028-2.027,2.028,2.028,0,0,0-2.028-2.028A2.028,2.028,0,0,0,202.784-91.225Zm-25.01,0A2.027,2.027,0,0,0,179.8-89.2a2.027,2.027,0,0,0,2.028-2.027,2.028,2.028,0,0,0-2.028-2.028A2.028,2.028,0,0,0,177.773-91.225Zm-21.631,0a2.027,2.027,0,0,0,2.029,2.027,2.027,2.027,0,0,0,2.028-2.027,2.028,2.028,0,0,0-2.028-2.028A2.028,2.028,0,0,0,156.143-91.225Zm-22.982,0a2.027,2.027,0,0,0,2.028,2.027,2.027,2.027,0,0,0,2.028-2.027,2.028,2.028,0,0,0-2.028-2.028A2.027,2.027,0,0,0,133.161-91.225Zm-22.982,0a2.027,2.027,0,0,0,2.028,2.027,2.027,2.027,0,0,0,2.028-2.027,2.027,2.027,0,0,0-2.028-2.028A2.028,2.028,0,0,0,110.179-91.225Zm-22.307,0A2.027,2.027,0,0,0,89.9-89.2a2.027,2.027,0,0,0,2.028-2.027A2.028,2.028,0,0,0,89.9-93.253,2.028,2.028,0,0,0,87.872-91.225Zm-20.278,0A2.027,2.027,0,0,0,69.622-89.2a2.027,2.027,0,0,0,2.028-2.027,2.028,2.028,0,0,0-2.028-2.028A2.028,2.028,0,0,0,67.595-91.225Zm-22.307,0A2.027,2.027,0,0,0,47.316-89.2a2.027,2.027,0,0,0,2.029-2.027,2.028,2.028,0,0,0-2.029-2.028A2.028,2.028,0,0,0,45.288-91.225Zm-22.306,0A2.027,2.027,0,0,0,25.01-89.2a2.027,2.027,0,0,0,2.028-2.027,2.028,2.028,0,0,0-2.028-2.028A2.027,2.027,0,0,0,22.982-91.225ZM0-91.225A2.027,2.027,0,0,0,2.028-89.2a2.027,2.027,0,0,0,2.028-2.027,2.027,2.027,0,0,0-2.028-2.028A2.028,2.028,0,0,0,0-91.225Zm335.944,22.3a2.027,2.027,0,0,0,2.029,2.027A2.027,2.027,0,0,0,340-68.926a2.028,2.028,0,0,0-2.028-2.028A2.028,2.028,0,0,0,335.944-68.926Zm-22.982,0A2.027,2.027,0,0,0,314.99-66.9a2.027,2.027,0,0,0,2.028-2.027,2.028,2.028,0,0,0-2.028-2.028A2.028,2.028,0,0,0,312.962-68.926Zm-22.306,0a2.027,2.027,0,0,0,2.028,2.027,2.027,2.027,0,0,0,2.028-2.027,2.027,2.027,0,0,0-2.028-2.028A2.028,2.028,0,0,0,290.656-68.926Zm-22.306,0a2.027,2.027,0,0,0,2.028,2.027,2.027,2.027,0,0,0,2.028-2.027,2.028,2.028,0,0,0-2.028-2.028A2.027,2.027,0,0,0,268.35-68.926Zm-23.658,0A2.027,2.027,0,0,0,246.72-66.9a2.027,2.027,0,0,0,2.028-2.027,2.028,2.028,0,0,0-2.028-2.028A2.028,2.028,0,0,0,244.692-68.926Zm-22.982,0a2.027,2.027,0,0,0,2.028,2.027,2.027,2.027,0,0,0,2.028-2.027,2.027,2.027,0,0,0-2.028-2.028A2.028,2.028,0,0,0,221.71-68.926Zm-18.926,0a2.027,2.027,0,0,0,2.028,2.027,2.027,2.027,0,0,0,2.028-2.027,2.028,2.028,0,0,0-2.028-2.028A2.028,2.028,0,0,0,202.784-68.926Zm-25.01,0A2.027,2.027,0,0,0,179.8-66.9a2.027,2.027,0,0,0,2.028-2.027,2.028,2.028,0,0,0-2.028-2.028A2.028,2.028,0,0,0,177.773-68.926Zm-21.631,0a2.027,2.027,0,0,0,2.029,2.027,2.027,2.027,0,0,0,2.028-2.027,2.028,2.028,0,0,0-2.028-2.028A2.028,2.028,0,0,0,156.143-68.926Zm-22.982,0a2.027,2.027,0,0,0,2.028,2.027,2.027,2.027,0,0,0,2.028-2.027,2.028,2.028,0,0,0-2.028-2.028A2.027,2.027,0,0,0,133.161-68.926Zm-22.982,0a2.027,2.027,0,0,0,2.028,2.027,2.027,2.027,0,0,0,2.028-2.027,2.027,2.027,0,0,0-2.028-2.028A2.028,2.028,0,0,0,110.179-68.926Zm-22.307,0A2.027,2.027,0,0,0,89.9-66.9a2.027,2.027,0,0,0,2.028-2.027A2.028,2.028,0,0,0,89.9-70.953,2.028,2.028,0,0,0,87.872-68.926Zm-20.278,0A2.027,2.027,0,0,0,69.622-66.9a2.027,2.027,0,0,0,2.028-2.027,2.028,2.028,0,0,0-2.028-2.028A2.028,2.028,0,0,0,67.595-68.926Zm-22.307,0A2.027,2.027,0,0,0,47.316-66.9a2.027,2.027,0,0,0,2.029-2.027,2.028,2.028,0,0,0-2.029-2.028A2.028,2.028,0,0,0,45.288-68.926Zm-22.306.676a2.027,2.027,0,0,0,2.028,2.027,2.027,2.027,0,0,0,2.028-2.027,2.028,2.028,0,0,0-2.028-2.028A2.027,2.027,0,0,0,22.982-68.25ZM0-68.25a2.027,2.027,0,0,0,2.028,2.027A2.027,2.027,0,0,0,4.055-68.25a2.027,2.027,0,0,0-2.028-2.028A2.028,2.028,0,0,0,0-68.25ZM335.944-45.275a2.027,2.027,0,0,0,2.029,2.027A2.027,2.027,0,0,0,340-45.275a2.028,2.028,0,0,0-2.028-2.028A2.028,2.028,0,0,0,335.944-45.275Zm-22.982,0a2.027,2.027,0,0,0,2.028,2.027,2.027,2.027,0,0,0,2.028-2.027A2.028,2.028,0,0,0,314.99-47.3,2.028,2.028,0,0,0,312.962-45.275Zm-22.306,0a2.027,2.027,0,0,0,2.028,2.027,2.027,2.027,0,0,0,2.028-2.027,2.027,2.027,0,0,0-2.028-2.028A2.028,2.028,0,0,0,290.656-45.275Zm-22.306,0a2.027,2.027,0,0,0,2.028,2.027,2.027,2.027,0,0,0,2.028-2.027,2.028,2.028,0,0,0-2.028-2.028A2.027,2.027,0,0,0,268.35-45.275Zm-23.658,0a2.027,2.027,0,0,0,2.028,2.027,2.027,2.027,0,0,0,2.028-2.027A2.028,2.028,0,0,0,246.72-47.3,2.028,2.028,0,0,0,244.692-45.275Zm-22.982,0a2.027,2.027,0,0,0,2.028,2.027,2.027,2.027,0,0,0,2.028-2.027,2.027,2.027,0,0,0-2.028-2.028A2.028,2.028,0,0,0,221.71-45.275Zm-18.926,0a2.027,2.027,0,0,0,2.028,2.027,2.027,2.027,0,0,0,2.028-2.027,2.028,2.028,0,0,0-2.028-2.028A2.028,2.028,0,0,0,202.784-45.275Zm-25.01,0a2.027,2.027,0,0,0,2.028,2.027,2.027,2.027,0,0,0,2.028-2.027A2.028,2.028,0,0,0,179.8-47.3,2.028,2.028,0,0,0,177.773-45.275Zm-21.631,0a2.027,2.027,0,0,0,2.029,2.027,2.027,2.027,0,0,0,2.028-2.027,2.028,2.028,0,0,0-2.028-2.028A2.028,2.028,0,0,0,156.143-45.275Zm-22.982,0a2.027,2.027,0,0,0,2.028,2.027,2.027,2.027,0,0,0,2.028-2.027,2.028,2.028,0,0,0-2.028-2.028A2.027,2.027,0,0,0,133.161-45.275Zm-22.982,0a2.027,2.027,0,0,0,2.028,2.027,2.027,2.027,0,0,0,2.028-2.027,2.027,2.027,0,0,0-2.028-2.028A2.028,2.028,0,0,0,110.179-45.275Zm-22.307,0A2.027,2.027,0,0,0,89.9-43.248a2.027,2.027,0,0,0,2.028-2.027A2.028,2.028,0,0,0,89.9-47.3,2.028,2.028,0,0,0,87.872-45.275Zm-20.278,0a2.027,2.027,0,0,0,2.028,2.027,2.027,2.027,0,0,0,2.028-2.027A2.028,2.028,0,0,0,69.622-47.3,2.028,2.028,0,0,0,67.595-45.275Zm-22.307,0a2.027,2.027,0,0,0,2.028,2.027,2.027,2.027,0,0,0,2.029-2.027A2.028,2.028,0,0,0,47.316-47.3,2.028,2.028,0,0,0,45.288-45.275Zm-22.306,0a2.027,2.027,0,0,0,2.028,2.027,2.027,2.027,0,0,0,2.028-2.027A2.028,2.028,0,0,0,25.01-47.3,2.027,2.027,0,0,0,22.982-45.275ZM0-45.275a2.027,2.027,0,0,0,2.028,2.027,2.027,2.027,0,0,0,2.028-2.027A2.027,2.027,0,0,0,2.028-47.3,2.028,2.028,0,0,0,0-45.275ZM335.944-25a2.028,2.028,0,0,0,2.029,2.028A2.028,2.028,0,0,0,340-25a2.027,2.027,0,0,0-2.028-2.027A2.027,2.027,0,0,0,335.944-25Zm-22.982,0a2.028,2.028,0,0,0,2.028,2.028A2.028,2.028,0,0,0,317.018-25a2.027,2.027,0,0,0-2.028-2.027A2.027,2.027,0,0,0,312.962-25Zm-22.306,0a2.028,2.028,0,0,0,2.028,2.028A2.027,2.027,0,0,0,294.711-25a2.027,2.027,0,0,0-2.028-2.027A2.027,2.027,0,0,0,290.656-25ZM268.35-25a2.027,2.027,0,0,0,2.028,2.028A2.028,2.028,0,0,0,272.406-25a2.027,2.027,0,0,0-2.028-2.027A2.027,2.027,0,0,0,268.35-25Zm-23.658,0a2.028,2.028,0,0,0,2.028,2.028A2.028,2.028,0,0,0,248.747-25a2.027,2.027,0,0,0-2.028-2.027A2.027,2.027,0,0,0,244.692-25ZM221.71-25a2.028,2.028,0,0,0,2.028,2.028A2.027,2.027,0,0,0,225.765-25a2.027,2.027,0,0,0-2.028-2.027A2.027,2.027,0,0,0,221.71-25Zm-18.926,0a2.028,2.028,0,0,0,2.028,2.028A2.028,2.028,0,0,0,206.839-25a2.027,2.027,0,0,0-2.028-2.027A2.027,2.027,0,0,0,202.784-25Zm-25.01,0a2.028,2.028,0,0,0,2.028,2.028A2.028,2.028,0,0,0,181.829-25,2.027,2.027,0,0,0,179.8-27.03,2.027,2.027,0,0,0,177.773-25Zm-21.631,0a2.028,2.028,0,0,0,2.029,2.028A2.028,2.028,0,0,0,160.2-25a2.027,2.027,0,0,0-2.028-2.027A2.027,2.027,0,0,0,156.143-25Zm-22.982,0a2.027,2.027,0,0,0,2.028,2.028A2.028,2.028,0,0,0,137.217-25a2.027,2.027,0,0,0-2.028-2.027A2.027,2.027,0,0,0,133.161-25Zm-22.982,0a2.028,2.028,0,0,0,2.028,2.028A2.027,2.027,0,0,0,114.234-25a2.027,2.027,0,0,0-2.028-2.027A2.027,2.027,0,0,0,110.179-25ZM87.872-25A2.028,2.028,0,0,0,89.9-22.975,2.028,2.028,0,0,0,91.929-25,2.027,2.027,0,0,0,89.9-27.03,2.027,2.027,0,0,0,87.872-25ZM67.595-25a2.028,2.028,0,0,0,2.028,2.028A2.028,2.028,0,0,0,71.65-25a2.027,2.027,0,0,0-2.028-2.027A2.027,2.027,0,0,0,67.595-25ZM45.288-25a2.028,2.028,0,0,0,2.028,2.028A2.028,2.028,0,0,0,49.344-25a2.027,2.027,0,0,0-2.029-2.027A2.027,2.027,0,0,0,45.288-25ZM22.982-25a2.027,2.027,0,0,0,2.028,2.028A2.028,2.028,0,0,0,27.038-25,2.027,2.027,0,0,0,25.01-27.03,2.027,2.027,0,0,0,22.982-25ZM0-25a2.028,2.028,0,0,0,2.028,2.028A2.027,2.027,0,0,0,4.055-25,2.027,2.027,0,0,0,2.028-27.03,2.027,2.027,0,0,0,0-25ZM335.944-2.027A2.027,2.027,0,0,0,337.973,0,2.027,2.027,0,0,0,340-2.027a2.028,2.028,0,0,0-2.028-2.028A2.028,2.028,0,0,0,335.944-2.027Zm-22.982,0A2.027,2.027,0,0,0,314.99,0a2.027,2.027,0,0,0,2.028-2.027,2.028,2.028,0,0,0-2.028-2.028A2.028,2.028,0,0,0,312.962-2.027Zm-22.306,0A2.027,2.027,0,0,0,292.684,0a2.027,2.027,0,0,0,2.028-2.027,2.027,2.027,0,0,0-2.028-2.028A2.028,2.028,0,0,0,290.656-2.027Zm-22.306,0A2.027,2.027,0,0,0,270.378,0a2.027,2.027,0,0,0,2.028-2.027,2.028,2.028,0,0,0-2.028-2.028A2.027,2.027,0,0,0,268.35-2.027Zm-23.658,0A2.027,2.027,0,0,0,246.72,0a2.027,2.027,0,0,0,2.028-2.027,2.028,2.028,0,0,0-2.028-2.028A2.028,2.028,0,0,0,244.692-2.027Zm-22.982,0A2.027,2.027,0,0,0,223.737,0a2.027,2.027,0,0,0,2.028-2.027,2.027,2.027,0,0,0-2.028-2.028A2.028,2.028,0,0,0,221.71-2.027Zm-18.926,0A2.027,2.027,0,0,0,204.811,0a2.027,2.027,0,0,0,2.028-2.027,2.028,2.028,0,0,0-2.028-2.028A2.028,2.028,0,0,0,202.784-2.027Zm-25.01,0A2.027,2.027,0,0,0,179.8,0a2.027,2.027,0,0,0,2.028-2.027A2.028,2.028,0,0,0,179.8-4.055,2.028,2.028,0,0,0,177.773-2.027Zm-21.631,0A2.027,2.027,0,0,0,158.171,0,2.027,2.027,0,0,0,160.2-2.027a2.028,2.028,0,0,0-2.028-2.028A2.028,2.028,0,0,0,156.143-2.027Zm-22.982,0A2.027,2.027,0,0,0,135.189,0a2.027,2.027,0,0,0,2.028-2.027,2.028,2.028,0,0,0-2.028-2.028A2.027,2.027,0,0,0,133.161-2.027Zm-22.982,0A2.027,2.027,0,0,0,112.207,0a2.027,2.027,0,0,0,2.028-2.027,2.027,2.027,0,0,0-2.028-2.028A2.028,2.028,0,0,0,110.179-2.027Zm-22.307,0A2.027,2.027,0,0,0,89.9,0a2.027,2.027,0,0,0,2.028-2.027A2.028,2.028,0,0,0,89.9-4.055,2.028,2.028,0,0,0,87.872-2.027Zm-20.278,0A2.027,2.027,0,0,0,69.622,0,2.027,2.027,0,0,0,71.65-2.027a2.028,2.028,0,0,0-2.028-2.028A2.028,2.028,0,0,0,67.595-2.027Zm-22.307,0A2.027,2.027,0,0,0,47.316,0a2.027,2.027,0,0,0,2.029-2.027,2.028,2.028,0,0,0-2.029-2.028A2.028,2.028,0,0,0,45.288-2.027Zm-22.306,0A2.027,2.027,0,0,0,25.01,0a2.027,2.027,0,0,0,2.028-2.027A2.028,2.028,0,0,0,25.01-4.055,2.027,2.027,0,0,0,22.982-2.027ZM0-2.027A2.027,2.027,0,0,0,2.028,0,2.027,2.027,0,0,0,4.055-2.027,2.027,2.027,0,0,0,2.028-4.055,2.028,2.028,0,0,0,0-2.027Z" transform="translate(0 563)" fill="rgba(255,255,255,0.15)"/>
</svg>
