<svg id="google" xmlns="http://www.w3.org/2000/svg" width="13" height="13" viewBox="0 0 13 13">
  <path id="Path" d="M2.881,4.345,2.429,6.035.775,6.07A6.511,6.511,0,0,1,.727,0h0L2.2.27l.645,1.464a3.879,3.879,0,0,0,.036,2.612Z" transform="translate(0 3.511)" fill="#fbbb00"/>
  <path id="Path-2" data-name="Path" d="M6.244,0a6.507,6.507,0,0,1,.114,1.214,6.512,6.512,0,0,1-.142,1.357A6.5,6.5,0,0,1,3.926,6.283h0L2.071,6.188,1.809,4.55A3.874,3.874,0,0,0,3.476,2.571H0V0H6.244Z" transform="translate(6.643 5.286)" fill="#518ef8"/>
  <path id="Path-3" data-name="Path" d="M9.794,3.712h0A6.473,6.473,0,0,1,5.725,5.144,6.5,6.5,0,0,1,0,1.724L2.106,0A3.865,3.865,0,0,0,5.725,2.508a3.843,3.843,0,0,0,1.952-.529Z" transform="translate(0.775 7.856)" fill="#28b446"/>
  <path id="Path-4" data-name="Path" d="M9.922,1.5,7.816,3.22a3.865,3.865,0,0,0-5.7,2.024L0,3.511H0A6.5,6.5,0,0,1,9.922,1.5Z" transform="translate(0.727)" fill="#f14336"/>
</svg>
