<?xml version="1.0" encoding="utf-8"?>
<svg width="199px" height="200px" viewBox="0 0 199 200" version="1.1" xmlns:xlink="http://www.w3.org/1999/xlink" xmlns="http://www.w3.org/2000/svg">
  <g id="5613">
    <g id="g10" transform="matrix(1 2.1456883E-07 2.1456883E-07 -1 -1.4940373E-05 199.99997)">
      <g id="g12">
        <path d="M21.0269 26.9537L20.1931 27.7905L0 7.5995L0.491538 7.11237L5.84636 1.7658C9.27711 -1.67232 16.579 0.0642504 22.1595 5.63658C27.7354 11.2192 29.4702 18.5199 26.0394 21.9498L21.0355 26.9537L21.0269 26.9537" transform="translate(170.85033 0.15296656)" id="path16" fill="#616E7D" stroke="none" />
        <path d="M20.1934 25.0472L0 4.86917L4.94157 0L25.1347 20.191L24.5575 20.7682L24.5413 20.7594L20.1934 25.0472" transform="translate(165.90875 7.7524633)" id="path18" fill="#AAD4C8" stroke="none" />
        <path d="M79.7533 53.2109C49.2021 53.2109 24.4274 77.9782 24.4274 108.536C24.4274 139.096 49.2021 163.862 79.7533 163.862C110.312 163.862 135.081 139.096 135.081 108.536C135.081 77.9782 110.312 53.2109 79.7533 53.2109L79.7533 53.2109ZM78.6776 187.225C35.2238 187.225 0 151.993 0 108.536C0 65.0817 35.2238 29.8558 78.6776 29.8558C94.7879 29.8558 109.742 34.7046 122.22 43.011L165.884 0L186.077 20.1781L142.698 62.903C151.897 75.7795 157.366 91.5076 157.366 108.536C157.366 151.993 122.142 187.225 78.6776 187.225" transform="translate(0.024722416 12.621632)" id="path20" fill="#616E7D" stroke="none" />
        <path d="M39.4548 54.6787L0.807223 6.06652C-0.469892 4.45004 -0.204403 2.10096 1.4109 0.807947C2.10023 0.268138 2.92142 0 3.73908 0C4.83283 0 5.9304 0.478293 6.66771 1.4128L45.3102 50.028C46.5982 51.6444 46.3219 53.9912 44.7045 55.2774C43.0889 56.5528 40.7339 56.2961 39.4548 54.6787" transform="translate(49.83207 100.71346)" id="path22" fill="#82BFAB" stroke="none" />
        <path d="M39.4604 54.6796L0.810857 6.06534C-0.475089 4.44886 -0.201064 2.10184 1.41689 0.807653C2.10593 0.267255 2.92712 0 3.74125 0C4.83852 0 5.92874 0.48624 6.66604 1.41251L45.3156 50.0268C46.6001 51.6433 46.3273 53.9912 44.7099 55.2842C43.0996 56.5634 40.7393 56.2952 39.4604 54.6796" transform="translate(66.03476 84.50625)" id="path24" fill="#82BFAB" stroke="none" />
      </g>
    </g>
  </g>
</svg>