<svg xmlns="http://www.w3.org/2000/svg" width="26.069" height="24.983" viewBox="0 0 26.069 24.983">
  <g id="paper-plane" transform="translate(0 0)">
    <path id="Path" d="M0,0V5.038a.814.814,0,0,0,1.471.482L4.418,1.51Z" transform="translate(9.504 19.13)" fill="#fff"/>
    <path id="Path-2" data-name="Path" d="M25.727.151a.815.815,0,0,0-.849-.059L.438,12.855a.815.815,0,0,0,.113,1.494l6.794,2.322L21.815,4.3l-11.2,13.49L22,21.681a.833.833,0,0,0,.263.043.814.814,0,0,0,.806-.694L26.061.935A.816.816,0,0,0,25.727.151Z" transform="translate(0 0)" fill="#fff"/>
  </g>
</svg>
