<svg xmlns="http://www.w3.org/2000/svg" width="77.452" height="68.365" viewBox="0 0 77.452 68.365">
  <g id="quote" transform="translate(0 -0.016)">
    <path id="Path" d="M29.3,0H5.15A3.973,3.973,0,0,0,1.178,3.972V28.12A3.973,3.973,0,0,0,5.15,32.092H16.708q-.226,9.485-4.4,15.188A23.927,23.927,0,0,1,2.354,54.73a3.966,3.966,0,0,0-1.97,5.33L3.244,66.1a3.971,3.971,0,0,0,5.171,1.938,44.158,44.158,0,0,0,13.321-8.642,33.533,33.533,0,0,0,9.079-14.449q2.455-8.055,2.455-21.987V3.972A3.973,3.973,0,0,0,29.3,0Z" transform="translate(44.181 0.016)" fill="#fff" opacity="0.545"/>
    <path id="Path-2" data-name="Path" d="M8.423,68.02a44.9,44.9,0,0,0,13.258-8.627A33.355,33.355,0,0,0,30.816,45q2.455-8,2.454-22.043V3.972A3.973,3.973,0,0,0,29.3,0H5.15A3.973,3.973,0,0,0,1.178,3.972V28.12A3.973,3.973,0,0,0,5.15,32.092H16.708q-.226,9.485-4.4,15.188A23.928,23.928,0,0,1,2.354,54.73a3.966,3.966,0,0,0-1.97,5.33l2.852,6.021A3.983,3.983,0,0,0,8.423,68.02Z" transform="translate(0 0.016)" fill="#fff" opacity="0.545"/>
  </g>
</svg>
