<?xml version="1.0" encoding="utf-8"?>
<svg width="32px" height="45px" viewBox="0 0 32 45" version="1.1" xmlns:xlink="http://www.w3.org/1999/xlink" xmlns="http://www.w3.org/2000/svg">
  <g id="reading">
    <path d="M29.6982 29.6982L29.6982 25.0175L27.7229 25.786L27.7171 25.773L27.67 25.6875C26.9131 24.509 25.6889 23.689 24.3105 23.4391L19.5573 22.5742L19.5573 22.199C21.3349 21.1668 22.6365 19.406 23.0422 17.3242C24.359 17.0518 25.3521 15.8835 25.3521 14.4869L25.3521 7.33256C25.3521 5.31091 24.028 3.54785 22.107 2.97416L21.7449 2.61199C20.06 0.927163 17.8204 0 15.438 0C10.5204 0 6.51911 4.00056 6.51911 8.91887L6.51911 14.4869C6.51911 15.8835 7.51219 17.0518 8.82905 17.3242C9.23541 19.406 10.5363 21.1676 12.3139 22.199L12.3139 22.5742L7.56145 23.4384C6.18447 23.6883 4.96105 24.5068 4.20338 25.6846L4.15992 25.7903L2.17304 25.0175L2.17304 29.6982C0.97497 29.6982 0 30.6732 0 31.8712L0 34.7686C0 35.9667 0.97497 36.9417 2.17304 36.9417L2.17304 39.6101L15.9356 44.9631L29.6982 39.6101L29.6982 36.9417C30.8963 36.9417 31.8712 35.9667 31.8712 34.7686L31.8712 31.8712C31.8712 30.6732 30.8963 29.6982 29.6982 29.6982ZM20.9148 24.2938L24.0512 24.8639C24.9747 25.032 25.7925 25.5651 26.3379 26.3242L19.3299 29.0492L20.9148 24.2938ZM13.8241 22.8633C14.4927 23.0675 15.2011 23.1791 15.9356 23.1791C16.6701 23.1791 17.3785 23.0675 18.0471 22.8633L15.9356 24.4467L13.8241 22.8633ZM14.8332 25.4303L13.3548 26.908L12.3957 24.0316L12.8571 23.9483L14.8332 25.4303ZM19.0141 23.9491L19.4755 24.0324L18.5165 26.9087L17.0381 25.4311L19.0141 23.9491ZM23.1791 15.7342L23.1791 13.2396C23.6101 13.4909 23.9034 13.9531 23.9034 14.4869C23.9034 15.0208 23.6101 15.4829 23.1791 15.7342ZM8.69215 15.7342C8.26117 15.4829 7.96781 15.0208 7.96781 14.4869C7.96781 13.9531 8.26117 13.4909 8.69215 13.2396L8.69215 15.7342ZM8.69215 10.8652L8.69215 11.6924C8.43429 11.7598 8.19235 11.8612 7.96781 11.9923L7.96781 8.91887C7.96781 4.80024 11.3186 1.44869 15.438 1.44869C17.4328 1.44869 19.3096 2.22592 20.7206 3.63694L21.3595 4.27654L21.5544 4.32435C22.9379 4.66986 23.9034 5.90704 23.9034 7.33256L23.9034 11.9923C23.6789 11.8612 23.4369 11.759 23.1791 11.6924L23.1791 10.8652L20.8822 10.8652C18.9192 10.8652 17.0431 9.92789 15.8661 8.35823L15.2902 7.58897L13.8509 9.02897C12.6659 10.2133 11.0912 10.8652 9.4165 10.8652L8.69215 10.8652ZM10.1408 15.9356L10.1408 12.2806C11.9293 12.1147 13.5887 11.3389 14.8752 10.0532L15.1569 9.77143C16.6093 11.3744 18.7012 12.3139 20.8822 12.3139L21.7304 12.3139L21.7304 15.9356C21.7304 19.1307 19.1307 21.7304 15.9356 21.7304C12.7405 21.7304 10.1408 19.1307 10.1408 15.9356ZM7.82004 24.8639L10.9565 24.2938L12.5413 29.0492L5.53183 26.3235C6.07726 25.5636 6.8965 25.032 7.82004 24.8639ZM1.44869 34.7686L1.44869 31.8712C1.44869 31.4714 1.77392 31.1469 2.17304 31.1469C3.37111 31.1469 4.34608 32.1218 4.34608 33.3199C4.34608 34.518 3.37111 35.493 2.17304 35.493C1.77392 35.493 1.44869 35.1684 1.44869 34.7686ZM15.2113 43.1261L3.62173 38.62L3.62173 36.6345C4.89875 36.0739 5.79477 34.8012 5.79477 33.3199C5.79477 31.8386 4.89875 30.566 3.62173 30.0053L3.62173 27.1355L15.2113 31.6423L15.2113 43.1261ZM13.0607 29.252L15.9356 26.3763L18.8105 29.2513L15.9356 30.3697L13.0607 29.252ZM28.2495 38.6192L16.66 43.1254L16.66 31.6423L28.2495 27.1355L28.2495 30.0053C26.9725 30.566 26.0765 31.8386 26.0765 33.3199C26.0765 34.8012 26.9725 36.0739 28.2495 36.6345L28.2495 38.6192ZM30.4225 34.7686C30.4225 35.1684 30.0973 35.493 29.6982 35.493C28.5001 35.493 27.5252 34.518 27.5252 33.3199C27.5252 32.1218 28.5001 31.1469 29.6982 31.1469C30.0973 31.1469 30.4225 31.4714 30.4225 31.8712L30.4225 34.7686Z" transform="translate(0.026800806 0)" id="Shape" fill="#40B5F0" stroke="none" />
  </g>
</svg>