<svg xmlns="http://www.w3.org/2000/svg" width="704.003" height="629.892" viewBox="0 0 704.003 629.892">
  <g id="root2" transform="translate(-287.997 -91)">
    <g id="Asset_1_2_" data-name="Asset 1 (2)" transform="translate(361 91)">
      <path id="Path" d="M173.39,86.7c-25.19,8.49-26.91,16.58-6.81,33.74C140.25,118,135.75,124.62,148,148c-23.38-12.25-30-7.75-27.56,18.58-17.16-20.1-25.25-18.38-33.74,6.81-8.5-25.19-16.59-26.91-33.7-6.81,2.45-26.33-4.18-30.83-27.56-18.58,12.25-23.38,7.75-30-18.58-27.56C26.91,103.28,25.19,95.19,0,86.7,25.19,78.2,26.91,70.11,6.81,53c26.33,2.45,30.83-4.18,18.58-27.56C48.77,37.64,55.4,33.14,53,6.81,70.11,26.91,78.2,25.19,86.7,0c8.49,25.19,16.58,26.91,33.74,6.81C118,33.14,124.62,37.64,148,25.39c-12.25,23.38-7.75,30,18.58,27.56C146.48,70.11,148.2,78.2,173.39,86.7Z" fill="#ebd2b9"/>
      <circle id="Oval" cx="59.96" cy="59.96" r="59.96" transform="translate(11.802 126.45) rotate(-72.96)" fill="#ebd2b9" stroke="#fff" stroke-miterlimit="10" stroke-width="6.13"/>
    </g>
    <g id="Asset_1_1_" data-name="Asset 1 (1)" transform="translate(361 91)">
      <path id="Path-2" data-name="Path" d="M14.2,12.686A14.323,14.323,0,0,0,32,13.1a16.957,16.957,0,0,0-6.591-9.739A18.539,18.539,0,0,0,12.393.155C7.837.653,6.819,2.8,0,4.471c3.751.112,5.8,2.856,9.355,4.813a28.227,28.227,0,0,1,4.845,3.4Z" transform="translate(67 220)" fill="#d3dcc5"/>
      <path id="Path-3" data-name="Path" d="M18.423,11.657a25.391,25.391,0,0,0,10.705,2.327A20.682,20.682,0,0,0,40,11.4a20.642,20.642,0,0,0-9.765-9.02A25.345,25.345,0,0,0,12.358,1.032,14.965,14.965,0,0,0,6.293,4.458C4.67,5.9,2.714,7.566,0,10.4A9.437,9.437,0,0,1,5.716,8.954c1.971.072,3.958.491,6.247.766A22.407,22.407,0,0,1,18.423,11.657Z" transform="translate(54 163)" fill="#d3dcc5"/>
      <path id="Path-4" data-name="Path" d="M3.791,6.463a24.323,24.323,0,0,0-2.479,7.369C.967,16.426.534,19.543.189,22.091a20.98,20.98,0,0,0,.13,6.448,23.967,23.967,0,0,0,1.773,5.88A18.6,18.6,0,0,0,9.4,43,25.179,25.179,0,0,0,13,29.936,42.726,42.726,0,0,0,9.988,14.584,59.327,59.327,0,0,0,7.625,9.057,13.25,13.25,0,0,1,7.12,0C6,2.41,4.872,4.314,3.791,6.463Z" transform="translate(130 143)" fill="#d3dcc5"/>
      <path id="Path-5" data-name="Path" d="M9.392,41a25.81,25.81,0,0,0,3.594-12.539A35.186,35.186,0,0,0,9.93,13.044C7.937,8.176,5.653,7.869,2.379,0c.873,4.593-.887,8.053-1.222,13.274Q.9,17.047.27,20.776C-1.127,28.813,3.048,37.938,9.392,41Z" transform="translate(19 185)" fill="#d3dcc5"/>
      <path id="Path-6" data-name="Path" d="M15.805,11.959a15.56,15.56,0,0,0,8.914,2A19.11,19.11,0,0,0,34,10.806a15.093,15.093,0,0,0-7.8-8.734A20.313,20.313,0,0,0,11.716.772,14.611,14.611,0,0,0,6.509,3.417,52.4,52.4,0,0,1,0,7.511c3.768-.9,6.524,1.079,10.414,2.143A23.4,23.4,0,0,1,15.805,11.959Z" transform="translate(0 233)" fill="#d3dcc5"/>
      <path id="Path-7" data-name="Path" d="M7.777,16.778a20.871,20.871,0,0,1,6.139-.9A19.154,19.154,0,0,0,31,2.124,21.291,21.291,0,0,0,18.04.323a23.929,23.929,0,0,0-7.551,2.44A26.846,26.846,0,0,0,3.177,8.1,10.885,10.885,0,0,0,0,15.468a12.767,12.767,0,0,0,.523,3.962A5.9,5.9,0,0,0,3.034,23a3.013,3.013,0,0,1,.508-4,9.711,9.711,0,0,1,4.235-2.227Z" transform="translate(12 271)" fill="#d3dcc5"/>
      <path id="Path-8" data-name="Path" d="M38,1.966A34.58,34.58,0,0,0,26.282,0,39.909,39.909,0,0,0,13.218,2.49a31.114,31.114,0,0,0-5.21,2.46A20.68,20.68,0,0,1,0,7.293c4.468.437,7.189,2.911,12.368,3.945l7.359,1.456a17.056,17.056,0,0,0,12.012-2.125A12.67,12.67,0,0,0,38,1.966Z" transform="translate(5 303)" fill="#d3dcc5"/>
      <path id="Path-9" data-name="Path" d="M8.817,27.419a71.065,71.065,0,0,1,4.356-5.88c5.152-6.179,5.054-16.1,0-21.539A24.242,24.242,0,0,0,3.99,8.962,29.444,29.444,0,0,0,.025,23.3C-.252,28.331,1.894,29.746,1.341,38,2.674,33.645,6.1,31.664,8.817,27.419Z" transform="translate(132 308)" fill="#d3dcc5"/>
      <path id="Path-10" data-name="Path" d="M19.88,1.057A26.286,26.286,0,0,0,10.2,6.49a28.42,28.42,0,0,0-3.707,3.744A15.466,15.466,0,0,1,0,14.407C4.023,13.993,6.891,16,11.69,16l6.954-.175a13.127,13.127,0,0,0,9.932-5.369A11.57,11.57,0,0,0,30.524.086a32.9,32.9,0,0,0-10.645.972Z" transform="translate(36 323)" fill="#d3dcc5"/>
      <path id="Path-11" data-name="Path" d="M2.3,35a22.281,22.281,0,0,0,10.464-7.935,25.683,25.683,0,0,0,3.6-6.7c.816-2.23,1.3-4.244,1.92-6.428a36.863,36.863,0,0,0,1.04-5.8A25.807,25.807,0,0,1,22,0c-2.864,3.583-6.816,4.137-11.008,7.843C9.12,9.519,6.848,11.81,5.136,13.579A18.446,18.446,0,0,0,.159,24.236,16.733,16.733,0,0,0,2.3,35Z" transform="translate(331 57)" fill="#d3dcc5"/>
      <path id="Path-12" data-name="Path" d="M4.343,16.8a12.311,12.311,0,0,0,7.5,7.427A11.694,11.694,0,0,0,22,23.355a27.263,27.263,0,0,0-3.459-9.529,22.352,22.352,0,0,0-7.9-7.3A25.742,25.742,0,0,0,6,4.358,15.669,15.669,0,0,1,0,0C1.737,3.361.742,6.522,2.164,10.742,2.89,12.568,3.743,14.885,4.343,16.8Z" transform="translate(142 118)" fill="#d3dcc5"/>
      <path id="Path-13" data-name="Path" d="M35,21.582c-2.476-3.568-6.766-6.287-10.119-8.331-2.03-1.273-3.921-2.232-5.659-3.144a40.348,40.348,0,0,1-5.459-3.144A33.394,33.394,0,0,0,8.1,3.82C6.105,2.971,3.737,1.493,0,0A9.437,9.437,0,0,1,3.414,5.061a52.169,52.169,0,0,0,2.414,6.885,40.607,40.607,0,0,0,4.813,7.859,16.245,16.245,0,0,0,6.151,4.716A17.853,17.853,0,0,0,23.866,26,15.818,15.818,0,0,0,35,21.582Z" transform="translate(141 92)" fill="#d3dcc5"/>
      <path id="Path-14" data-name="Path" d="M3.473,36a16.49,16.49,0,0,0,8.648-8.651,21.973,21.973,0,0,0,.958-15.185A15.8,15.8,0,0,0,10.3,6.78,54.085,54.085,0,0,1,6.047,0c1,3.973-.943,6.918-1.93,11.09a26.735,26.735,0,0,1-2.214,5.8A17.375,17.375,0,0,0,.077,26.429,19.647,19.647,0,0,0,3.473,36Z" transform="translate(227 62)" fill="#d3dcc5"/>
      <path id="Path-15" data-name="Path" d="M.27,13.3C-1.078,18.538,2.758,23.792,8.889,25a14.588,14.588,0,0,0,4.073-8.532,12.829,12.829,0,0,0-3.081-9.41C7.719,4.282,5.438,4.407,1.721,0c1.14,2.745-.474,5.144-.666,8.454A27.767,27.767,0,0,1,.27,13.3Z" transform="translate(110 125)" fill="#d3dcc5"/>
      <path id="Path-16" data-name="Path" d="M21.188,32c2.632-3.224,3.27-8.183,2.518-12.684A22.409,22.409,0,0,0,14.534,5.627,17.57,17.57,0,0,0,8.42,2.844,77.806,77.806,0,0,1,0,0C3.662,2.555,4.071,6.205,6.033,10.251a25.171,25.171,0,0,1,1.913,6.19,18.915,18.915,0,0,0,4.414,9.125A22.724,22.724,0,0,0,21.188,32Z" transform="translate(83 140)" fill="#d3dcc5"/>
      <path id="Path-17" data-name="Path" d="M10.5,1.145A21.239,21.239,0,0,0,6.383,3.219,14.928,14.928,0,0,1,0,5.175c3.261.559,4.768,3.1,8.355,4.6,1.553.647,3.541,1.471,5.187,2.309a10.482,10.482,0,0,0,9.131-.279A9.846,9.846,0,0,0,28,4.675,22.807,22.807,0,0,0,19.723.381,15.372,15.372,0,0,0,10.5,1.145Z" transform="translate(35 185)" fill="#d3dcc5"/>
      <path id="Path-18" data-name="Path" d="M3.553,16.064a10.613,10.613,0,0,0,6.179,7.187,9.94,9.94,0,0,0,9.268-.9A25.088,25.088,0,0,0,16.915,12.5a15.814,15.814,0,0,0-6.8-6.957A20.892,20.892,0,0,0,5.762,3.725,14.412,14.412,0,0,1,0,0C1.715,3.068.7,6.17,1.885,10.173,2.456,11.929,3.028,14.177,3.553,16.064Z" transform="translate(56 133)" fill="#d3dcc5"/>
      <path id="Path-19" data-name="Path" d="M6.629,8.453A20.762,20.762,0,0,1,3.3,12.616C-.814,16.59-1.057,22.985,2.438,29a14.294,14.294,0,0,0,9.952-5.05,15.583,15.583,0,0,0,3.431-12.316C15.238,7.329,13.07,6.221,10.966,0,11.112,3.435,8.442,5.319,6.629,8.453Z" transform="translate(429 113)" fill="#d3dcc5"/>
      <path id="Shape" d="M303.384,558.695a70.068,70.068,0,0,0-15.4-25.314c-4.916-5.378-10.439-10.21-14.81-16.07s-7.576-13-6.923-20.264c.607-6.827,4.542-13,5.46-19.8a33.561,33.561,0,0,0-1.354-13.343,20.011,20.011,0,0,1-3.718,8.9,21.8,21.8,0,0,1-5.088,4.832,19.613,19.613,0,0,0-3.406,3.974,15.98,15.98,0,0,0-1.836,5.909,37.153,37.153,0,0,0,.529,13.5c-3.532-6.764-4.73-15.51-2.054-22.352s8.276-12.3,10.454-19.313c1.96-6.329.933-13-1.354-19.329A46.569,46.569,0,0,1,262,446.807c-2.723,7.482-7.748,14-10.129,21.6a50.942,50.942,0,0,0-1.96,14.309c-.155,7.483.685,15.494,5.352,21.34,1.462,1.823,3.314,3.367,4.869,5.05a46.573,46.573,0,0,1,12.2,28.339,72.778,72.778,0,0,1-4.666,30.879,55.336,55.336,0,0,0-7.079-47.792c-3.392-4.91-7.561-9.321-10.968-14.263s-6.052-10.724-5.787-16.726c-1.789,6.376.357,12.72,3.376,18.6s7,11.27,9.5,17.38a40.035,40.035,0,0,1,1.774,24.613,62.331,62.331,0,0,0-2.022,8.542c-.9,9.166,5.569,17.458,12.835,23.1a21.188,21.188,0,0,1-19.385-22.93c.249-3.055,1.167-6.017,1.712-9.025a37.765,37.765,0,0,0,0-13.545,16.646,16.646,0,0,1-2.193,11.207,68.747,68.747,0,0,1-4.87,6.235,35.163,35.163,0,0,0-7.3,21.465c-.124-2.542-1.089-5.534-1.089-8.043a31.231,31.231,0,0,1,2.629-11.067c1.4-3.586,4-6.547,5.865-9.9,5.647-10.1,4.061-22.977-.824-33.483-3.22-6.936-7.81-13.421-10.174-20.576A60.221,60.221,0,0,1,221.413,532.9c-2.147,2.728-4.512,5.285-6.612,8.059a46.1,46.1,0,0,0-9.63,25.3,30.017,30.017,0,0,1,.731-23.225c2.925-6.313,7.966-11.363,11.575-17.3a44.043,44.043,0,0,0,5.974-28.058q-9.35,11.659-19.571,22.571a44.323,44.323,0,0,0-6.3,7.793,41.67,41.67,0,0,0-3.486,9.182c-3.111,11.036-6.394,22.259-6.223,33.747-1.945-12.86-3.407-27.9,1.4-39.982,4.542-11.457,14.3-19.859,22.7-28.868,10.439-11.255,19.571-25.237,19.027-40.528a39.722,39.722,0,0,0-.871-6.968,63.027,63.027,0,0,1-17.113,11.768c-7.685,3.539-16.117,5.628-23.025,10.522-.482.343-.965.717-1.431,1.091a74.933,74.933,0,0,1-14.531,53.2c-5.212,6.859-11.933,12.767-20.365,14.544,9.957-5.347,16.631-15.51,19.851-26.421a92.99,92.99,0,0,0,3.034-27.933c-4.325,5.861-8.541,11.847-14.266,16.242-10.144,7.826-22.823,9.664-35.533,11.052,4.9-4.989,12.912-4.568,19.446-7.046,6.286-2.385,11.139-7.513,15.028-13.016s7.033-11.519,11.2-16.8a53.9,53.9,0,0,1,18.669-15.011c4.714-2.291,9.739-3.9,14.5-6.095a63.48,63.48,0,0,0,35.284-48.93,126.142,126.142,0,0,0-14.11,5.128l-1.556.655a37.112,37.112,0,0,1-12.694,13.265A90.127,90.127,0,0,1,195.6,438.9c-3.189,10.709-11.621,19.641-20.847,26.3-4.807,3.429-9.8,6.484-14.142,10.428s-7.95,9.04-8.774,14.854a25.769,25.769,0,0,1,6.223-16.632c5.974-6.453,14.982-9.43,20.878-15.946a24.794,24.794,0,0,0,6.223-14.98,61.544,61.544,0,0,0-18.793,11.021c-5.523,5.051-9.335,11.551-14,17.427a88.936,88.936,0,0,1-40.076,28.838c-5.647,2-11.5,3.414-16.911,5.97s-9.615,5.6-12.073,11.052c3.485-10.693,14.406-16.913,24.892-21.059s21.842-7.607,29.155-16.149c4.387-5.113,6.861-11.582,10.19-17.428a50.6,50.6,0,0,0-19.851,3.321,32.864,32.864,0,0,0-17.611,15.853,38.443,38.443,0,0,1,19.509-19.2,63.1,63.1,0,0,1,21.111-4.785c.544-.639,1.012-1.294,1.556-1.886,4.822-5.394,11.512-8.651,18.015-11.768l22.713-10.912a66,66,0,0,0,12.679-7.3l1.447-1.216a49.444,49.444,0,0,1-7.079,1.559,85.443,85.443,0,0,1-12.861.608c-6.3-.018-12.581-.036-18.5,1.964-12.446,4.162-20.225,16.04-27.194,27.139.373-4.957,2.94-12.829,6.223-16.57-3.905,4.177-11.808,5.861-17.114,3.819s-10.3-5.315-15.961-5.767c-4.792-.39-9.474,1.293-14.251,1.917a32.008,32.008,0,0,1-25.981-7.607c7.437,1.948,15.184,3.9,22.714,2.417,3.453-.686,6.752-2.089,10.237-2.651,5.85-.932,11.852.492,17.776,1.916,7.655,1.84,15.18,3.68,22.082.438,6.456-3.024,10.329-9.774,16.226-13.811,10.066-6.858,23.538-4.6,35.533-6.858,21.08-3.991,37.867-22.977,46.672-42.71a191.554,191.554,0,0,0,7.856-69.537,1.308,1.308,0,0,0,0-.266,30.3,30.3,0,0,1-7.779-2.541,28.454,28.454,0,0,1-9.007-6.7,26.806,26.806,0,0,0-5.445-4.676c-4.247-2.572-7.095-5.549-11.933-5.549,4.247-.951,6.83-1.559,9.039-2.2a17.628,17.628,0,0,1,7.141-.624,25.639,25.639,0,0,1,16.211,8.418c-.591-3.258-1.261-6.563-2.147-9.68A64.8,64.8,0,0,0,218.643,248.2c-6.768-1.512-13.567-2.946-20.4-4.1a61.254,61.254,0,0,1-24.331,13.718c-11.171,3.414-22.87,4.411-34.507,4.973-2.831.14-5.71.28-8.541.592-1.337.639-2.94,1.4-4.993,2.525s-4.387,2.494-6.721,4.053v.077c-.638.7-1.447,1.341-2.334,2.261a10.025,10.025,0,0,0-2.691,4.411,22.4,22.4,0,0,1-.218,2.915c-.032.3-.156.561-.156.841v2.743c.265,4.084.965,7.264.622,7.4s-1.493-1.808-2.411-4.926a16.878,16.878,0,0,1-1.851,3.118A23.28,23.28,0,0,0,107,294.359c-1.509,4.131-3.765,7.077-2.925,11.254-1.7-3.507-2.863-5.628-3.936-7.42a15.479,15.479,0,0,1-2.256-6.064,21.763,21.763,0,0,1,3.89-16.04,17.64,17.64,0,0,1,8.992-6.453,18.663,18.663,0,0,1-5.647-1.715c-4.621-2.245-6.767-5.549-6.41-5.892s3.034,2.291,7.313,3.695a19.176,19.176,0,0,0,6.954,1.013,20.064,20.064,0,0,0,6.471-1.419,21.753,21.753,0,0,0,3.112-1.559l1.354-.67L124.1,263a52.145,52.145,0,0,1,5.507-2.619l.171.374a118.464,118.464,0,0,1,17.627-3.773c8.276-1.34,16.429-3.086,23.741-7.373a47.008,47.008,0,0,0,9.568-7.482,181.34,181.34,0,0,0-21.982-.343,19.646,19.646,0,0,1-15.557,13.592,53.509,53.509,0,0,0-7.095,1.559c-4.792,1.481-8.618,1.06-12.353,3.741,5.616-6.344,4.994-8.7,8.728-12.47a34.4,34.4,0,0,1,3.22-2.946,103.181,103.181,0,0,1-32.468.343c-.545.249-1.136.515-1.867.873a40.719,40.719,0,0,0-8.743,5.8c-.342.281-.653.577-.965.857a23.7,23.7,0,0,1-.171,10.241,24.078,24.078,0,0,1-4.978,10.055,30.936,30.936,0,0,0-3.967,5.923c-2.163,4.442-4.87,7.326-4.87,12a73.342,73.342,0,0,0-2.567-8.666,17.923,17.923,0,0,1-1.307-6.719,26.281,26.281,0,0,1,5.585-16.6,19.828,19.828,0,0,1,11.014-7.045c.3-.374.607-.749.965-1.139a30.844,30.844,0,0,1,6.581-5.408,35.209,35.209,0,0,1-7.328-1.777,22.124,22.124,0,0,0-6.658,1.309,50.3,50.3,0,0,1-8.743,2.073l-1.089.14c-2.054,5.409-3.578,9.384-7.561,12.829a17.153,17.153,0,0,0-3.687,4.817c-1.96,3.882-4.433,6.578-4.433,10.912a46.645,46.645,0,0,0-2.8-7.934,14.923,14.923,0,0,1-1.555-6.235,20.429,20.429,0,0,1,1.664-8.557,17.653,17.653,0,0,1,4.885-6.531l-.374.125a46.308,46.308,0,0,0-6.6,2.1c-4.418,1.855-8.121,1.73-11.357,4.676,4.543-6.656,3.719-8.886,6.83-12.892a30.929,30.929,0,0,1,5.351-5.424,18.969,18.969,0,0,1,8.075-3.741,15.11,15.11,0,0,1,2.94-.234,24.171,24.171,0,0,1-2.272-1.465,32.054,32.054,0,0,1-5.8-6.234l-.466-.421c-.4-.125-.918-.3-1.556-.515-1.742-.639-4.029-1.449-6.083-2.2a33.9,33.9,0,0,1-10.377,2.51,41.553,41.553,0,0,1-14.079-1.092A43.464,43.464,0,0,0,16.1,220.66c-6.16-.2-10.657-1.5-16.1.639,4.388-2.775,6.861-4.552,8.915-6.111a24.24,24.24,0,0,1,7.141-3.944,36.4,36.4,0,0,1,21.594-.841c5.85,1.652,11.357,4.942,14,8.916,1.105.265,2.147.545,3.112.858l-1.183-1.559a30.107,30.107,0,0,1-2.272-3.741c-.545-1.045-1.012-2.042-1.431-3.009a15.75,15.75,0,0,1-8.666-6.718,18.843,18.843,0,0,1-2.971-12.314c.28-2.432.607-5.378.778-7.794.42-5.424,2.52-8.744,2.084-13.5a24.986,24.986,0,0,0,3.967,7.919,26.16,26.16,0,0,1,3.376,5.315,39.431,39.431,0,0,1,4,14.5,32.148,32.148,0,0,1-1.354,11.238c.56,1.092,1.166,2.229,1.883,3.4a34.359,34.359,0,0,0,2.364,3.507c.965,1.107,1.821,2.182,2.972,3.46s2.3,2.666,3.515,3.944a89.261,89.261,0,0,0,8.214,5.643c1.338.654,2.692,1.309,4,2,3.7,1.823,7.3,3.8,10.719,5.361.342.14.7.25,1.058.374a28.211,28.211,0,0,1-4.745-5.175,27.424,27.424,0,0,1-4.045-8.744,26.556,26.556,0,0,1-.871-7.529,10.509,10.509,0,0,1,.373-3.118v3.118a29.313,29.313,0,0,0,1.2,7.311,27.689,27.689,0,0,0,4.122,8.356,28.038,28.038,0,0,0,6.3,6.234l1.12.779c1.416.468,2.847.873,4.294,1.279h.793a19.322,19.322,0,0,1-1.649-1.965c-.094.157-.156.359-.265.515a14.7,14.7,0,0,1-8.463-6.547,16.359,16.359,0,0,1-2.443-11.067c.327-2.182.653-4.832.762-7.015.327-4.879,2.24-8,1.446-12.268,3.267,7.279,5.788,7.483,7.934,11.738A28.737,28.737,0,0,1,95.414,227.5a26.072,26.072,0,0,1-1.712,9.353,21.774,21.774,0,0,0,6.223,5.206c1.307.266,2.614.546,3.936.749a84.388,84.388,0,0,0,24.1.187c8.915-1.2,17.642-3.632,26.447-5.628a157.291,157.291,0,0,1,33.137-3.8,1.662,1.662,0,0,1,2.007-.14c2.116-.171,4.216-.249,6.331-.358a102.608,102.608,0,0,0-19.135-9.353,83.856,83.856,0,0,0-21.469-4.053,32.251,32.251,0,0,0-10.454,3.819c-3.485,2.058-5.43,4.459-5.71,4.459s1.292-3.118,4.683-5.721a22,22,0,0,1,4.418-2.6,79.984,79.984,0,0,0-8.572.811l-1.323.624c-2.488,1.138-5.834,2.837-8.541,4.255s-4.807,2.572-4.978,2.338,1.6-1.886,4.153-3.695a57.152,57.152,0,0,1,5.57-3.46l-3.749.5a3.283,3.283,0,0,1,.109.53c-3.345,1.559-4.979,3.695-6.939,5.175a13.986,13.986,0,0,1-3.376,2.027A16.354,16.354,0,0,1,115.513,230a70.64,70.64,0,0,1-7.779.452,12.877,12.877,0,0,1-7.156-2.556,19.567,19.567,0,0,1-4.979-5.128,6.346,6.346,0,0,0,4.776,2,6.528,6.528,0,0,0,2.956-.842,22.883,22.883,0,0,0,3.641-2.837,34.781,34.781,0,0,1,4.667-3.367,18.876,18.876,0,0,1,7.421-2.541,14.328,14.328,0,0,1,7.608,1.2,8.409,8.409,0,0,1,3.547,3.071c3.749-.749,7.934-1.5,11.808-2.105A31.06,31.06,0,0,1,133.887,214l-.218-.14a12.547,12.547,0,0,1-6.332-.9,13.3,13.3,0,0,1-7.529-7.794c-.762-1.933-1.556-4.333-2.318-6.235-1.633-4.349-.9-7.716-2.924-11.146a17.355,17.355,0,0,0,6.316,4.3,23.524,23.524,0,0,1,4.807,2.337,25.025,25.025,0,0,1,8.4,8.075,26.43,26.43,0,0,1,3.515,10.273,11.452,11.452,0,0,1-1.555.639,37.434,37.434,0,0,0,12.026,2.79h2.644l1.416-.14a60.734,60.734,0,0,1,17.222,0,90.744,90.744,0,0,1,14.2,3.85c10.392,3.43,21.018,7.015,29.917,13.25,1,.047,1.975.187,2.971.187a22.126,22.126,0,0,1-9.661-7.483c-1.462-2.042-3.361-4.458-5.041-6.359-3.173-3.616-4.574-7-7.5-9.727a208.358,208.358,0,0,1-66.461-28.462,24.188,24.188,0,0,0-3.236-.562A33.9,33.9,0,0,0,118,181c-4.2.592-7.623.39-7.592.109s3.19-.686,7.343-1.668a31.29,31.29,0,0,1,6.224-.748l-2.987-2.089c-.762-.358-1.494-.717-2.318-1.2a38.916,38.916,0,0,1-6.767-4.816c-1.976-1.169-4.247-2.417-6.643-3.679-1.291-.7-2.6-1.325-3.858-1.917a14.479,14.479,0,0,0-2.365-.967,61.685,61.685,0,0,1-9.459,1.731,31.3,31.3,0,0,1-10.128-.406,20.635,20.635,0,0,0-6.876-.218c-4.885.733-8.836.374-12.664,3.3a91.378,91.378,0,0,0,5.554-7.374,16.725,16.725,0,0,1,4.963-5.081,23.613,23.613,0,0,1,8.977-3.554,20.738,20.738,0,0,1,10.1.686,19.12,19.12,0,0,1,7.032,4.271,12.277,12.277,0,0,1,3.111,4.988,13.3,13.3,0,0,1,2.288.811c1.4.545,2.8,1.153,4.091,1.793l.2.094a.392.392,0,0,1,0-.608,40.045,40.045,0,0,1-3.469-5.409,35.183,35.183,0,0,1-3.283-8.62,10.32,10.32,0,0,1-.482-3.71c.39-.094,1.416,5.487,5.134,11.551a43.422,43.422,0,0,0,7.032,8.776c.3.3.623.562.933.842a25.024,25.024,0,0,1-2.163-3.351c-2.723-5.207-3.282-9.649-2.924-9.758s1.369,4.286,4.294,8.962a24.282,24.282,0,0,0,5.8,6.469c2.365,1.793,5.041,3.2,7.219,4.676l.638.452a16.123,16.123,0,0,1-1.167-1.559,62.667,62.667,0,0,1-3.827-8.5,16.672,16.672,0,0,1-7.685-6.547,21.273,21.273,0,0,1-3.376-13.671c.264-2.65.59-5.829.715-8.433.327-5.783,2.272-9.508,1.322-14.575,3.5,8.6,5.9,9.088,8.074,14.357a52.212,52.212,0,0,1,4.216,15.993,46.853,46.853,0,0,1-.653,13.593l-.576-.125a62.23,62.23,0,0,0,3.516,6.8,31.119,31.119,0,0,0,6.223,5.751l3.3,2.744a231.309,231.309,0,0,0,38.193,9.383c3.562.671,7.219,1.294,10.89,1.84a32.86,32.86,0,0,1-5.911-1.964,26.789,26.789,0,0,1-8.7-7.389,72.8,72.8,0,0,1-6.332-8.542c-1.416-2.229-2.644-4.427-3.7-6.531a18.067,18.067,0,0,1-8.183-6.516,21.851,21.851,0,0,1-4.185-13.2V139.7c-.015-5.939,1.82-9.742,1.042-14.917a28.549,28.549,0,0,0,4.512,8.465,31.187,31.187,0,0,1,3.811,5.642,51.087,51.087,0,0,1,5.4,15.744,36.2,36.2,0,0,1-.28,13.156c1.027,1.746,2.178,3.569,3.485,5.409a76.636,76.636,0,0,0,6.425,8,24.8,24.8,0,0,0,7.9,6.438,59.882,59.882,0,0,0,9.957,2.666l9.458,2.151,7.2,1.714a81.194,81.194,0,0,0,11.341-.841c-2.364-2.525-4.683-5.1-6.845-7.794-.513-.654-1-1.309-1.478-1.964a18.639,18.639,0,0,1-12.135,1.777,24.3,24.3,0,0,1-14-7.529c-2.038-2.245-4.4-5.066-6.363-7.357-4.279-5.269-5.274-9.8-9.07-14.294a27.1,27.1,0,0,0,9.086,5.284,47.209,47.209,0,0,1,6.861,2.572,106.469,106.469,0,0,1,15.666,8.776c1.992,1.559,4.046,3.039,5.99,4.676a73.1,73.1,0,0,1-7.561-20.264c-.28-1.231-.56-2.462-.824-3.71a31.6,31.6,0,0,0-5.492-5.222,32.844,32.844,0,0,0-7.779-4.3c-5.227-2.058-9.661-2.151-9.707-2.385s4.574-.873,10.221.888a31.477,31.477,0,0,1,8.432,4.115,28.889,28.889,0,0,1,3.36,2.7c-.419-1.871-.917-3.741-1.462-5.581a18.472,18.472,0,0,1-2.427-6.329,2.824,2.824,0,0,1-.077-.514c-.343-.748-.716-1.637-1.043-2.2s-.653-1.122-1.026-1.668a22.4,22.4,0,0,0-7.3-7.078c-.419-.249-.855-.452-1.291-.67-2.5,1.076-3.812,2.822-6.924,3.507a13.672,13.672,0,0,1-6.8-.359,13.31,13.31,0,0,1-5.772-3.6,72.692,72.692,0,0,1-4.869-5.908c-3.111-4.083-3.111-7.747-6.223-10.724a20.942,20.942,0,0,0,7.529,2.977,32,32,0,0,1,5.445,1.185l5.523,1.885a28.443,28.443,0,0,1,4.465,2c1.182.7,3.391,1.435,5.476,2.806a7.34,7.34,0,0,1,3.765,5.315l.467.2a22.908,22.908,0,0,1,8.23,7.3l.14.218a19.292,19.292,0,0,1,1.976-7.373c1.1-2.214,2.411-4.926,3.361-7.2a55.17,55.17,0,0,1,3.874-6.9,57.822,57.822,0,0,1-7.779-.546c-.015-.265,3.532-.654,8.573-.748A15.975,15.975,0,0,0,203.117,105a32.561,32.561,0,0,0,.249,4.24h2.054a71.627,71.627,0,0,1,11.341.593,31.844,31.844,0,0,1,3.952.95A86.3,86.3,0,0,1,204.657,91.2a7.15,7.15,0,0,0-1.9-1.231l-.311-.109c-5.741,1.668-10.579,2.728-16.367,1.169a24.52,24.52,0,0,0-6.673-.733c-1.57.04-3.013-.059-4.394-.158-2.873-.206-5.479-.412-8.411.641,7.063-4.614,6.814-7.14,11.606-9.821a24.662,24.662,0,0,1,8.151-2.852,19.659,19.659,0,0,1,9.241.733,18.684,18.684,0,0,1,4.387,2.2c-.218-.561-.42-1.154-.623-1.808a37.39,37.39,0,0,1-1.555-7.342,31.534,31.534,0,0,1-8.915-.39,17.823,17.823,0,0,1-9.335-5.674,48.6,48.6,0,0,0-4.822-4.785c-3.656-3.133-5.259-6.531-9.335-8.09a33.8,33.8,0,0,0,8.523.185,18.988,18.988,0,0,1,6.07.126,27.021,27.021,0,0,1,13.613,6.7,24.213,24.213,0,0,1,3.936,4.957,34.8,34.8,0,0,1,.482-4.88c.094-.592.2-1.138.311-1.683a8.761,8.761,0,0,1-2.194-2.6,12.5,12.5,0,0,1-1.431-6.235,14.9,14.9,0,0,1,5.2-11.052,54.222,54.222,0,0,0,4.979-4.489c1.509-1.606,3-2.728,4.232-4.006a7.475,7.475,0,0,0,2.411-4.708c.622,3.554.84,5.986,1.136,7.981a15.627,15.627,0,0,1-.124,6.235,34.71,34.71,0,0,1-2.287,6.749,24.726,24.726,0,0,1-3.112,5.175c-1.991,2.51-4.309,4.942-6.861,8.06-.186-.078-.357-.187-.545-.281a3.118,3.118,0,0,0-.109,1,26.323,26.323,0,0,0-.186,2.962,21.817,21.817,0,0,1,2.381-4.38c1.7-2.4,3.438-3.787,3.686-3.569s-1.1,1.948-2.334,4.4a30.047,30.047,0,0,0-2.768,8c-.14.686-.234,1.247-.311,1.731a49.574,49.574,0,0,0,6.1,18.564,2.6,2.6,0,0,1-.218-.733,15.078,15.078,0,0,1,1.4-11.254c1.089-1.965,2.38-4.287,3.344-6.235,2.24-4.318,5.289-6.235,6.472-10.3a20.936,20.936,0,0,0,.98,8.013,24.253,24.253,0,0,1,1.385,5.518A28.982,28.982,0,0,1,218.456,85.8a25.869,25.869,0,0,1-6.067,9.882,11.914,11.914,0,0,1-2.318-1.668,80.891,80.891,0,0,0,6.566,8.2c.824.671,1.649,1.325,2.489,1.964A180.012,180.012,0,0,0,237.5,115.333a55.925,55.925,0,0,1-6.829-16.351c-1.65-6.827-1.509-12.236-1.167-12.268s.7,5.332,2.692,11.847a55.411,55.411,0,0,0,3.453,8.823,44.7,44.7,0,0,1-.793-8.09v-.982a18.735,18.735,0,0,1-3.112-8,21.3,21.3,0,0,1,2.194-13.172c1.213-2.276,2.676-5.035,3.749-7.373,2.489-5.16,5.71-7.732,7.079-12.626a29.06,29.06,0,0,0,.653,9.353,28.636,28.636,0,0,1,1.057,6.609v2.385a16.316,16.316,0,0,1,5.539-1.231,22.779,22.779,0,0,1,14.78,4.458,17.717,17.717,0,0,1,6.908,10.6h-.125a105.437,105.437,0,0,1,15.309,12.22c.684.671,1.291,1.294,1.851,1.871-.343-1.559-.732-3.118-1.183-4.676a57.935,57.935,0,0,0-6.985-15.759,39.727,39.727,0,0,0-3.875-4.926,21.534,21.534,0,0,1-9.614,0,25.428,25.428,0,0,1-6.223-2.229,20.066,20.066,0,0,1-5.943-4.676,36.775,36.775,0,0,1-5.351-8.308,27.113,27.113,0,0,1-2.1-7.919,22.469,22.469,0,0,0-1.836-7.061,27.932,27.932,0,0,0,6.815,6.672c1.851,1.2,3.376,2.057,5.351,3.477a28.756,28.756,0,0,0,2.878,1.792c.9.592,1.82,1.013,2.863,1.559a41.091,41.091,0,0,1,7,4.333c3.843,3.086,7.358,7.187,8.7,11.41-.358.156-.762.234-1.136.374a36.113,36.113,0,0,1,3.843,4.676,56.346,56.346,0,0,1,7.638,16.07,97.712,97.712,0,0,1,3.081,13.593,53.99,53.99,0,0,0-.109-15.978c-2.256-13.078-8.65-26.156-9.335-39.468a70.892,70.892,0,0,0-2.8-10.226,20.5,20.5,0,0,0-2.66-4.785,53.782,53.782,0,0,0-3.609-4.084c-1.152-1.169-2.178-2.291-3.112-3.32a3.906,3.906,0,0,0-.124.7,24.846,24.846,0,0,1-9.381-.421,13.848,13.848,0,0,1-7.592-5.237,37.112,37.112,0,0,0-3.967-4.676c-3.111-2.977-4.2-6.188-7.779-7.654a28.918,28.918,0,0,0,7.744.067,16.242,16.242,0,0,1,5.527.027,20.323,20.323,0,0,1,11.886,6.421,15.078,15.078,0,0,1,3.827,9.2c1.229,1.138,2.582,2.432,4.061,3.835a50.919,50.919,0,0,1,4,4.021,21.821,21.821,0,0,1,3.111,5.16,28.435,28.435,0,0,1,1.183,3.118c.094-.452.218-1,.342-1.559a31.076,31.076,0,0,1,.933-3.819.961.961,0,0,1,0-.125,64.625,64.625,0,0,1,4.046-10.912,50.653,50.653,0,0,1,3.936-6.64,5.573,5.573,0,0,1-.747-4.972,12.284,12.284,0,0,1,1.432-3.367,13.919,13.919,0,0,1,.964-1.45c.281-.42.561-.81.856-1.2a19.493,19.493,0,0,1,9.335-6.734,53.373,53.373,0,0,0,6.736-2.7,45.148,45.148,0,0,1,6.565-2.509A39.274,39.274,0,0,0,326.145,0a15.588,15.588,0,0,0-5.01,7.249A21.031,21.031,0,0,1,318.3,13a29.38,29.38,0,0,1-12.056,10.225,30.1,30.1,0,0,1-3.111,1.122,17.049,17.049,0,0,1-2.723.483,17.522,17.522,0,0,0-2.38.328,5.935,5.935,0,0,0-1.4.717,50.823,50.823,0,0,0-3.982,7.107,74.62,74.62,0,0,0-4.138,11.957c-.623,2.447-1.058,4.442-1.4,6.095a36.087,36.087,0,0,0,0,3.9,4.485,4.485,0,0,1,.218.966c.156.7.311,1.341.451,1.965a40.3,40.3,0,0,1,3-11.037,33.984,33.984,0,0,1,1.975-3.8,15.235,15.235,0,0,1,2.272-9.352,17.441,17.441,0,0,1,9.677-7.654c2.271-.764,5.04-1.528,7.25-2.323,5.087-1.684,8.774-.982,12.866-3.118a22.782,22.782,0,0,0-5.585,6.578,27.376,27.376,0,0,1-3.345,5.081A37.231,37.231,0,0,1,305,41.369a30.04,30.04,0,0,1-11.731,3.461c-.342.811-.684,1.669-1,2.587A46.522,46.522,0,0,0,289.709,62.6c0,1.45.139,2.6.139,3.569,1.556,4.069,3.439,8.09,5.274,12.128A19.334,19.334,0,0,1,298,71.251c1.556-2.2,3.267-4.832,4.667-7.045,3.22-4.9,6.83-6.844,9.117-11.519a25.9,25.9,0,0,0-.98,9.352,31.781,31.781,0,0,1,.139,6.625,51.421,51.421,0,0,1-3.562,15.588,39.458,39.458,0,0,1-6.145,10.1c2.6,10.023,2.084,20.42.3,30.708A78.425,78.425,0,0,0,309,128.4a19.923,19.923,0,0,1,6.224,3.632,29.721,29.721,0,0,1,9.692,16.1c1.057,5.175.638,10.88-1.68,14.668a8.423,8.423,0,0,1-.731-.437,68.7,68.7,0,0,1,1.182,8.339,74.029,74.029,0,0,1-.139,13.873,77.12,77.12,0,0,1-1.447,8.776,131.35,131.35,0,0,0,14.126-37.722c1.183-5.456,2.24-11.255,3.391-17.147v-.265c-.062-1.279-.2-2.634-.357-4.037l-.343-.468a60.562,60.562,0,0,1-3.765-6.11,23.648,23.648,0,0,1-6.487-5.908A24.281,24.281,0,0,1,324,111.031a36.609,36.609,0,0,0-1.975-7.186c-1.945-4.723-2.21-8.729-5.71-12.034a63.679,63.679,0,0,0,8.168,4.178,19.2,19.2,0,0,1,5.9,3.569,28.189,28.189,0,0,1,2.147,2.166,24.824,24.824,0,0,1-1.836-4.676,26.939,26.939,0,0,1,.28-15.493c.918-2.868,2.038-6.251,2.863-9.1,1.945-6.235,4.963-9.789,6-15.588a34.145,34.145,0,0,0,1.416,10.522,37.8,37.8,0,0,1,1.634,7.264,68.878,68.878,0,0,1,0,19.017c-.887,5.19-2.3,10.756-4.822,14.746-.311-.218-.623-.467-.934-.7a9.6,9.6,0,0,1,.172,1.169,23.705,23.705,0,0,1,1.975,5.924,25,25,0,0,1,.311,7.793c.607,2.947,1.135,5.862,1.555,8.667,3-13.873,7.125-27.7,15.309-38.455.436-.779.933-1.651,1.478-2.712A63.643,63.643,0,0,0,362.6,78.3a30.149,30.149,0,0,1-4-23.1,46.193,46.193,0,0,0,1.213-8.23c.249-5.767,1.727-9.9,0-15.026a67.746,67.746,0,0,0,5.585,8.386,22.47,22.47,0,0,1,3.811,6.485,34.846,34.846,0,0,1,1.712,19.532,31.15,31.15,0,0,1-2.116,6.391,46.151,46.151,0,0,0,4.076,4.426c.218.2.419.406.622.624.824-.39,1.649-.763,2.5-1.076a46.745,46.745,0,0,1,10.89-2.665,9.557,9.557,0,0,1,2.054-4.4,14.122,14.122,0,0,1,5.663-4.083,17.829,17.829,0,0,1,13.768.14c2.287,1.013,4.745,2.105,7.157,2.947s4.309,1.87,6.223,2.588a10.25,10.25,0,0,0,6.068.686c-3.734,1.731-6.161,2.775-8.122,3.757a20.188,20.188,0,0,1-6.394,2.12,50.4,50.4,0,0,1-7.95.467,41.238,41.238,0,0,1-6.97-.671l-10-2.073a50.537,50.537,0,0,0-11.357,2.993,40.34,40.34,0,0,1,10.408-.265c5.118.514,8.806,1.949,8.712,2.291s-3.874-.608-8.806-.717a47.587,47.587,0,0,0-11.45,1.107c.14.265.3.514.436.826a18.469,18.469,0,0,1,.731,14.028,14.9,14.9,0,0,1-7.779,8.636,17.874,17.874,0,0,1-2.115-2.666c-1.043,1.683-2.241,3.445-3.578,5.222a110.092,110.092,0,0,0-7.421,10.912,47.166,47.166,0,0,1,9.926-7.124,37.864,37.864,0,0,1,7.374-3.024,11.327,11.327,0,0,1,5.8-6.235c-.591-.234-1.2-.452-1.774-.749a13.606,13.606,0,0,1,6.815-8.791,16.136,16.136,0,0,1,11.932-1.7c2.272.577,4.994,1.294,7.234,1.808,5.009,1.2,7.67,3.866,12.1,4.318a20.65,20.65,0,0,0-7.98,2.479,26.826,26.826,0,0,1-5.274,2.541c-1.68.561-3.361,1.013-5.026,1.4l.373.233c2.163,1.59,4.746,3.554,6.83,5.113,4.667,3.492,6.363,7.233,10.89,9.353a35.223,35.223,0,0,0-10.358-1.069,23.861,23.861,0,0,1-5.494-.3,78.269,78.269,0,0,1-14.438-3.539c-3.391-1.262-7.078-2.712-10.734-4.379a69.576,69.576,0,0,0-7.452,3.99,54.351,54.351,0,0,0-13.037,11.473c-.59.733-1.1,1.387-1.555,2a85.883,85.883,0,0,0-3.563,9.492c-.139.483-.265.92-.389,1.388-.2,4.411-.342,8.838-.529,13.265,3.221,5.486,5.243,6.453,7.125,11.208a37.946,37.946,0,0,1,1.945,7.077,39.964,39.964,0,0,1,3.111-8.761,46.546,46.546,0,0,0,3.3-8.277c1.7-5.908,4.154-9.788,4-15.587,2.132,10.132,4.4,11.067,5.15,17.8a35.377,35.377,0,0,1-3.92,20.84c-2.66,4.8-6.876,8.995-11.077,10.553-1.275,1.964-2.691,3.974-4.247,5.954a70.924,70.924,0,0,1-5.772,6.376,13.5,13.5,0,0,1,4.512-2,25.862,25.862,0,0,0,5.539-1.9c3.594-1.777,6.97-1.886,9.194-5-2.582,6.593-1.556,8.729-3.874,12.735a19.143,19.143,0,0,1-10.579,8.776,16.485,16.485,0,0,1-10.3,0c-5.134,3.149-11.917,5.581-16.693,7.966l-11.217,10.225-.171.187c-1.821,1.87-3.687,3.71-5.507,5.581,2.084-1.185,4.262-2.338,6.549-3.4a86.425,86.425,0,0,1,16.226-5.674l.825-.171a5.118,5.118,0,0,1,.248-1.278,6.9,6.9,0,0,1,1.758-2.51,17.1,17.1,0,0,1,4.823-2.961c.715-.312,1.167-.608,1.68-.8a11.2,11.2,0,0,1,1.556-.577,13.523,13.523,0,0,1,3.624-.436,13.856,13.856,0,0,0,5.18-1.059c3.516-1.45,6.877-1.668,9.194-4.676-2.738,6.562-1.6,8.682-4.294,12.72-.186.265-.4.514-.607.763a200.877,200.877,0,0,0,23.71-18.393,63.681,63.681,0,0,0,5.43-13.826c-.078-.749-.156-1.575-.265-2.6-.233-2.946-.576-6.687-.887-10.194a21.981,21.981,0,0,1-7.779-17.567,34.641,34.641,0,0,0-.389-7.046c-.825-4.863-.172-8.682-2.754-12.469,6.067,5.736,8.417,5.548,11.808,9.913a29.63,29.63,0,0,1,3.485,6.048,15.587,15.587,0,0,1,1.649-2.479,61.178,61.178,0,0,0,4.247-5.923c2.163-3.492,4.667-5.441,6.224-8.558a16.972,16.972,0,0,0-1.774-.094,19.775,19.775,0,0,1-6.8-1.886,18.887,18.887,0,0,1-8.7-8.089,15.829,15.829,0,0,1,19.105-2.417,18.882,18.882,0,0,0,5.18,2.385,31.591,31.591,0,0,0,4.822,1.169,4.2,4.2,0,0,0,3.983-1.559,16.875,16.875,0,0,1-4.17,6.438,11.631,11.631,0,0,1-5.539,3.382,21.382,21.382,0,0,1-5.3.733c.015,6.484,1.634,8.043,1.369,12.72a30.2,30.2,0,0,1-4.17,14.59,25.58,25.58,0,0,1-7.3,7.717c-.218.9-.451,1.823-.684,2.775-1,4.006-2.07,8.386-3.221,12.75v.92h-.31l-.327,1.263a71.613,71.613,0,0,1-2.474,7.622c3.081-3.039,6.068-6.172,8.9-9.477a139.914,139.914,0,0,0,12.165-16.492c3.8-6,7.095-12.3,11.233-18.067a62.8,62.8,0,0,1,4.667-5.846c-4.061-6.235-4.855-15.727-2.023-23.381a49.281,49.281,0,0,0,2.194-7.794c.98-5.6,3-9.368,2.053-14.559,3.454,8.838,5.726,9.587,7.281,15.588a34.541,34.541,0,0,1-.4,18.939,30.791,30.791,0,0,1-1.68,4.084,62.176,62.176,0,0,1,5.539-4.115l.575-.421,8.308-5.986c1.229-.92,2.551-1.808,3.811-2.681a26.117,26.117,0,0,1,4.667-20.84,47.606,47.606,0,0,0,4.262-6.672c2.489-4.894,5.507-7.794,6.1-12.875.762,9.181,2.739,10.522,2.551,16.523a33.03,33.03,0,0,1-5.445,17.411c-2.894,4.193-6.985,7.934-11.217,9.244a8.347,8.347,0,0,1-.28-.889l-1.851,1.4a1.056,1.056,0,0,1,.31,0,31.581,31.581,0,0,1,7.188-1.091,40.359,40.359,0,0,1,12.445,1.668c.607.171,1.167.374,1.727.561-.047-.093-.139-.249-.139-.249a14.08,14.08,0,0,1,10.672-3.118,16.592,16.592,0,0,1,10.688,5.378l2.489,2.758a33.157,33.157,0,0,0,2.349,2.479c1.6,1.544,2.692,2.962,4,4.006a4.209,4.209,0,0,0,4.433.888,10.671,10.671,0,0,1-3.92,2.089,26.653,26.653,0,0,1-3.532.811,14.742,14.742,0,0,1-6.6-.265,46.618,46.618,0,0,1-6.845-2.384,26.24,26.24,0,0,1-5.881-3.507,30.9,30.9,0,0,1-6.628-7.124c-1.011-.3-2.069-.593-3.2-.873a41.916,41.916,0,0,0-11.855-1.154,31.931,31.931,0,0,0-7.856,1.559,57.1,57.1,0,0,0-7.312,3.632l-.778.562a56.019,56.019,0,0,0-10.516,8.261,16.414,16.414,0,0,0-1.556,1.559,47.28,47.28,0,0,1,9.257-3.3,15.861,15.861,0,0,1,7.3-5.971,19.41,19.41,0,0,1,15.79.328c2.691,1.4,5.74,3.118,8.152,4.676,5.351,3.4,7.389,7.232,12.212,9.633a29.525,29.525,0,0,0-9.739-1.309,45.26,45.26,0,0,1-6.845,0l-7.856-.654c-2.474-.187-4.823-.4-7.328-.717a132.072,132.072,0,0,1-13.239-2.088,10.3,10.3,0,0,1,.4-1.559,51.686,51.686,0,0,0-8.354,3.632c-1.369.733-2.427,1.372-3.267,1.886l-.078-.11a130.653,130.653,0,0,0-8.2,13.141c-1.074,1.9-2.178,3.772-3.3,5.627-.715,1.793-1.431,3.57-2.193,5.315-.9,2.089-1.9,4.131-2.94,6.158A66.331,66.331,0,0,1,434.019,172.9a58.712,58.712,0,0,1,6.115-.562,15.547,15.547,0,0,1,8.945-4.426A18.638,18.638,0,0,1,462.1,170.67l6.815,4.552c4.7,3.21,6.472,6.827,10.781,9.212a22.514,22.514,0,0,0-8.977-1.139,31.583,31.583,0,0,1-6.3.2,49.718,49.718,0,0,1-14.515-2.993,38.4,38.4,0,0,1-10.47-6.048c-1.618.187-3.283.436-5.026.779a69.544,69.544,0,0,0-17.6,5.939,68.4,68.4,0,0,0-14.686,9.789c-1,.9-1.836,1.668-2.645,2.462a157.732,157.732,0,0,1-9.987,14.653,150.585,150.585,0,0,1,22.371-5.737l3.22-.515a15.442,15.442,0,0,1,8.635-7.513,18.637,18.637,0,0,1,12.586-.3c2.3.842,5.088,1.746,7.405,2.4,5.165,1.559,8.013,4.3,12.68,4.848a25.123,25.123,0,0,0-8.572,2.213,27.151,27.151,0,0,1-5.881,2.182,51.642,51.642,0,0,1-5.523.935c.125,2.2.343,3.85.561,5.315a18.738,18.738,0,0,1,0,6.75,27.139,27.139,0,0,1-8.043,15.151,20.2,20.2,0,0,1-12.275,5.658,100.661,100.661,0,0,1-8.089,6.984c-1.214.935-2.521,1.885-3.874,2.79a134.05,134.05,0,0,1,16.631-1.7,20.9,20.9,0,0,1,9.707-5.253,27.175,27.175,0,0,1,6.736-.857,21.877,21.877,0,0,1,6.97,1.247c2.583.9,5.8,2.042,8.479,3.118a24.493,24.493,0,0,1,7.157,4.567c1.96,1.73,3.656,3.461,5.8,5.409a13.246,13.246,0,0,0-9.458-2.074c-2.179.343-3.781.826-6.395,1.06a57.321,57.321,0,0,1-16.8,0,29.665,29.665,0,0,1-11.061-4.5,153.621,153.621,0,0,0-25.11,3.99c-2.022.5-3.749.967-5.3,1.4l-.374.14a48.941,48.941,0,0,1-11.139,2.167,92.962,92.962,0,0,1,10.968,3.21c9.163,3.367,17.548,8.511,25.934,13.515l3.532,2.088a126.84,126.84,0,0,0,15.807,1.341h2.163v-.2l1.166.2a121.709,121.709,0,0,0,17.751-1.356c1.851-.281,3.61-.592,5.306-.935a17.766,17.766,0,0,1,7.063-8.558,20.672,20.672,0,0,1,5.3-2.494,16.844,16.844,0,0,1,5.507-.763,11.523,11.523,0,0,0,5.6-.967c3.672-1.84,7.3-3.258,9.412-7.264a78.582,78.582,0,0,0-1.649,8.635,12.778,12.778,0,0,1-2.676,6.531,16.959,16.959,0,0,1-3.7,3.414,23.038,23.038,0,0,1-4.232,2.276,24.852,24.852,0,0,1-7.856,1.87,23.888,23.888,0,0,1-11.015-1.652c-2.131.53-4.4,1.029-6.8,1.465-3.22.592-6.643,1.06-10.158,1.372,4.683,1.045,10,2.37,14.546,3.616a22.337,22.337,0,0,1,9.739-2.4,20.2,20.2,0,0,1,10.019,2.307,26.255,26.255,0,0,0,6.223,2.323c4.45.935,7.7,2.837,11.886,1.559a71.115,71.115,0,0,0-7.11,4.755,16.511,16.511,0,0,1-5.8,2.992,23.129,23.129,0,0,1-16.569-1.465,18.284,18.284,0,0,1-8.464-8.511L443.478,281l-4.294-.9h-2.443c-3.686-.016-7.374-.219-10.89-.562,19.229,11.1,39.391,21.137,60.8,25.657a29.218,29.218,0,0,1,10.361-3.4,43.737,43.737,0,0,1,15.916.655,41.622,41.622,0,0,0,9.443,1.154c.943-.009,1.846,0,2.719,0a51.449,51.449,0,0,0,6.134-.191A16.08,16.08,0,0,0,539,300.765c-3.967,3.788-6.519,5.862-8.635,7.685a23.458,23.458,0,0,1-7.779,4.5,43.121,43.121,0,0,1-23.211,1.372,46.271,46.271,0,0,1-12.9-4.848c-2.256-.249-4.621-.545-6.924-.888.062.156.218.311.218.467.824,2,1.789,4.365,2.645,6.235,1.836,4.287,1.229,7.7,3.391,11.067a17.365,17.365,0,0,0-6.487-4.083,24.533,24.533,0,0,1-4.9-2.042,25.234,25.234,0,0,1-8.759-7.607,28.928,28.928,0,0,1-3.547-7.513c-2.567-.671-5.18-1.356-7.779-2.136-15.277-4.521-29.56-11.363-43.794-18.393-8.059-3.975-16.164-7.95-24.5-11.333a15.323,15.323,0,0,1,1.354,3.32c.638,2.354,1.462,5.222,2.194,7.545,1.525,5.222.669,9.04,2.582,13.359a22.579,22.579,0,0,0-6.3-6.11,29.866,29.866,0,0,1-4.963-3.648,41.69,41.69,0,0,1-8.977-11.333,38.306,38.306,0,0,1-3.2-8.932l-.949-.265a102.677,102.677,0,0,0-46.486-.577c-1,.234-2.053.53-3.111.795a45.29,45.29,0,0,0-16.911,20.9c-4.465,10.552-5.834,22.135-6.923,33.545-2.193,22.524-2.956,47.106,5.585,67.869,7.047,13.873,19.7,26.3,35.253,27.216a66.083,66.083,0,0,0,13.624-1.066c7.6-1.124,15.107-2.249,21.83,1.066,6.97,3.429,11.28,10.958,18.311,14.216,8.214,3.834,17.86.888,26.883-.436,11.279-1.669,22.776-.624,34.07.857a65.817,65.817,0,0,1,18.747,4.489c5.881,2.65,11.2,7.17,13.472,13.218a32.349,32.349,0,0,0-25.078-7.684c-3.2.4-6.348,1.31-9.568,1.418a11.035,11.035,0,0,1-8.806-3.118c2.054,5.845,7.576,9.758,13.472,11.909s11.933,2.759,17.938,4.287,12.088,4.146,15.76,9.15,4.091,12.813-.576,16.96c.5-7.015.2-15.448-5.725-19.2-4.434-2.822-10.159-1.715-15.4-1.715a33.549,33.549,0,0,1-21.78-8.215c-5.026-4.4-8.806-10.319-14.733-13.436-4.667-2.463-10.237-2.759-15.557-3.009,6.938,1.2,12.632,6.781,15.169,13.359a34.219,34.219,0,0,1,.436,20.825c-.2-6.033-.436-12.2-2.677-17.817s-6.938-10.631-12.9-11.5c-3.5-.515-7.016.4-10.547.686s-7.483-.281-9.755-2.993q5.928,8.417,12.446,16.367a22.291,22.291,0,0,0,2.443,2.572c-5.959-3.04-10.751-8.714-14.81-14.263-5.492-7.373-10.953-15.463-19.494-18.7-10.252-3.913-21.577,1.091-31.721,5.3a32.248,32.248,0,0,1,33.946,12.252c3.983,5.69,6.207,12.829,11.652,17.147,5.072,4.053,11.933,4.8,18.062,6.921a41.569,41.569,0,0,1,25.934,27.356c-5.336-7.684-11.061-15.712-19.54-19.641-7.638-3.554-16.662-3.335-24.1-7.311l5.865,11.052c.7,1.31,1.384,2.6,2.163,3.85,4.138,6.563,11.247,11.582,19.026,11.582a71.973,71.973,0,0,1,8.184-.2c8.027.983,12.944,9.057,19.587,13.733a25.208,25.208,0,0,0,16.63,4.4c-4.869,3.164-11.465,1.294-16.366-1.823s-9.164-7.373-14.624-9.353c-4.527-1.637-9.474-1.527-14.251-2.182-4.138-.561-8.494-1.932-11.279-4.909l5.18,6.547a46.7,46.7,0,0,0,6.519,7.17c4.247,3.507,9.63,5.409,14.11,8.6s7.872,9.1,6.425,14.434c.156-4.317-2.893-8.167-6.487-10.552s-7.779-3.71-11.606-5.705c-11.061-5.83-18.171-16.538-23.149-27.652-8.51-19.157-21.314-42.617-42-50.676a26.543,26.543,0,0,0-17.44-1.076c11.248,1.948,19.245,11.816,25.685,21.262a15.248,15.248,0,0,0,4.964,5.238,28.208,28.208,0,0,0,4.371,1.465,16.369,16.369,0,0,1,10.392,10.459,11.132,11.132,0,0,0-12.726-5.689,17.852,17.852,0,0,1,10.128,8.635,30.549,30.549,0,0,1,4.138,16.741,14.442,14.442,0,0,0,5.648,9.353,20.39,20.39,0,0,0,3.843,2.307,15.532,15.532,0,0,0,7.047,2.791c-5.8-.546-12.353-1.543-15.557-6.376-2.334-3.492-2.193-8.043-3.485-12.049a52.4,52.4,0,0,0-4.154-10.023,20.993,20.993,0,0,0-5.2-5.486,58.486,58.486,0,0,0-6.223-3.85h-.436a7.356,7.356,0,0,0-.871,1.309,6.252,6.252,0,0,0-.436,3.118,8.651,8.651,0,0,0,2.987,5.191,20.85,20.85,0,0,0,5.2,3.118c-3.577-.4-7.374-1.122-9.91-3.679a9.77,9.77,0,0,1-2.614-5.8,3.6,3.6,0,0,1-.156-.686,14.22,14.22,0,0,1,.561-4.177c1.384-7.249-2.427-14.715-7.95-19.579S335.821,440.416,328.82,438s-14.126-4.661-20.225-8.807c-3.407-2.322-6.425-5.206-9.833-7.544a33.489,33.489,0,0,0,15.557,24.16c2.754,1.7,5.756,2.993,8.588,4.551,9.957,5.549,16.988,14.357,24.658,22.82a32.63,32.63,0,0,0,6.224,4.583,30.51,30.51,0,0,1,11.076,13.593c2.583,6.267,3.438,13.936,8.93,17.879,3.85,2.761,8.648,2.761,13.516,2.76a36.543,36.543,0,0,1,9.711.856,17.674,17.674,0,0,1,12.446,17.863c-2.349-4.8-4.932-9.82-9.474-12.595-7.655-4.676-17-1.855-25.265-5.346a91.705,91.705,0,0,0,7.9,19.827,15.15,15.15,0,0,0,3.111,4.3,13.719,13.719,0,0,0,4.994,2.51,36.022,36.022,0,0,0,12.71,1.948c-14.079,2.743-29.48-6.329-33.93-19.984-2.054-6.25-1.976-13.063-4-19.3a30.456,30.456,0,0,0-15.37-17.816c3.532,4.567,3.936,10.8,3.111,16.492s-2.676,11.208-3.236,16.928.467,12,4.543,16.025c2.069,2.042,4.745,3.352,7.016,5.16a22.036,22.036,0,0,1,7.779,15.042,32.175,32.175,0,0,1-4.418,17.677c1.446-6.594,1.773-13.842-1.447-19.8-2.364-4.38-6.378-7.576-9.707-11.27A42.559,42.559,0,0,1,343.071,510.9c.156-4.411,1.027-8.776,1.354-13.187.715-9.478-1.307-19.485-7.25-26.9a41.744,41.744,0,0,0-9.832-8.573,71.4,71.4,0,0,0-7.779-4.458,23.749,23.749,0,0,1,1.182,9.6c-.544,5.3-3.376,10.148-4.045,15.431a24.089,24.089,0,0,0,4.433,16.2,47.179,47.179,0,0,0,12.307,11.769,25.347,25.347,0,0,1-21.111-19.423c-1.9-9.025,1.369-18.721-.825-27.73a23.73,23.73,0,0,0-6.673-11.41,57.222,57.222,0,0,1-6.939-2.635,46.838,46.838,0,0,1-12.57-9.181c.249.717.514,1.527.809,2.276,2.6,6.749,7.063,13.093,6.892,20.263-.14,6.656-4.232,12.5-8.168,17.864a21.769,21.769,0,0,0,5.927,4.5c5.227,2.7,10.688,6.126,12.632,11.691,1.369,3.866.793,8.308,2.614,11.987,2.443,4.941,8.323,6.968,13.659,8.261a14.648,14.648,0,0,1-15.978-8.105c-1.12-2.509-1.478-5.284-2.364-7.888a21.156,21.156,0,0,0-21.423-13.811,25.7,25.7,0,0,0-1.089,21.589A26.469,26.469,0,0,0,294.952,524c3.376,1.091,6.939,1.48,10.3,2.571,5.631,1.808,10.516,5.472,16.055,7.545,3.8,1.45,7.965,2.12,11.574,4.053,5.585,3.009,9.273,8.807,11.139,14.871s2.116,12.5,2.334,18.861c-.3-6.453-3.407-12.361-6.519-18.035a24.923,24.923,0,0,0-5.087-7.2c-3.376-2.962-8.013-3.866-12.322-5.051a76.18,76.18,0,0,1-27.287-13.857c4.107,10.506,10.049,21.869,20.551,25.938,5.71,2.213,12.757,2.462,16.989,6.484s4.667,10.631,4.371,16.492a21.806,21.806,0,0,0-15.293-16.118c-2.427-.733-4.979-.95-7.421-1.559a23.95,23.95,0,0,1-10.268-5.409,24.972,24.972,0,0,1,6.223,17.49A24.432,24.432,0,0,1,303.244,588,44.526,44.526,0,0,0,303.384,558.695Z" transform="translate(6 41)" fill="#d3dcc5"/>
      <path id="Path-20" data-name="Path" d="M24.921.589a48.614,48.614,0,0,1-6.833-.45A17.863,17.863,0,0,0,0,9.262,21.475,21.475,0,0,0,11.8,13,27.237,27.237,0,0,0,26.1,9.276C30.416,6.894,30.478,4.642,37,.56,33.015,1.882,29.653.531,24.921.589Z" transform="translate(424 301)" fill="#d3dcc5"/>
      <path id="Path-21" data-name="Path" d="M11.913,12.086A21.857,21.857,0,0,0,0,29.517c4.049,1.165,9.115.124,13.289-2.051A25.143,25.143,0,0,0,24.452,15.038a17.429,17.429,0,0,0,1.391-6.416A57.136,57.136,0,0,1,27,0c-1.892,4.086-5.5,5.406-9.208,8.42a31.612,31.612,0,0,1-5.878,3.666Z" transform="translate(456 240)" fill="#d3dcc5"/>
      <path id="Path-22" data-name="Path" d="M10.169,19.249C13.774,21.084,15.98,19.822,22,23c-2.543-2.506-2.205-5.8-3.9-9.468a44.223,44.223,0,0,1-2.093-5.52C14.129,1.722,6.724-1.668.189.821A18.566,18.566,0,0,0,1.8,11.436a17.081,17.081,0,0,0,8.37,7.813Z" transform="translate(489 204)" fill="#d3dcc5"/>
      <path id="Path-23" data-name="Path" d="M2.568,28a16.619,16.619,0,0,0,9.325-5.514A15.568,15.568,0,0,0,14.976,17.1a18.791,18.791,0,0,0,1-7.023,10.3,10.3,0,0,0-2.05-5.652A11.235,11.235,0,0,0,8.672,0a2.817,2.817,0,0,1,.663,3.358A29.8,29.8,0,0,1,7.208,7.023a16.237,16.237,0,0,1-3.3,3.758C-.715,14.862-1.332,22.44,2.568,28Z" transform="translate(485 260)" fill="#d3dcc5"/>
      <path id="Path-24" data-name="Path" d="M3.053,30.957a8.911,8.911,0,0,0,4.028-.536A19.415,19.415,0,0,0,10.5,28.754,20.425,20.425,0,0,0,20.739,14c.9-4.882-.818-6.488-.645-14-1.07,3.948-4.3,5.57-7.222,8.845a28.847,28.847,0,0,1-4.8,4.208,16.554,16.554,0,0,0-6.011,7.912,11.088,11.088,0,0,0-.708,4.224A6.4,6.4,0,0,1,0,29.274a4.864,4.864,0,0,0,3.053,1.683Z" transform="translate(506 292)" fill="#d3dcc5"/>
      <path id="Path-25" data-name="Path" d="M7.388,6.247A13.116,13.116,0,0,1,3.994,8.961,8.294,8.294,0,0,0,.076,15.208a13.571,13.571,0,0,0,2.071,8.765A13.83,13.83,0,0,0,11.5,21.078a13.239,13.239,0,0,0,4.492-10.5A9.993,9.993,0,0,0,14.4,5.413,33.345,33.345,0,0,0,10.685,0a3.334,3.334,0,0,1-.7,3.369A34.625,34.625,0,0,1,7.388,6.247Z" transform="translate(471 141)" fill="#d3dcc5"/>
      <path id="Path-26" data-name="Path" d="M1.134,14.161C-1.491,19.435.583,26.294,5.893,30a15.384,15.384,0,0,0,6.282-8.015A17.417,17.417,0,0,0,11.8,10.327C10.448,6.51,8.287,5.94,5.748,0c.464,3.39-1.625,5.591-2.64,9.171A32.043,32.043,0,0,1,1.134,14.161Z" transform="translate(384 65)" fill="#d3dcc5"/>
      <path id="Path-27" data-name="Path" d="M4.5,0c-.31,4.581-2.566,7.453-3.356,12.74C.823,15.125.442,18.012.118,20.381A17.765,17.765,0,0,0,3.065,32.462,11.809,11.809,0,0,0,11.991,38a39.617,39.617,0,0,0,.888-11.971,43.728,43.728,0,0,0-3.229-12.9A32.067,32.067,0,0,0,7.028,8,20.772,20.772,0,0,1,4.5,0Z" transform="translate(176 43)" fill="#d3dcc5"/>
      <path id="Path-28" data-name="Path" d="M11.057,32a15.323,15.323,0,0,0,4.926-10.769A19.023,19.023,0,0,0,11.231,7.862C8.063,4.262,5.687,4.508,0,0,2.344,3.077,1.473,6.369,2.028,10.354a24.181,24.181,0,0,1,0,5.862C1.188,22.431,4.784,28.6,11.057,32Z" transform="translate(212 26)" fill="#d3dcc5"/>
      <path id="Path-29" data-name="Path" d="M21.771,6.514A18.029,18.029,0,0,0,11.256,2.676a28.554,28.554,0,0,0-4.749.287,8.328,8.328,0,0,1-2.868-.319A7.547,7.547,0,0,1,0,0C.925,2.007,1.665,3.631,2.513,5.447a17.431,17.431,0,0,0,3.515,5.128,55.74,55.74,0,0,1,4.333,4.491A11.73,11.73,0,0,0,19.1,19a12.139,12.139,0,0,0,8.9-3.79,20.049,20.049,0,0,0-6.229-8.7Z" transform="translate(147 73)" fill="#d3dcc5"/>
      <path id="Path-30" data-name="Path" d="M13,21.786a24.115,24.115,0,0,0-2.651-10.662A23.832,23.832,0,0,0,7.7,6.8,16.972,16.972,0,0,1,4.914,0C4.753,3.826,2.453,6.172,1.559,10.569c-.352,1.975-.894,4.382-1.3,6.4A13.175,13.175,0,0,0,2.467,27.248,10.817,10.817,0,0,0,10.876,32,27.576,27.576,0,0,0,13,21.786Z" transform="translate(117 93)" fill="#d3dcc5"/>
      <path id="Path-31" data-name="Path" d="M6.505,11.04c1.369,4.748,6.8,6.867,13.478,5.6a11.925,11.925,0,0,0,0-9.636A12.363,12.363,0,0,0,11.546.352C7.842-.623,5.91.8,0,.213,2.754,1.388,2.931,4.265,4.605,6.863A17.253,17.253,0,0,1,6.505,11.04Z" transform="translate(85 116)" fill="#d3dcc5"/>
      <path id="Path-32" data-name="Path" d="M12.094,26.239A31,31,0,0,0,17.22,13.813a22.57,22.57,0,0,0,.365-5.778A22.245,22.245,0,0,1,19,0c-2.3,3.659-5.75,4.742-9.127,8.294-1.521,1.616-3.423,3.491-5.02,5.047a16.04,16.04,0,0,0-4.792,10.4A13.972,13.972,0,0,0,3.241,34a25.878,25.878,0,0,0,8.853-7.761Z" transform="translate(357 40)" fill="#d3dcc5"/>
      <path id="Path-33" data-name="Path" d="M12.021,22.827a15.9,15.9,0,0,0,1.231-12.5,12.789,12.789,0,0,0-2.567-4.61A42.516,42.516,0,0,1,6.752,0C7.5,3.157,5.416,5.51,4.275,8.762a18.9,18.9,0,0,1-2.342,4.452C-1.19,17.57-.439,23.569,3.539,29a12.706,12.706,0,0,0,8.482-6.173Z" transform="translate(337 21)" fill="#d3dcc5"/>
      <path id="Path-34" data-name="Path" d="M7.737,37a22.444,22.444,0,0,0,4.925-10.729,27.828,27.828,0,0,0-1.323-13.795C9.869,7.97,7.634,7.418,5.326,0,5.62,4.215,3.459,7.02,2.5,11.618a63.811,63.811,0,0,1-1.75,6.591C-1.569,25.152,1.68,33.812,7.737,37Z" transform="translate(279 23)" fill="#d3dcc5"/>
      <path id="Path-35" data-name="Path" d="M0,.825C3.707,2.059,5.031,5.3,8.131,8.2a33.6,33.6,0,0,1,4.019,4.7A15.106,15.106,0,0,0,30,17.864,17.756,17.756,0,0,0,25.561,6.788,20.306,20.306,0,0,0,13.427.216C8.847-.6,7.227,1.194,0,.825Z" transform="translate(240 31)" fill="#d3dcc5"/>
      <path id="Path-36" data-name="Path" d="M10.1,33a20.083,20.083,0,0,0,2.892-10.944A23.286,23.286,0,0,0,8.944,9.677C6.587,5.953,4.331,6,.383,0,1.67,3.694.239,6.747.383,11.112a48.451,48.451,0,0,1-.318,6.3A14.74,14.74,0,0,0,10.1,33Z" transform="translate(191 25)" fill="#d3dcc5"/>
      <path id="Path-37" data-name="Path" d="M10.418,10.971c3.069,3.705,8.838,3.977,14.576,1a11.253,11.253,0,0,0-3.652-8.584,13.722,13.722,0,0,0-10.6-3.3C6.889.413,5.708,2.273,0,3.775c3.069,0,4.419,2.489,7.012,4.206a17,17,0,0,1,3.406,2.99Z" transform="translate(137 51)" fill="#d3dcc5"/>
      <path id="Path-38" data-name="Path" d="M10.208,25A16.728,16.728,0,0,0,13,16.113,13.435,13.435,0,0,0,9.4,7.3C7.24,4.6,4.992,4.771,1.421,0c1,2.9-.647,5.274-.764,8.78A41.222,41.222,0,0,1,.128,13.9C-.857,19.588,3.978,24.985,10.208,25Z" transform="translate(124 71)" fill="#d3dcc5"/>
      <path id="Path-39" data-name="Path" d="M7.022,8.411a12.2,12.2,0,0,1,2.662,3.833,8.859,8.859,0,0,0,4.9,4.872A25.446,25.446,0,0,0,23.368,19a11.476,11.476,0,0,0,.245-11.369A14.34,14.34,0,0,0,12.182.047,10.912,10.912,0,0,0,6.63.989C4.9,1.72,2.923,2.483,0,3.6,3.152,3.36,4.7,6.186,7.022,8.411Z" transform="translate(83 93)" fill="#d3dcc5"/>
      <path id="Path-40" data-name="Path" d="M1.057,24c.6-3.588,3.861-4.853,6.753-6.939a13.528,13.528,0,0,1,4.847-2.071,13.426,13.426,0,0,0,6.85-3.73A30.8,30.8,0,0,0,25,3.594C22.415.543,17.391-.61,12.883.306A16.83,16.83,0,0,0,.847,10.391,11.741,11.741,0,0,0,.12,16.445C.379,18.373.573,20.6,1.057,24Z" transform="translate(32 158)" fill="#d3dcc5"/>
      <path id="Path-41" data-name="Path" d="M3.781,27.394a7.87,7.87,0,0,0,9.18,1.856q.135-4.864-.2-9.723a24.133,24.133,0,0,0-3.339-9.263C7.7,6.837,5.5,6.408,2.986,0,3.44,3.664,1.394,6.123.854,10.453.613,12.468.3,14.926.058,16.972A12.814,12.814,0,0,0,3.781,27.394Z" transform="translate(62 98)" fill="#d3dcc5"/>
      <path id="Path-42" data-name="Path" d="M12.414,23.846a51.683,51.683,0,0,0,8.652-11.175,36.234,36.234,0,0,0,2.666-5.533A19.794,19.794,0,0,1,29,0c-4.162,2.463-8.122,2.213-13.141,4.816-2.2,1.216-4.926,2.665-7.14,3.943A17.721,17.721,0,0,0,.644,19.3,13.931,13.931,0,0,0,2.2,31a41.186,41.186,0,0,0,10.211-7.154Z" transform="translate(451 107)" fill="#d3dcc5"/>
      <path id="Path-43" data-name="Path" d="M5.223,41a42.5,42.5,0,0,0,7.41-10.486,43.8,43.8,0,0,0,4.2-14.769c.7-5.322-1.1-6.944.093-15.745-1.659,4.55-5.1,6.487-8.216,11.022-1.38,2.015-3.209,4.393-4.743,6.3A19.208,19.208,0,0,0,.03,30.1,14.445,14.445,0,0,0,5.223,41Z" transform="translate(430 61)" fill="#d3dcc5"/>
      <path id="Path-44" data-name="Path" d="M3.446,30a19.747,19.747,0,0,0,8.573-6.258,20.368,20.368,0,0,0,3.9-11C16.4,8.615,14.523,6.99,15.706,0c-1.536,3.376-4.7,4.3-7.5,7.42-1.244,1.417-2.888,3.025-4.3,4.331A12.544,12.544,0,0,0,0,20.764,13.113,13.113,0,0,0,3.446,30Z" transform="translate(406 54)" fill="#d3dcc5"/>
      <path id="Path-45" data-name="Path" d="M12.381,7.461a18.868,18.868,0,0,0-9.894,7.986A14.886,14.886,0,0,0,.374,27,34.4,34.4,0,0,0,12.4,22.969a38.916,38.916,0,0,0,11.533-9.947C27.268,8.959,26.594,6.657,32,0c-3.691,2.935-7.566,2.765-12.421,4.788C17.45,5.731,14.663,6.688,12.381,7.461Z" transform="translate(300 13)" fill="#d3dcc5"/>
      <path id="Path-46" data-name="Path" d="M2.3,3.515c.351,1.4.383,2.99.783,4.676a24.09,24.09,0,0,1,.447,5.328,11.319,11.319,0,0,0,3.882,8.525A10.494,10.494,0,0,0,17,24.749a28.621,28.621,0,0,0,.895-10A17.114,17.114,0,0,0,11.917,4.453a12.158,12.158,0,0,0-4.984-2.64C5.112,1.336,3.051.636,0,0A5.056,5.056,0,0,1,2.3,3.515Z" transform="translate(257 4)" fill="#d3dcc5"/>
      <path id="Path-47" data-name="Path" d="M19.531,13.987A22.292,22.292,0,0,0,28.9,11.631a14.111,14.111,0,0,0,5.23-4.564C35.394,5.319,36.892,3.289,39,0a9.3,9.3,0,0,1-5.324,2.445c-1.936.282-3.95.237-6.245.341a16.452,16.452,0,0,1-6.245-.978A26.2,26.2,0,0,0,16.5.548,29.745,29.745,0,0,0,10.929.163C6.9.163,2.357,1.556,0,4.356a30.813,30.813,0,0,0,10.148,7.809A21.23,21.23,0,0,0,19.531,13.987Z" transform="translate(496 241)" fill="#d3dcc5"/>
      <path id="Path-48" data-name="Path" d="M16.552.158A15.646,15.646,0,0,0,5.872,2.469,12.7,12.7,0,0,0,0,10.6,25.285,25.285,0,0,0,11.173,13,28.369,28.369,0,0,0,23.611,9.719a22.054,22.054,0,0,0,4.546-3.1A21.827,21.827,0,0,1,35,2.873C30.9,3.364,28.018,1.429,23.333,1,21.222.837,18.648.49,16.552.158Z" transform="translate(515 266)" fill="#d3dcc5"/>
      <path id="Path-49" data-name="Path" d="M17.99,13.459A14.449,14.449,0,0,0,17,7.63,46.512,46.512,0,0,1,15.083,0c-.361,3.937-3.268,5.936-5.609,9.4a25.756,25.756,0,0,1-4.069,4.578A16.9,16.9,0,0,0,.975,32a16.708,16.708,0,0,0,11.233-5.036A20.123,20.123,0,0,0,17.99,13.459Z" transform="translate(519 194)" fill="#d3dcc5"/>
      <path id="Path-50" data-name="Path" d="M19.956,16.284c-.546-2.076-1.2-4.623-1.75-6.715a13.218,13.218,0,0,0-7.53-8.476A11.823,11.823,0,0,0,0,1.471a33.518,33.518,0,0,0,3.42,10.1,26.788,26.788,0,0,0,7.53,8.225,30.746,30.746,0,0,0,4.511,2.8A15.26,15.26,0,0,1,21,28C19.7,24.179,21.064,20.955,19.956,16.284Z" transform="translate(537 292)" fill="#d3dcc5"/>
      <path id="Path-51" data-name="Path" d="M13.453,7.571a12.354,12.354,0,0,0-8.484,2.588c-3.006,2.1-5.43,5.888-4.895,9.479A35.162,35.162,0,0,0,10.242,22,15.22,15.22,0,0,0,17.1,20.382a15.467,15.467,0,0,0,6.611-5.937A8.874,8.874,0,0,0,24.8,7.975C24.66,7,24.455,5.985,24.36,4.74A10.385,10.385,0,0,1,24.974,0a24.128,24.128,0,0,1-3.62,4.481A14.29,14.29,0,0,1,17.561,7.1,7.381,7.381,0,0,1,13.453,7.571Z" transform="translate(501 148)" fill="#d3dcc5"/>
      <path id="Path-52" data-name="Path" d="M2.683,6.29A12.33,12.33,0,0,0,.674,18a81.352,81.352,0,0,0,10.891-2.552A55.149,55.149,0,0,0,22.3,10.3,21.28,21.28,0,0,0,24.727,8.68l2.24-1.615A13.59,13.59,0,0,1,35,4.868a30.254,30.254,0,0,1-5.978-2.326A20.94,20.94,0,0,0,22.255.394c-2.425-.21-5.422-.436-7.94-.388A14.793,14.793,0,0,0,2.683,6.29Z" transform="translate(507 185)" fill="#d3dcc5"/>
      <path id="Path-53" data-name="Path" d="M0,11.725a29.719,29.719,0,0,0,11.256,1.158,34.35,34.35,0,0,0,5.018-.6,33.669,33.669,0,0,1,4.632-.815,43.616,43.616,0,0,0,5.451-.672c.957-.172,2.038-.329,3.3-.486A30.1,30.1,0,0,0,34,9.524a6.5,6.5,0,0,1-4.385-1.987,27.842,27.842,0,0,0-4.632-3.83A30.1,30.1,0,0,0,17.355.477,14.276,14.276,0,0,0,10.5.362a14.84,14.84,0,0,0-5.62,2.587A12.037,12.037,0,0,0,0,11.725Z" transform="translate(485 119)" fill="#d3dcc5"/>
      <path id="Path-54" data-name="Path" d="M.94,1h0Z" transform="translate(247 22)" fill="#d3dcc5"/>
      <path id="Path-55" data-name="Path" d="M1.056,1.067.916.927h.1S1.136,1.107,1.056,1.067Z" transform="translate(247 23)" fill="#d3dcc5"/>
      <path id="Path-56" data-name="Path" d="M9.066,12.452A31.332,31.332,0,0,0,25.333,17a21.216,21.216,0,0,0,6.654-1.021l1.691-.418a13.417,13.417,0,0,0,2.02-.588,6.17,6.17,0,0,0,1.926-1.129A.97.97,0,0,0,38,13.086c0-.186-.188-.247-.344-.294a1.314,1.314,0,0,1-.642.093,4.1,4.1,0,0,1-2.129-.82c-1.738-1.1-3.617-2.475-5.9-3.681a49,49,0,0,1-6.357-4.053C16.252-.526,6.576-1.407,0,2.243A22.485,22.485,0,0,0,9.066,12.452Z" transform="translate(211 9)" fill="#d3dcc5"/>
      <path id="Path-57" data-name="Path" d="M11.357,19.638a52.273,52.273,0,0,1,5.385-2.712A12.887,12.887,0,0,0,22.841,0,18.652,18.652,0,0,0,12.405,3a19.037,19.037,0,0,0-7.275,9.517,16.839,16.839,0,0,0-1.048,5.2,10.043,10.043,0,0,1-.619,2.918A5.651,5.651,0,0,1,0,24a29.767,29.767,0,0,0,6.131-1.856,33.171,33.171,0,0,0,5.226-2.506Z" transform="translate(160 21)" fill="#d3dcc5"/>
      <path id="Path-58" data-name="Path" d="M12.216,24.238A20.07,20.07,0,0,0,23.868,14.216,15.42,15.42,0,0,0,25.59,8.161,66.648,66.648,0,0,1,27,0c-1.942,3.64-5.372,4.293-8.911,6.447a22.11,22.11,0,0,1-5.56,2.269A15.719,15.719,0,0,0,4.7,13.759,21.144,21.144,0,0,0,0,23.014,15.1,15.1,0,0,0,12.216,24.238Z" transform="translate(94 60)" fill="#d3dcc5"/>
      <path id="Path-59" data-name="Path" d="M15.991,23.284a15.973,15.973,0,0,0,6.468.62A65.093,65.093,0,0,1,31,23.9c-4.192-1.272-5.825-4.771-9.027-7.952a28.116,28.116,0,0,1-3.925-5.376,19.793,19.793,0,0,0-7.269-7.491A21.4,21.4,0,0,0,.448,0C-.7,4.056.448,9.1,2.834,13.169A23.163,23.163,0,0,0,15.991,23.284Z" transform="translate(379 18)" fill="#d3dcc5"/>
      <path id="Path-60" data-name="Path" d="M20.947,14.781a36.524,36.524,0,0,0,5.329-.344A14.728,14.728,0,0,1,34,16a20.593,20.593,0,0,1-3.955-4.392,22.6,22.6,0,0,0-4.4-4.892c-1.792-1.344-4-3.126-5.932-4.345A13.873,13.873,0,0,0,7.909.6,11.454,11.454,0,0,0,0,8.013a43.075,43.075,0,0,0,9.624,5.064A34.367,34.367,0,0,0,20.947,14.781Z" transform="translate(455 89)" fill="#d3dcc5"/>
      <path id="Path-61" data-name="Path" d="M28.259,9.217C33.052,7,33.249,4.745,41,1.131,36.374,2.216,32.824.688,27.546.616A74.806,74.806,0,0,1,19.962.131C11.8-.841,2.821,3.717,0,10.131a26.623,26.623,0,0,0,12.832,2.857A36.373,36.373,0,0,0,28.259,9.217Z" transform="translate(291)" fill="#d3dcc5"/>
      <g id="Group" transform="translate(112 106)">
        <path id="Path-62" data-name="Path" d="M40.616.747c7.975,4.418,17.636,2.178,25.83,5.928A71.789,71.789,0,0,1,87.359,21.547C93.149,27.428,98.892,34.2,101.608,42.1a34.949,34.949,0,0,1,1.686,13.6,32.335,32.335,0,0,0,0,6.021,44.661,44.661,0,0,0,1.842,7.125c2.809,9.148,1.561,18.918-1.764,27.786-1.561,4.341-4.042,8.308-5.806,12.586A88.627,88.627,0,0,0,93.851,121.3a60.232,60.232,0,0,1-10.3,22.061,71.84,71.84,0,0,1-19.087,17.923,55.836,55.836,0,0,1-30.168,8.09c-11.44,0-22.365-3-33.493-5.227-.8-.156-1.155,1.027-.343,1.245,18.947,5.274,40.578,9.024,59.088.3a65.962,65.962,0,0,0,20.289-15.558,64.814,64.814,0,0,0,13.11-21.019c1.561-4.107,2.2-8.463,3.387-12.664a70.907,70.907,0,0,1,5.228-13.037A52.512,52.512,0,0,0,107.8,75.891c-.328-4.5-2.232-8.588-3.121-12.944-1.014-4.792.234-9.693-.468-14.515-1.233-8.308-5.431-15.278-10.784-21.61A79.784,79.784,0,0,0,71.174,8.152,36.333,36.333,0,0,0,57.128,3.485c-5.509-.622-11.175-.7-16.153-3.438-.406-.218-.765.389-.359.607Z" transform="translate(54.061 180.477)" fill="#f7efe2"/>
        <path id="Path-63" data-name="Path" d="M.24.944a28.044,28.044,0,0,1,13.625,14.1,50.789,50.789,0,0,1,2.575,10.3c.843,4.4,2.2,8.666,3.449,12.96a65.88,65.88,0,0,1,2.856,13.053,27.475,27.475,0,0,1-1.857,11.311A69.988,69.988,0,0,0,17.564,73.35,84.469,84.469,0,0,1,16,82.358,22.487,22.487,0,0,1,11.321,91.4a15.985,15.985,0,0,1-9.6,4.761c-.7.109-.546,1.291.172,1.229C8.309,96.92,13.24,92.611,15.8,86.9a34.235,34.235,0,0,0,2.513-9.335A54.306,54.306,0,0,1,20.763,66.6a49.429,49.429,0,0,0,3.121-11.419,37.229,37.229,0,0,0-1.639-12.7C21,37.723,19.39,33.149,18.2,28.279c-.952-3.905-1.327-7.95-2.653-11.777A28.97,28.97,0,0,0,.724.057C.177-.223-.306.6.24.882Z" transform="translate(133.36 199.711)" fill="#f7efe2"/>
        <path id="Path-64" data-name="Path" d="M.249,1.474c6.243,0,12.564-.685,18.838-.327A38.2,38.2,0,0,1,37.081,7a60.588,60.588,0,0,1,22.8,23.772,34.285,34.285,0,0,1,3.34,8.79,45.971,45.971,0,0,1,.655,9.024A51.042,51.042,0,0,0,67,65.308c2.045,6.083,3.121,11.933,1.717,18.28-1.327,5.694-4.089,10.89-6.43,16.258a49.668,49.668,0,0,0-3.121,10.439,39.24,39.24,0,0,1-3.356,10.89c-3.012,5.57-8.334,9.335-11.83,14.624-.39.576.546,1.12.936.545,3.371-4.87,8.287-8.463,11.424-13.52,3.574-5.819,3.7-12.757,5.837-19.074,2.029-5.959,5.4-11.373,7.226-17.44a30.293,30.293,0,0,0,.2-17.114c-1.7-6.036-4.214-11.606-4.417-18-.218-6.223,0-11.948-2.638-17.72A60.072,60.072,0,0,0,41,8.148C35.333,4.321,29.371,1.256,22.5.37,15.138-.548,7.709.525.327.587a.4.4,0,0,0,0,.793Z" transform="translate(98.86 181.088)" fill="#f7efe2"/>
        <path id="Path-65" data-name="Path" d="M0,.566C2.029,4.611,3.121,8.983,4.682,13.2a94.355,94.355,0,0,0,5.509,10.75A34.839,34.839,0,0,1,14.265,35.54,83.874,83.874,0,0,1,14.7,48.22c-.078,7.934-.437,15.916.765,23.788A45.277,45.277,0,0,0,24.6,93.447a31.631,31.631,0,0,0,18.447,11.715c.7.156,1-.9.3-1.058A30.385,30.385,0,0,1,26.048,93.447,44.518,44.518,0,0,1,16.481,71.37c-1.171-7.981-.7-16.1-.671-24.13a81.9,81.9,0,0,0-.5-11.9,33.715,33.715,0,0,0-3.121-9.926C10.113,21.165,7.4,17.307,5.7,12.888A109,109,0,0,0,.655.162C.437-.227-.14.162.062.52Z" transform="translate(161.037 215.227)" fill="#f7efe2"/>
        <path id="Path-66" data-name="Path" d="M.026.61C2.305,3.441,4.24,6.522,6.269,9.556s3.917,5.4,5.868,8.137a28.738,28.738,0,0,1,3.949,8.775c.921,3.112,1.81,6.363,2.544,9.553,1.561,6.8,1.124,13.831,1.561,20.739a44.8,44.8,0,0,0,4.464,17.487c2.466,4.979,5.9,10.517,11.377,12.555a.469.469,0,0,0,.359-.856c-5.275-2.536-8.584-7.281-10.925-12.446a50.164,50.164,0,0,1-4.089-18.981c-.265-6.6-.094-13.3-1.779-19.743-1.483-5.663-2.7-11.886-5.977-16.849-2-3.112-4.479-5.756-6.524-8.79A99.808,99.808,0,0,0,.619.128C.307-.246-.208.283.089.657Z" transform="translate(159.404 212.072)" fill="#f7efe2"/>
        <path id="Path-67" data-name="Path" d="M0,.311C2.091,7.841,7.616,14,8.131,22S7.21,38.287,6.7,46.377c-.453,7.157-.39,14.531,1.982,21.376a32.42,32.42,0,0,0,12.486,16.18c6.243,4.232,14.436,7.53,22.068,7.219a.56.56,0,1,0,0-1.12c-14.483-1.167-28.764-8.681-33.508-23.15s.546-29.747-.39-44.573a26.386,26.386,0,0,0-3.028-10.47C4.354,7.965,1.935,4.293.546.155A.281.281,0,0,0,.016.311Z" transform="translate(163.8 236.361)" fill="#f7efe2"/>
        <path id="Path-68" data-name="Path" d="M1.16.307C-.775,6.779.3,14,.271,20.657c0,7.608.343,15.418,2.825,22.683A40.931,40.931,0,0,0,28.207,68.917C34.2,71.033,42.722,72.931,48.5,69.1a.565.565,0,1,0-.562-.98c-5.681,3.018-12.267,2.023-18.151.124a39.323,39.323,0,0,1-15.607-9.335A40.729,40.729,0,0,1,4.391,43.48a63.6,63.6,0,0,1-2.95-20.754c0-3.765-.094-7.514-.187-11.264A36.341,36.341,0,0,1,2.175.571.515.515,0,0,0,1.192.307Z" transform="translate(164.809 269.472)" fill="#f7efe2"/>
        <path id="Path-69" data-name="Path" d="M40.2.307c-2.606,6.954-3.4,14.267-4.276,21.579-.78,6.565-1.171,14.718-5.572,20.07-3.558,4.341-8.709,7.063-12.236,11.513A26.257,26.257,0,0,0,14.2,60.251a60.33,60.33,0,0,0-2.091,8.619C10.548,75.529,6.974,81.176.325,83.557a.529.529,0,0,0,.281,1.011c5.353-1,9.068-5.523,11.112-10.284,2.419-5.647,2.232-11.886,5.447-17.269S25.718,48.489,30.072,44.1s5.556-10.984,6.4-17.114C37.7,18.12,38.032,9.066,41.044.54,41.231,0,40.4-.222,40.2.291Z" transform="translate(125.035 273.813)" fill="#f7efe2"/>
        <path id="Path-70" data-name="Path" d="M48.872.31a53.357,53.357,0,0,0-1.03,9.833,41.452,41.452,0,0,1-1.7,9.957,30.48,30.48,0,0,1-4.073,8.79,36.975,36.975,0,0,1-6.773,6.83,70.063,70.063,0,0,0-6.524,5.834,32.025,32.025,0,0,0-4.963,7.483c-3.121,6.021-5.478,12.446-9.364,18.016a23.015,23.015,0,0,1-6.1,6.114A51.337,51.337,0,0,1,.4,77.041c-.827.358-.234,1.742.609,1.447a29.667,29.667,0,0,0,12.673-7.9c4.308-4.9,6.867-11.093,9.614-16.927a51.011,51.011,0,0,1,5.025-9.195,42.855,42.855,0,0,1,6.727-6.612,45.865,45.865,0,0,0,6.6-6.41,31.709,31.709,0,0,0,4.4-7.95,39.556,39.556,0,0,0,2.56-10.081c.453-4.294.125-8.619,1.124-12.866.125-.545-.718-.778-.858-.233Z" transform="translate(116.753 299.573)" fill="#f7efe2"/>
        <path id="Path-71" data-name="Path" d="M69.74.371c-1.249,3.578-.858,7.452-1.81,11.093a49.913,49.913,0,0,1-4.682,11.591c-3.293,5.9-8.521,10-13.516,14.375C44.395,42.1,41.039,47.962,38.2,54.372A58,58,0,0,1,33.7,63.6a26.9,26.9,0,0,1-7.335,7.2,27.628,27.628,0,0,1-12.2,4.792c-4.51.545-8.958-.171-13.469-.078-.765,0-1,1.229-.187,1.385,7.632,1.369,16.216,1.151,23.176-2.551A30.1,30.1,0,0,0,37.465,60.066c3.121-6.892,5.775-14,11.112-19.494C53.259,35.641,59.05,31.813,62.9,26.041a48.344,48.344,0,0,0,5.509-12,28.641,28.641,0,0,0,1.311-6.363A30.3,30.3,0,0,1,70.8.667c.218-.669-.827-.949-1.046-.3Z" transform="translate(99.772 316.533)" fill="#f7efe2"/>
        <path id="Path-72" data-name="Path" d="M19.845,1.644a19.316,19.316,0,0,1-9.5.965A27.9,27.9,0,0,1,1.148.072C.43-.27-.413.679.227,1.286,2.911,3.526,6.8,4.257,10.2,4.506A21.349,21.349,0,0,0,20.641,2.951c.936-.42.125-1.742-.8-1.354Z" transform="translate(94.122 397.561)" fill="#f7efe2"/>
        <path id="Path-73" data-name="Path" d="M22.983,4.813H16.444a28.681,28.681,0,0,1-6.118-.342A16.349,16.349,0,0,1,5.644,2.308,14.6,14.6,0,0,0,.962.036.731.731,0,0,0,.385,1.374c1.561.98,3.215,1.789,4.791,2.692a16.853,16.853,0,0,0,4.916,2.069,25.628,25.628,0,0,0,5.977.233c2.325-.078,4.682-.218,6.961-.249a.622.622,0,1,0,0-1.245Z" transform="translate(82.212 402.777)" fill="#f7efe2"/>
        <path id="Path-74" data-name="Path" d="M29.873.082C21.757,5.994,20.993,15.453,19.1,24.524A37.056,37.056,0,0,1,.376,49.416c-.858.5-.094,1.727.765,1.322A36.633,36.633,0,0,0,19.869,27.946C22.475,18.44,21.789,7.55,30.5.969c.5-.389,0-1.26-.515-.871Z" transform="translate(121.223 352.993)" fill="#f7efe2"/>
        <path id="Path-75" data-name="Path" d="M37.589.156c-6.633,6.068-6.649,16.849-7.445,25.11C29.115,36,26.867,47.39,19.22,55.48,14.21,60.723,8.045,64.285.679,64.472c-.734,0-.983,1.229-.187,1.354,5.6.933,11.331-2.225,15.607-5.523a35.085,35.085,0,0,0,10.5-13.24c4.323-9.584,4.448-20.023,5.743-30.26.7-5.539,1.842-11.855,6.134-15.838.546-.5-.265-1.307-.812-.809Z" transform="translate(115.738 351.364)" fill="#f7efe2"/>
        <path id="Path-76" data-name="Path" d="M6.161.214C1.479,6.53.652,14.9.168,22.493A75.545,75.545,0,0,0,.5,36.168,127.893,127.893,0,0,1,1.619,51.213c0,.856,1.171.793,1.28,0,.624-4.667-.265-9.428-.858-14a75.018,75.018,0,0,1-.546-13.629c.406-7.7.983-16.3,5.619-22.792.406-.576-.546-1.12-.952-.545Z" transform="translate(149.882 348.272)" fill="#f7efe2"/>
        <path id="Path-77" data-name="Path" d="M.383,19.469C6.626,21.958,13.759,17.742,19.5,15.5A19.539,19.539,0,0,0,27.43,9.854c2.357-2.66,3.855-5.928,5.915-8.79.406-.576-.39-1.338-.968-.965C29.74,1.81,28.944,5.622,27.009,7.987a18.986,18.986,0,0,1-7.9,6.1c-2.887,1.151-5.681,2.5-8.615,3.485S3.895,19.546.68,18.4c-.687-.249-.968.825-.3,1.073Z" transform="translate(115.831 405.126)" fill="#f7efe2"/>
        <path id="Path-78" data-name="Path" d="M13.195.3c-.952,6.005-.515,12.042-.687,18.094A36.982,36.982,0,0,1,7.9,36.581C5.157,41.326,1.833,45.745.756,51.237A45.971,45.971,0,0,0,.1,60.369a57.833,57.833,0,0,0,.187,9.164c.109.622,1.03.56,1.186,0,.765-2.832.187-6.223.156-9.164a38.776,38.776,0,0,1,.843-10.128C3.83,44.749,7.592,40.346,10.12,35.4c5.587-10.89,2.716-23.259,3.9-34.99,0-.467-.765-.576-.827-.109Z" transform="translate(156.833 318.221)" fill="#f7efe2"/>
        <path id="Path-79" data-name="Path" d="M13.27.248C10.757,10,12.942,20.177,11.3,30.041A43.68,43.68,0,0,1,7.417,42.487c-2,3.983-4.838,7.141-7.32,10.782-.375.529.421,1.073.858.653A37.743,37.743,0,0,0,8.385,43.358a44.227,44.227,0,0,0,3.98-12.042c1.857-10.175-.406-20.63,1.748-30.773A.438.438,0,0,0,13.27.31Z" transform="translate(155.915 343.633)" fill="#f7efe2"/>
        <path id="Path-80" data-name="Path" d="M8.832.464c1.561,11.777,4,23.523,3.714,35.456s-3.4,23.555-6.617,35.036c-.905,3.2-1.795,6.41-2.778,9.584A90.667,90.667,0,0,0,.03,90.3a.515.515,0,0,0,.952.389,32.392,32.392,0,0,0,3-7.779c.921-2.94,1.764-5.912,2.591-8.884,1.654-5.881,3.356-11.746,4.682-17.7a103.916,103.916,0,0,0,1.764-36.079C12.188,13.564,10.892,6.968,9.737.34c-.094-.529-1-.4-.936.124Z" transform="translate(161.117 319.364)" fill="#f7efe2"/>
        <path id="Path-81" data-name="Path" d="M12.487.551c1.639,5.025,1.03,10.984,1.124,16.227a104.984,104.984,0,0,1-1.155,19.167C10.583,46.836,5.308,56.279.079,65.925a.594.594,0,0,0,1.03.591c5.868-9.521,10.925-19.7,12.72-30.836a107.868,107.868,0,0,0,.952-18.9C14.656,11.426,15.234,5.405,13.345.3c-.187-.529-1.046-.311-.858.249Z" transform="translate(161.489 355.465)" fill="#f7efe2"/>
        <path id="Path-82" data-name="Path" d="M16.3.646C17.66,6.4,19.517,12.081,20.219,17.977a43.539,43.539,0,0,1-1.561,17.471A60.584,60.584,0,0,1,11.62,50.913,57.687,57.687,0,0,1,6.3,58.007C4.362,60.186,2.084,62.037.164,64.231a.639.639,0,0,0,.765,1,26.205,26.205,0,0,0,6.586-5.99A60.515,60.515,0,0,0,12.853,52a64.761,64.761,0,0,0,7.179-15.885,44.626,44.626,0,0,0,1.748-17.5A116.624,116.624,0,0,0,17.441.335.546.546,0,0,0,16.4.615Z" transform="translate(159.125 376)" fill="#f7efe2"/>
        <path id="Path-83" data-name="Path" d="M.065.362A51.805,51.805,0,0,0,6.729,20.2a66.769,66.769,0,0,0,5.9,9.008c2.013,2.567,4.4,5.85,7.335,7.406.546.3,1.373-.342.936-.933-1.92-2.52-4.542-4.527-6.586-6.985A63.409,63.409,0,0,1,8.071,19.7,67.157,67.157,0,0,1,.72.253C.627-.136-.044-.058,0,.362Z" transform="translate(174.379 354.347)" fill="#f7efe2"/>
        <path id="Path-84" data-name="Path" d="M.058.6A47.427,47.427,0,0,0,12.372,25.114a26.154,26.154,0,0,0,12.657,6.6c2.466.591,4.979.965,7.476,1.369a54.779,54.779,0,0,0,7.8,1.462.793.793,0,0,0,.406-1.478,19.919,19.919,0,0,0-6.82-1.634c-2.419-.373-4.838-.685-7.242-1.151a25.474,25.474,0,0,1-13.188-6.223A46.051,46.051,0,0,1,.979.362C.854-.276-.114,0,.011.626Z" transform="translate(173.808 349.089)" fill="#f7efe2"/>
        <path id="Path-85" data-name="Path" d="M0,.352C.454,5.019,3.03,8.784,5.215,12.8c2.513,4.543,4.027,9.537,6.711,14a155.25,155.25,0,0,0,9.583,12.96c2.887,3.827,6.243,7.141,8.6,11.311a.64.64,0,0,0,1.155-.5c-1.03-4.076-4.854-7.359-7.46-10.517-3.34-4.045-6.789-8.23-9.739-12.586s-4.6-9.148-7.023-13.706S1.469,5.439.876.414C.8-.13-.045-.146,0,.414Z" transform="translate(169.994 317.89)" fill="#f7efe2"/>
        <path id="Path-86" data-name="Path" d="M.014.466C1.575,7.3,4.4,13.705,5.711,20.691c1.217,6.425,2.591,12.7,6.243,18.3A35.488,35.488,0,0,0,36.94,54.607c.843.109.952-1.214.2-1.447-4.994-1.556-9.832-2.551-14.327-5.336a32.344,32.344,0,0,1-10.41-10.782c-3.34-5.507-4.464-11.777-5.775-17.985C5.258,12.6,2.355,6.611.717.263a.365.365,0,0,0-.7.2Z" transform="translate(171.261 322.63)" fill="#f7efe2"/>
        <path id="Path-87" data-name="Path" d="M.094.747a34.74,34.74,0,0,0,20.492,9.693,41.942,41.942,0,0,0,11.924-.14A24.882,24.882,0,0,0,43.325,6.565c.577-.42.265-1.556-.546-1.276A64.8,64.8,0,0,1,32.587,8.712a39.452,39.452,0,0,1-11.237.436A34.543,34.543,0,0,1,.749.093.467.467,0,0,0,.094.747Z" transform="translate(179.547 339.618)" fill="#f7efe2"/>
        <path id="Path-88" data-name="Path" d="M.253,7.243A45.382,45.382,0,0,0,26.332,12.3c8.521-.84,17.652-4.092,23.27-10.89A.826.826,0,0,0,48.432.242,41.7,41.7,0,0,1,38.115,7.46a40.979,40.979,0,0,1-12.376,3.112A45.589,45.589,0,0,1,.768,6.263c-.577-.3-1.092.56-.515.887Z" transform="translate(188.206 346.315)" fill="#f7efe2"/>
        <path id="Path-89" data-name="Path" d="M.382,21.994c10.332,3.345,22.677,3.874,32.494-1.338a93.132,93.132,0,0,0,13.11-8.386,47.614,47.614,0,0,0,5.993-5.352c1.451-1.556,3.5-3.672,3.824-5.865.109-.747-.749-1.447-1.373-.793-1.561,1.556-2.544,3.734-4.089,5.4a47.8,47.8,0,0,1-5.931,5.29,105.157,105.157,0,0,1-11.971,7.888C23.075,24.172,10.745,23.954.694,20.9a.567.567,0,0,0-.312,1.089Z" transform="translate(199.314 341.973)" fill="#f7efe2"/>
        <path id="Path-90" data-name="Path" d="M.227,5.535C4.534,8.164,9.809,6.951,14.273,5.3,19.1,3.528,23.809.4,28.943,2.921,31.191,4.01,33.188,5.6,35.358,6.842a49.476,49.476,0,0,0,5.977,2.94A23.3,23.3,0,0,0,53.478,11.7c4.479-.685,9.817-3.921,11.268-8.448a1.014,1.014,0,0,0-1.67-.965c-1.67,1.556-2.762,3.594-4.682,4.979a12.68,12.68,0,0,1-5.572,2.194A22.4,22.4,0,0,1,41.21,7.324C37.09,5.55,33.594,2.657,29.505.9S21.7.214,17.831,1.957C12.806,4.212,6.282,7.5.913,4.415a.654.654,0,0,0-.655,1.12Z" transform="translate(236.676 354.091)" fill="#f7efe2"/>
        <path id="Path-91" data-name="Path" d="M.218.808c7.117,5.71,16.59,5.352,25.221,5.476A50.36,50.36,0,0,1,38.752,7.638a17.831,17.831,0,0,1,5.837,2.832c1.966,1.478,3.121,3.5,4.682,5.243a.811.811,0,0,0,1.358-.778c-.936-3.034-4.089-5.679-6.773-7.188a25.029,25.029,0,0,0-9.364-2.8c-7.366-.918-14.811.156-22.178-.685A23.457,23.457,0,0,1,.718.077C.3-.235-.265.481.14.808Z" transform="translate(306.651 365.321)" fill="#f7efe2"/>
        <path id="Path-92" data-name="Path" d="M.519,1.359A60.932,60.932,0,0,1,11.3,1.825,68.978,68.978,0,0,1,22.431,3.708a31.554,31.554,0,0,1,9.161,4.341c2.965,2.023,5.275,4.667,8.022,6.923.765.622,2.138-.2,1.483-1.136A32.513,32.513,0,0,0,23.742,2.105,59.9,59.9,0,0,0,12.817.378,56.189,56.189,0,0,0,.5.3C-.152.394-.183,1.39.5,1.359Z" transform="translate(340.873 370.915)" fill="#f7efe2"/>
        <path id="Path-93" data-name="Path" d="M.15.821c4.542,4.232,10.425,5.227,16.278,6.5a26.384,26.384,0,0,1,8.131,2.863,13.379,13.379,0,0,1,3.48,3,38,38,0,0,1,2.84,4.667.718.718,0,0,0,1.311-.545c-1.42-6.223-7.8-9.739-13.531-11.077C12.417,4.8,5.878,4.415.821.121.369-.268-.3.37.15.79Z" transform="translate(275.302 366.101)" fill="#f7efe2"/>
        <path id="Path-94" data-name="Path" d="M.077.718C5.492,8,14.56,5.385,22.161,7.75a23.887,23.887,0,0,1,11.674,8.775,16.854,16.854,0,0,1,2.919,14.282.734.734,0,0,0,1.4.373C41.545,21.923,34.069,12.106,26.187,8c-3.871-2.007-7.96-2.365-12.236-2.66C8.988,4.98,4.1,4.249.81.142.483-.263-.235.282.077.718Z" transform="translate(229.194 363.342)" fill="#f7efe2"/>
        <path id="Path-95" data-name="Path" d="M.416.871C4.5,1.151,8.063,3.423,12.23,3.423c4.682,0,9.161-.918,13.765.42,7.96,2.3,13.516,8.588,20.149,13.131.734.5,1.654-.653.952-1.245C41.072,10.61,34.423,4.73,26.651,2.5c-4.479-1.276-8.849-.591-13.406-.342a20.051,20.051,0,0,1-6.976-.98A22.74,22.74,0,0,0,.416,0,.436.436,0,0,0,.416.871Z" transform="translate(195.457 387.147)" fill="#f7efe2"/>
        <path id="Path-96" data-name="Path" d="M.562,1.122a24.113,24.113,0,0,1,21.023,16.74,30.541,30.541,0,0,1,.8,14.624,36.017,36.017,0,0,1-6.539,13.286c-.468.669.593,1.478,1.124.871A30.421,30.421,0,0,0,23.036,16.6C20.055,7.345,10.41-.123.562,0a.56.56,0,1,0,0,1.12Z" transform="translate(216.786 395.36)" fill="#f7efe2"/>
        <path id="Path-97" data-name="Path" d="M5.842.408c.265,4.5,2.934,8.246,4.464,12.353a42.245,42.245,0,0,1,2.747,15.324A26.158,26.158,0,0,1,8.37,42.757c-2.482,3.407-6.524,6.13-8.3,10-.312.685.531,1.556,1.124.856,1.561-1.649,2.9-3.485,4.448-5.134a52.134,52.134,0,0,0,4.214-4.87,26.983,26.983,0,0,0,4.682-13.878A40.69,40.69,0,0,0,12.3,14.457C10.742,9.712,7.262,5.4,6.669.455c0-.591-.983-.622-.952,0Z" transform="translate(233.293 401.861)" fill="#f7efe2"/>
        <path id="Path-98" data-name="Path" d="M3.729.3A38.5,38.5,0,0,0,.2,10.71,23.841,23.841,0,0,0,1.31,21.6a75.846,75.846,0,0,0,4.4,9.988A64.4,64.4,0,0,1,10.05,42.806c.187.638,1.3.545,1.2-.156-.936-7.125-5.322-13.193-7.8-19.79A24.714,24.714,0,0,1,1.607,11.8,39.6,39.6,0,0,1,4.915.8C5.2.146,4.041-.351,3.745.318Z" transform="translate(243.677 445.638)" fill="#f7efe2"/>
        <path id="Path-99" data-name="Path" d="M.087.84C4.441,6.892,10.575,11.5,14.492,17.876a31.375,31.375,0,0,1,4.073,21.252.719.719,0,0,0,1.389.373c2.247-6.737,0-15.278-3.387-21.268C12.619,11.217,5.862,6.441.961.171.571-.311-.272.327.087.84Z" transform="translate(255.279 364.542)" fill="#f7efe2"/>
        <path id="Path-100" data-name="Path" d="M.061.768c2.029,4,2,8.744,1.857,13.115,0,2.24-.187,4.465-.2,6.705a21.373,21.373,0,0,0,.515,6.145.547.547,0,0,0,1.061-.14c-.125-2.209-.343-4.372-.3-6.6s.172-4.761.2-7.141C3.276,8.563,3.1,4.082.951.255a.514.514,0,0,0-.89.513Z" transform="translate(280.76 392.913)" fill="#f7efe2"/>
        <path id="Path-101" data-name="Path" d="M.064.99C1.344,3.9,3.3,6.824,3.3,10.091c0,2.5-1.4,5.928.312,8.106a.562.562,0,0,0,.936-.389,17.681,17.681,0,0,1-.094-4.061A19.5,19.5,0,0,0,4.7,9.189C4.325,5.984,2.515,3.215,1.188.337.845-.426-.279.243.064.99Z" transform="translate(238.399 371.144)" fill="#f7efe2"/>
        <path id="Path-102" data-name="Path" d="M.083.769A46.759,46.759,0,0,1,6.5,17.011a26.987,26.987,0,0,1,.109,8.961,22.61,22.61,0,0,1-1.03,4.045C5.061,31.464,4.172,32.8,3.8,34.28a.5.5,0,0,0,.827.482C6.575,32.833,7.434,29.224,7.9,26.61A28.181,28.181,0,0,0,8,17.742,44.664,44.664,0,0,0,.988.24C.629-.336-.276.24.083.769Z" transform="translate(248.213 381.027)" fill="#f7efe2"/>
        <path id="Path-103" data-name="Path" d="M7.576.443A26.387,26.387,0,0,1,4.549,10.4C3.113,13.388,1.24,16.219.038,19.3c-.234.576.671.918.983.42a95.507,95.507,0,0,0,4.9-9.475,25.932,25.932,0,0,0,2.56-9.8A.453.453,0,0,0,7.576.443Z" transform="translate(165.213 433.595)" fill="#f7efe2"/>
        <path id="Path-104" data-name="Path" d="M.545.407A20.165,20.165,0,0,0,1.2,11.92a22.275,22.275,0,0,0,7.148,8.946c3.714,2.894,6.7,5.912,7.46,10.735.7,4.527-.655,8.775-1.561,13.131a.63.63,0,0,0,1.217.327c2.809-7.25,3.231-16.351-2.544-22.263C9.8,19.527,5.727,17.5,3.323,13.46A18.09,18.09,0,0,1,1.575.7C1.7,0,.623-.309.483.407Z" transform="translate(173.321 441.675)" fill="#f7efe2"/>
        <path id="Path-105" data-name="Path" d="M.171,1.057A62.111,62.111,0,0,0,9.753,9.209a37.019,37.019,0,0,0,10.613,4.527A74.409,74.409,0,0,0,30.557,16.1c2.528.327,7.242.825,9.083-1.556a.778.778,0,0,0-.749-1.291,14.713,14.713,0,0,1-8.834.918,75.962,75.962,0,0,1-9.63-2.116A34.6,34.6,0,0,1,10.222,7.809,60.824,60.824,0,0,1,1.013.17C.467-.359-.36.466.171.995Z" transform="translate(187.976 456.116)" fill="#f7efe2"/>
        <path id="Path-106" data-name="Path" d="M1.849.337c-5.119,9.6,1.28,20.225,8.365,26.822C17.05,33.553,26.4,39.792,26.492,50.169c0,.529.874.685.968.124,1.327-8.977-7.4-16.2-13.391-21.47C6.453,22.118-2.833,11.71,2.785.819,3.113.2,2.177-.348,1.849.275Z" transform="translate(143.644 422.251)" fill="#f7efe2"/>
        <path id="Path-107" data-name="Path" d="M.047.638c0,6.441-.156,12.6,3.387,18.249,1.561,2.4,3.277,4.667,4.682,7.094A14.056,14.056,0,0,1,9.38,36.125,49.7,49.7,0,0,1,5.447,45.32a27.936,27.936,0,0,0-2.435,8.588A43.724,43.724,0,0,0,4.089,69.621c1,4.061,2.622,10.377,6.883,12.26.421.187,1-.358.546-.716C8.116,78.443,6.711,73.48,5.7,69.435A42.359,42.359,0,0,1,4.573,53.877a30.147,30.147,0,0,1,3.2-9.8,34.316,34.316,0,0,0,3.121-8.168C12.08,30.182,9.832,25.67,6.633,21.1a26.312,26.312,0,0,1-4.682-8.852A49.228,49.228,0,0,1,1.217.607.609.609,0,0,0,0,.607Z" transform="translate(142.309 441.973)" fill="#f7efe2"/>
        <path id="Path-108" data-name="Path" d="M30.652.147C22.973,4.161,24.706,13.2,22.724,20.232c-1.4,4.979-5.072,9.786-8.631,13.426A34.963,34.963,0,0,1,7.257,38.9C4.979,40.286,2.029,41.515.2,43.476a.841.841,0,0,0,1,1.307,55.064,55.064,0,0,0,7.023-4.247,37.1,37.1,0,0,0,6.243-4.667,40.171,40.171,0,0,0,9.271-13.115c2.934-6.861,0-17.114,7.71-21.252.921-.5.109-1.882-.812-1.4Z" transform="translate(97.704 434.311)" fill="#f7efe2"/>
        <path id="Path-109" data-name="Path" d="M3.326,51.641a14.043,14.043,0,0,1,.453-15.216,23.672,23.672,0,0,1,5.166-5.834,58.005,58.005,0,0,1,6.336-4.014,18.284,18.284,0,0,0,7.71-8.635,25.183,25.183,0,0,0,1.857-8.355,35.873,35.873,0,0,0-.2-8.961.89.89,0,0,0-1.7,0c-.577,3.112,0,6.457-.172,9.63a21.525,21.525,0,0,1-2.325,8.775c-2.294,4.341-6.508,6.114-10.379,8.744-7.8,5.259-13.516,15.667-7.663,24.41.375.56,1.3,0,.921-.545Z" transform="translate(84.031 429.071)" fill="#f7efe2"/>
        <path id="Path-110" data-name="Path" d="M17.464,2.194c-2.981.14-5.79,1.758-8.8,1.214a14.074,14.074,0,0,1-4.12-1.556C3.37,1.214,2.044-.015.639,0A.669.669,0,0,0,.077.98C.686,2.24,2.5,2.987,3.7,3.594A14.8,14.8,0,0,0,8.193,5.15a10.958,10.958,0,0,0,4.557-.342,25.849,25.849,0,0,1,4.682-1.2c.874-.093.905-1.447,0-1.4Z" transform="translate(68.692 409.908)" fill="#f7efe2"/>
        <path id="Path-111" data-name="Path" d="M27.291,0a10.607,10.607,0,0,0-7.8,4.138,17.463,17.463,0,0,0-2.575,8.526c-.328,3.314-.172,6.674-.624,9.988A24.85,24.85,0,0,1,11.7,33.718a18.049,18.049,0,0,1-5.15,4.87,12.693,12.693,0,0,1-3.121,1.369,14.41,14.41,0,0,0-3.121.825.668.668,0,0,0,.156,1.2c1.935.809,4.682-.482,6.368-1.416a19.193,19.193,0,0,0,5.462-4.807A26.406,26.406,0,0,0,17.88,22.765c.968-7.686-1.342-19.914,9.364-21.3.921-.124.936-1.556,0-1.462Z" transform="translate(59.613 418.025)" fill="#f7efe2"/>
        <path id="Path-112" data-name="Path" d="M18.6.457C17.527,3.475,17.044,6.68,16.092,9.7a30.979,30.979,0,0,1-5.2,9.335C8.85,21.9,6.805,24.774,4.933,27.761A40.185,40.185,0,0,0,.063,37.3a.843.843,0,0,0,1.561.638c1.717-3.112,3.121-6.441,5.135-9.521S10.91,22.191,13,19.08a27.8,27.8,0,0,0,4.557-8.728C18.433,7.162,18.7,3.88,19.728.721c.234-.731-.905-1.027-1.155-.311Z" transform="translate(45.67 417.028)" fill="#f7efe2"/>
        <path id="Path-113" data-name="Path" d="M69.493,4.1A14.459,14.459,0,0,0,57.179,2.2c-4.4,1.338-8.209,4.138-11.908,6.783s-7.8,5.507-12.486,6.5c-6.9,1.447-13.687-.56-19.883-3.547A26.025,26.025,0,0,1,6.175,7.565,26.849,26.849,0,0,1,1.275.346C.9-.385-.114.16.011.891A17.229,17.229,0,0,0,8.36,11.921,40.111,40.111,0,0,0,25.091,18,25.191,25.191,0,0,0,41.01,14.348c4.073-2.52,7.8-5.679,11.877-8.09C58.006,3.3,63.406,2.291,68.666,5.512A.82.82,0,0,0,69.493,4.1Z" transform="translate(61.173 345.028)" fill="#f7efe2"/>
        <path id="Path-114" data-name="Path" d="M16.387,14.054a34.762,34.762,0,0,1-8.9-5.4A20.254,20.254,0,0,1,3.776,4.812,11.69,11.69,0,0,1,2.559,2.666,13.079,13.079,0,0,0,1.545.379.781.781,0,0,0,.124.565C-.406,2.323.874,4.424,1.841,5.824A21.483,21.483,0,0,0,5.9,10.087,37.691,37.691,0,0,0,15.965,15.8c1.092.436,1.561-1.307.484-1.742Z" transform="translate(52.444 349.803)" fill="#f7efe2"/>
        <path id="Path-115" data-name="Path" d="M15.467,8.168A14.893,14.893,0,0,1,7.523,5.975,17.416,17.416,0,0,1,3.9,3.392a11.058,11.058,0,0,1-1.28-1.416C2.263,1.463,2.013.887,1.67.42A.906.906,0,0,0,0,.872,6.219,6.219,0,0,0,2.247,4.7,18.731,18.731,0,0,0,6.43,7.53a16.678,16.678,0,0,0,9.083,2.318c1.077-.124,1.108-1.774,0-1.68Z" transform="translate(44.141 358.707)" fill="#f7efe2"/>
        <path id="Path-116" data-name="Path" d="M52.848,10.544c-2.279-.3-4.323-1.276-6.555-1.789a13.572,13.572,0,0,0-6.649.373c-5.4,1.431-10.457,3.532-16.013,4.294-4.885.669-10.457,1.4-14.374-2.24A28.907,28.907,0,0,1,4.9,5.784c-1.155-1.742-2-3.7-3.246-5.383a.905.905,0,0,0-1.639.685,16.735,16.735,0,0,0,2.919,5.8,31.4,31.4,0,0,0,4.557,5.679c3.668,3.516,8.506,3.905,13.36,3.376a79.037,79.037,0,0,0,16.262-3.967,18.343,18.343,0,0,1,8.677-1.447c2.388.373,4.682,1.26,7.054,1.431.968,0,.921-1.338,0-1.462Z" transform="translate(0.407 360.905)" fill="#f7efe2"/>
        <path id="Path-117" data-name="Path" d="M15.639.041A21.358,21.358,0,0,0,4.886,9.749,39.418,39.418,0,0,0,2.045,16.5,47.348,47.348,0,0,0,.032,23.953a.874.874,0,0,0,1.686.467C2.56,22.226,3,19.861,3.684,17.606a43.338,43.338,0,0,1,2.528-6.55,20.025,20.025,0,0,1,9.973-9.739c.718-.311.2-1.556-.546-1.276Z" transform="translate(59.107 370.351)" fill="#f7efe2"/>
        <path id="Path-118" data-name="Path" d="M5.894.391a39.533,39.533,0,0,0-4.682,10.5,37.449,37.449,0,0,0-.921,5.259C.2,17.1.135,18.033.1,18.982A9.089,9.089,0,0,0,.2,22.234a.765.765,0,0,0,1.467,0,9.539,9.539,0,0,0,.218-2.909,14.184,14.184,0,0,1,.172-2.692,35.322,35.322,0,0,1,.827-5.274A37.572,37.572,0,0,1,7.236,1.2.8.8,0,0,0,5.863.391Z" transform="translate(51.17 379.211)" fill="#f7efe2"/>
        <path id="Path-119" data-name="Path" d="M27.319.115A47.422,47.422,0,0,1,13.96,4.658a55.954,55.954,0,0,1-7.039.3A13.632,13.632,0,0,0,.413,6.074c-.718.4-.453,1.742.437,1.649,2.325-.264,4.6-.513,6.945-.56a41.252,41.252,0,0,0,7.195-.513A51.6,51.6,0,0,0,28.209,1.64c1.046-.513.14-2.007-.89-1.556Z" transform="translate(89.036 357.892)" fill="#f7efe2"/>
        <path id="Path-120" data-name="Path" d="M39.207.366c-2.809,4.543-3.621,9.708-4.869,14.811a23.865,23.865,0,0,1-7.569,12.975A50.272,50.272,0,0,1,14.5,36.072a28.156,28.156,0,0,1-6.867,2.209,23.671,23.671,0,0,1-6.711-.2c-.968-.109-1.249,1.338-.484,1.758,3.949,2.194,9.661.467,13.5-1.1a49.748,49.748,0,0,0,13.25-8.246,24.794,24.794,0,0,0,8.287-12.524C37.037,12.268,37.427,6.232,40.393.989A.686.686,0,0,0,39.207.3Z" transform="translate(8.977 387.87)" fill="#f7efe2"/>
        <path id="Path-121" data-name="Path" d="M3.56.2C1.094,3.094.438,7.591.111,11.231a25.792,25.792,0,0,0,.2,6.394,6.216,6.216,0,0,0,2.263,4.512c.64.373,1.2-.358.936-.933a17.218,17.218,0,0,1-1.467-4.17,24.055,24.055,0,0,1-.25-5.8A30.016,30.016,0,0,1,2.67,5.475,11.6,11.6,0,0,1,4.527,1.15C5.058.5,4.137-.406,3.56.2Z" transform="translate(80.988 368.153)" fill="#f7efe2"/>
        <path id="Path-122" data-name="Path" d="M.469.7A23.905,23.905,0,0,1,4.636,14.528c0,4.761-1.03,9.973-4.526,13.458a.592.592,0,0,0,.827.825C4.558,25.2,5.822,19.864,5.807,14.9A24.294,24.294,0,0,0,1.327.2C.953-.283.095.2.469.7Z" transform="translate(145.43 238.713)" fill="#f7efe2"/>
        <path id="Path-123" data-name="Path" d="M.077.932C5.165,5.879,11.3,10.08,14.826,16.381a44.6,44.6,0,0,1,3.746,10.688,37.306,37.306,0,0,1,1.561,12.213c0,.622,1,.778,1.077.156a30.4,30.4,0,0,0-.843-11.559,50.482,50.482,0,0,0-3.808-11.528C13.062,9.52,6.429,5.179.951.154.42-.329-.344.434.171.932Z" transform="translate(136.52 168.95)" fill="#f7efe2"/>
        <path id="Path-124" data-name="Path" d="M7.854.254A69.983,69.983,0,0,0,.644,19.343,34.515,34.515,0,0,0,2.517,38.915a39.874,39.874,0,0,1,2.9,9.693A27.658,27.658,0,0,1,3.968,59.5C2.08,65.908-.23,72.131,1.159,78.883a28.535,28.535,0,0,0,10.176,16.6c.7.529,1.561-.622.936-1.2A30.447,30.447,0,0,1,3.032,79.21c-1.639-6.8.8-13.146,2.591-19.634A31.15,31.15,0,0,0,7.074,50.07a27.929,27.929,0,0,0-1.795-8.261,76.77,76.77,0,0,1-3.121-8.992,31.02,31.02,0,0,1-.421-10.128C2.579,15.034,5.638,7.753,8.915.907,9.228.223,8.244-.384,7.885.3Z" transform="translate(182.821 185.699)" fill="#f7efe2"/>
        <path id="Path-125" data-name="Path" d="M.042.389c-.312,12.275,1.077,24.784,5.587,36.3,1.077,2.738,2.232,5.461,3.121,8.277a28.7,28.7,0,0,1,1.264,9.755c-.172,5.928-.64,11.544,1.42,17.238a47.875,47.875,0,0,0,9.364,15.4c.64.716,1.561-.327,1.046-1.058a50.439,50.439,0,0,1-8.756-14.5c-2.107-5.663-1.561-11.171-1.451-17.114s-1.654-11.124-3.886-16.6A83.812,83.812,0,0,1,2.836,21.439,142.431,142.431,0,0,1,.791.373a.375.375,0,0,0-.749,0Z" transform="translate(164.975 162.772)" fill="#f7efe2"/>
        <path id="Path-126" data-name="Path" d="M.2,1.056c13.953,8.666,10.3,28.766,9.926,42.535,0,2.023-.078,4.045,0,6.068a13.155,13.155,0,0,0,.734,5.119.484.484,0,0,0,.874-.109,27.638,27.638,0,0,0-.3-4.807c-.094-1.882-.094-3.749,0-5.616.094-4.076.359-8.152.5-12.228.25-7.623.25-15.807-3.028-22.886A20.838,20.838,0,0,0,.82.045.592.592,0,0,0,.227,1.056Z" transform="translate(164.026 156.52)" fill="#f7efe2"/>
        <path id="Path-127" data-name="Path" d="M6.519.214C1.057,6.577.635,16.394.183,24.344A77.546,77.546,0,0,0,.76,40.493c.437,2.894,1.046,5.772,1.764,8.6a44.612,44.612,0,0,0,2.762,8.6c.265.56,1.046.14.936-.4-.531-2.785-1.561-5.492-2.294-8.23a79.184,79.184,0,0,1-1.686-7.934,73.3,73.3,0,0,1-.765-16.118,97.716,97.716,0,0,1,1.28-12.26c.765-4.076,1.935-8.4,4.682-11.622C7.986.509,7.065-.424,6.519.214Z" transform="translate(189.447 183.841)" fill="#f7efe2"/>
        <path id="Path-128" data-name="Path" d="M26.869.824c1.2,9.008-8.849,13.5-15.295,17.254C8.2,20.038,5.05,22.107,3.021,25.514a24.224,24.224,0,0,0-3,12.8A31.924,31.924,0,0,0,1.117,46.1,15.892,15.892,0,0,0,4,52.492a.733.733,0,0,0,1.217-.7c-.687-2.023-1.717-3.874-2.294-5.943A29.986,29.986,0,0,1,1.851,38.8,21.9,21.9,0,0,1,5.315,25.328c2.279-3.112,5.993-4.979,9.364-6.908a46.306,46.306,0,0,0,9.895-6.97A12.424,12.424,0,0,0,28.507.56c-.125-.871-1.7-.669-1.561.218Z" transform="translate(193.819 173.087)" fill="#f7efe2"/>
        <path id="Path-129" data-name="Path" d="M3.049,52.99c-6.009-9.677,3.746-20.319,11.518-25.422s19.181-6.612,23.1-16.242C39.055,7.9,40.1,1.432,35.371.032c-.78-.233-1.561.887-.827,1.431A5.408,5.408,0,0,1,36.916,6.6a14.686,14.686,0,0,1-2.029,6.223C32.266,17.347,26.9,19.7,22.4,21.781A51.542,51.542,0,0,0,10.447,28.7,31.975,31.975,0,0,0,1.457,39.8a13.964,13.964,0,0,0,.765,13.769c.359.545,1.233,0,.89-.513Z" transform="translate(200.08 165.572)" fill="#f7efe2"/>
        <path id="Path-130" data-name="Path" d="M1.014,19.72c.858-8.759,10.8-13.022,18.12-15.371,6.8-2.178,15.794-4.59,21.46,1.276a16.282,16.282,0,0,1,3.293,5.243c.968,2.334,1.264,4.854,2.169,7.188a.812.812,0,0,0,1.561-.218A21.6,21.6,0,0,0,43.044,5.391,14.152,14.152,0,0,0,33.337.054,32.869,32.869,0,0,0,19.821,2.124a43.5,43.5,0,0,0-12.595,5.8C3.324,10.758.312,14.694,0,19.642a.5.5,0,0,0,1,0Z" transform="translate(208.42 190.94)" fill="#f7efe2"/>
        <path id="Path-131" data-name="Path" d="M.878,7.072a12.818,12.818,0,0,1,9.255-5.834,8.545,8.545,0,0,1,5.072.84,9.575,9.575,0,0,1,3.621,4.372c.265.5.968.14.874-.358-.843-4.31-5.4-6.472-9.473-6.036A13.472,13.472,0,0,0,.067,6.589a.472.472,0,0,0,.812.482Z" transform="translate(225.365 197.644)" fill="#f7efe2"/>
        <path id="Path-132" data-name="Path" d="M1.036,9.108A41.338,41.338,0,0,1,6.078,5.125,12.779,12.779,0,0,1,11.837,3.3c2.544-.249,5.072,0,7.616-.2,2.06-.109,5.213-.358,6.6-2.116a.576.576,0,0,0-.562-.965C24.2.24,23,.971,21.685,1.235a21.917,21.917,0,0,1-3.917.342,38.152,38.152,0,0,0-7.538.5C6.171,2.947,3.221,5.623.194,8.3c-.577.513.265,1.338.843.84Z" transform="translate(287.167 207.012)" fill="#f7efe2"/>
        <path id="Path-133" data-name="Path" d="M.92,3.734A22.335,22.335,0,0,1,15.2,2.069a24.071,24.071,0,0,1,6.524,2.194A37.356,37.356,0,0,1,28.045,8.93c4.464,3.687,9.021,7.25,13.609,10.782q3.683,2.816,7.366,5.6a43.946,43.946,0,0,0,7.538,5.414.748.748,0,0,0,.905-1.182c-2-2.318-5.041-4.029-7.476-5.865-2.778-2.1-5.556-4.2-8.319-6.332C36.52,13.379,31.51,9.226,26.438,5.165A24.253,24.253,0,0,0,.311,2.722C-.391,3.1.218,4.138.92,3.78Z" transform="translate(294.681 215.622)" fill="#f7efe2"/>
        <path id="Path-134" data-name="Path" d="M0,.887c1.124,5.2,5.384,8.744,9.224,12.057a44.337,44.337,0,0,1,5.743,5.6,15.626,15.626,0,0,1,3.121,7.312c.172.871,1.561.638,1.561-.2,0-5.383-4.526-9.693-8.287-12.944S2.638,5.881,1.436.514C1.233-.389-.125,0,.047.887Z" transform="translate(333.401 219.993)" fill="#f7efe2"/>
        <path id="Path-135" data-name="Path" d="M1.957,41.536c-1.935-4.45.921-8.355,3.98-11.388,2.762-2.769,5.931-5.119,8.6-8a23.756,23.756,0,0,0,5.65-9.63,21.87,21.87,0,0,0,0-12.026.7.7,0,0,0-1.373.187c-.094,2.318.328,4.667.234,6.97a20.758,20.758,0,0,1-1.124,5.912,26.89,26.89,0,0,1-7.71,10.424C5.25,28.468-2.6,34.566.849,42.158c.343.731,1.389.093,1.077-.622Z" transform="translate(243.811 142.675)" fill="#f7efe2"/>
        <path id="Path-136" data-name="Path" d="M3.14,42.087c-7.257-5.274,5.431-15.107,8.99-18.669,5.993-6.052,10.706-14,9.052-22.839C21.026-.339,19.621-.09,19.621.8c-.109,5.181-.484,9.786-3.121,14.36A54.5,54.5,0,0,1,7.417,25.643C3.53,29.563-4.086,38.353,2.734,43.021c.531.358,1.014-.5.5-.871Z" transform="translate(271.126 117.044)" fill="#f7efe2"/>
        <path id="Path-137" data-name="Path" d="M1.03,83.2c.655-11.793.172-23.741,3.121-35.285a75.455,75.455,0,0,1,6.243-15.807,83.743,83.743,0,0,0,6.539-14.469A50.413,50.413,0,0,0,18.978.871,1,1,0,0,0,17,.871,77.725,77.725,0,0,1,15.232,16.3,80.954,80.954,0,0,1,8.771,31.163,79.99,79.99,0,0,0,2.809,46.145,84.231,84.231,0,0,0,.265,63.336C-.094,69.948.078,76.576,0,83.2a.461.461,0,0,0,.921,0Z" transform="translate(176.457 149.345)" fill="#f7efe2"/>
        <path id="Path-138" data-name="Path" d="M2.108,49.888c-1.561-4,.359-8.37,2.294-11.9s4.464-6.877,6.649-10.362a37.655,37.655,0,0,0,5.025-13.286,34.835,34.835,0,0,0,.515-7.2A15.515,15.515,0,0,0,15.3.368a.859.859,0,0,0-1.561.42c.156,2.536.905,4.932.921,7.5a33.784,33.784,0,0,1-.983,8.106A38.835,38.835,0,0,1,8.055,28.838C4.2,34.642-2.308,43.089.829,50.448c.312.747,1.561.218,1.327-.545Z" transform="translate(191.267 135.692)" fill="#f7efe2"/>
        <path id="Path-139" data-name="Path" d="M24.627.844c2.263,11.295,7.96,23.166,2.513,34.445-3.246,6.705-8.521,14.282-15.388,17.674a8.325,8.325,0,0,1-5.306.965c-2.091-.42-3.434-1.991-4.947-3.345A.873.873,0,0,0,.124,51.64,8.437,8.437,0,0,0,9.613,55.98c4.058-.871,7.523-3.936,10.269-6.892C26.313,42.2,31.432,33.717,31.291,24.04,31.182,15.9,27.811,8.3,25.954.486a.688.688,0,0,0-1.327.358Z" transform="translate(203.677 90.907)" fill="#f7efe2"/>
        <path id="Path-140" data-name="Path" d="M14.594.777c1.264,6.737,2.232,14.873-.156,21.47C12.456,27.785,7.415,34.957.86,34.693c-.968,0-1.217,1.556-.234,1.7,6.945,1.182,12.595-7.11,14.889-12.555C18.5,16.724,17.356,7.793,15.9.5c-.172-.871-1.483-.5-1.311.358Z" transform="translate(210.588 101.584)" fill="#f7efe2"/>
        <path id="Path-141" data-name="Path" d="M1.121.343c-4.791,12.633,6.851,24.69,14.7,33.138,4.37,4.667,9.255,9.226,12.735,14.655,4.979,7.779,4.292,17.331,3.714,26.168-.3,4.667-.468,9.226,1.061,13.722a67.042,67.042,0,0,0,6.321,12.088.9.9,0,0,0,1.561-.887,73.051,73.051,0,0,1-5.868-10.719,28.852,28.852,0,0,1-1.483-12.353c.515-8.79,1.483-18.016-2.419-26.246-2.5-5.259-6.93-9.6-10.925-13.784A141.931,141.931,0,0,1,6.646,20.35C2.6,14.563-.409,7.639,2.151.623c.218-.622-.765-.887-1-.28Z" transform="translate(149.757 55.531)" fill="#f7efe2"/>
        <path id="Path-142" data-name="Path" d="M.278,1.008a35.126,35.126,0,0,1,6.508,7A22.787,22.787,0,0,1,9.8,14.823a12.736,12.736,0,0,0,2.263,5.321,3.379,3.379,0,0,0,4.682.249.685.685,0,0,0-.655-1.12c-.765.264-1.561.809-2.341.451a3.27,3.27,0,0,1-1.436-1.7,34.026,34.026,0,0,1-1.67-5.134C9.08,7.713,5.116,3.559,1.058.152.465-.346-.393.494.2,1.008Z" transform="translate(168.188 150.252)" fill="#f7efe2"/>
        <path id="Path-143" data-name="Path" d="M0,.575C2.919,5.912,5.2,11.59,8.084,16.958c3.121,5.881,6.742,12.633,12.267,16.631,1.842,1.338,4.979,2.832,7.179,1.556a.5.5,0,0,0-.25-.918,9.6,9.6,0,0,1-3.121,0,9.376,9.376,0,0,1-3.121-1.556,29.079,29.079,0,0,1-6.4-7.063A140.466,140.466,0,0,1,4.542,7.436C3.34,5.025,2.2,2.551.843.217A.444.444,0,0,0,.078.669Z" transform="translate(162.255 68.15)" fill="#f7efe2"/>
        <path id="Path-144" data-name="Path" d="M.092.863C10.8,20.637,17.713,42.979,16.386,65.631a114.237,114.237,0,0,1-3.262,19.6.64.64,0,0,0,1.217.342A89.033,89.033,0,0,0,17.463,51.1,119.81,119.81,0,0,0,9.394,17.93,158.353,158.353,0,0,0,1.075.272c-.359-.653-1.358,0-1,.591Z" transform="translate(177.067 0.558)" fill="#f7efe2"/>
        <path id="Path-145" data-name="Path" d="M.179.957C6.422,6.9,10.089,14.866,16.145,20.934c3,3.018,6.586,5.492,9.271,8.821s3.4,7.639,5.775,11.108a.811.811,0,0,0,1.389-.809c-1.686-3.641-2.934-7.686-5.384-10.89-2.638-3.469-6.321-5.99-9.458-8.977C11.416,14.15,7.436,6.185,1.022.164.46-.349-.367.46.179.989Z" transform="translate(119.484 41.133)" fill="#f7efe2"/>
        <path id="Path-146" data-name="Path" d="M.887.277C-1.532,5.878,1.5,13.144,4.008,18.2a28.855,28.855,0,0,0,5.228,7.7,39.023,39.023,0,0,0,9.536,6.472,85.72,85.72,0,0,1,10.394,5.943A23.079,23.079,0,0,1,36.58,48.2a57.723,57.723,0,0,0,5.135,10.362A31.762,31.762,0,0,0,47.084,64.3c3.605,3.112,12.376,8.759,15.7,2.178a.811.811,0,0,0-1.28-.98,5.928,5.928,0,0,1-6.93,1.462,23.415,23.415,0,0,1-7.335-4.9,27.606,27.606,0,0,1-5.088-6.021,82.835,82.835,0,0,1-4.308-9.148,24.363,24.363,0,0,0-5.79-8.308,42.675,42.675,0,0,0-9.114-5.663c-6.134-3.112-12.3-6.223-16.028-12.2A42.113,42.113,0,0,1,2.4,10.81C1.433,7.7.591,3.9,1.933.728,2.182.137,1.152-.314.9.277Z" transform="translate(99.939 99.112)" fill="#f7efe2"/>
        <path id="Path-147" data-name="Path" d="M.023.566c.734,4.543,4.4,7.981,8.006,10.5a54.16,54.16,0,0,0,15.982,7.25c4.682,1.369,9.832,2.567,14.717,1.914,1.873-.249,3.683-.793,5.525-1.136a15.154,15.154,0,0,1,7.413.342c3.574,1.073,7.1,3.112,10.925,2.894,6.43-.358,6.7-8.059,3.5-12.228-.437-.56-1.451-.28-1.217.5.718,2.474,2.325,5.119,1.342,7.779s-4.167,2.629-6.493,2.131c-3.558-.747-6.8-2.6-10.441-3.112s-6.617.7-9.942,1.291c-4.682.825-9.489-.2-13.937-1.385A58.975,58.975,0,0,1,10.76,11.378C6.547,8.9,1.8,5.435.85.317.756-.243-.086.006.007.55Z" transform="translate(40.17 116.747)" fill="#f7efe2"/>
        <path id="Path-148" data-name="Path" d="M.887,6.394A32.447,32.447,0,0,1,18.148,1.727,37.718,37.718,0,0,1,35.316,6.581a13.846,13.846,0,0,0,7.32,1.945c2.856-.171,5.275-.685,7.96.622,4.37,2.1,5.462,6.488,6.758,10.75.281.918,1.779.778,1.732-.233A14.58,14.58,0,0,0,52.843,7.919a11.953,11.953,0,0,0-6.664-1.727c-1.561.078-3.121.5-4.807.436a13.388,13.388,0,0,1-5.431-1.82A38.565,38.565,0,0,0,18.164,0,33.474,33.474,0,0,0,.294,5.43.6.6,0,1,0,.9,6.457Z" transform="translate(71.315 138.72)" fill="#f7efe2"/>
        <path id="Path-149" data-name="Path" d="M.479,1.434c8.99,3.547,17.277,9.335,22.131,17.829A39.536,39.536,0,0,1,27.182,33.81c.718,5.461,1.108,10.89,3.309,16.009,2.513,5.834,6.352,10.89,8.4,17.02a.64.64,0,0,0,1.233-.327c-1.139-5.71-4.823-10.548-7.4-15.651-2.778-5.539-3.121-11.435-4-17.456A38.3,38.3,0,0,0,15.274,8.186,51.859,51.859,0,0,0,.869.05C-.005-.277-.364,1.107.479,1.434Z" transform="translate(136.306 163.812)" fill="#f7efe2"/>
        <path id="Path-150" data-name="Path" d="M1.544,19.423a9.71,9.71,0,0,1,6.243-5.912c2.731-.871,5.525-.669,8.287-1.229a13.794,13.794,0,0,0,7.257-3.936,10.185,10.185,0,0,0,2.2-3.563C25.969,3.6,26.468,1.671,25.7.5a1.079,1.079,0,0,0-1.826,0,5.942,5.942,0,0,0-.359,2.163,6.348,6.348,0,0,1-.577,1.991,8.53,8.53,0,0,1-2.435,3.034,14.324,14.324,0,0,1-7.8,2.832,18.209,18.209,0,0,0-7.8,2.256A11.814,11.814,0,0,0,.045,19c-.312.887,1.077,1.245,1.4.389Z" transform="translate(39.538 181.902)" fill="#f7efe2"/>
        <path id="Path-151" data-name="Path" d="M4.793,19.524a15.655,15.655,0,0,0,1.639-10.5A17.2,17.2,0,0,0,4.637,4.355,20.7,20.7,0,0,0,3.077,2.021,6,6,0,0,0,1.219.077C.658-.188-.216.263.049.963a7.048,7.048,0,0,0,1.3,1.82A19.742,19.742,0,0,1,2.733,4.775,15.858,15.858,0,0,1,4.591,9.147a13.808,13.808,0,0,1-1.233,9.646c-.468.918.905,1.742,1.389.809Z" transform="translate(66.27 179.731)" fill="#f7efe2"/>
        <path id="Path-152" data-name="Path" d="M1.183,14.417c1.686-2.769,5.4-2.925,8.3-2.956a38.983,38.983,0,0,0,8.3-.311A16.985,16.985,0,0,0,25.327,7.4c1.779-1.556,3.449-5.165,1.186-7.172-.531-.467-1.686-.2-1.561.653.172,1.354.718,2.256,0,3.578a7.466,7.466,0,0,1-2.778,2.614,15.875,15.875,0,0,1-7.148,2.4c-4.76.389-12.173-.685-14.951,4.278a.655.655,0,0,0,1.124.669Z" transform="translate(57.192 166.34)" fill="#f7efe2"/>
        <path id="Path-153" data-name="Path" d="M.55,3.564c7.9-4.947,17.542.451,25.268,3.236,4.932,1.774,13.953,4.667,16.294-2.427a.874.874,0,0,0-1.451-.84,7.8,7.8,0,0,1-3.777,3.252,10.066,10.066,0,0,1-4.682,0,71.716,71.716,0,0,1-9.364-3.112C15.564.981,7.23-2.551.207,2.739c-.5.373,0,1.214.5.856Z" transform="translate(55.827 156.113)" fill="#f7efe2"/>
      </g>
    </g>
    <path id="Path_2" data-name="Path 2" d="M138.5,0h-94L0,44.5" transform="translate(853.5 191.5)" fill="none" stroke="#030303" stroke-miterlimit="10" stroke-width="1"/>
    <g id="Oval-2" data-name="Oval" transform="translate(844 226)" fill="#fff" stroke="#030303" stroke-miterlimit="10" stroke-width="1">
      <circle cx="10" cy="10" r="10" stroke="none"/>
      <circle cx="10" cy="10" r="9.5" fill="none"/>
    </g>
    <path id="Path_2-2" data-name="Path 2" d="M-101,.5H0" transform="translate(389 191)" fill="none" stroke="#030303" stroke-miterlimit="10" stroke-width="1"/>
    <g id="Oval-3" data-name="Oval" transform="translate(379 182)" fill="#fff" stroke="#030303" stroke-miterlimit="10" stroke-width="1">
      <circle cx="10" cy="10" r="10" stroke="none"/>
      <circle cx="10" cy="10" r="9.5" fill="none"/>
    </g>
    <path id="Path_2-3" data-name="Path 2" d="M-352,.25l86.736.5L0,.25" transform="translate(640 455)" fill="none" stroke="#030303" stroke-miterlimit="10" stroke-width="1"/>
    <g id="Oval-4" data-name="Oval" transform="translate(630 446)" fill="#fff" stroke="#030303" stroke-miterlimit="10" stroke-width="1">
      <circle cx="10" cy="10" r="10" stroke="none"/>
      <circle cx="10" cy="10" r="9.5" fill="none"/>
    </g>
    <path id="Path_2-4" data-name="Path 2" d="M138.5,21.722h-94L0,0" transform="translate(853.5 599.778)" fill="none" stroke="#030303" stroke-miterlimit="10" stroke-width="1"/>
    <g id="Oval-5" data-name="Oval" transform="translate(843 591)" fill="#fff" stroke="#030303" stroke-miterlimit="10" stroke-width="1">
      <circle cx="10" cy="10" r="10" stroke="none"/>
      <circle cx="10" cy="10" r="9.5" fill="none"/>
    </g>
    <path id="Path_2-5" data-name="Path 2" d="M217.555.5H0" transform="translate(774.445 406)" fill="none" stroke="#030303" stroke-miterlimit="10" stroke-width="1"/>
    <g id="Oval-6" data-name="Oval" transform="translate(764 397)" fill="#fff" stroke="#030303" stroke-miterlimit="10" stroke-width="1">
      <circle cx="10" cy="10" r="10" stroke="none"/>
      <circle cx="10" cy="10" r="9.5" fill="none"/>
    </g>
  </g>
</svg>
