<svg xmlns="http://www.w3.org/2000/svg" width="203.409" height="677.324" viewBox="0 0 203.409 677.324">
  <path id="shape3" d="M-550.46,202.959v-39.69l13.32-13.17V122.879h-40.12l.08-62.85a3.34,3.34,0,0,0,2.882-3.535,3.339,3.339,0,0,0-3.332-3.114,3.339,3.339,0,0,0-3.333,3.114,3.34,3.34,0,0,0,2.883,3.535l-.08,63.74h40.12v25.96l-13.32,13.17v40.06a.45.45,0,0,0,.45.45A.45.45,0,0,0-550.46,202.959Zm351.6,0v-47.62h-19.21l-1.92-1.91,3.36-3.33v-27l-.14-.131-20.09-20v-1.94a3.36,3.36,0,0,0,2.9-3.555,3.36,3.36,0,0,0-3.353-3.135,3.361,3.361,0,0,0-3.352,3.135,3.36,3.36,0,0,0,2.9,3.555v1L-256.66,83.2l.07-63a3.37,3.37,0,0,0,2.912-3.565,3.37,3.37,0,0,0-3.362-3.145,3.37,3.37,0,0,0-3.362,3.145A3.37,3.37,0,0,0-257.49,20.2l-.08,63.4.14.17,19.66,19.55v33.73l16.49,16.34-9.58,9.471v40.06a.45.45,0,0,0,.45.45.45.45,0,0,0,.45-.45v-39.69l9.329-9.211,2.191,2.18h18.68v46.76a.45.45,0,0,0,.45.45A.45.45,0,0,0-198.86,202.959Zm142.491-.02v-66.17l26.41-26.311h10.6v26.18l-19,18.9v47.35a.459.459,0,0,0,.455.392.46.46,0,0,0,.455-.392v-47l19-18.91v-26.55h15.53V60.009A3.369,3.369,0,0,0-.008,56.444,3.37,3.37,0,0,0-3.371,53.3a3.371,3.371,0,0,0-3.362,3.145,3.371,3.371,0,0,0,2.912,3.566v49.569H-18.45v-1.19l-19-18.84V64.729a3.351,3.351,0,0,0,2.893-3.545A3.351,3.351,0,0,0-37.9,58.059a3.35,3.35,0,0,0-3.343,3.125,3.35,3.35,0,0,0,2.893,3.545v25.2l19,18.84v.8H-30.281l-.13.131-26.86,26.68v66.56a.45.45,0,0,0,.45.45A.45.45,0,0,0-56.37,202.939Zm-547.53-.01v-66.57l-26.771-26.59V70.389l26.79-26.5V6.689a3.359,3.359,0,0,0,2.9-3.557A3.36,3.36,0,0,0-604.335,0a3.36,3.36,0,0,0-3.352,3.132,3.36,3.36,0,0,0,2.9,3.557v36.8L-631.57,70v40.17l26.771,26.6v66.16a.45.45,0,0,0,.45.45A.45.45,0,0,0-603.9,202.929Zm461.97,0V185.439l4.47,4.451v13a.45.45,0,0,0,.45.45.45.45,0,0,0,.45-.45v-13.42l-.13-.13-5.24-5.21v-9.07h31.25v27.86a.46.46,0,0,0,.455.392.46.46,0,0,0,.454-.392v-27.86h5.81V146.5l19-18.86v-18.41L-70.6,123.5v79.421a.45.45,0,0,0,.45.45.45.45,0,0,0,.319-.132.449.449,0,0,0,.131-.318v-79.8l-15.23-15.15V93.019a3.37,3.37,0,0,0,2.912-3.565,3.37,3.37,0,0,0-3.362-3.145,3.37,3.37,0,0,0-3.362,3.145,3.37,3.37,0,0,0,2.912,3.565v14.051l-23.9-23.75V6.769a3.35,3.35,0,0,0,2.887-3.547A3.351,3.351,0,0,0-110.185.1a3.35,3.35,0,0,0-3.342,3.122,3.349,3.349,0,0,0,2.887,3.547v76.86l.139.14,24.68,24.57v18.98l-19,18.86v28h-4.91V149.63l-26.79-26.53.05-36.33a3.33,3.33,0,0,0,2.872-3.525,3.33,3.33,0,0,0-3.322-3.1,3.33,3.33,0,0,0-3.323,3.1,3.33,3.33,0,0,0,2.873,3.525l-.08,36.68,26.779,26.529v24.231h-32.15v9.069l-18.07-18,19-18.8v-25.51A3.35,3.35,0,0,0-139,117.424a3.35,3.35,0,0,0-3.343-3.125,3.349,3.349,0,0,0-3.342,3.125,3.35,3.35,0,0,0,2.892,3.545v25.14l-18.71,18.53-23.05-22.94,23.62-23.51V64.359a3.38,3.38,0,0,0,2.922-3.576,3.38,3.38,0,0,0-3.372-3.154,3.38,3.38,0,0,0-3.372,3.154,3.379,3.379,0,0,0,2.922,3.576v53.41l-23.39,23.29-4.74-4.71v-52.7l26.74-26.49V7.569a3.34,3.34,0,0,0,2.883-3.535A3.339,3.339,0,0,0-163.67.92,3.339,3.339,0,0,0-167,4.034a3.34,3.34,0,0,0,2.882,3.535v49.2l-26.75,26.5v53.45l.131.13,4.87,4.849-4.45,4.441v56.78a.45.45,0,0,0,.45.45.45.45,0,0,0,.45-.45v-56.41l4.2-4.18,23.359,23.251v37.34a.45.45,0,0,0,.45.45.45.45,0,0,0,.45-.45v-36.44l18.131,18.049v18.4a.45.45,0,0,0,.45.45A.45.45,0,0,0-141.93,202.929Zm-123.615.39a.451.451,0,0,0,.225-.39v-47l9.51-9.439v-25.17a3.36,3.36,0,0,0,2.9-3.555,3.359,3.359,0,0,0-3.352-3.135,3.359,3.359,0,0,0-3.353,3.135,3.36,3.36,0,0,0,2.9,3.555v24.79l-9.51,9.43v47.39a.451.451,0,0,0,.225.39.451.451,0,0,0,.225.06A.451.451,0,0,0-265.545,203.319Zm-151.725-.4v-56.41l28.46-28.32V64.359a3.37,3.37,0,0,0,2.912-3.565,3.369,3.369,0,0,0-3.362-3.145,3.37,3.37,0,0,0-3.362,3.145,3.37,3.37,0,0,0,2.912,3.565v53.45l-28.46,28.33v56.78a.45.45,0,0,0,.45.45A.45.45,0,0,0-417.27,202.919Zm16.719,0v-37.58l19-18.86v-25.16a3.35,3.35,0,0,0,2.893-3.545A3.35,3.35,0,0,0-382,114.649a3.35,3.35,0,0,0-3.342,3.125,3.35,3.35,0,0,0,2.892,3.545v24.79l-19,18.86v37.95a.45.45,0,0,0,.45.45A.45.45,0,0,0-400.55,202.919Zm23.67,0V137.009h27.32l-19.85-18.84V68.849a3.35,3.35,0,0,0,2.893-3.545,3.35,3.35,0,0,0-3.343-3.125A3.349,3.349,0,0,0-373.2,65.3a3.35,3.35,0,0,0,2.892,3.545v49.71l.14.131,18.39,17.42h-26v66.811a.45.45,0,0,0,.45.45A.45.45,0,0,0-376.88,202.919Zm60.39,0v-28.53l-9.47-9.371V146.5l28.45-28.36v-.191l-.049-44.329a3.36,3.36,0,0,0,2.9-3.555,3.361,3.361,0,0,0-3.352-3.135,3.36,3.36,0,0,0-3.353,3.135,3.36,3.36,0,0,0,2.9,3.555l.049,44.149-28.45,28.35V165.4l9.47,9.36v28.16a.45.45,0,0,0,.45.45A.45.45,0,0,0-316.49,202.919Zm39.981,0v-66.57l-13.37-13.27V86.36a3.341,3.341,0,0,0,2.886-3.551,3.34,3.34,0,0,0-3.366-3.1v.04a3.339,3.339,0,0,0-3.307,3.129A3.34,3.34,0,0,0-290.78,86.4v37.1l13.37,13.271v66.15a.45.45,0,0,0,.45.45A.45.45,0,0,0-276.51,202.919Zm-153.71-.01V149.6l-18.89-18.75.049-36.31a3.36,3.36,0,0,0,2.9-3.555,3.36,3.36,0,0,0-3.353-3.135,3.361,3.361,0,0,0-3.353,3.135,3.36,3.36,0,0,0,2.9,3.555l-.059,36.69,18.9,18.75V202.91a.449.449,0,0,0,.45.449A.449.449,0,0,0-430.22,202.91Zm-205.311-.011v-47.36l-19.27-19.13h-18.73v-34.52a3.34,3.34,0,0,0,2.975-3.536,3.34,3.34,0,0,0-3.406-3.124,3.34,3.34,0,0,0-3.355,3.1,3.34,3.34,0,0,0,2.885,3.546V137.3h19.26l18.74,18.6v47a.45.45,0,0,0,.45.45A.449.449,0,0,0-635.531,202.9Zm56.86,0v-28.53l-9.47-9.37V146.1l-9.12-9.08-.05-44a3.34,3.34,0,0,0,2.971-3.52,3.34,3.34,0,0,0-3.371-3.14l.049-.02a3.341,3.341,0,0,0-3.388,3.09,3.34,3.34,0,0,0,2.888,3.56V137.4l9.12,9.079v18.9l9.47,9.359V202.9a.45.45,0,0,0,.45.45A.45.45,0,0,0-578.67,202.9Zm132.95-.02v-47.27l-.13-.13-39.9-39.71V39.419a3.35,3.35,0,0,0,2.892-3.545,3.349,3.349,0,0,0-3.342-3.125,3.35,3.35,0,0,0-3.343,3.125,3.35,3.35,0,0,0,2.893,3.545v76.76l.13.09,39.9,39.71v46.9a.45.45,0,0,0,.45.45A.45.45,0,0,0-445.721,202.879Zm75.96,0v-9.22l38-37.79v-38.1l-19-18.81V63.9a3.41,3.41,0,0,0,2.952-3.605,3.41,3.41,0,0,0-3.4-3.185,3.41,3.41,0,0,0-3.4,3.185A3.41,3.41,0,0,0-351.66,63.9v35.45l19,18.83V155.5l-38,37.79v9.59a.45.45,0,0,0,.45.45A.45.45,0,0,0-369.76,202.879Zm-87.21-.01v-40.23H-510.42V123.1l-26.7-26.53V46.539a3.36,3.36,0,0,0,2.9-3.555,3.36,3.36,0,0,0-3.352-3.135,3.36,3.36,0,0,0-3.352,3.135,3.36,3.36,0,0,0,2.9,3.555v50.4l26.7,26.54v40.1h53.449v39.29a.45.45,0,0,0,.45.45A.45.45,0,0,0-456.971,202.869Z" transform="translate(203.409 677.324) rotate(90)" fill="rgba(20,34,112,0.51)"/>
</svg>
