<svg xmlns="http://www.w3.org/2000/svg" width="203.409" height="677.324" viewBox="0 0 203.409 677.324">
  <path id="shape6" d="M550.46,202.959v-39.69L537.14,150.1V122.879h40.12l-.08-62.85a3.34,3.34,0,1,1,.9,0l.08,63.74H538.04v25.96l13.32,13.17v40.06a.45.45,0,1,1-.9,0Zm-351.6,0v-47.62h19.21l1.92-1.91-3.36-3.33v-27l.14-.131,20.09-20v-1.94a3.36,3.36,0,1,1,.9,0v1L256.66,83.2l-.07-63a3.37,3.37,0,1,1,.9,0l.08,63.4-.14.17-19.66,19.55v33.73l-16.49,16.34,9.58,9.471v40.06a.45.45,0,0,1-.9,0v-39.69l-9.329-9.211-2.191,2.18H199.76v46.76a.45.45,0,1,1-.9,0Zm-142.491-.02v-66.17L29.96,110.459H19.36v26.18l19,18.9v47.35a.46.46,0,0,1-.91,0v-47l-19-18.91v-26.55H2.921V60.009a3.37,3.37,0,1,1,.9,0v49.569H18.45v-1.19l19-18.84V64.729a3.35,3.35,0,1,1,.9,0v25.2l-19,18.84v.8H30.281l.13.131,26.86,26.68v66.56a.45.45,0,0,1-.9,0Zm547.53-.01v-66.57l26.771-26.59V70.389l-26.79-26.5V6.689a3.36,3.36,0,1,1,.91,0v36.8L631.57,70v40.17l-26.771,26.6v66.16a.45.45,0,1,1-.9,0Zm-461.97,0V185.439l-4.47,4.451v13a.45.45,0,0,1-.9,0v-13.42l.13-.13,5.24-5.21v-9.07H110.68v27.86a.46.46,0,0,1-.91,0v-27.86h-5.81V146.5l-19-18.86v-18.41L70.6,123.5v79.421a.45.45,0,0,1-.9,0v-79.8l15.23-15.15V93.019a3.37,3.37,0,1,1,.9,0v14.051l23.9-23.75V6.769a3.35,3.35,0,1,1,.91,0v76.86l-.139.14-24.68,24.57v18.98l19,18.86v28h4.91V149.63l26.79-26.53-.05-36.33a3.33,3.33,0,1,1,.9,0l.08,36.68L110.67,149.979v24.231h32.15v9.069l18.07-18-19-18.8v-25.51a3.349,3.349,0,1,1,.9,0v25.14l18.71,18.53,23.05-22.94-23.62-23.51V64.359a3.38,3.38,0,1,1,.9,0v53.41l23.39,23.29,4.74-4.71v-52.7l-26.74-26.49V7.569a3.339,3.339,0,1,1,.9,0v49.2l26.75,26.5v53.45l-.131.13-4.87,4.849,4.45,4.441v56.78a.45.45,0,1,1-.9,0v-56.41l-4.2-4.18-23.359,23.251v37.34a.45.45,0,0,1-.9,0v-36.44L142.83,184.529v18.4a.45.45,0,1,1-.9,0Zm123.615.39a.451.451,0,0,1-.225-.39v-47l-9.51-9.439v-25.17a3.36,3.36,0,1,1,.9,0v24.79l9.51,9.43v47.39a.45.45,0,0,1-.675.39Zm151.725-.4v-56.41l-28.46-28.32V64.359a3.37,3.37,0,1,1,.9,0v53.45l28.46,28.33v56.78a.45.45,0,1,1-.9,0Zm-16.719,0v-37.58l-19-18.86v-25.16a3.349,3.349,0,1,1,.9,0v24.79l19,18.86v37.95a.45.45,0,1,1-.9,0Zm-23.67,0V137.009H349.56l19.85-18.84V68.849a3.349,3.349,0,1,1,.9,0v49.71l-.14.131-18.39,17.42h26v66.811a.45.45,0,1,1-.9,0Zm-60.39,0v-28.53l9.47-9.371V146.5l-28.45-28.36v-.191l.049-44.329a3.36,3.36,0,1,1,.9,0l-.049,44.149,28.45,28.35V165.4l-9.47,9.36v28.16a.45.45,0,1,1-.9,0Zm-39.981,0v-66.57l13.37-13.27V86.36a3.34,3.34,0,0,1,.48-6.65v.04a3.34,3.34,0,0,1,.42,6.65v37.1l-13.37,13.271v66.15a.45.45,0,1,1-.9,0Zm153.71-.01V149.6l18.89-18.75-.049-36.31a3.36,3.36,0,1,1,.9,0l.059,36.69-18.9,18.75V202.91a.45.45,0,0,1-.9,0Zm205.311-.011v-47.36l19.27-19.13h18.73v-34.52a3.378,3.378,0,1,1,.9-.01V137.3H655.17l-18.74,18.6v47a.45.45,0,0,1-.9,0Zm-56.86,0v-28.53l9.47-9.37V146.1l9.12-9.08.05-44a3.34,3.34,0,0,1,.4-6.66l-.049-.02a3.34,3.34,0,0,1,.5,6.65V137.4l-9.12,9.079v18.9l-9.47,9.359V202.9a.45.45,0,0,1-.9,0Zm-132.95-.02v-47.27l.13-.13,39.9-39.71V39.419a3.35,3.35,0,1,1,.9,0v76.76l-.13.09-39.9,39.71v46.9a.45.45,0,1,1-.9,0Zm-75.96,0v-9.22l-38-37.79v-38.1l19-18.81V63.9a3.41,3.41,0,1,1,.9,0v35.45l-19,18.83V155.5l38,37.79v9.59a.45.45,0,0,1-.9,0Zm87.21-.01v-40.23H510.42V123.1l26.7-26.53V46.539a3.36,3.36,0,1,1,.9,0v50.4l-26.7,26.54v40.1H457.871v39.29a.45.45,0,1,1-.9,0Z" transform="translate(0 677.324) rotate(-90)" fill="rgba(20,34,112,0.51)"/>
</svg>
