<?xml version="1.0" encoding="UTF-8"?>
<svg width="33px" height="30px" viewBox="0 0 33 30" version="1.1" xmlns="http://www.w3.org/2000/svg" xmlns:xlink="http://www.w3.org/1999/xlink">
    <!-- Generator: Sketch 63.1 (92452) - https://sketch.com -->
    <title>balance</title>
    <desc>Created with Sketch.</desc>
    <g id="Page-1" stroke="none" stroke-width="1" fill="none" fill-rule="evenodd">
        <g id="Services-landing-variant-two" transform="translate(-204.000000, -2534.000000)" fill="#FFFFFF" fill-rule="nonzero">
            <g id="Group-11-Copy" transform="translate(70.000000, 2266.000000)">
                <g id="Group-42-Copy" transform="translate(0.000000, 242.000000)">
                    <g id="Group-44">
                        <g id="Group-35">
                            <g id="Group-34" transform="translate(110.000000, 0.000000)">
                                <g id="balance" transform="translate(24.000000, 26.000000)">
                                    <path d="M32.3397436,15.4396154 L31.6148077,15.4396154 L28.6217308,8.52910256 C28.9201923,8.26423077 29.1087821,7.87807692 29.1087821,7.44858974 C29.1087821,6.65179487 28.4605769,6.00365385 27.6638462,6.00365385 C27.2560897,6.00365385 26.8874359,6.17371795 26.6244231,6.44634615 C24.3053205,5.39064103 21.8533333,4.70320513 19.3241026,4.39974359 C19.1651923,3.43467949 18.5548077,2.62032051 17.7175641,2.18083333 L17.7175641,1.23794872 C17.7175641,0.569935897 17.1740385,0.0265384615 16.5061538,0.0265384615 L16.0857051,0.0265384615 C15.4176923,0.0265384615 14.8742949,0.570064103 14.8742949,1.23794872 L14.8742949,2.18083333 C14.0337821,2.62205128 13.4217949,3.44102564 13.2658333,4.41102564 C10.8044231,4.71596154 8.41544872,5.38538462 6.15333333,6.40378205 C5.89384615,6.15615385 5.54288462,6.00365385 5.15673077,6.00365385 C4.3599359,6.00365385 3.71179487,6.65185897 3.71179487,7.44858974 C3.71179487,7.87807692 3.90038462,8.26423077 4.19884615,8.52910256 L1.20570513,15.4396154 L0.480769231,15.4396154 C0.215192308,15.4396154 0,15.6548077 0,15.9203846 L0,16.5474359 C0,18.5602564 1.63762821,20.1978205 3.65038462,20.1978205 L6.66288462,20.1978205 C8.67570513,20.1978205 10.3132692,18.5601923 10.3132692,16.5474359 L10.3132692,15.9203846 C10.3132692,15.6548077 10.0980769,15.4396154 9.8325,15.4396154 L9.1075641,15.4396154 L6.11455128,8.52910256 C6.28538462,8.3775 6.42,8.18615385 6.50403846,7.96955128 L14.3689103,7.96955128 L14.3689103,22.7867949 L14.0754487,22.7867949 C12.1971795,22.7867949 10.4250641,24.2353205 10.4250641,26.5975 C9.81942308,26.6838462 9.35179487,27.2044872 9.35179487,27.8335897 L9.35179487,28.7232692 C9.35179487,29.4125641 9.91262821,29.9733333 10.601859,29.9733333 L15.1740385,29.9733333 C15.4396154,29.9733333 15.6548077,29.758141 15.6548077,29.4925641 C15.6548077,29.2269872 15.4396154,29.0117949 15.1740385,29.0117949 L10.601859,29.0117949 C10.4455128,29.0117949 10.3133974,28.8796795 10.3133974,28.7233333 L10.3133974,27.8336538 C10.3133974,27.6773077 10.4455128,27.5451923 10.601859,27.5451923 C10.7557051,27.5451923 21.8328205,27.5451923 21.9900641,27.5451923 C22.1464103,27.5451923 22.2785256,27.6773077 22.2785256,27.8336538 L22.2785256,28.7233333 C22.2785256,28.8796795 22.1464103,29.0117949 21.9900641,29.0117949 L17.4178846,29.0117949 C17.1523077,29.0117949 16.9371154,29.2269872 16.9371154,29.4925641 C16.9371154,29.758141 17.1523077,29.9733333 17.4178846,29.9733333 L21.9900641,29.9733333 C22.679359,29.9733333 23.2401282,29.4125641 23.2401282,28.7232692 L23.2401282,27.8335897 C23.2401282,27.2044872 22.7725,26.6838462 22.166859,26.5975 C22.166859,24.2560897 20.4126923,22.7867949 18.5164744,22.7867949 L18.2230128,22.7867949 L18.2230128,17.0422436 C18.2230128,16.7766667 18.0078205,16.5614744 17.7422436,16.5614744 C17.4766667,16.5614744 17.2614744,16.7766667 17.2614744,17.0422436 L17.2614744,22.7867949 L15.3307692,22.7867949 L15.3307692,7.81628205 C15.9579487,8.02589744 16.6342949,8.02589744 17.2614744,7.81628205 L17.2614744,14.7985897 C17.2614744,15.0641667 17.4766667,15.2794231 17.7422436,15.2794231 C18.0078205,15.2794231 18.2230128,15.0642308 18.2230128,14.7985897 L18.2230128,7.96961538 L26.3166026,7.96961538 C26.400641,8.18615385 26.5352564,8.3775 26.7060897,8.52916667 L23.7130128,15.4396795 L22.9879487,15.4396795 C22.7223718,15.4396795 22.5071795,15.6548718 22.5071795,15.9204487 L22.5071795,16.5475 C22.5071795,18.5603205 24.1448077,20.1978846 26.1575641,20.1978846 L29.1700641,20.1978846 C31.1828846,20.1978846 32.8204487,18.5602564 32.8204487,16.5475 L32.8204487,15.9204487 C32.8204487,15.6548077 32.6052564,15.4396154 32.3397436,15.4396154 Z M5.15666667,6.96525641 C5.42410256,6.96525641 5.65012821,7.18634615 5.63846154,7.46878205 C5.63833333,7.47217949 5.63865385,7.47551282 5.63852564,7.47884615 C5.62230769,7.73884615 5.40423077,7.93179487 5.15673077,7.93179487 C4.8950641,7.93179487 4.67339738,7.71910256 4.67339738,7.44852564 C4.67326923,7.18211538 4.89019231,6.96525641 5.15666667,6.96525641 Z M9.35179487,16.4012179 C9.35179487,18.1848718 8.03737179,19.2362821 6.66294872,19.2362821 L3.65038462,19.2362821 C2.27185897,19.2362821 0.961538462,18.1823077 0.961538462,16.4012179 C1.24416667,16.4012179 9.08301282,16.4012179 9.35179487,16.4012179 Z M8.05974359,15.4396154 L2.25358974,15.4396154 L5.08955128,8.89185897 C5.13397436,8.89429487 5.18461538,8.89397436 5.22378205,8.89185897 L8.05974359,15.4396154 Z M7.175,7.00801282 C9.12480769,6.19641026 11.1666667,5.65019231 13.2641026,5.37955128 C13.3583974,5.97801282 13.6291026,6.54871795 14.0638462,7.00801282 L7.175,7.00801282 Z M15.8358333,1.23794872 C15.8358333,1.10019231 15.9478846,0.988141026 16.085641,0.988141026 L16.5060897,0.988141026 C16.6438462,0.988141026 16.7558974,1.10019231 16.7558974,1.23794872 L16.7558974,1.8649359 C16.6128205,1.84326923 16.4394231,1.83051282 16.2958333,1.83051282 C16.1551923,1.83051282 15.9817308,1.84288462 15.8358333,1.8649359 L15.8358333,1.23794872 L15.8358333,1.23794872 Z M18.5164103,23.7484615 C19.895,23.7484615 21.2051923,24.8024359 21.2051923,26.5835897 L11.3866667,26.5835897 C11.3866667,24.7999359 12.7010897,23.7484615 14.0754487,23.7484615 C14.5217949,23.7484615 18.0703205,23.7484615 18.5164103,23.7484615 Z M16.2958974,7.00807692 C15.1191026,7.00807692 14.1633333,6.03891026 14.1892949,4.85339744 C14.1892949,4.85224359 14.1891667,4.85115385 14.1891667,4.85 C14.2103205,3.95205128 14.7963462,3.18910256 15.6059615,2.90865385 C16.9817308,2.4300641 18.4039103,3.46801282 18.4039103,4.9000641 C18.4039103,6.06410256 17.4574359,7.00807692 16.2958974,7.00807692 Z M18.5275,7.00801282 C18.9629487,6.54730769 19.2379487,5.96666667 19.3298718,5.36814103 C21.4591667,5.63461538 23.5310256,6.18461538 25.5088462,7.00801282 L18.5275,7.00801282 Z M27.1820513,7.46891026 C27.1705769,7.18935897 27.3939103,6.96525641 27.6637821,6.96525641 C27.9302564,6.96525641 28.1471154,7.18211538 28.1471154,7.44858974 C28.1471154,7.71903846 27.9253205,7.93185897 27.6637821,7.93185897 C27.4138462,7.93185897 27.198141,7.73705128 27.1819872,7.47891026 C27.1819231,7.47557692 27.1822436,7.47224359 27.1820513,7.46891026 Z M27.5966667,8.89185897 C27.5967949,8.89185897 27.5969231,8.89185897 27.5971154,8.89185897 C27.6403846,8.89384615 27.6836538,8.89442308 27.7308974,8.89185897 L30.566859,15.4396154 L24.7607051,15.4396154 L27.5966667,8.89185897 Z M29.1700641,19.2362179 L26.1575641,19.2362179 C24.7789744,19.2362179 23.4687821,18.1822436 23.4687821,16.4010897 C23.7513462,16.4010897 31.5901923,16.4010897 31.8589744,16.4010897 C31.8589744,18.1848718 30.5444872,19.2362179 29.1700641,19.2362179 Z" id="Shape"></path>
                                    <path d="M16.2958974,3.47839744 C15.5119231,3.47839744 14.8742308,4.11615385 14.8742308,4.9 C14.8742308,5.68397436 15.5120513,6.32166667 16.2958974,6.32166667 C17.0798718,6.32166667 17.7175641,5.68391026 17.7175641,4.9 C17.7176282,4.11608974 17.0798718,3.47839744 16.2958974,3.47839744 Z M16.2958974,5.36012821 C16.0422436,5.36012821 15.8358333,5.15371795 15.8358333,4.9000641 C15.8358333,4.64641026 16.0422436,4.4400641 16.2958974,4.4400641 C16.5495513,4.4400641 16.7559616,4.64641026 16.7559616,4.9000641 C16.7560256,5.15371795 16.5496154,5.36012821 16.2958974,5.36012821 Z" id="Shape"></path>
                                </g>
                            </g>
                        </g>
                    </g>
                </g>
            </g>
        </g>
    </g>
</svg>