<?xml version="1.0" encoding="UTF-8"?>
<svg width="17px" height="30px" viewBox="0 0 17 30" version="1.1" xmlns="http://www.w3.org/2000/svg" xmlns:xlink="http://www.w3.org/1999/xlink">
    <!-- Generator: Sketch 63.1 (92452) - https://sketch.com -->
    <title>dollar-2</title>
    <desc>Created with Sketch.</desc>
    <g id="Page-1" stroke="none" stroke-width="1" fill="none" fill-rule="evenodd">
        <g id="Services-landing-variant-two" transform="translate(-1052.000000, -2292.000000)" fill="#FFFFFF" fill-rule="nonzero">
            <g id="Group-11-Copy" transform="translate(70.000000, 2266.000000)">
                <g id="Group-42">
                    <g id="Group-43" transform="translate(840.000000, 0.000000)">
                        <g id="Group-41">
                            <g id="Group-39" transform="translate(110.000000, 0.000000)">
                                <g id="dollar-2" transform="translate(32.000000, 26.000000)">
                                    <path d="M11.7962695,15.6700195 C11.7950391,15.6700195 11.7950391,15.6687891 11.7950391,15.6687891 C10.3400391,15.0825586 9.49628906,14.7825586 8.75126953,14.5313086 L8.75126953,3.7725 C12.2487891,4.00376953 15,6.14625 15,8.74998047 C15,9.09498047 15.2800195,9.375 15.6250195,9.375 C15.9700195,9.375 16.2500391,9.09498047 16.2500391,8.74998047 C16.2500391,5.46621094 12.9387891,2.77125 8.75003906,2.52375 L8.75003906,0.625019531 C8.75003906,0.280019531 8.47001953,0 8.12501953,0 C7.78001953,0 7.5,0.280019531 7.5,0.625019531 L7.5,2.52375 C3.31125,2.77125 0,5.46626953 0,8.74998047 C0,11.1287109 1.71123047,13.2687305 4.46501953,14.3349609 L4.46753906,14.3349609 C5.91626953,14.8986914 6.75380859,15.1849805 7.50128906,15.4337109 L7.50128906,26.2274414 C4.00130859,25.9961719 1.25003906,23.8536914 1.25003906,21.2499609 C1.25003906,20.9049609 0.970019531,20.6249414 0.625019531,20.6249414 C0.280019531,20.6249414 0,20.9049609 0,21.2499609 C0,24.5337305 3.31125,27.2286914 7.5,27.4761914 L7.5,29.3749219 C7.5,29.7199219 7.78001953,29.9999414 8.12501953,29.9999414 C8.47001953,29.9999414 8.75003906,29.7199219 8.75003906,29.3749219 L8.75003906,27.4761914 C12.9387891,27.2286914 16.2500391,24.5336719 16.2500391,21.2499609 C16.2500391,18.87375 14.5437891,16.7374805 11.7962695,15.6700195 Z M7.5,14.115 C6.85623047,13.8975 6.09251953,13.6262695 4.91748047,13.17 L4.91625,13.1687695 C2.655,12.2937891 1.24998047,10.6000195 1.24998047,8.75003906 C1.24998047,6.14630859 4.00125,4.00376953 7.5,3.77255859 L7.5,14.115 Z M8.75003906,26.2275 L8.75003906,15.8524805 C9.39128906,16.0749609 10.1562891,16.3562109 11.3262891,16.8287109 C11.3275195,16.8287109 11.3288086,16.8287109 11.3312695,16.8299414 C11.3325,16.8299414 11.3337891,16.8311719 11.3350195,16.8324609 C13.5950391,17.7062109 15,19.3999805 15,21.2499609 C15,23.85375 12.2487891,25.9962305 8.75003906,26.2275 Z" id="Shape"></path>
                                </g>
                            </g>
                        </g>
                    </g>
                </g>
            </g>
        </g>
    </g>
</svg>