<?xml version="1.0" encoding="UTF-8"?>
<svg width="23px" height="30px" viewBox="0 0 23 30" version="1.1" xmlns="http://www.w3.org/2000/svg" xmlns:xlink="http://www.w3.org/1999/xlink">
    <!-- Generator: Sketch 63.1 (92452) - https://sketch.com -->
    <title>idea</title>
    <desc>Created with Sketch.</desc>
    <g id="Page-1" stroke="none" stroke-width="1" fill="none" fill-rule="evenodd">
        <g id="Services-landing-variant-two" transform="translate(-1049.000000, -2534.000000)" fill="#FFFFFF" fill-rule="nonzero">
            <g id="Group-11-Copy" transform="translate(70.000000, 2266.000000)">
                <g id="Group-42-Copy" transform="translate(0.000000, 242.000000)">
                    <g id="Group-43" transform="translate(840.000000, 0.000000)">
                        <g id="Group-41">
                            <g id="Group-39" transform="translate(110.000000, 0.000000)">
                                <g id="idea" transform="translate(29.000000, 26.000000)">
                                    <path d="M22.5000056,11.3114754 C22.5000056,5.07418033 17.4533967,0 11.25,0 C5.04660326,0 -5.63959508e-06,5.07418033 -5.63959508e-06,11.3114754 C-0.00469579184,16.0433615 2.92344742,20.2770406 7.33695652,21.9196721 L7.33695652,23.1147541 L6.35869565,23.1147541 C6.08855637,23.1147541 5.86956522,23.3349419 5.86956522,23.6065574 L5.86956522,25.0819672 C5.86956522,25.3535827 6.08855637,25.5737705 6.35869565,25.5737705 L6.84782609,25.5737705 L6.84782609,27.6639344 C6.84940941,28.9534478 7.88869048,29.998408 9.17119565,30 L13.3288043,30 C14.6113095,29.998408 15.6505906,28.9534478 15.6521739,27.6639344 L15.6521739,25.5737705 L16.1413043,25.5737705 C16.4114436,25.5737705 16.6304348,25.3535827 16.6304348,25.0819672 L16.6304348,23.6065574 C16.6304348,23.3349419 16.4114436,23.1147541 16.1413043,23.1147541 L15.1630435,23.1147541 L15.1630435,21.9196721 C19.5765526,20.2770406 22.5046958,16.0433615 22.5000056,11.3114754 L22.5000056,11.3114754 Z M14.673913,27.6639344 C14.6730371,28.4105118 14.0713242,29.0155127 13.3288043,29.0163934 L9.17119565,29.0163934 C8.42867577,29.0155127 7.82696293,28.4105118 7.82608696,27.6639344 L7.82608696,25.5737705 L14.673913,25.5737705 L14.673913,27.6639344 Z M15.6521739,24.0983607 L15.6521739,24.5901639 L6.84782609,24.5901639 L6.84782609,24.0983607 L15.6521739,24.0983607 Z M8.80434783,12.295082 L7.33695652,12.295082 C6.52653868,12.295082 5.86956522,11.6345185 5.86956522,10.8196721 C5.86956522,10.0048258 6.52653868,9.3442623 7.33695652,9.3442623 C8.14737436,9.3442623 8.80434783,10.0048258 8.80434783,10.8196721 L8.80434783,12.295082 Z M9.7826087,23.1147541 L9.7826087,13.2786885 L12.7173913,13.2786885 L12.7173913,23.1147541 L9.7826087,23.1147541 Z M14.5186141,21.1057377 C14.3192351,21.1726989 14.1847907,21.3603651 14.1847826,21.5717213 L14.1847826,23.1147541 L13.6956522,23.1147541 L13.6956522,13.2786885 L15.1630435,13.2786885 C16.5137399,13.2786885 17.6086957,12.1777494 17.6086957,10.8196721 C17.6086957,9.46159488 16.5137399,8.36065574 15.1630435,8.36065574 C13.8123471,8.36065574 12.7173913,9.46159488 12.7173913,10.8196721 L12.7173913,12.295082 L9.7826087,12.295082 L9.7826087,10.8196721 C9.7826087,9.46159488 8.68765292,8.36065574 7.33695652,8.36065574 C5.98626012,8.36065574 4.89130435,9.46159488 4.89130435,10.8196721 C4.89130435,12.1777494 5.98626012,13.2786885 7.33695652,13.2786885 L8.80434783,13.2786885 L8.80434783,23.1147541 L8.31521739,23.1147541 L8.31521739,21.5717213 C8.31520934,21.3603651 8.18076491,21.1726989 7.98138587,21.1057377 C3.79446584,19.6958187 0.973900125,15.7510996 0.97825582,11.3114754 C0.97825582,5.61639344 5.58586957,0.983606557 11.25,0.983606557 C16.9141304,0.983606557 21.5217442,5.61639344 21.5217442,11.3114754 C21.5260999,15.7510996 18.7055342,19.6958187 14.5186141,21.1057377 L14.5186141,21.1057377 Z M13.6956522,12.295082 L13.6956522,10.8196721 C13.6956522,10.0048258 14.3526256,9.3442623 15.1630435,9.3442623 C15.9734613,9.3442623 16.6304348,10.0048258 16.6304348,10.8196721 C16.6304348,11.6345185 15.9734613,12.295082 15.1630435,12.295082 L13.6956522,12.295082 Z" id="Shape"></path>
                                    <path d="M11.25,1.47540984 C7.2377469,1.47513566 3.63186611,3.93751584 2.15290761,7.68762295 C2.08846874,7.85095116 2.11558577,8.03643824 2.22404399,8.17421299 C2.3325022,8.31198775 2.50582422,8.38111892 2.6787213,8.35556545 C2.85161839,8.33001199 2.99782336,8.21365608 3.06226223,8.05032787 C4.39340607,4.67509361 7.63881482,2.45884148 11.25,2.45901639 C11.5201393,2.45901639 11.7391304,2.23882857 11.7391304,1.96721311 C11.7391304,1.69559766 11.5201393,1.47540984 11.25,1.47540984 L11.25,1.47540984 Z" id="Path"></path>
                                </g>
                            </g>
                        </g>
                    </g>
                </g>
            </g>
        </g>
    </g>
</svg>