<?xml version="1.0" encoding="UTF-8"?>
<svg width="30px" height="30px" viewBox="0 0 30 30" version="1.1" xmlns="http://www.w3.org/2000/svg" xmlns:xlink="http://www.w3.org/1999/xlink">
    <!-- Generator: Sketch 63.1 (92452) - https://sketch.com -->
    <title>line-graph</title>
    <desc>Created with Sketch.</desc>
    <g id="Page-1" stroke="none" stroke-width="1" fill="none" fill-rule="evenodd">
        <g id="Services-landing-variant-two" transform="translate(-625.000000, -2291.000000)" fill="#FFFFFF" fill-rule="nonzero">
            <g id="Group-11-Copy" transform="translate(70.000000, 2266.000000)">
                <g id="Group-42">
                    <g id="Group-46" transform="translate(420.000000, 0.000000)">
                        <g id="Group-37">
                            <g id="Group-36" transform="translate(110.000000, 0.000000)">
                                <g id="line-graph" transform="translate(25.000000, 25.000000)">
                                    <path d="M25.0103906,0 C22.2591211,0 20.0207812,2.23833984 20.0207812,4.98960937 C20.0207812,6.21626953 20.4700195,7.39541016 21.2858203,8.30988281 C21.4473633,8.49099609 21.7252148,8.50693359 21.9062695,8.34527344 C22.0873828,8.18373047 22.1032617,7.9059375 21.9416602,7.72482422 C21.269707,6.97154297 20.8996875,6.00017578 20.8996875,4.98960938 C20.8996875,2.72296875 22.74375,0.87890625 25.0103906,0.87890625 C27.2770313,0.87890625 29.1210938,2.72291016 29.1210938,4.98955078 C29.1210938,7.25619141 27.2770898,9.10025391 25.0103906,9.10025391 C24.8443945,9.10025391 24.6772852,9.09029297 24.5135742,9.07060547 C24.27375,9.04171875 24.0537891,9.21345703 24.0247852,9.45445312 C23.9957813,9.69544922 24.1676953,9.91423828 24.4086328,9.94324219 C24.6070313,9.96708984 24.8094727,9.97921875 25.0103906,9.97921875 C27.7616602,9.97921875 30,7.7409375 30,4.98960937 C30,2.23833984 27.7616602,0 25.0103906,0 Z" id="Path"></path>
                                    <path d="M24.3158789,7.61414062 C24.5377148,7.67291016 24.7703906,7.70419922 25.0103906,7.70419922 C26.5072266,7.70419922 27.7249219,6.48644531 27.7249219,4.98966797 C27.7249219,3.49289062 26.5072266,2.27513672 25.0103906,2.27513672 C23.5135547,2.27513672 22.2958594,3.49289062 22.2958594,4.98966797 C22.2958594,5.93349609 22.7799023,6.76628906 23.5129687,7.25285156 L18.9536719,15.9569531 C18.8523047,15.9364453 18.7473633,15.9256641 18.6400781,15.9256641 C18.2107031,15.9256641 17.8208203,16.0981641 17.5361719,16.3774805 L11.0753906,12.7432617 C11.1024609,12.6277148 11.1167578,12.5073047 11.1167578,12.3836719 C11.1167578,11.5141406 10.4092969,10.8066797 9.53976562,10.8066797 C8.67023437,10.8066797 7.96277344,11.5141406 7.96277344,12.3836719 C7.96277344,12.8405859 8.158125,13.252793 8.46972656,13.5410742 L1.80878906,26.8630078 C1.73314453,26.8518164 1.65568359,26.8460156 1.57699219,26.8460156 C0.707460937,26.8460156 0,27.5534766 0,28.4230078 C0,29.2925391 0.707460937,30 1.57699219,30 C2.44652344,30 3.15398437,29.2925391 3.15398437,28.4230078 C3.15398437,27.9471094 2.94210937,27.5197852 2.60771484,27.2303906 L9.25546875,13.9349414 C9.34775391,13.9518164 9.44273437,13.9606055 9.53982422,13.9606055 C9.96914062,13.9606055 10.359082,13.7881055 10.6437305,13.5087891 L17.1045117,17.1430078 C17.0774414,17.2584961 17.0631445,17.3789648 17.0631445,17.5025977 C17.0631445,18.3721289 17.7705469,19.0795898 18.6401367,19.0795898 C19.5097266,19.0795898 20.2171289,18.3721289 20.2171289,17.5025977 C20.2171289,17.0563477 20.0308594,16.6527539 19.7318555,16.3655859 L24.3158789,7.61414062 Z M23.1747656,4.98960937 C23.1747656,3.97746094 23.9982422,3.15398437 25.0103906,3.15398437 C26.0225391,3.15398437 26.8460156,3.97746094 26.8460156,4.98960937 C26.8460156,6.00175781 26.0225391,6.82523437 25.0103906,6.82523437 C23.9981836,6.82523437 23.1747656,6.00175781 23.1747656,4.98960937 Z M1.57699219,29.1210938 C1.19208984,29.1210938 0.87890625,28.8079102 0.87890625,28.4230078 C0.87890625,28.0381055 1.19208984,27.7249219 1.57699219,27.7249219 C1.96189453,27.7249219 2.27507813,28.0381055 2.27507813,28.4230078 C2.27507813,28.8079102 1.96189453,29.1210938 1.57699219,29.1210938 Z M9.53982422,13.0817578 C9.15492188,13.0817578 8.84173828,12.7685742 8.84173828,12.3836719 C8.84173828,11.9987695 9.15492188,11.6855859 9.53982422,11.6855859 C9.92472656,11.6855859 10.2379102,11.9987695 10.2379102,12.3836719 C10.2379102,12.7685742 9.92472656,13.0817578 9.53982422,13.0817578 Z M18.6401367,18.2006836 C18.2552344,18.2006836 17.9420508,17.8875 17.9420508,17.5025977 C17.9420508,17.1176953 18.2552344,16.8045117 18.6401367,16.8045117 C19.0250391,16.8045117 19.3382227,17.1176953 19.3382227,17.5025977 C19.3382227,17.8875 19.0250391,18.2006836 18.6401367,18.2006836 Z" id="Shape"></path>
                                </g>
                            </g>
                        </g>
                    </g>
                </g>
            </g>
        </g>
    </g>
</svg>