<?xml version="1.0" encoding="UTF-8"?>
<svg width="32px" height="31px" viewBox="0 0 32 31" version="1.1" xmlns="http://www.w3.org/2000/svg" xmlns:xlink="http://www.w3.org/1999/xlink">
    <!-- Generator: Sketch 63.1 (92452) - https://sketch.com -->
    <title>setting-3</title>
    <desc>Created with Sketch.</desc>
    <g id="Page-1" stroke="none" stroke-width="1" fill="none" fill-rule="evenodd">
        <g id="Services-landing-variant-two" transform="translate(-205.000000, -2291.000000)" fill="#FFFFFF" fill-rule="nonzero">
            <g id="Group-11-Copy" transform="translate(70.000000, 2266.000000)">
                <g id="Group-42">
                    <g id="Group-44">
                        <g id="Group-35">
                            <g id="Group-34" transform="translate(110.000000, 0.000000)">
                                <g id="setting-3" transform="translate(25.000000, 25.000000)">
                                    <path d="M16.9002322,29.2446478 L16.8958845,29.2446478 C12.3756712,29.1990666 8.13053396,27.0659157 5.39626616,23.4661677 C2.66199836,19.8664197 1.74589007,15.2046316 2.91462771,10.837887 C2.95170929,10.6845762 3.06891646,10.5633742 3.22089881,10.5211771 C3.37288117,10.4789799 3.53579684,10.5224072 3.64660965,10.6346559 C3.75742245,10.7469045 3.7987489,10.9103658 3.75459873,11.0617923 C2.65504772,15.1689623 3.51647991,19.5537709 6.08811388,22.939706 C8.65974785,26.3256411 12.6525556,28.3321549 16.9041451,28.3751081 C17.1442606,28.3761886 17.3380368,28.5717166 17.3369608,28.8118321 C17.3358757,29.0519477 17.1403477,29.2457238 16.9002322,29.2446478 L16.9002322,29.2446478 Z" id="Path"></path>
                                    <path d="M5.08368332,7.41539646 C4.92476423,7.4152907 4.77856459,7.32848548 4.70239603,7.18900917 C4.62622748,7.04953287 4.6322274,6.87961088 4.71804376,6.74585424 C5.28873104,5.85584405 5.95386912,5.03006995 6.70188836,4.28289573 C9.44408551,1.54056373 13.1633839,-7.36864344e-05 17.0415317,-7.36864344e-05 C20.9196794,-7.36864344e-05 24.6389778,1.54056373 27.381175,4.28289573 C27.5459398,4.45348936 27.5435834,4.72465648 27.3758789,4.89236104 C27.2081743,5.0600656 26.9370072,5.06242197 26.7664136,4.89765713 C24.1872218,2.31844435 20.6890745,0.869455926 17.0415317,0.869455926 C13.3939888,0.869455926 9.89584151,2.31844435 7.31664976,4.89765713 C6.61305707,5.60080098 5.98729156,6.37772392 5.45019241,7.21496849 C5.37022359,7.3399374 5.23204851,7.41549933 5.08368332,7.41539646 L5.08368332,7.41539646 Z" id="Path"></path>
                                    <path d="M31.2166948,14.6734069 C30.9809254,14.6734865 30.7880572,14.4856329 30.7819272,14.2499432 C30.7240839,11.954477 30.0911539,9.71022153 28.9411212,7.72277706 C28.8588004,7.58834591 28.8556928,7.41988707 28.9329994,7.28251121 C29.010306,7.14513535 29.1559153,7.06036516 29.313548,7.06096181 C29.4711807,7.06156479 29.6161407,7.14744065 29.6923996,7.28540084 C30.9158365,9.39904643 31.5892811,11.7859252 31.6510277,14.2273353 C31.6573546,14.4673169 31.4679785,14.6670085 31.2279988,14.6734069 L31.2166948,14.6734069 Z" id="Path"></path>
                                    <path d="M28.7476496,23.0731173 C28.5859864,23.0730625 28.4377029,22.9833132 28.3626798,22.8401122 C28.2876568,22.6969112 28.2982842,22.5239084 28.3902706,22.3909667 C28.6180888,22.0614128 28.8359074,21.7096858 29.0372048,21.3453506 C29.1114368,21.207624 29.2539458,21.1204044 29.4103657,21.1169654 C29.5667856,21.1135264 29.7129902,21.1943984 29.7932036,21.3287294 C29.873417,21.4630605 29.8752671,21.6301313 29.7980481,21.7662056 C29.5828381,22.1574965 29.3498027,22.5322662 29.1058981,22.8852975 C29.0246501,23.0030254 28.8906918,23.073256 28.7476496,23.0731173 L28.7476496,23.0731173 Z" id="Path"></path>
                                    <path d="M20.7174918,28.7642541 C20.4923844,28.7668052 20.30254,28.5971207 20.2799381,28.373136 C20.2573362,28.1491512 20.4094535,27.94496 20.6305383,27.9025157 C22.7810456,27.3204268 24.7575697,26.2236842 26.38947,24.7069737 C26.5025309,24.5974095 26.6659905,24.5575288 26.8168066,24.6027127 C26.9676226,24.6478966 27.0822276,24.7710844 27.1164212,24.9247654 C27.1506148,25.0784465 27.0990536,25.2386057 26.9816235,25.3434735 C25.2389119,26.9635093 23.1264664,28.1327948 20.8283575,28.749443 C20.7922144,28.7592305 20.7549367,28.7642008 20.7174918,28.7642541 L20.7174918,28.7642541 Z" id="Path"></path>
                                    <path d="M30.6132374,19.1910775 C30.5690251,19.1911393 30.5250554,19.1845438 30.4828071,19.1715125 C30.3726205,19.1374541 30.2804811,19.0610113 30.2266657,18.9590066 C30.1728502,18.8570019 30.161769,18.7377946 30.1958605,18.6276183 C30.3209499,18.2208764 30.4252838,17.8080391 30.5084584,17.3907044 C30.5564815,17.1553912 30.786171,17.0035626 31.0214842,17.0515857 C31.2567974,17.0996088 31.408626,17.3292982 31.3606029,17.5646114 C31.2640845,18.0428558 31.1553926,18.4732757 31.0284404,18.8854354 C30.9718932,19.0672392 30.8036323,19.1911004 30.6132374,19.1910775 Z" id="Path"></path>
                                    <path d="M27.0737943,5.02504404 L23.7295618,5.02504404 C23.4894463,5.02504404 23.2947942,4.83039195 23.2947942,4.59027643 C23.2947942,4.35016091 23.4894463,4.15550882 23.7295618,4.15550882 L26.6390267,4.15550882 L26.6390267,1.24604397 C26.6390267,1.00592845 26.8336787,0.81127636 27.0737943,0.81127636 C27.3139098,0.81127636 27.5085619,1.00592845 27.5085619,1.24604397 L27.5085619,4.59027643 C27.5085619,4.83039195 27.3139098,5.02504404 27.0737943,5.02504404 Z" id="Path"></path>
                                    <path d="M5.00933806,14.2812465 C4.85385919,14.2813979 4.71013394,14.1985114 4.63239454,14.0638626 L3.17766212,11.5443843 L0.658183816,12.9995515 C0.450425781,13.1176737 0.186278159,13.0459593 0.0667805083,12.8389894 C-0.0527171421,12.6320195 0.0172434862,12.3674019 0.223416206,12.246534 L3.11940326,10.5744178 C3.21929931,10.5166286 3.33807299,10.5009282 3.4495536,10.5307759 C3.5610342,10.5606237 3.65607354,10.6335704 3.71373058,10.7335428 L5.38541204,13.6295298 C5.46303609,13.7639784 5.46307862,13.9296161 5.38552361,14.0641045 C5.3079686,14.198593 5.16458592,14.2815221 5.00933806,14.2816812 L5.00933806,14.2812465 Z" id="Path"></path>
                                    <path d="M23.6091312,30.4337327 C23.5328125,30.4337327 23.4578393,30.4136365 23.3917474,30.3754738 L20.4957603,28.7037924 C20.3957141,28.6462081 20.3226752,28.551201 20.2927442,28.4397141 C20.2628132,28.3282272 20.2784475,28.2094139 20.3362006,28.1094651 L22.0087516,25.213478 C22.1288094,25.0054179 22.3948014,24.9340779 22.6028615,25.0541357 C22.8109216,25.1741935 22.8822616,25.4401855 22.7622039,25.6482456 L21.3074715,28.1677239 L23.8269498,29.6224563 C23.9973531,29.7208503 24.0804283,29.921427 24.0294997,30.1114927 C23.9785711,30.3015583 23.8063366,30.4337327 23.6095659,30.4337327 L23.6091312,30.4337327 Z" id="Path"></path>
                                    <path d="M17.8784593,24.3469896 L15.9654818,24.3469896 C15.6459528,24.3466282 15.3658784,24.1332382 15.2807228,23.825265 L14.9329088,22.5413963 C14.1444163,22.3460954 13.3895697,22.0339573 12.6934208,21.6153413 L11.5391128,22.2757533 C11.2610705,22.4346807 10.9110302,22.3876524 10.6847944,22.1609746 L9.32658042,20.8053692 C9.1004713,20.5788177 9.05366287,20.2290892 9.21223654,19.9510509 L9.87264854,18.7967429 C9.45403248,18.1005939 9.14189439,17.3457473 8.94659353,16.5572549 L7.66315955,16.2094408 C7.35324966,16.1245966 7.13870456,15.8425161 7.1396959,15.5212037 L7.1396959,13.6082262 C7.14005726,13.2886971 7.35344729,13.0086227 7.66142048,12.9234672 L8.94528923,12.5756531 C9.14059009,11.7871607 9.45272818,11.0323141 9.87134424,10.3361652 L9.21093224,9.18185716 C9.05216014,8.90378458 9.09917495,8.5538448 9.32571089,8.3275388 L10.680012,6.97280293 C10.9062832,6.74612692 11.2564134,6.69926472 11.5343303,6.85845905 L12.6886384,7.51887105 C13.3847873,7.10025498 14.1396339,6.7881169 14.9281263,6.59281604 L15.2759404,5.30938205 C15.359595,4.99762202 15.6426954,4.78128043 15.9654818,4.78243904 L17.8784593,4.78243904 C18.1979884,4.78280163 18.4780628,4.99619166 18.5632183,5.30416484 L18.9110324,6.58803359 C19.6995248,6.78333445 20.4543714,7.09547254 21.1505203,7.5140886 L22.3048284,6.8536766 C22.5829312,6.69505957 22.9327706,6.74206091 23.1591467,6.96845525 L24.5138826,8.32275636 C24.7399917,8.54930791 24.7868001,8.89903636 24.6282265,9.17707471 L23.9678145,10.3313827 C24.3864305,11.0275316 24.6985686,11.7823783 24.8938695,12.5708707 L26.1773035,12.9186848 C26.4890635,13.0023393 26.7054051,13.2854398 26.7042465,13.6082262 L26.7042465,15.5212037 C26.7038839,15.8407327 26.4904938,16.1208071 26.1825207,16.2059627 L24.8986519,16.5537768 C24.7033511,17.3422692 24.391213,18.0971158 23.9725969,18.7932647 L24.6330089,19.9475727 C24.791781,20.2256453 24.7447662,20.5755851 24.5182303,20.8018911 L23.1626248,22.1601051 C22.9361431,22.3863556 22.5863146,22.4331774 22.3083065,22.274449 L21.1539985,21.614037 C20.4578496,22.032653 19.703003,22.3447911 18.9145105,22.540092 L18.5666964,23.823526 C18.4818522,24.1334358 18.1997718,24.3479809 17.8784593,24.3469896 Z M16.0841734,23.4774509 L17.7562896,23.4774509 L18.1419285,22.0605433 C18.1846372,21.9033055 18.3116775,21.7831458 18.4710476,21.7492497 C19.3371514,21.5646459 20.1622558,21.2234063 20.9057462,20.7423279 C21.0421974,20.6545024 21.2162024,20.6499762 21.357035,20.7305892 L22.6304693,21.4588249 L23.8126024,20.2766918 L23.0843667,19.0032575 C23.0037537,18.8624249 23.0082799,18.6884199 23.0961054,18.5519687 C23.5771837,17.8084783 23.9184234,16.9833739 24.1030272,16.1172701 C24.1369233,15.9579 24.257083,15.8308597 24.4143208,15.788151 L25.8347066,15.400773 L25.8347066,13.7286568 L24.4177989,13.343018 C24.2605611,13.3003092 24.1404015,13.1732689 24.1065053,13.0138989 C23.9219015,12.1477951 23.5806619,11.3226907 23.0995835,10.5792003 C23.011758,10.442749 23.0072318,10.268744 23.0878448,10.1279115 L23.8160806,8.85447715 L22.6339474,7.67234401 L21.3605131,8.40057976 C21.2196805,8.48119273 21.0456755,8.47666659 20.9092243,8.38884104 C20.1657339,7.90776269 19.3406295,7.56652308 18.4745257,7.38191925 C18.3151557,7.34802312 18.1881153,7.22786345 18.1454066,7.07062564 L17.7580287,5.65197893 L16.0859125,5.65197893 L15.7002736,7.06888657 C15.6575649,7.22612438 15.5305246,7.34628405 15.3711545,7.38018018 C14.5050507,7.56478401 13.6799463,7.90602362 12.9364559,8.38710196 C12.8000047,8.47492752 12.6259997,8.47945366 12.4851671,8.39884069 L11.2117328,7.67060494 L10.0295996,8.85273808 L10.7578354,10.1261724 C10.8384484,10.267005 10.8339222,10.44101 10.7460967,10.5774612 C10.2650183,11.3209516 9.92377872,12.146056 9.73917489,13.0121598 C9.70527875,13.1715299 9.58511908,13.2985702 9.42788128,13.3412789 L8.00923457,13.7286568 L8.00923457,15.400773 L9.42614221,15.7864119 C9.58338001,15.8291206 9.70353968,15.956161 9.73743582,16.115531 C9.92203965,16.9816348 10.2632793,17.8067392 10.7443576,18.5502296 C10.8321832,18.6866808 10.8367093,18.8606858 10.7560963,19.0015184 L10.0278606,20.2749527 L11.2099937,21.4570859 L12.483428,20.7288501 C12.6242606,20.6482371 12.7982656,20.6527633 12.9347168,20.7405888 C13.6782072,21.2216672 14.5033116,21.5629068 15.3694154,21.7475106 C15.5287855,21.7814068 15.6558258,21.9015664 15.6985345,22.0588042 L16.0841734,23.4774509 Z" id="Shape"></path>
                                    <path d="M16.9219706,20.3949486 C13.7020214,20.3949486 11.0917369,17.7846641 11.0917369,14.5647149 C11.0917369,11.3447658 13.7020214,8.73448129 16.9219706,8.73448129 C20.1419197,8.73448129 22.7522042,11.3447658 22.7522042,14.5647149 C22.7488493,17.7832734 20.140529,20.3915937 16.9219706,20.3949486 Z M16.9219706,9.60401651 C14.1822525,9.60401651 11.9612721,11.8249968 11.9612721,14.5647149 C11.9612721,17.304433 14.1822525,19.5254134 16.9219706,19.5254134 C19.6616887,19.5254134 21.882669,17.304433 21.882669,14.5647149 C21.8797934,11.8261888 19.6604967,9.6068921 16.9219706,9.60401651 L16.9219706,9.60401651 Z" id="Shape"></path>
                                </g>
                            </g>
                        </g>
                    </g>
                </g>
            </g>
        </g>
    </g>
</svg>