<?xml version="1.0" encoding="UTF-8"?>
<svg width="30px" height="30px" viewBox="0 0 30 30" version="1.1" xmlns="http://www.w3.org/2000/svg" xmlns:xlink="http://www.w3.org/1999/xlink">
    <!-- Generator: Sketch 63.1 (92452) - https://sketch.com -->
    <title>telescope</title>
    <desc>Created with Sketch.</desc>
    <g id="Page-1" stroke="none" stroke-width="1" fill="none" fill-rule="evenodd">
        <g id="Services-landing-variant-two" transform="translate(-626.000000, -2534.000000)" fill="#FFFFFF" fill-rule="nonzero">
            <g id="Group-11-Copy" transform="translate(70.000000, 2266.000000)">
                <g id="Group-42-Copy" transform="translate(0.000000, 242.000000)">
                    <g id="Group-46" transform="translate(420.000000, 0.000000)">
                        <g id="Group-37">
                            <g id="Group-36" transform="translate(110.000000, 0.000000)">
                                <g id="telescope" transform="translate(26.000000, 26.000000)">
                                    <path d="M29.4498734,3.7278481 C28.8368408,2.65211681 27.7810766,1.90104245 26.5637975,1.67468354 L26.2405063,0.338734177 C26.2128166,0.224231549 26.1406648,0.125471334 26.039999,0.0642832811 C25.9393333,0.00309522826 25.8184434,-0.0154818703 25.7040506,0.0126582278 L23.223038,0.613417722 C22.9852787,0.671122753 22.8392253,0.910541505 22.8967089,1.14835443 L23.1331646,2.12481013 L6.67088608,6.11113924 C6.43378482,6.16930977 6.28834517,6.40823825 6.34556962,6.64556962 L6.5043038,7.30101266 L3.51493671,8.02506329 C3.27717743,8.08276832 3.13112406,8.32218707 3.18860759,8.56 L3.42278481,9.52708861 L0.340253165,10.2731646 C0.226035615,10.3008165 0.127483644,10.3727145 0.066283088,10.4730379 C0.00508253198,10.5733612 -0.0137519569,10.6938895 0.0139240506,10.8081013 L0.583544304,13.16 C0.631655127,13.3587308 0.809452685,13.4987725 1.01392405,13.4989873 C1.04915047,13.4988553 1.08424078,13.4946071 1.11848101,13.4863291 L4.20075949,12.7402532 L4.43417722,13.7043038 C4.48228804,13.9030346 4.6600856,14.0430763 4.86455696,14.0432911 C4.89979098,14.043283 4.93489588,14.039033 4.96911392,14.0306329 L7.95873418,13.3070886 L8.11772152,13.9627848 C8.16601317,14.1613627 8.34373599,14.301241 8.54810127,14.301519 C8.58333528,14.3015108 8.61844019,14.2972609 8.65265823,14.2888608 L13.0805063,13.2159494 C13.1337043,13.4700628 13.2369789,13.7110368 13.3843038,13.9248101 L6.33088608,28.2673418 C6.1482177,28.6399015 6.17043036,29.080297 6.38965862,29.4325858 C6.60888688,29.7848747 6.99418259,29.9993247 7.40911392,30.0000094 C7.86706699,29.997933 8.28460348,29.7374749 8.4878481,29.3270886 L13.7989873,18.5253165 L13.7989873,28.7974684 C13.7989874,29.4616082 14.3373791,30.0000094 15.001519,30.0000094 C15.6656589,30.0000094 16.2040506,29.4616082 16.2040506,28.7974684 L16.2040506,18.5253165 L21.5151899,29.3270886 C21.7185975,29.7378002 22.1366182,29.9983158 22.5949367,30.0000094 C22.7784582,30.000733 22.9595942,29.9584188 23.1237975,29.8764557 C23.4102358,29.7362806 23.6291488,29.4879206 23.7322558,29.186151 C23.8353628,28.8843814 23.8141939,28.5539915 23.6734177,28.2678481 L16.6202532,13.9237975 C16.9488332,13.4477934 17.0481394,12.8501004 16.8911392,12.2934177 L25.1141772,10.2994937 L25.3511392,11.2772152 C25.4088443,11.5149745 25.648263,11.6610278 25.8860759,11.6035443 L28.3670886,11.0025316 C28.481342,10.9749402 28.579937,10.9030539 28.6411483,10.802713 C28.7023596,10.7023721 28.7211639,10.5818108 28.6934177,10.4675949 L28.3701266,9.13240506 C30.0215399,7.84856658 30.4812251,5.54766151 29.4498734,3.7278481 L29.4498734,3.7278481 Z M1.34050633,12.5207595 L0.979493671,11.0301266 L3.63113924,10.3883544 L3.9921519,11.8789873 L1.34050633,12.5207595 Z M5.19113924,13.0653165 L4.96025316,12.1116456 C4.96025316,12.1081013 4.96025316,12.104557 4.95873418,12.1010127 C4.95721519,12.0974684 4.95620253,12.0941772 4.95518987,12.0906329 L4.39037975,9.75949367 C4.39037975,9.75620253 4.39037975,9.75316456 4.39037975,9.75012658 C4.39037975,9.74708861 4.38810127,9.7443038 4.38734177,9.74101266 L4.15518987,8.78303797 L6.71417722,8.16379747 L7.7521519,12.4468354 L5.19113924,13.0653165 Z M15.9012658,12.2298734 C16.1797958,12.6537981 16.1222742,13.2150569 15.7635443,13.5736709 L15.7612658,13.5764557 C15.5597292,13.7782664 15.2862224,13.8916656 15.0010127,13.8916656 C14.715803,13.8916656 14.4422961,13.7782664 14.2407595,13.5764557 L14.238481,13.5736709 C13.9481237,13.2829055 13.8489351,12.8520483 13.9829273,12.4635924 C14.1169195,12.0751365 14.4606458,11.7970564 14.8685181,11.7471352 C15.2763903,11.697214 15.6770364,11.8841872 15.9007595,12.2288608 L15.9012658,12.2298734 Z M7.69240506,28.9364557 C7.6359839,29.0509398 7.51622324,29.1202336 7.38885105,29.1120928 C7.26147886,29.1039521 7.15151416,29.0199758 7.11012658,28.8992405 C7.08289225,28.820211 7.08854778,28.7335536 7.12582278,28.6587342 L13.7989873,15.0860759 L13.7989873,16.5174684 L7.69240506,28.9364557 Z M15.001519,29.1136709 C14.8268032,29.1135313 14.6852029,28.971931 14.6850633,28.7972152 L14.6850633,14.7506329 C14.8943999,14.7877652 15.1086381,14.7877652 15.3179747,14.7506329 L15.3179747,28.7974684 C15.3178351,28.9721842 15.1762348,29.1139241 15.001519,29.1139241 L15.001519,29.1136709 Z M22.8929114,28.8989873 C22.865437,28.9794691 22.8066545,29.0454626 22.7298734,29.0820253 C22.5734496,29.1527235 22.3890587,29.088515 22.3103797,28.9359494 L16.2040506,16.5174684 L16.2040506,15.0860759 L22.8774684,28.6594937 C22.9144217,28.7339613 22.9199841,28.8201337 22.8929114,28.8987342 L22.8929114,28.8989873 Z M15.001519,10.8544304 C14.1188166,10.8559705 13.3456358,11.4463429 13.1116456,12.2974684 L8.87341772,13.3235443 L7.46936709,7.52607595 L7.46936709,7.52405063 L7.46936709,7.52177215 L7.31113924,6.86835443 L23.3422785,2.98582278 L24.9050633,9.43822785 L16.443038,11.4901266 C16.0729452,11.0854454 15.5499125,10.8547929 15.001519,10.8544304 L15.001519,10.8544304 Z M26.1075949,10.6379747 L24.1025316,2.35949367 C24.1025316,2.35493671 24.1025316,2.35037975 24.1005063,2.34582278 C24.098481,2.34126582 24.0972152,2.33746835 24.0962025,2.33316456 L23.8627848,1.37113924 L25.483038,0.978734177 L27.7281013,10.2465823 L26.1075949,10.6379747 Z M26.7987342,2.64911392 C27.9058081,2.9985482 28.7494183,3.90165547 29.0227114,5.02994087 C29.2960044,6.15822626 28.9591532,7.34726462 28.1346835,8.16455696 L26.7987342,2.64911392 Z" id="Shape"></path>
                                    <path d="M18.3,4.85873418 L14.8972152,5.6835443 C14.7392349,5.71684774 14.611879,5.83345432 14.5648099,5.98789332 C14.5177408,6.14233232 14.5584118,6.31014918 14.670963,6.42590373 C14.7835143,6.54165827 14.950124,6.58702141 15.1058228,6.5443038 L18.5088608,5.71974684 C18.6665119,5.68608228 18.7934356,5.56944261 18.8402697,5.41519041 C18.8871038,5.2609382 18.8464561,5.09342044 18.734135,4.97778679 C18.6218139,4.86215314 18.4555479,4.81665507 18.3,4.85898734 L18.3,4.85873418 Z" id="Path"></path>
                                    <path d="M21.5949367,4.5164557 C21.5675836,4.40204773 21.4957562,4.30326143 21.3953556,4.24196625 C21.2949551,4.18067106 21.1742636,4.16192332 21.06,4.18987342 L20.0473418,4.43493671 C19.8893614,4.46824014 19.7620055,4.58484672 19.7149365,4.73928572 C19.6678674,4.89372472 19.7085383,5.06154159 19.8210896,5.17729613 C19.9336409,5.29305068 20.1002506,5.33841382 20.2559494,5.2956962 L21.2673418,5.05063291 C21.3816634,5.02331226 21.480431,4.95165746 21.5418801,4.85145837 C21.6033292,4.75125927 21.6224168,4.6307391 21.5949367,4.5164557 L21.5949367,4.5164557 Z" id="Path"></path>
                                </g>
                            </g>
                        </g>
                    </g>
                </g>
            </g>
        </g>
    </g>
</svg>