<?xml version="1.0" encoding="UTF-8"?>
<svg width="130px" height="98px" viewBox="0 0 130 98" version="1.1" xmlns="http://www.w3.org/2000/svg" xmlns:xlink="http://www.w3.org/1999/xlink">
    <!-- Generator: Sketch 63.1 (92452) - https://sketch.com -->
    <title>Dot Pattern 1</title>
    <desc>Created with Sketch.</desc>
    <g id="Page-1" stroke="none" stroke-width="1" fill="none" fill-rule="evenodd" opacity="0.201636905">
        <g id="whitepaper-popup" transform="translate(-188.000000, -112.000000)" fill="#142270">
            <g id="Group-23" transform="translate(185.000000, 112.000000)">
                <g id="g18">
                    <g id="Dot-Pattern-1" transform="translate(-43.000000, -93.000000)">
                        <path d="M49,99 C47.3425,99 46,97.6575 46,96 C46,94.3425 47.3425,93 49,93 C50.6575,93 52,94.3425 52,96 C52,97.6575 50.6575,99 49,99 Z" id="Fill-157"></path>
                        <path d="M65,99 C63.3425,99 62,97.6575 62,96 C62,94.3425 63.3425,93 65,93 C66.6575,93 68,94.3425 68,96 C68,97.6575 66.6575,99 65,99 Z" id="Fill-158"></path>
                        <path d="M80,99 C78.3425,99 77,97.6575 77,96 C77,94.3425 78.3425,93 80,93 C81.6575,93 83,94.3425 83,96 C83,97.6575 81.6575,99 80,99 Z" id="Fill-159"></path>
                        <path d="M96,99 C94.3425,99 93,97.6575 93,96 C93,94.3425 94.3425,93 96,93 C97.6575,93 99,94.3425 99,96 C99,97.6575 97.6575,99 96,99 Z" id="Fill-160"></path>
                        <path d="M111,99 C109.3425,99 108,97.6575 108,96 C108,94.3425 109.3425,93 111,93 C112.6575,93 114,94.3425 114,96 C114,97.6575 112.6575,99 111,99 Z" id="Fill-161"></path>
                        <path d="M127,99 C125.3425,99 124,97.6575 124,96 C124,94.3425 125.3425,93 127,93 C128.6575,93 130,94.3425 130,96 C130,97.6575 128.6575,99 127,99 Z" id="Fill-162"></path>
                        <path d="M142,99 C140.3425,99 139,97.6575 139,96 C139,94.3425 140.3425,93 142,93 C143.6575,93 145,94.3425 145,96 C145,97.6575 143.6575,99 142,99 Z" id="Fill-163"></path>
                        <path d="M157,99 C155.3425,99 154,97.6575 154,96 C154,94.3425 155.3425,93 157,93 C158.6575,93 160,94.3425 160,96 C160,97.6575 158.6575,99 157,99 Z" id="Fill-164"></path>
                        <path d="M173,99 C171.3425,99 170,97.6575 170,96 C170,94.3425 171.3425,93 173,93 C174.6575,93 176,94.3425 176,96 C176,97.6575 174.6575,99 173,99 Z" id="Fill-165"></path>
                        <path d="M49,114 C47.3425,114 46,112.6575 46,111 C46,109.3425 47.3425,108 49,108 C50.6575,108 52,109.3425 52,111 C52,112.6575 50.6575,114 49,114 Z" id="Fill-187"></path>
                        <path d="M65,114 C63.3425,114 62,112.6575 62,111 C62,109.3425 63.3425,108 65,108 C66.6575,108 68,109.3425 68,111 C68,112.6575 66.6575,114 65,114 Z" id="Fill-188"></path>
                        <path d="M80,114 C78.3425,114 77,112.6575 77,111 C77,109.3425 78.3425,108 80,108 C81.6575,108 83,109.3425 83,111 C83,112.6575 81.6575,114 80,114 Z" id="Fill-189"></path>
                        <path d="M96,114 C94.3425,114 93,112.6575 93,111 C93,109.3425 94.3425,108 96,108 C97.6575,108 99,109.3425 99,111 C99,112.6575 97.6575,114 96,114 Z" id="Fill-190"></path>
                        <path d="M111,114 C109.3425,114 108,112.6575 108,111 C108,109.3425 109.3425,108 111,108 C112.6575,108 114,109.3425 114,111 C114,112.6575 112.6575,114 111,114 Z" id="Fill-191"></path>
                        <path d="M127,114 C125.3425,114 124,112.6575 124,111 C124,109.3425 125.3425,108 127,108 C128.6575,108 130,109.3425 130,111 C130,112.6575 128.6575,114 127,114 Z" id="Fill-192"></path>
                        <path d="M142,114 C140.3425,114 139,112.6575 139,111 C139,109.3425 140.3425,108 142,108 C143.6575,108 145,109.3425 145,111 C145,112.6575 143.6575,114 142,114 Z" id="Fill-193"></path>
                        <path d="M157,114 C155.3425,114 154,112.6575 154,111 C154,109.3425 155.3425,108 157,108 C158.6575,108 160,109.3425 160,111 C160,112.6575 158.6575,114 157,114 Z" id="Fill-194"></path>
                        <path d="M173,114 C171.3425,114 170,112.6575 170,111 C170,109.3425 171.3425,108 173,108 C174.6575,108 176,109.3425 176,111 C176,112.6575 174.6575,114 173,114 Z" id="Fill-195"></path>
                        <path d="M49,129 C47.3425,129 46,127.6575 46,126 C46,124.3425 47.3425,123 49,123 C50.6575,123 52,124.3425 52,126 C52,127.6575 50.6575,129 49,129 Z" id="Fill-217"></path>
                        <path d="M65,129 C63.3425,129 62,127.6575 62,126 C62,124.3425 63.3425,123 65,123 C66.6575,123 68,124.3425 68,126 C68,127.6575 66.6575,129 65,129 Z" id="Fill-218"></path>
                        <path d="M80,129 C78.3425,129 77,127.6575 77,126 C77,124.3425 78.3425,123 80,123 C81.6575,123 83,124.3425 83,126 C83,127.6575 81.6575,129 80,129 Z" id="Fill-219"></path>
                        <path d="M96,129 C94.3425,129 93,127.6575 93,126 C93,124.3425 94.3425,123 96,123 C97.6575,123 99,124.3425 99,126 C99,127.6575 97.6575,129 96,129 Z" id="Fill-220"></path>
                        <path d="M111,129 C109.3425,129 108,127.6575 108,126 C108,124.3425 109.3425,123 111,123 C112.6575,123 114,124.3425 114,126 C114,127.6575 112.6575,129 111,129 Z" id="Fill-221"></path>
                        <path d="M127,129 C125.3425,129 124,127.6575 124,126 C124,124.3425 125.3425,123 127,123 C128.6575,123 130,124.3425 130,126 C130,127.6575 128.6575,129 127,129 Z" id="Fill-222"></path>
                        <path d="M142,129 C140.3425,129 139,127.6575 139,126 C139,124.3425 140.3425,123 142,123 C143.6575,123 145,124.3425 145,126 C145,127.6575 143.6575,129 142,129 Z" id="Fill-223"></path>
                        <path d="M157,129 C155.3425,129 154,127.6575 154,126 C154,124.3425 155.3425,123 157,123 C158.6575,123 160,124.3425 160,126 C160,127.6575 158.6575,129 157,129 Z" id="Fill-224"></path>
                        <path d="M173,129 C171.3425,129 170,127.6575 170,126 C170,124.3425 171.3425,123 173,123 C174.6575,123 176,124.3425 176,126 C176,127.6575 174.6575,129 173,129 Z" id="Fill-225"></path>
                        <path d="M49,145 C47.3425,145 46,143.6575 46,142 C46,140.3425 47.3425,139 49,139 C50.6575,139 52,140.3425 52,142 C52,143.6575 50.6575,145 49,145 Z" id="Fill-247"></path>
                        <path d="M65,145 C63.3425,145 62,143.6575 62,142 C62,140.3425 63.3425,139 65,139 C66.6575,139 68,140.3425 68,142 C68,143.6575 66.6575,145 65,145 Z" id="Fill-248"></path>
                        <path d="M80,145 C78.3425,145 77,143.6575 77,142 C77,140.3425 78.3425,139 80,139 C81.6575,139 83,140.3425 83,142 C83,143.6575 81.6575,145 80,145 Z" id="Fill-249"></path>
                        <path d="M96,145 C94.3425,145 93,143.6575 93,142 C93,140.3425 94.3425,139 96,139 C97.6575,139 99,140.3425 99,142 C99,143.6575 97.6575,145 96,145 Z" id="Fill-250"></path>
                        <path d="M111,145 C109.3425,145 108,143.6575 108,142 C108,140.3425 109.3425,139 111,139 C112.6575,139 114,140.3425 114,142 C114,143.6575 112.6575,145 111,145 Z" id="Fill-251"></path>
                        <path d="M127,145 C125.3425,145 124,143.6575 124,142 C124,140.3425 125.3425,139 127,139 C128.6575,139 130,140.3425 130,142 C130,143.6575 128.6575,145 127,145 Z" id="Fill-252"></path>
                        <path d="M142,145 C140.3425,145 139,143.6575 139,142 C139,140.3425 140.3425,139 142,139 C143.6575,139 145,140.3425 145,142 C145,143.6575 143.6575,145 142,145 Z" id="Fill-253"></path>
                        <path d="M157,145 C155.3425,145 154,143.6575 154,142 C154,140.3425 155.3425,139 157,139 C158.6575,139 160,140.3425 160,142 C160,143.6575 158.6575,145 157,145 Z" id="Fill-254"></path>
                        <path d="M173,145 C171.3425,145 170,143.6575 170,142 C170,140.3425 171.3425,139 173,139 C174.6575,139 176,140.3425 176,142 C176,143.6575 174.6575,145 173,145 Z" id="Fill-255"></path>
                        <path d="M49,160 C47.3425,160 46,158.6575 46,157 C46,155.3425 47.3425,154 49,154 C50.6575,154 52,155.3425 52,157 C52,158.6575 50.6575,160 49,160 Z" id="Fill-277"></path>
                        <path d="M65,160 C63.3425,160 62,158.6575 62,157 C62,155.3425 63.3425,154 65,154 C66.6575,154 68,155.3425 68,157 C68,158.6575 66.6575,160 65,160 Z" id="Fill-278"></path>
                        <path d="M80,160 C78.3425,160 77,158.6575 77,157 C77,155.3425 78.3425,154 80,154 C81.6575,154 83,155.3425 83,157 C83,158.6575 81.6575,160 80,160 Z" id="Fill-279"></path>
                        <path d="M96,160 C94.3425,160 93,158.6575 93,157 C93,155.3425 94.3425,154 96,154 C97.6575,154 99,155.3425 99,157 C99,158.6575 97.6575,160 96,160 Z" id="Fill-280"></path>
                        <path d="M111,160 C109.3425,160 108,158.6575 108,157 C108,155.3425 109.3425,154 111,154 C112.6575,154 114,155.3425 114,157 C114,158.6575 112.6575,160 111,160 Z" id="Fill-281"></path>
                        <path d="M127,160 C125.3425,160 124,158.6575 124,157 C124,155.3425 125.3425,154 127,154 C128.6575,154 130,155.3425 130,157 C130,158.6575 128.6575,160 127,160 Z" id="Fill-282"></path>
                        <path d="M142,160 C140.3425,160 139,158.6575 139,157 C139,155.3425 140.3425,154 142,154 C143.6575,154 145,155.3425 145,157 C145,158.6575 143.6575,160 142,160 Z" id="Fill-283"></path>
                        <path d="M157,160 C155.3425,160 154,158.6575 154,157 C154,155.3425 155.3425,154 157,154 C158.6575,154 160,155.3425 160,157 C160,158.6575 158.6575,160 157,160 Z" id="Fill-284"></path>
                        <path d="M173,160 C171.3425,160 170,158.6575 170,157 C170,155.3425 171.3425,154 173,154 C174.6575,154 176,155.3425 176,157 C176,158.6575 174.6575,160 173,160 Z" id="Fill-285"></path>
                        <path d="M49,176 C47.3425,176 46,174.6575 46,173 C46,171.3425 47.3425,170 49,170 C50.6575,170 52,171.3425 52,173 C52,174.6575 50.6575,176 49,176 Z" id="Fill-307"></path>
                        <path d="M65,176 C63.3425,176 62,174.6575 62,173 C62,171.3425 63.3425,170 65,170 C66.6575,170 68,171.3425 68,173 C68,174.6575 66.6575,176 65,176 Z" id="Fill-308"></path>
                        <path d="M80,176 C78.3425,176 77,174.6575 77,173 C77,171.3425 78.3425,170 80,170 C81.6575,170 83,171.3425 83,173 C83,174.6575 81.6575,176 80,176 Z" id="Fill-309"></path>
                        <path d="M96,176 C94.3425,176 93,174.6575 93,173 C93,171.3425 94.3425,170 96,170 C97.6575,170 99,171.3425 99,173 C99,174.6575 97.6575,176 96,176 Z" id="Fill-310"></path>
                        <path d="M111,176 C109.3425,176 108,174.6575 108,173 C108,171.3425 109.3425,170 111,170 C112.6575,170 114,171.3425 114,173 C114,174.6575 112.6575,176 111,176 Z" id="Fill-311"></path>
                        <path d="M127,176 C125.3425,176 124,174.6575 124,173 C124,171.3425 125.3425,170 127,170 C128.6575,170 130,171.3425 130,173 C130,174.6575 128.6575,176 127,176 Z" id="Fill-312"></path>
                        <path d="M142,176 C140.3425,176 139,174.6575 139,173 C139,171.3425 140.3425,170 142,170 C143.6575,170 145,171.3425 145,173 C145,174.6575 143.6575,176 142,176 Z" id="Fill-313"></path>
                        <path d="M157,176 C155.3425,176 154,174.6575 154,173 C154,171.3425 155.3425,170 157,170 C158.6575,170 160,171.3425 160,173 C160,174.6575 158.6575,176 157,176 Z" id="Fill-314"></path>
                        <path d="M173,176 C171.3425,176 170,174.6575 170,173 C170,171.3425 171.3425,170 173,170 C174.6575,170 176,171.3425 176,173 C176,174.6575 174.6575,176 173,176 Z" id="Fill-315"></path>
                        <path d="M49,191 C47.3425,191 46,189.6575 46,188 C46,186.3425 47.3425,185 49,185 C50.6575,185 52,186.3425 52,188 C52,189.6575 50.6575,191 49,191 Z" id="Fill-337"></path>
                        <path d="M65,191 C63.3425,191 62,189.6575 62,188 C62,186.3425 63.3425,185 65,185 C66.6575,185 68,186.3425 68,188 C68,189.6575 66.6575,191 65,191 Z" id="Fill-338"></path>
                        <path d="M80,191 C78.3425,191 77,189.6575 77,188 C77,186.3425 78.3425,185 80,185 C81.6575,185 83,186.3425 83,188 C83,189.6575 81.6575,191 80,191 Z" id="Fill-339"></path>
                        <path d="M96,191 C94.3425,191 93,189.6575 93,188 C93,186.3425 94.3425,185 96,185 C97.6575,185 99,186.3425 99,188 C99,189.6575 97.6575,191 96,191 Z" id="Fill-340"></path>
                        <path d="M111,191 C109.3425,191 108,189.6575 108,188 C108,186.3425 109.3425,185 111,185 C112.6575,185 114,186.3425 114,188 C114,189.6575 112.6575,191 111,191 Z" id="Fill-341"></path>
                        <path d="M127,191 C125.3425,191 124,189.6575 124,188 C124,186.3425 125.3425,185 127,185 C128.6575,185 130,186.3425 130,188 C130,189.6575 128.6575,191 127,191 Z" id="Fill-342"></path>
                        <path d="M142,191 C140.3425,191 139,189.6575 139,188 C139,186.3425 140.3425,185 142,185 C143.6575,185 145,186.3425 145,188 C145,189.6575 143.6575,191 142,191 Z" id="Fill-343"></path>
                        <path d="M157,191 C155.3425,191 154,189.6575 154,188 C154,186.3425 155.3425,185 157,185 C158.6575,185 160,186.3425 160,188 C160,189.6575 158.6575,191 157,191 Z" id="Fill-344"></path>
                        <path d="M173,191 C171.3425,191 170,189.6575 170,188 C170,186.3425 171.3425,185 173,185 C174.6575,185 176,186.3425 176,188 C176,189.6575 174.6575,191 173,191 Z" id="Fill-345"></path>
                    </g>
                </g>
            </g>
        </g>
    </g>
</svg>