<?xml version="1.0" encoding="UTF-8"?>
<svg width="123px" height="44px" viewBox="0 0 123 44" version="1.1" xmlns="http://www.w3.org/2000/svg" xmlns:xlink="http://www.w3.org/1999/xlink">
    <title>g12</title>
    <g id="Symbols" stroke="none" stroke-width="1" fill="none" fill-rule="evenodd">
        <g id="header" transform="translate(-70.000000, -23.000000)" fill-rule="nonzero">
            <g id="verinite-white-logo" transform="translate(70.000000, 23.000000)">
                <g id="g12" transform="translate(61.500000, 22.000000) scale(-1, 1) rotate(-180.000000) translate(-61.500000, -22.000000) ">
                    <polyline id="path14" fill="#FFFFFF" points="9.50350899 7.72095118 15.2629562 20.731681 18.9656807 20.731681 9.50350899 0.104295277 0 20.731681 3.7439687 20.731681 9.50350899 7.72095118"></polyline>
                    <path d="M34.5591027,13.155533 C34.4488389,13.8420727 34.2227283,14.4941574 33.8805381,15.1106229 C33.5367198,15.7284854 33.1191595,16.2706864 32.6252985,16.7374589 C32.1316702,17.2044642 31.5619736,17.567406 30.9178376,17.8293107 C30.2732361,18.0888875 29.5944389,18.2204218 28.8816787,18.2204218 C28.1682206,18.2204218 27.4829099,18.0888875 26.8248163,17.8293107 C26.1662576,17.567406 25.5695767,17.2044642 25.0350065,16.7374589 C24.5002036,16.2706864 24.053798,15.7284854 23.6978831,15.1106229 C23.3412703,14.4941574 23.107925,13.8420727 22.998615,13.155533 L34.5591027,13.155533 Z M22.8342429,10.3558294 C22.8342429,9.45161779 22.9916131,8.60677126 23.3070746,7.82454905 C23.6222803,7.04162844 24.053798,6.3618401 24.6030235,5.78541683 C25.1510859,5.20922637 25.8166235,4.74943801 26.5987057,4.40675019 C27.3798574,4.06243275 28.2370774,3.89295126 29.1694346,3.89295126 C30.5682036,3.89295126 31.7408617,4.26846448 32.6871765,5.024147 C33.6332587,5.77889831 34.4216219,6.73293002 35.0524985,7.88647497 L37.8500359,6.28012581 C36.9172132,4.55039041 35.6903538,3.21362852 34.1680615,2.26495132 C32.6460021,1.31836932 30.8973666,0.845543935 28.9228531,0.845543935 C27.4687199,0.845543935 26.1592789,1.10651747 24.993832,1.62706773 C23.8276874,2.14901481 22.8342429,2.85627404 22.0114282,3.74884545 C21.1883342,4.63955442 20.5569691,5.6901999 20.1187984,6.89798824 C19.6799065,8.10461253 19.4604722,9.40924743 19.4604722,10.8088664 C19.4604722,12.2357236 19.6662748,13.5883161 20.0777401,14.8638505 C20.4888335,16.1405488 21.0922837,17.2514906 21.8877418,18.1990038 C22.682665,19.1455857 23.6629895,19.8935857 24.8291342,20.4425381 C25.9948135,20.9926546 27.3317042,21.2661994 28.8405042,21.2661994 C30.4035057,21.2661994 31.7750574,20.9712365 32.9544617,20.3815435 C34.1336332,19.7909191 35.1143764,18.9877445 35.8964587,17.9720197 C36.677843,16.9572261 37.2463764,15.7908769 37.6032217,14.473205 C37.9593693,13.155533 38.0968502,11.7826865 38.0147338,10.3558294 L22.8342429,10.3558294 L22.8342429,10.3558294 Z" id="path16" fill="#FFFFFF"></path>
                    <path d="M45.6666711,18.6308557 L45.7490201,18.6308557 C46.3245322,19.399808 46.9144669,20.0318714 47.5181264,20.5256492 C48.1208556,21.019427 48.9576045,21.2661994 50.0274426,21.2661994 C50.5764356,21.2661994 51.0905349,21.1844851 51.5704384,21.019427 C52.050342,20.8543689 52.5234994,20.6343689 52.9899107,20.3605911 L51.4264441,17.3555541 C51.0972809,17.5741573 50.7951022,17.7734377 50.5215363,17.9519986 C50.2472724,18.1303266 49.8901945,18.2204218 49.4514654,18.2204218 C48.546325,18.2204218 47.8398456,17.9661996 47.3327251,17.4572895 C46.8246741,16.9495435 46.4480556,16.3265594 46.2012413,15.5848452 C45.9546598,14.8438293 45.8039194,14.0620727 45.7490201,13.2381785 C45.6936556,12.4142844 45.6666711,11.6867712 45.6666711,11.0556389 L45.6666711,1.38029524 L42.3755053,1.38029524 L42.3755053,20.731681 L45.6666711,20.731681 L45.6666711,18.6308557" id="path18" fill="#FFFFFF"></path>
                    <path d="M60.2296382,1.38029524 L56.9382397,1.38029524 L56.9382397,20.731681 L60.2296382,20.731681 L60.2296382,1.38029524 Z M58.584288,30.366284 C59.2144667,30.366284 59.762529,30.13185 60.2296382,29.6655433 C60.6960495,29.1980723 60.9291389,28.6493528 60.9291389,28.0184532 C60.9291389,27.3596173 60.6960495,26.8036808 60.2296382,26.3506439 C59.762529,25.8978395 59.2144667,25.6717867 58.584288,25.6717867 C57.9527135,25.6717867 57.4044184,25.8978395 56.9382397,26.3506439 C56.4715958,26.8036808 56.2385065,27.3596173 56.2385065,28.0184532 C56.2385065,28.6493528 56.4715958,29.1980723 56.9382397,29.6655433 C57.4044184,30.13185 57.9527135,30.366284 58.584288,30.366284 L58.584288,30.366284 Z" id="path20" fill="#FFFFFF"></path>
                    <path d="M69.1200663,18.3850145 L69.20195,18.3850145 C69.8865627,19.3171625 70.6758564,20.0318714 71.5668068,20.5256492 C72.4586876,21.019427 73.5078223,21.2661994 74.7149087,21.2661994 C76.0580804,21.2661994 77.1551357,21.0403794 78.0058419,20.5875752 C78.85492,20.1345381 79.5279015,19.5224958 80.0222279,18.7549403 C80.5156234,17.9862208 80.8508349,17.094581 81.0294902,16.0786229 C81.2074477,15.0628981 81.2970079,13.9929298 81.2970079,12.8670886 L81.2970079,1.38029524 L78.0058419,1.38029524 L78.0058419,12.2915966 C78.0058419,13.0596177 77.9711811,13.8078505 77.9030221,14.5341997 C77.8339328,15.2617129 77.6694676,15.8935436 77.4091613,16.4282949 C77.1483896,16.964443 76.7440889,17.3965277 76.1955613,17.7261784 C75.6463357,18.0553637 74.8926336,18.2204218 73.9335244,18.2204218 C72.8085542,18.2204218 71.9234195,17.9792367 71.2792834,17.4991943 C70.6349146,17.0193848 70.1543131,16.4082737 69.8398053,15.6667922 C69.5236691,14.9260092 69.3259387,14.102115 69.2428919,13.197205 C69.1605429,12.2915966 69.1200663,11.4125278 69.1200663,10.5618611 L69.1200663,1.38029524 L65.8284353,1.38029524 L65.8284353,20.731681 L69.1200663,20.731681 L69.1200663,18.3850145" id="path22" fill="#FFFFFF"></path>
                    <path d="M119.482255,13.155533 C119.372457,13.8420727 119.146113,14.4941574 118.802993,15.1106229 C118.461035,15.7284854 118.042544,16.2706864 117.549149,16.7374589 C117.055288,17.2044642 116.485591,17.567406 115.842153,17.8293107 C115.196156,18.0888875 114.517824,18.2204218 113.805296,18.2204218 C113.091606,18.2204218 112.406295,18.0888875 111.747969,17.8293107 C111.089643,17.567406 110.49366,17.2044642 109.958392,16.7374589 C109.423589,16.2706864 108.977416,15.7284854 108.621268,15.1106229 C108.26419,14.4941574 108.031101,13.8420727 107.921535,13.155533 L119.482255,13.155533 Z M107.757535,10.3558294 C107.757535,9.45161779 107.915254,8.60677126 108.23046,7.82454905 C108.545898,7.04162844 108.977416,6.3618401 109.525943,5.78541683 C110.074238,5.20922637 110.740241,4.74943801 111.521858,4.40675019 C112.303243,4.06243275 113.16116,3.89295126 114.09282,3.89295126 C115.491821,3.89295126 116.664479,4.26846448 117.610096,5.024147 C118.556876,5.77889831 119.34524,6.73293002 119.976116,7.88647497 L122.773654,6.28012581 C121.840831,4.55039041 120.613739,3.21362852 119.091679,2.26495132 C117.569154,1.31836932 115.821217,0.845543935 113.845773,0.845543935 C112.392338,0.845543935 111.082897,1.10651747 109.916984,1.62706773 C108.75177,2.14901481 107.757535,2.85627404 106.934743,3.74884545 C106.111952,4.63955442 105.480378,5.6901999 105.041881,6.89798824 C104.603385,8.10461253 104.383555,9.40924743 104.383555,10.8088664 C104.383555,12.2357236 104.589427,13.5883161 105.000939,14.8638505 C105.412684,16.1405488 106.015645,17.2514906 106.81122,18.1990038 C107.606794,19.1455857 108.586375,19.8935857 109.752519,20.4425381 C110.917966,20.9926546 112.255089,21.2661994 113.764355,21.2661994 C115.327356,21.2661994 116.69821,20.9712365 117.877149,20.3815435 C119.056553,19.7909191 120.038459,18.9877445 120.819379,17.9720197 C121.600996,16.9572261 122.170227,15.7908769 122.527305,14.473205 C122.88322,13.155533 123.020235,11.7826865 122.938119,10.3558294 L107.757535,10.3558294 L107.757535,10.3558294 Z" id="path24" fill="#FFFFFF"></path>
                    <path d="M120.865671,26.3546014 L105.344292,41.8875324 L120.865671,41.8875324 L120.865671,26.3546014 Z M103.107146,43.9850985 L103.107146,24.1157232 L122.961149,24.1157232 L122.961149,43.9850985 L103.107146,43.9850985 L103.107146,43.9850985 Z" id="path26" fill="#FFFFFF"></path>
                    <path d="M89.3388233,1.38029524 L86.0471922,1.38029524 L86.0471922,20.731681 L89.3388233,20.731681 L89.3388233,1.38029524 Z M87.6932403,30.366284 C88.323419,30.366284 88.8719467,30.13185 89.3388233,29.6655433 C89.805002,29.1980723 90.0380913,28.6493528 90.0380913,28.0184532 C90.0380913,27.3596173 89.805002,26.8036808 89.3388233,26.3506439 C88.8719467,25.8978395 88.323419,25.6717867 87.6932403,25.6717867 C87.061666,25.6717867 86.5133709,25.8978395 86.0471922,26.3506439 C85.5810135,26.8036808 85.3479241,27.3596173 85.3479241,28.0184532 C85.3479241,28.6493528 85.5810135,29.1980723 86.0471922,29.6655433 C86.5133709,30.13185 87.061666,30.366284 87.6932403,30.366284 L87.6932403,30.366284 Z" id="path28" fill="#CFCFCF"></path>
                    <polyline id="path30" fill="#CFCFCF" points="99.6647748 1.38029524 96.373609 1.38029524 96.373609 17.685205 94.3581537 17.685205 94.3581537 20.731681 96.373609 20.731681 96.373609 27.6897338 99.6647748 27.6897338 99.6647748 20.731681 103.120173 20.731681 103.120173 17.685205 99.6647748 17.685205 99.6647748 1.38029524"></polyline>
                </g>
            </g>
        </g>
    </g>
</svg>