<svg xmlns="http://www.w3.org/2000/svg" width="56" height="45" viewBox="0 0 56 45">
  <g id="icon14" transform="translate(0 0)">
    <path id="XMLID_429_" d="M22.914,43.8a4.129,4.129,0,0,1-1.152-2.885c0-.03,0-.058,0-.088l-.085,0a3.838,3.838,0,0,1-2.782-1.2,4.13,4.13,0,0,1-1.153-2.885c0-.03,0-.058,0-.088l-.086,0a3.837,3.837,0,0,1-2.782-1.2,4.13,4.13,0,0,1-1.153-2.885,4.262,4.262,0,0,1,.023-.43,3.861,3.861,0,0,1-2.564-1.187,4.133,4.133,0,0,1-1.152-2.885,4.328,4.328,0,0,1,.073-.789L6.949,24.019A2.512,2.512,0,0,1,5.166,23.7l-3.857-2.31A2.681,2.681,0,0,1,.09,19.747,2.785,2.785,0,0,1,.351,17.69L8.111,3.75A2.611,2.611,0,0,1,9.7,2.488a2.513,2.513,0,0,1,1.984.271L15.54,5.068a2.691,2.691,0,0,1,1.221,1.669h3.4a12.484,12.484,0,0,1,3,.368l1.121-1.162A5.61,5.61,0,0,1,28.343,4.2H39.278A2.687,2.687,0,0,1,40.46,2.672L44.318.363a2.566,2.566,0,0,1,3.571.993l1.38,2.478a1.159,1.159,0,0,1-.4,1.55,1.073,1.073,0,0,1-1.494-.416l-1.38-2.478a.42.42,0,0,0-.583-.162L41.554,4.637a.452.452,0,0,0-.156.6l7.76,13.939a.419.419,0,0,0,.583.162L53.6,17.033a.44.44,0,0,0,.2-.269.453.453,0,0,0-.043-.336L52.3,13.809a1.159,1.159,0,0,1,.4-1.55,1.072,1.072,0,0,1,1.494.415l1.459,2.621a2.778,2.778,0,0,1,.261,2.057A2.685,2.685,0,0,1,54.691,19l-3.857,2.309a2.525,2.525,0,0,1-1.3.363,2.586,2.586,0,0,1-.312-.02L44.56,26.483l2.552,2.648a4.192,4.192,0,0,1,0,5.771,3.832,3.832,0,0,1-4.023.988,4.1,4.1,0,0,1-1.072,2.061,3.831,3.831,0,0,1-4.929.535,4.092,4.092,0,0,1-.976,1.674,3.835,3.835,0,0,1-5.117.4,4.092,4.092,0,0,1-.96,1.632L28.479,43.8a3.836,3.836,0,0,1-5.565,0Z" fill="#40b5f0"/>
    <path id="XMLID_436_" d="M.5,1A.5.5,0,0,0,1,.5.5.5,0,0,0,.5,0,.5.5,0,0,0,.147.854.5.5,0,0,0,.5,1Z" transform="translate(51 9)" fill="#40b5f0"/>
  </g>
</svg>
