<svg xmlns="http://www.w3.org/2000/svg" width="56" height="56" viewBox="0 0 56 56">
  <g id="icon13" transform="translate(0 0)">
    <g id="Group_1" data-name="Group 1">
      <path id="Shape" d="M26.263,56a3.725,3.725,0,0,1-3.717-3.733V47.081a3.722,3.722,0,0,1-1.858-3.214v-2.66l-1.444,1.454a.926.926,0,0,1-1.184.108L15.494,41l-.642,3.068a.931.931,0,0,1-.91.741H10.225a.931.931,0,0,1-.909-.747l-.642-3.067L6.107,42.768a.926.926,0,0,1-1.184-.108l-2.787-2.8a.935.935,0,0,1-.108-1.189l1.765-2.579L.738,35.447A.933.933,0,0,1,0,34.533V30.8a.933.933,0,0,1,.731-.913l3.054-.644L2.02,26.663a.935.935,0,0,1,.107-1.189l2.788-2.8A.925.925,0,0,1,6.1,22.566l2.572,1.781.642-3.066a.931.931,0,0,1,.909-.747H10.5c.013-.262.023-.525.047-.788a17.7,17.7,0,0,1,15.567-15.9,17.884,17.884,0,0,1,3.8,0l2.792-2.105a.927.927,0,0,1,1.3.187L36.2,4.86a.928.928,0,0,0,1.663-.428L38.379.8A.93.93,0,0,1,39.431.01L44.947.8h0a.933.933,0,0,1,.788,1.057l-.517,3.631a.936.936,0,0,0,.18.7.926.926,0,0,0,1.3.179l2.921-2.2a.927.927,0,0,1,1.3.186l3.344,4.48a.936.936,0,0,1-.185,1.307l-2.921,2.2a.934.934,0,0,0,.427,1.67l3.614.518,0,0a.933.933,0,0,1,.788,1.057L55.2,21.131a.929.929,0,0,1-1.052.791L50.536,21.4a.9.9,0,0,0-.929.447.92.92,0,0,0,.056,1.036l2.19,2.934a.936.936,0,0,1-.185,1.307l-4.46,3.36a.927.927,0,0,1-1.3-.186l-2.191-2.934a.928.928,0,0,0-1.663.428l-.516,3.631a.93.93,0,0,1-.921.8,1.062,1.062,0,0,1-.131-.008l-5.52-.793a.932.932,0,0,1-.787-1.057l.516-3.631a.931.931,0,0,0-1.477-.878l-2.921,2.2a.926.926,0,0,1-1.3-.187L25.648,23.4a.936.936,0,0,1,.185-1.307l2.92-2.2a.934.934,0,0,0-.427-1.67L24.713,17.7h0a.932.932,0,0,1-.788-1.056l.788-5.543h0a.931.931,0,0,1,1.052-.792l3.614.519a.934.934,0,0,0,.874-1.485L28.063,6.408a.942.942,0,0,1-.177-.692,1.051,1.051,0,0,1,.036-.1A15.827,15.827,0,0,0,19.6,34.827,6.285,6.285,0,0,1,22.546,40.1v3.772A1.863,1.863,0,0,0,24.4,45.734h7.434A1.863,1.863,0,0,0,33.7,43.867V40.172a6.435,6.435,0,0,1,3-5.377,15.829,15.829,0,0,0,1.958-1.5l1.239,1.39a17.723,17.723,0,0,1-2.187,1.68,4.577,4.577,0,0,0-2.149,3.81v3.694A3.725,3.725,0,0,1,33.7,47.081v5.186A3.725,3.725,0,0,1,29.98,56Z" fill="#40b5f0"/>
      <path id="Shape-2" data-name="Shape" d="M0,7.5A7.5,7.5,0,1,1,7.5,15,7.5,7.5,0,0,1,0,7.5Z" transform="translate(31 10)" fill="#40b5f0"/>
    </g>
    <rect id="Rectangle" width="3" height="4" transform="translate(27 40)" fill="#40b5f0"/>
    <path id="Path" d="M9.629,20.9C3.459,18.712.412,12.394,2.822,6.791A11.2,11.2,0,0,1,7.6,1.536L6.536,0C0,3.741-1.964,11.588,2.155,17.526A13.776,13.776,0,0,0,8.9,22.59,5.839,5.839,0,0,1,13,28h2A7.652,7.652,0,0,0,9.629,20.9Z" transform="translate(14 11)" fill="#40b5f0"/>
    <rect id="Rectangle-2" data-name="Rectangle" width="6" height="3" transform="translate(46 34)" fill="#40b5f0"/>
    <rect id="Rectangle-3" data-name="Rectangle" width="1.855" height="7.244" transform="translate(44.173 40.835) rotate(-50.201)" fill="#40b5f0"/>
    <rect id="Rectangle-4" data-name="Rectangle" width="3" height="6" transform="translate(40 43)" fill="#40b5f0"/>
    <rect id="Rectangle-5" data-name="Rectangle" width="7.648" height="1.854" transform="matrix(0.97, -0.243, 0.243, 0.97, 0.947, 16.034)" fill="#40b5f0"/>
    <rect id="Rectangle-6" data-name="Rectangle" width="1.854" height="7.978" transform="matrix(0.581, -0.814, 0.814, 0.581, 2.488, 6.559)" fill="#40b5f0"/>
    <rect id="Rectangle-7" data-name="Rectangle" width="1.855" height="7.658" transform="translate(10.435 0.467) rotate(-14.342)" fill="#40b5f0"/>
  </g>
</svg>
