<svg xmlns="http://www.w3.org/2000/svg" width="56" height="55" viewBox="0 0 56 55">
  <g id="icon15" transform="translate(0 0)">
    <path id="Shape" d="M44.268,47.73l-4-4.028-1.3,1.305a.914.914,0,0,1-1.542-.446l-.028-.123-9.589,3.507h-.02a.854.854,0,0,1-.587,0h-.02L7.02,40.559a.923.923,0,0,1-.6-.868V24.885L.64,23.034a.927.927,0,0,1-.413-1.489l5.889-6.776L.227,7.993a.926.926,0,0,1-.193-.856A.917.917,0,0,1,.64,6.505L20.806.043a.914.914,0,0,1,.968.272L27.5,6.906,33.226.315a.915.915,0,0,1,.968-.272L54.361,6.505a.926.926,0,0,1,.412,1.488l-5.888,6.776,5.885,6.776a.926.926,0,0,1-.412,1.489l-5.775,1.851V39.692a.921.921,0,0,1-.6.868l-2.24.818,2.416,2.435a.929.929,0,0,1,0,1.306L45.565,47.73a.914.914,0,0,1-1.3,0Z" transform="translate(0 7)" fill="#40b5f0"/>
    <path id="Path" d="M.875,5A.852.852,0,0,0,1.6,4.555l.451-.774A3.4,3.4,0,0,1,4.967,2H6.125A.944.944,0,0,0,7,1a.944.944,0,0,0-.875-1H4.967A5.1,5.1,0,0,0,.6,2.672l-.451.773A1.123,1.123,0,0,0,.1,4.472.867.867,0,0,0,.875,5Z" transform="translate(31)" fill="#40b5f0"/>
    <path id="Path-2" data-name="Path" d="M.686,1.7,2.215,2A2.58,2.58,0,0,1,4.286,4.525v.618A.857.857,0,0,0,6,5.143V4.525A4.3,4.3,0,0,0,2.554.325L1.029.017A.857.857,0,1,0,.686,1.7Z" transform="translate(18)" fill="#40b5f0"/>
    <path id="Shape-2" data-name="Shape" d="M5.6,9.9a2.794,2.794,0,0,1-1.76-1.482,2.989,2.989,0,0,1-.111-2.353L3.892,5.6A2.752,2.752,0,0,0,1.676,6.877v0a.9.9,0,0,1-1.265.244A.985.985,0,0,1,.14,5.815,4.577,4.577,0,0,1,3.826,3.677L4,3.67a.855.855,0,0,1,.2.016l.323.064A5.587,5.587,0,0,1,8.944.01.93.93,0,0,1,9.99.824a.956.956,0,0,1-.781,1.089,3.7,3.7,0,0,0-2.83,2.194l.473.1a2.772,2.772,0,0,1,1.832,1.3A2.986,2.986,0,0,1,9.011,7.79,2.911,2.911,0,0,1,7.7,9.616,2.674,2.674,0,0,1,6.322,10h-.01A2.69,2.69,0,0,1,5.6,9.9Z" transform="translate(42)" fill="#40b5f0"/>
    <path id="Shape-3" data-name="Shape" d="M1.007,7.863A3.046,3.046,0,0,1,1.316,5.5,2.768,2.768,0,0,1,3.14,4.211l.472-.1A3.7,3.7,0,0,0,.79,1.915.956.956,0,0,1,.01.825.928.928,0,0,1,1.053.01a5.57,5.57,0,0,1,4.4,3.739l.322-.064a.859.859,0,0,1,.2-.016l.177.007A4.559,4.559,0,0,1,9.831,5.811a1,1,0,0,1,.077.974.919.919,0,0,1-.778.541.91.91,0,0,1-.83-.45A2.74,2.74,0,0,0,6.1,5.6H6.09l.171.5a3,3,0,0,1-.123,2.337A2.789,2.789,0,0,1,4.395,9.9a2.7,2.7,0,0,1-.728.1A2.785,2.785,0,0,1,1.007,7.863Z" fill="#40b5f0"/>
    <ellipse id="Oval" cx="1" cy="0.5" rx="1" ry="0.5" transform="translate(27 42)" fill="#40b5f0"/>
    <ellipse id="Oval-2" data-name="Oval" cx="1" cy="0.5" rx="1" ry="0.5" transform="translate(27 25)" fill="#40b5f0"/>
    <ellipse id="Oval-3" data-name="Oval" cx="1" cy="0.5" rx="1" ry="0.5" transform="translate(28 6)" fill="#40b5f0"/>
    <ellipse id="Oval-4" data-name="Oval" cx="1" cy="0.5" rx="1" ry="0.5" transform="translate(39)" fill="#40b5f0"/>
    <ellipse id="Oval-5" data-name="Oval" cx="1" cy="0.5" rx="1" ry="0.5" transform="translate(54)" fill="#40b5f0"/>
    <ellipse id="Oval-6" data-name="Oval" cx="1" cy="0.5" rx="1" ry="0.5" transform="translate(16)" fill="#40b5f0"/>
    <ellipse id="Oval-7" data-name="Oval" cx="1" cy="0.5" rx="1" ry="0.5" transform="translate(10 7)" fill="#40b5f0"/>
  </g>
</svg>
