<svg xmlns="http://www.w3.org/2000/svg" width="46" height="46" viewBox="0 0 46 46">
  <g id="icon16" transform="translate(0)">
    <path id="Shape" d="M0,7a7,7,0,1,1,7,7A7.008,7.008,0,0,1,0,7Z" transform="translate(16 7)" fill="#40b5f0" stroke="#59b5ed" stroke-miterlimit="10" stroke-width="0.5"/>
    <path id="Shape-2" data-name="Shape" d="M45.106,45.961l-11.369-3.81-10.507,3.8a.684.684,0,0,1-.46,0l-10.507-3.8L.894,45.961a.68.68,0,0,1-.842-.889l1.433-3.617a.675.675,0,0,1,1.256.5l-.9,2.268,9.831-3.294,1.84-11.044L6.55,32.332,3.732,39.446a.675.675,0,0,1-1.256-.5l2.931-7.4a.676.676,0,0,1,.4-.389l8.33-2.93a.7.7,0,0,1,.4-.015l1.264.339c-3.268-3.965-6.482-9.281-6.482-14.846A13.618,13.618,0,0,1,12.01,5.546a.675.675,0,0,1,1.085.8,12.277,12.277,0,0,0-2.422,7.358c0,3.832,1.655,8,4.918,12.392.864,1.163,1.761,2.234,2.632,3.193a.659.659,0,0,1,.053.059,48.416,48.416,0,0,0,4.373,4.237.541.541,0,0,0,.7,0,48.3,48.3,0,0,0,4.373-4.237c.017-.021.034-.04.053-.059.87-.959,1.768-2.03,2.632-3.193,3.263-4.391,4.918-8.56,4.918-12.392A12.32,12.32,0,0,0,14.815,4.468a.675.675,0,0,1-.9-1.009,13.671,13.671,0,0,1,22.76,10.248c0,5.566-3.214,10.881-6.481,14.846l1.263-.339a.68.68,0,0,1,.4.015l8.33,2.93a.677.677,0,0,1,.4.389l5.357,13.523a.687.687,0,0,1-.629.928A.606.606,0,0,1,45.106,45.961Z" fill="#40b5f0"/>
  </g>
</svg>
