<svg xmlns="http://www.w3.org/2000/svg" width="99.901" height="88.181" viewBox="0 0 99.901 88.181">
  <g id="quote2" transform="translate(0 -0.02)" opacity="0.132">
    <path id="Path" d="M37.791,0H6.643A5.125,5.125,0,0,0,1.52,5.123V36.27a5.125,5.125,0,0,0,5.123,5.123H21.551q-.292,12.234-5.676,19.59-4.242,5.809-12.838,9.611A5.116,5.116,0,0,0,.5,77.469l3.689,7.787a5.122,5.122,0,0,0,6.67,2.5A56.957,56.957,0,0,0,28.036,76.609,43.253,43.253,0,0,0,39.748,57.971q3.166-10.389,3.166-28.361V5.123A5.125,5.125,0,0,0,37.791,0Z" transform="translate(56.988 0.02)" fill="#6683ec"/>
    <path id="Path-2" data-name="Path" d="M10.864,87.736a57.917,57.917,0,0,0,17.1-11.127A43.023,43.023,0,0,0,39.748,58.043q3.166-10.312,3.166-28.432V5.123A5.125,5.125,0,0,0,37.791,0H6.643A5.125,5.125,0,0,0,1.52,5.123V36.27a5.125,5.125,0,0,0,5.123,5.123H21.551q-.292,12.234-5.676,19.59-4.242,5.809-12.838,9.611A5.116,5.116,0,0,0,.5,77.469l3.678,7.766A5.137,5.137,0,0,0,10.864,87.736Z" transform="translate(0 0.02)" fill="#6683ec"/>
  </g>
</svg>
