<?xml version="1.0" encoding="UTF-8"?>
<svg width="205px" height="678px" viewBox="0 0 205 678" version="1.1" xmlns="http://www.w3.org/2000/svg" xmlns:xlink="http://www.w3.org/1999/xlink">
    <title>Shape</title>
    <g id="Page-1" stroke="none" stroke-width="1" fill="none" fill-rule="evenodd" fill-opacity="0.51">
        <g id="Industries/Banking" transform="translate(0.000000, -2806.000000)" fill="#142270" fill-rule="nonzero">
            <g id="Group" transform="translate(0.000000, 1683.000000)">
                <path d="M21.5701079,1443.59905 L21.4901079,1380.19905 C23.2478912,1379.96221 24.5212404,1378.40342 24.4025545,1376.63372 C24.2838686,1374.86403 22.8137751,1373.48923 21.0401079,1373.48923 C19.2664407,1373.48923 17.7963472,1374.86403 17.6776613,1376.63372 C17.5589753,1378.40342 18.8323245,1379.96221 20.5901079,1380.19905 L20.6601079,1443.19905 L1.76010788,1462.02905 L1.76010788,1461.02905 C3.5123232,1460.79225 4.78120189,1459.23797 4.66253177,1457.47381 C4.54386166,1455.70965 3.07825244,1454.33932 1.31010788,1454.33932 C-0.458036671,1454.33932 -1.92364589,1455.70965 -2.042316,1457.47381 C-2.16098612,1459.23797 -0.892107435,1460.79225 0.860107885,1461.02905 L0.860107885,1462.96905 L-19.2298921,1482.96905 L-19.3698921,1483.09905 L-19.3698921,1510.09905 L-16.0098921,1513.42905 L-17.9298921,1515.33905 L-37.1398921,1515.33905 L-37.1398921,1562.95905 C-37.1398921,1563.20758 -36.9384203,1563.40905 -36.6898921,1563.40905 C-36.441364,1563.40905 -36.2398921,1563.20758 -36.2398921,1562.95905 L-36.2398921,1516.19905 L-17.5598921,1516.19905 L-15.3698921,1514.01905 L-6.03989212,1523.22905 L-6.03989212,1562.91905 C-6.03989212,1563.16758 -5.83842025,1563.36905 -5.58989212,1563.36905 C-5.34136398,1563.36905 -5.13989212,1563.16758 -5.13989212,1562.91905 L-5.13989212,1523.04905 L-5.13989212,1522.85905 L-14.7198921,1513.38905 L1.77010788,1497.04905 L1.77010788,1463.31905 L21.4301079,1443.76905 L21.5701079,1443.59905 Z M0.860107885,1496.66905 L-15.3698921,1512.76905 L-18.4698921,1509.70905 L-18.4698921,1483.46905 L0.860107885,1464.21905 L0.860107885,1496.66905 Z M146.450108,1481.31905 C148.196755,1481.08228 149.461163,1479.53252 149.342509,1477.7739 C149.223855,1476.01528 147.76273,1474.64941 146.000108,1474.64941 C144.237486,1474.64941 142.776361,1476.01528 142.657707,1477.7739 C142.539053,1479.53252 143.803461,1481.08228 145.550108,1481.31905 L145.550108,1506.47905 L164.550108,1525.33905 L164.550108,1562.91905 C164.550108,1563.16758 164.75158,1563.36905 165.000108,1563.36905 C165.248636,1563.36905 165.450108,1563.16758 165.450108,1562.91905 L165.450108,1524.96905 L146.450108,1506.10905 L146.450108,1481.31905 Z M96.6601079,1478.17905 L115.660108,1459.34905 L115.660108,1423.89905 C117.440161,1423.66207 118.731392,1422.08521 118.612644,1420.29338 C118.493896,1418.50155 117.005866,1417.10887 115.210108,1417.10887 C113.41435,1417.10887 111.92632,1418.50155 111.807572,1420.29338 C111.688823,1422.08521 112.980055,1423.66207 114.760108,1423.89905 L114.760108,1458.95905 L95.7601079,1477.76905 L95.7601079,1515.86905 L133.760108,1553.65905 L133.760108,1562.87905 C133.760108,1563.12758 133.96158,1563.32905 134.210108,1563.32905 C134.458636,1563.32905 134.660108,1563.12758 134.660108,1562.87905 L134.660108,1553.28905 L96.6601079,1515.49905 L96.6601079,1478.17905 Z M62.4601079,1433.61905 C64.2123232,1433.38225 65.4812019,1431.82797 65.3625318,1430.06381 C65.2438617,1428.29965 63.7782524,1426.92932 62.0101079,1426.92932 C60.2419633,1426.92932 58.7763541,1428.29965 58.657684,1430.06381 C58.5390139,1431.82797 59.8078926,1433.38225 61.5601079,1433.61905 L61.5101079,1477.94905 L61.5101079,1478.13905 L89.9601079,1506.49905 L89.9601079,1525.01905 L80.4901079,1534.38905 L80.4901079,1562.91905 C80.4901079,1563.16758 80.6915797,1563.36905 80.9401079,1563.36905 L80.9401079,1563.36905 C81.188636,1563.36905 81.3901079,1563.16758 81.3901079,1562.91905 L81.3901079,1534.75905 L90.8601079,1525.39905 L90.8601079,1506.11905 L62.4101079,1477.76905 L62.4601079,1433.61905 Z M20.7101079,1481.31905 C22.4623232,1481.08225 23.7312019,1479.52797 23.6125318,1477.76381 C23.4938617,1475.99965 22.0282524,1474.62932 20.2601079,1474.62932 C18.4919633,1474.62932 17.0263541,1475.99965 16.907684,1477.76381 C16.7890139,1479.52797 18.0578926,1481.08225 19.8101079,1481.31905 L19.8101079,1506.48905 L29.3201079,1515.92905 L29.3201079,1562.92905 C29.3201078,1563.08982 29.4058773,1563.23838 29.5451078,1563.31876 C29.6843383,1563.39915 29.8558774,1563.39915 29.9951079,1563.31876 C30.1343384,1563.23838 30.2201079,1563.08982 30.2201079,1562.92905 L30.2201079,1515.53905 L20.7101079,1506.10905 L20.7101079,1481.31905 Z M153.710108,1477.80905 L153.710108,1424.35905 C155.467891,1424.12221 156.74124,1422.56342 156.622555,1420.79372 C156.503869,1419.02403 155.033775,1417.64923 153.260108,1417.64923 C151.486441,1417.64923 150.016347,1419.02403 149.897661,1420.79372 C149.778975,1422.56342 151.052325,1424.12221 152.810108,1424.35905 L152.810108,1478.18905 L181.270108,1506.50905 L181.270108,1562.91905 C181.270108,1563.16758 181.47158,1563.36905 181.720108,1563.36905 C181.968636,1563.36905 182.170108,1563.16758 182.170108,1562.91905 L182.170108,1506.13905 L153.710108,1477.80905 Z M213.960108,1454.53905 C215.712323,1454.30225 216.981202,1452.74797 216.862532,1450.98381 C216.743862,1449.21965 215.278252,1447.84932 213.510108,1447.84932 C211.741963,1447.84932 210.276354,1449.21965 210.157684,1450.98381 C210.039014,1452.74797 211.307893,1454.30225 213.060108,1454.53905 L213.110108,1490.84905 L194.220108,1509.59905 L194.220108,1562.90905 C194.220108,1563.15758 194.42158,1563.35905 194.670108,1563.35905 C194.918636,1563.35905 195.120108,1563.15758 195.120108,1562.90905 L195.120108,1509.97905 L214.020108,1491.22905 L213.960108,1454.53905 Z M302.020108,1406.53905 C303.772323,1406.30225 305.041202,1404.74797 304.922532,1402.98381 C304.803862,1401.21965 303.338252,1399.84932 301.570108,1399.84932 C299.801963,1399.84932 298.336354,1401.21965 298.217684,1402.98381 C298.099014,1404.74797 299.367893,1406.30225 301.120108,1406.53905 L301.120108,1456.56905 L274.420108,1483.09905 L274.420108,1522.63905 L221.420108,1522.63905 L220.970108,1522.63905 L220.970108,1562.86905 C220.970108,1563.11758 221.17158,1563.31905 221.420108,1563.31905 C221.668636,1563.31905 221.870108,1563.11758 221.870108,1562.86905 L221.870108,1523.57905 L274.870108,1523.57905 L275.320108,1523.57905 L275.320108,1483.47905 L302.020108,1456.93905 L302.020108,1406.53905 Z M342.160108,1483.76905 L342.080108,1420.02905 C343.821186,1419.79232 345.081124,1418.24708 344.962486,1416.49399 C344.843848,1414.7409 343.387207,1413.3795 341.630108,1413.3795 C339.873009,1413.3795 338.416368,1414.7409 338.29773,1416.49399 C338.179092,1418.24708 339.439029,1419.79232 341.180108,1420.02905 L341.260108,1482.87905 L301.140108,1482.87905 L301.140108,1510.09905 L314.460108,1523.26905 L314.460108,1562.95905 C314.460108,1563.20758 314.66158,1563.40905 314.910108,1563.40905 C315.158636,1563.40905 315.360108,1563.20758 315.360108,1562.95905 L315.360108,1522.89905 L302.040108,1509.72905 L302.040108,1483.76905 L342.160108,1483.76905 Z M368.790108,1366.68905 C370.541003,1366.44975 371.80729,1364.89507 371.687361,1363.13197 C371.567433,1361.36888 370.102281,1360 368.335108,1360 C366.567935,1360 365.102783,1361.36888 364.982854,1363.13197 C364.862925,1364.89507 366.129213,1366.44975 367.880108,1366.68905 L367.880108,1403.88905 L394.670108,1430.38905 L394.670108,1469.76905 L367.900108,1496.35905 L367.900108,1562.92905 C367.900108,1563.17758 368.10158,1563.37905 368.350108,1563.37905 C368.598636,1563.37905 368.800108,1563.17758 368.800108,1562.92905 L368.800108,1496.76905 L395.570108,1470.16905 L395.570108,1429.99905 L368.790108,1403.48905 L368.790108,1366.68905 Z M134.170108,1478.68905 L134.310108,1478.55905 L134.310108,1428.84905 C136.056755,1428.61228 137.321163,1427.06252 137.202509,1425.3039 C137.083855,1423.54528 135.62273,1422.17941 133.860108,1422.17941 C132.097486,1422.17941 130.636361,1423.54528 130.517707,1425.3039 C130.399053,1427.06252 131.663461,1428.61228 133.410108,1428.84905 L133.410108,1478.16905 L113.560108,1497.00905 L140.880108,1497.00905 L140.880108,1562.91905 C140.880108,1563.16758 141.08158,1563.36905 141.330108,1563.36905 C141.578636,1563.36905 141.780108,1563.16758 141.780108,1562.91905 L141.780108,1496.10905 L115.780108,1496.10905 L134.170108,1478.68905 Z M250.650108,1476.17905 L250.650108,1399.41905 C252.396755,1399.18228 253.661163,1397.63252 253.542509,1395.8739 C253.423855,1394.11528 251.96273,1392.74941 250.200108,1392.74941 C248.437486,1392.74941 246.976361,1394.11528 246.857707,1395.8739 C246.739053,1397.63252 248.003461,1399.18228 249.750108,1399.41905 L249.750108,1475.76905 L209.850108,1515.47905 L209.720108,1515.60905 L209.720108,1562.87905 C209.720108,1563.12758 209.92158,1563.32905 210.170108,1563.32905 C210.418636,1563.32905 210.620108,1563.12758 210.620108,1562.87905 L210.620108,1515.97905 L250.520108,1476.26905 L250.650108,1476.17905 Z M-71.8798921,1367.56905 C-70.1388136,1367.33232 -68.8788759,1365.78708 -68.9975141,1364.03399 C-69.1161523,1362.2809 -70.5727929,1360.9195 -72.3298921,1360.9195 C-74.0869913,1360.9195 -75.5436319,1362.2809 -75.6622701,1364.03399 C-75.7809083,1365.78708 -74.5209706,1367.33232 -72.7798921,1367.56905 L-72.7798921,1417.15905 L-46.0398921,1443.64905 L-46.0398921,1496.34905 L-50.7798921,1501.05905 L-74.1698921,1477.76905 L-74.1698921,1424.35905 C-72.406541,1424.12218 -71.1287212,1422.55886 -71.2474229,1420.78364 C-71.3661246,1419.00841 -72.8407022,1417.62914 -74.6198921,1417.62914 C-76.399082,1417.62914 -77.8736597,1419.00841 -77.9923613,1420.78364 C-78.111063,1422.55886 -76.8332432,1424.12218 -75.0698921,1424.35905 L-75.0698921,1478.18905 L-51.4498921,1501.69905 L-74.4998921,1524.63905 L-93.2098921,1506.10905 L-93.2098921,1480.96905 C-91.4632451,1480.73228 -90.1988369,1479.18252 -90.3174911,1477.4239 C-90.4361453,1475.66528 -91.8972702,1474.29941 -93.6598921,1474.29941 C-95.422514,1474.29941 -96.8836389,1475.66528 -97.0022931,1477.4239 C-97.1209473,1479.18252 -95.8565391,1480.73228 -94.1098921,1480.96905 L-94.1098921,1506.47905 L-75.1098921,1525.27905 L-93.1798921,1543.27905 L-93.1798921,1534.20905 L-125.329892,1534.20905 L-125.329892,1509.97905 L-98.5498921,1483.44905 L-98.6298921,1446.76905 C-96.8943825,1446.53235 -95.6389152,1444.99163 -95.7575373,1443.24408 C-95.8761594,1441.49652 -97.3283156,1440.1396 -99.0798921,1440.1396 C-100.831469,1440.1396 -102.283625,1441.49652 -102.402247,1443.24408 C-102.520869,1444.99163 -101.265402,1446.53235 -99.5298921,1446.76905 L-99.4798921,1483.09905 L-126.269892,1509.62905 L-126.269892,1534.17905 L-131.179892,1534.17905 L-131.179892,1506.17905 L-150.179892,1487.31905 L-150.179892,1468.33905 L-125.499892,1443.76905 L-125.359892,1443.62905 L-125.359892,1366.76905 C-123.614567,1366.52978 -122.352749,1364.97963 -122.472662,1363.22206 C-122.592574,1361.4645 -124.053242,1360.10009 -125.814892,1360.10009 C-127.576542,1360.10009 -129.03721,1361.4645 -129.157122,1363.22206 C-129.277035,1364.97963 -128.015218,1366.52978 -126.269892,1366.76905 L-126.269892,1443.31905 L-150.169892,1467.06905 L-150.169892,1453.01905 C-148.412109,1452.78221 -147.13876,1451.22342 -147.257445,1449.45372 C-147.376131,1447.68403 -148.846225,1446.30923 -150.619892,1446.30923 C-152.393559,1446.30923 -153.863653,1447.68403 -153.982339,1449.45372 C-154.101025,1451.22342 -152.827675,1452.78221 -151.069892,1453.01905 L-151.069892,1467.96905 L-166.299892,1483.11905 L-166.299892,1562.91905 C-166.299892,1563.0384 -166.252482,1563.15286 -166.16809,1563.23725 C-166.083699,1563.32164 -165.96924,1563.36905 -165.849892,1563.36905 C-165.601364,1563.36905 -165.399892,1563.16758 -165.399892,1562.91905 L-165.399892,1483.49905 L-151.039892,1469.22905 L-151.039892,1487.63905 L-132.039892,1506.49905 L-132.039892,1535.05905 L-126.229892,1535.05905 L-126.229892,1562.91905 C-126.196377,1563.1445 -126.00282,1563.31141 -125.774892,1563.31141 C-125.546964,1563.31141 -125.353407,1563.1445 -125.319892,1562.91905 L-125.319892,1535.05905 L-94.0698921,1535.05905 L-94.0698921,1544.12905 L-99.3098921,1549.33905 L-99.4398921,1549.46905 L-99.4398921,1562.88905 C-99.4398921,1563.13758 -99.2384203,1563.33905 -98.9898921,1563.33905 C-98.741364,1563.33905 -98.5398921,1563.13758 -98.5398921,1562.88905 L-98.5398921,1549.88905 L-94.0698921,1545.43905 L-94.0698921,1562.92905 C-94.0698921,1563.17758 -93.8684203,1563.37905 -93.6198921,1563.37905 C-93.371364,1563.37905 -93.1698921,1563.17758 -93.1698921,1562.92905 L-93.1698921,1544.52905 L-75.0398921,1526.47905 L-75.0398921,1562.91905 C-75.0398921,1563.16758 -74.8384203,1563.36905 -74.5898921,1563.36905 C-74.341364,1563.36905 -74.1398921,1563.16758 -74.1398921,1562.91905 L-74.1398921,1525.57905 L-50.7798921,1502.32905 L-46.5798921,1506.50905 L-46.5798921,1562.91905 C-46.5798921,1563.16758 -46.3784203,1563.36905 -46.1298921,1563.36905 C-45.881364,1563.36905 -45.6798921,1563.16758 -45.6798921,1562.91905 L-45.6798921,1506.31905 L-45.6798921,1506.13905 L-50.1298921,1501.69905 L-45.2598921,1496.84905 L-45.1298921,1496.71905 L-45.1298921,1443.26905 L-71.8798921,1416.76905 L-71.8798921,1367.56905 Z M-205.719892,1469.56905 L-216.649892,1469.56905 L-216.649892,1468.76905 L-197.649892,1449.92905 L-197.649892,1424.72905 C-195.903245,1424.49228 -194.638837,1422.94252 -194.757491,1421.1839 C-194.876145,1419.42528 -196.33727,1418.05941 -198.099892,1418.05941 C-199.862514,1418.05941 -201.323639,1419.42528 -201.442293,1421.1839 C-201.560947,1422.94252 -200.296539,1424.49228 -198.549892,1424.72905 L-198.549892,1449.54905 L-217.549892,1468.38905 L-217.549892,1469.57905 L-232.179892,1469.57905 L-232.179892,1420.00905 C-230.422109,1419.77221 -229.14876,1418.21342 -229.267445,1416.44372 C-229.386131,1414.67403 -230.856225,1413.29923 -232.629892,1413.29923 C-234.403559,1413.29923 -235.873653,1414.67403 -235.992339,1416.44372 C-236.111025,1418.21342 -234.837675,1419.77221 -233.079892,1420.00905 L-233.079892,1470.42905 L-217.549892,1470.42905 L-217.549892,1496.97905 L-198.549892,1515.88905 L-198.549892,1562.88905 C-198.516377,1563.1145 -198.32282,1563.28141 -198.094892,1563.28141 C-197.866964,1563.28141 -197.673407,1563.1145 -197.639892,1562.88905 L-197.639892,1515.53905 L-216.639892,1496.63905 L-216.639892,1470.45905 L-206.039892,1470.45905 L-179.629892,1496.76905 L-179.629892,1562.93905 C-179.629892,1563.18758 -179.42842,1563.38905 -179.179892,1563.38905 C-178.931364,1563.38905 -178.729892,1563.18758 -178.729892,1562.93905 L-178.729892,1496.37905 L-205.589892,1469.69905 L-205.719892,1469.56905 Z M54.3601079,1439.70887 C52.5955089,1439.69073 51.1211384,1441.0483 50.9940925,1442.80841 C50.8670466,1444.56853 52.1311692,1446.12377 53.8801079,1446.35905 L53.8801079,1483.07905 L40.5101079,1496.34905 L40.5101079,1562.91905 C40.5101079,1563.16758 40.7115797,1563.36905 40.9601079,1563.36905 C41.208636,1563.36905 41.4101079,1563.16758 41.4101079,1562.91905 L41.4101079,1496.76905 L54.7801079,1483.49905 L54.7801079,1446.39905 C56.5173213,1446.16503 57.778047,1444.62784 57.6675574,1442.87842 C57.5570677,1441.129 56.1129605,1439.76265 54.3601079,1439.74905 L54.3601079,1439.70887 Z M361.710108,1446.35905 C359.929104,1446.33856 358.446004,1447.7207 358.339223,1449.49861 C358.232442,1451.27652 359.539552,1452.82542 361.310108,1453.01905 L361.260108,1497.01905 L352.140108,1506.09905 L352.140108,1524.99905 L342.670108,1534.36905 L342.670108,1562.89905 C342.670108,1563.14758 342.87158,1563.34905 343.120108,1563.34905 C343.368636,1563.34905 343.570108,1563.14758 343.570108,1562.89905 L343.570108,1534.73905 L353.040108,1525.37905 L353.040108,1506.47905 L362.160108,1497.39905 L362.160108,1452.98905 C363.913908,1452.75434 365.180333,1451.1926 365.047667,1449.42814 C364.915001,1447.66369 363.429286,1446.30887 361.660108,1446.33856 L361.710108,1446.35905 Z M437.960108,1455.22826 C436.171548,1455.19037 434.670106,1456.56781 434.554841,1458.35307 C434.439577,1460.13833 435.751424,1461.69741 437.530108,1461.88905 L437.530108,1496.40905 L418.800108,1496.40905 L399.530108,1515.53905 L399.530108,1562.89905 C399.530108,1563.14758 399.73158,1563.34905 399.980108,1563.34905 C400.228636,1563.34905 400.430108,1563.14758 400.430108,1562.89905 L400.430108,1515.89905 L419.170108,1497.29905 L438.430108,1497.29905 L438.430108,1461.87905 C440.176818,1461.64369 441.440039,1460.0916 441.315781,1458.33349 C441.191524,1456.57538 439.722558,1455.21639 437.960108,1455.22826 L437.960108,1455.22826 Z" id="Shape" transform="translate(102.662105, 1461.704525) scale(-1, 1) rotate(-90.000000) translate(-102.662105, -1461.704525) "></path>
            </g>
        </g>
    </g>
</svg>