<svg xmlns="http://www.w3.org/2000/svg" width="360.001" height="360" viewBox="0 0 360.001 360">
  <path id="shape" d="M355,360a6.856,6.856,0,0,1,5-5v3a3.052,3.052,0,0,0-2,2Zm-14,0V306H284V227h19V192H284V178c-2.978-.608-4.306-3.976-4-7s1.96-5,5-5a5.754,5.754,0,0,1,6,5c.305,3.024-1.021,6.392-4,7v11h19v41H287v73h56v57Zm-19,0V324H265V208h15c.608-2.978,2.975-4.306,6-4a5.754,5.754,0,0,1,5,6c0,3.04-1.976,4.694-5,5s-5.392-1.021-6-4H268V322h56v38Zm-19,0V343H287v17h-3V341h22v19Zm-166,0a2.815,2.815,0,0,0-3-2c-1.508,0-3.5.578-4,2h-2a6.1,6.1,0,0,1,12,0Zm-23,0V341H261c.608-2.978,2.975-5.306,6-5a6.1,6.1,0,0,1,0,12c-3.024.305-5.392-2.022-6-5H116v17Zm-19,0V322H242c.607-2.978,2.975-5.306,6-5a6.1,6.1,0,0,1,0,12c-3.024.306-5.392-2.021-6-5H97v36Zm-38,0V322H78v14a6.817,6.817,0,0,1,5,7,6.1,6.1,0,0,1-12,0,6.817,6.817,0,0,1,5-7V324H59v36Zm-19,0V287H0v-3H40v76Zm-19,0V306H2v49a6.855,6.855,0,0,1,5,5H5a3.831,3.831,0,0,0-2-2,4.29,4.29,0,0,0-3,0V303H21v57Zm223-54H114V239L67,192H45a6.817,6.817,0,0,1-7,5,6.1,6.1,0,0,1,0-12c3.024-.305,6.392,1.022,7,4H68l48,49v65H242c.607-2.979,2.975-5.306,6-5a6.1,6.1,0,0,1,0,12,8.265,8.265,0,0,1-.831.043A4.856,4.856,0,0,1,242,306ZM57,310a6.1,6.1,0,0,1,0-12,6.817,6.817,0,0,1,7,5H95V248L58,211H26c-.608,2.979-2.976,4.306-6,4s-6-1.96-6-5,2.976-5.694,6-6,5.392,1.021,6,4H59l38,39v59H64c-.551,2.7-3.37,4.043-6.144,4.043A8.505,8.505,0,0,1,57,310Zm247-19c-3.024-.305-6-2.96-6-6s2.975-4.694,6-5,5.392,1.021,6,4h50v3H310a4.858,4.858,0,0,1-5.169,4.043A8.261,8.261,0,0,1,304,291Zm-76,0a5.753,5.753,0,0,1-5-6c0-3.04,1.976-4.694,5-5s5.392,1.021,6,4h12V189h19V173H215c-.608,2.978-2.976,5.305-6,5a6.1,6.1,0,0,1,0-12c3.024-.306,5.392,2.021,6,5h53v21H249v95H234a4.858,4.858,0,0,1-5.169,4.043A8.257,8.257,0,0,1,228,291Zm-95,0a5.753,5.753,0,0,1-5-6c0-3.04,1.975-4.694,5-5s6.392,1.021,7,4h68V196c-2.978-.608-4.3-2.976-4-6a5.754,5.754,0,0,1,6-5c3.039,0,4.694,1.975,5,5s-1.021,5.392-4,6v91H140c-.551,2.7-3.37,4.043-6.144,4.043A8.505,8.505,0,0,1,133,291Zm-76,0a5.753,5.753,0,0,1-5-6c0-3.04,1.975-4.7,5-5s6.392,1.021,7,4H76V257L48,230H26c-.608,2.979-2.976,4.306-6,4s-6-1.96-6-5,2.976-5.694,6-6,5.392,1.021,6,4H49l29,29v31H64c-.551,2.7-3.37,4.043-6.144,4.043A8.505,8.505,0,0,1,57,291Zm247-19c-3.024-.305-6-2.96-6-6s2.975-4.694,6-5,5.392,1.022,6,4h50v3H310a4.858,4.858,0,0,1-5.169,4.043A8.27,8.27,0,0,1,304,272Zm-157-4H133V211H121c-.608,2.979-3.976,4.306-7,4s-5-1.96-5-5a5.754,5.754,0,0,1,5-6c3.024-.306,6.392,1.021,7,4h14v57h12c.607-2.978,2.975-4.3,6-4s6,1.96,6,5-2.975,5.694-6,6a8.274,8.274,0,0,1-.831.043A4.856,4.856,0,0,1,147,268Zm-95,0H0v-3H52c.607-2.979,3.975-4.306,7-4s5,1.96,5,5a5.754,5.754,0,0,1-5,6,8.528,8.528,0,0,1-.856.043C55.369,272.043,52.551,270.7,52,268Zm171-1c-.305-3.025,1.021-5.393,4-6V196c-2.979-.608-4.306-2.976-4-6a5.754,5.754,0,0,1,6-5c3.039,0,4.694,1.975,5,5s-1.021,5.392-4,6v65c2.978.608,4.306,2.975,4,6s-1.96,5-5,5A5.754,5.754,0,0,1,223,267Zm-38,0c-.306-3.025,1.021-5.393,4-6V143l30-29H355a6.855,6.855,0,0,1,5-5v3a3.25,3.25,0,0,0,0,6v3a6.855,6.855,0,0,1-5-5H220l-28,28V261c2.978.608,5.305,2.975,5,6a6.1,6.1,0,0,1-12,0Zm-19,0c-.305-3.025,2.022-5.392,5-6V249H152V159a6.817,6.817,0,0,1-5-7,6.1,6.1,0,0,1,12,0,6.817,6.817,0,0,1-5,7v87h19v15c2.978.608,5.305,2.975,5,6a6.1,6.1,0,0,1-12,0Zm138-14c-3.024-.305-6-1.96-6-5s2.975-5.7,6-6,5.392,1.021,6,4h31V162l19-19v3l-17,17v86H310a4.858,4.858,0,0,1-5.169,4.043A8.265,8.265,0,0,1,304,253ZM33,249H0V171l57-57V64a6.814,6.814,0,0,1-5-7,5.753,5.753,0,0,1,6-5,5.754,5.754,0,0,1,6,5,6.814,6.814,0,0,1-5,7v51L2,172v74H33c.607-2.978,3.975-4.306,7-4s5,1.96,5,5a5.754,5.754,0,0,1-5,6,8.519,8.519,0,0,1-.856.043C36.369,253.043,33.551,251.7,33,249Zm284-20c-.306-3.025,2.021-5.393,5-6V173H310c-.608,2.978-2.975,5.305-6,5s-6-2.96-6-6,2.975-5.694,6-6,5.392,2.021,6,5h14v52c2.979.608,5.306,2.975,5,6a6.1,6.1,0,0,1-12,0Zm-151,0c-.306-3.025,2.021-5.393,5-6V132l37-37h57V26c-2.979-.608-4.306-2.975-4-6s1.96-6,5-6,5.694,2.975,6,6-1.022,5.392-4,6V97H209l-36,36v90c2.978.608,5.305,2.975,5,6a6.1,6.1,0,0,1-12,0ZM95,197a6.1,6.1,0,0,1,0-12c3.024-.305,6.392,1.022,7,4h31V133h14c.607-2.979,2.975-5.305,6-5s6,2.96,6,6-2.975,5.694-6,6-5.392-2.021-6-5H135v57H102a6.843,6.843,0,0,1-6.46,5.027A5.377,5.377,0,0,1,95,197Zm-81-6c-.306-3.024,2.021-5.392,5-6v-4l57-57V57h38V0h2V59H78v66L21,182v3c2.978.607,5.306,2.975,5,6s-2.96,6-6,6S14.306,194.025,14,191Zm43-13a6.1,6.1,0,0,1,0-12,6.815,6.815,0,0,1,7,5h50V121a6.815,6.815,0,0,1-5-7,6.1,6.1,0,0,1,12,0,6.814,6.814,0,0,1-5,7v52H64a6.841,6.841,0,0,1-6.459,5.027A5.376,5.376,0,0,1,57,178Zm260-24H215c-.608,2.978-2.976,5.305-6,5a6.1,6.1,0,0,1,0-12c3.024-.305,5.392,2.022,6,5H317a6.817,6.817,0,0,1,7-5,6.1,6.1,0,0,1,0,12,5.386,5.386,0,0,1-.541.027A6.842,6.842,0,0,1,317,154ZM76,159a6.1,6.1,0,0,1,0-12,6.815,6.815,0,0,1,7,5H95V76h38V45a6.817,6.817,0,0,1-5-7,6.1,6.1,0,0,1,12,0,6.817,6.817,0,0,1-5,7V78H97v76H83a6.841,6.841,0,0,1-6.459,5.027A5.377,5.377,0,0,1,76,159ZM0,143l38-38V83a6.813,6.813,0,0,1-5-7,5.754,5.754,0,0,1,6-5,5.754,5.754,0,0,1,6,5,6.814,6.814,0,0,1-5,7v23L0,146Zm336-8H234c-.608,2.978-2.975,5.305-6,5a6.1,6.1,0,0,1,0-12c3.025-.305,5.392,2.021,6,5H336a6.816,6.816,0,0,1,7-5,6.1,6.1,0,0,1,0,12,5.393,5.393,0,0,1-.542.027A6.84,6.84,0,0,1,336,135ZM0,121v-3a3.405,3.405,0,0,0,4-1,3.221,3.221,0,0,0,0-4,3.405,3.405,0,0,0-4-1v-3a6.015,6.015,0,0,1,5,1,6.683,6.683,0,0,1,2,5,4.659,4.659,0,0,1-2,4c-1.213.99-2.815,2.063-4.37,2.063A3.145,3.145,0,0,1,0,121Zm133,0a6.1,6.1,0,0,1,0-12,6.817,6.817,0,0,1,7,5h22l38-38h46V26c-2.978-.608-4.306-2.975-4-6s2.961-6,6-6,4.694,2.975,5,6-1.021,5.392-4,6V78H201l-38,38H140a6.843,6.843,0,0,1-6.46,5.027A5.378,5.378,0,0,1,133,121ZM14,97H0V95H14a6.815,6.815,0,0,1,7-5,6.1,6.1,0,0,1,0,12,5.386,5.386,0,0,1-.541.027A6.84,6.84,0,0,1,14,97Zm100,5a6.1,6.1,0,0,1,0-12,6.815,6.815,0,0,1,7,5h31V45a6.815,6.815,0,0,1-5-7,6.1,6.1,0,0,1,12,0,6.816,6.816,0,0,1-5,7V97H121a6.841,6.841,0,0,1-6.458,5.027A5.384,5.384,0,0,1,114,102Zm170-5V26c-2.978-.608-4.306-2.975-4-6s1.96-6,5-6,5.7,2.975,6,6-1.021,5.392-4,6V95h73v2ZM166,78a6.814,6.814,0,0,1,5-7V21H140a6.817,6.817,0,0,1-7,5,5.754,5.754,0,0,1-5-6,5.753,5.753,0,0,1,5-6,6.815,6.815,0,0,1,7,5h33V71a6.814,6.814,0,0,1,5,7,6.1,6.1,0,0,1-12,0Zm137,0V45a6.815,6.815,0,0,1-5-7,6.1,6.1,0,0,1,12,0c.306,3.024-1.021,6.392-4,7V76h54v2ZM0,78V76H10L38,48V0h2V49L11,78ZM323,64c-3.024-.305-6-2.96-6-6s2.975-5.694,6-6,5.393,2.021,6,5h22l9-9v3l-8,8H329c-.571,2.8-2.7,5.026-5.468,5.027A5.282,5.282,0,0,1,323,64ZM190,64a5.754,5.754,0,0,1-5-6,5.754,5.754,0,0,1,5-6c3.024-.306,5.392,2.021,6,5h31V0h60V2H230V59H196c-.572,2.8-2.7,5.026-5.468,5.027A5.279,5.279,0,0,1,190,64ZM0,48,10,38h4a6.813,6.813,0,0,1,7-5,5.754,5.754,0,0,1,5,6,5.754,5.754,0,0,1-5,6,6.813,6.813,0,0,1-7-5H11L0,51Zm336-8H322V0h2V38h12a6.815,6.815,0,0,1,7-5,5.754,5.754,0,0,1,5,6,5.754,5.754,0,0,1-5,6,5.392,5.392,0,0,1-.541.027A6.841,6.841,0,0,1,336,40ZM57,45a5.754,5.754,0,0,1-5-6,5.753,5.753,0,0,1,5-6,6.814,6.814,0,0,1,7,5H95V0h2V40H64a6.84,6.84,0,0,1-6.459,5.027A5.384,5.384,0,0,1,57,45Zm132-5V26c-2.978-.608-4.306-2.975-4-6s2.961-6,6-6,5.694,2.975,6,6-2.022,5.392-5,6V38h16V2H140a6.862,6.862,0,0,1-4,5,6.233,6.233,0,0,1-6-1,6.7,6.7,0,0,1-2-6h2c-.518,1.472.745,3.073,2,4a3.221,3.221,0,0,0,4,0,3.407,3.407,0,0,0,1-4h74V40ZM57,26a5.754,5.754,0,0,1-5-6,5.753,5.753,0,0,1,5-6,6.814,6.814,0,0,1,7,5H76V2H57V0H78V21H64a6.841,6.841,0,0,1-6.459,5.027A5.379,5.379,0,0,1,57,26Zm241-5a6.813,6.813,0,0,1,5-7V0h3V14c2.978.608,4.306,3.975,4,7a6.1,6.1,0,0,1-12,0Zm43,0V0h2V19h17v2ZM20,21H0V19H19V0h2V21ZM0,7V5A4.149,4.149,0,0,0,4,4,4.149,4.149,0,0,0,5,0H7c.385,1.946-.6,3.6-2,5A6.025,6.025,0,0,1,.847,7.084,4.352,4.352,0,0,1,0,7ZM356,4a4.943,4.943,0,0,1-1-4h3a4.29,4.29,0,0,0,0,3,3.831,3.831,0,0,0,2,2V7A7.164,7.164,0,0,1,356,4Z" fill="#142270" opacity="0.204"/>
</svg>
