<svg id="shape11" xmlns="http://www.w3.org/2000/svg" width="329" height="264" viewBox="0 0 329 264">
  <path id="Oval_Copy_167" data-name="Oval Copy 167" d="M325.076,262.04a1.962,1.962,0,1,1,1.962,1.96A1.961,1.961,0,0,1,325.076,262.04Zm-22.238-1.307a1.962,1.962,0,1,1,1.962,1.96A1.961,1.961,0,0,1,302.837,260.733Zm-21.585,0a1.962,1.962,0,1,1,1.962,1.96A1.961,1.961,0,0,1,281.253,260.733Zm-21.585,0a1.962,1.962,0,1,1,1.962,1.96A1.961,1.961,0,0,1,259.668,260.733Zm-21.585,0a1.962,1.962,0,1,1,1.962,1.96A1.961,1.961,0,0,1,238.083,260.733Zm-23.547,0a1.962,1.962,0,1,1,1.962,1.96A1.961,1.961,0,0,1,214.537,260.733Zm-20.276,0a1.962,1.962,0,1,1,1.962,1.96A1.961,1.961,0,0,1,194.26,260.733Zm-22.239,0a1.962,1.962,0,1,1,1.963,1.96A1.962,1.962,0,0,1,172.021,260.733Zm-20.93,0a1.962,1.962,0,1,1,1.963,1.96A1.962,1.962,0,0,1,151.091,260.733Zm-22.238,0a1.962,1.962,0,1,1,1.962,1.96A1.961,1.961,0,0,1,128.853,260.733Zm-20.276,0a1.962,1.962,0,1,1,1.962,1.96A1.961,1.961,0,0,1,108.577,260.733Zm-23.547,0a1.962,1.962,0,1,1,1.962,1.96A1.961,1.961,0,0,1,85.03,260.733Zm-19.623,0a1.962,1.962,0,1,1,1.962,1.96A1.961,1.961,0,0,1,65.408,260.733Zm-21.585,0a1.962,1.962,0,1,1,1.963,1.96A1.961,1.961,0,0,1,43.823,260.733Zm-21.584,0a1.962,1.962,0,1,1,1.962,1.96A1.961,1.961,0,0,1,22.239,260.733ZM0,260.733a1.962,1.962,0,1,1,1.962,1.96A1.961,1.961,0,0,1,0,260.733Zm325.076-20.911a1.962,1.962,0,1,1,1.962,1.96A1.962,1.962,0,0,1,325.076,239.822Zm-22.238,0a1.962,1.962,0,1,1,1.962,1.96A1.962,1.962,0,0,1,302.837,239.822Zm-21.585,0a1.962,1.962,0,1,1,1.962,1.96A1.962,1.962,0,0,1,281.253,239.822Zm-21.585,0a1.962,1.962,0,1,1,1.962,1.96A1.962,1.962,0,0,1,259.668,239.822Zm-22.892,0a1.962,1.962,0,1,1,1.962,1.96A1.962,1.962,0,0,1,236.776,239.822Zm-22.239,0a1.962,1.962,0,1,1,1.962,1.96A1.962,1.962,0,0,1,214.537,239.822Zm-18.314,0a1.962,1.962,0,1,1,1.962,1.96A1.962,1.962,0,0,1,196.223,239.822Zm-24.2,0a1.962,1.962,0,1,1,1.963,1.96A1.963,1.963,0,0,1,172.021,239.822Zm-20.93,0a1.962,1.962,0,1,1,1.963,1.96A1.963,1.963,0,0,1,151.091,239.822Zm-22.238,0a1.962,1.962,0,1,1,1.962,1.96A1.962,1.962,0,0,1,128.853,239.822Zm-22.239,0a1.962,1.962,0,1,1,1.963,1.96A1.962,1.962,0,0,1,106.614,239.822Zm-21.584,0a1.962,1.962,0,1,1,1.962,1.96A1.962,1.962,0,0,1,85.03,239.822Zm-19.623,0a1.962,1.962,0,1,1,1.962,1.96A1.962,1.962,0,0,1,65.408,239.822Zm-21.585,0a1.962,1.962,0,1,1,1.963,1.96A1.962,1.962,0,0,1,43.823,239.822Zm-21.584,0a1.962,1.962,0,1,1,1.962,1.96A1.962,1.962,0,0,1,22.239,239.822ZM0,239.822a1.962,1.962,0,1,1,1.962,1.96A1.962,1.962,0,0,1,0,239.822Zm325.076-21.565a1.962,1.962,0,1,1,1.962,1.96A1.961,1.961,0,0,1,325.076,218.257Zm-22.238,0a1.962,1.962,0,1,1,1.962,1.96A1.961,1.961,0,0,1,302.837,218.257Zm-21.585,0a1.962,1.962,0,1,1,1.962,1.96A1.961,1.961,0,0,1,281.253,218.257Zm-21.585,0a1.962,1.962,0,1,1,1.962,1.96A1.961,1.961,0,0,1,259.668,218.257Zm-22.892,0a1.962,1.962,0,1,1,1.962,1.96A1.961,1.961,0,0,1,236.776,218.257Zm-22.239,0a1.962,1.962,0,1,1,1.962,1.96A1.961,1.961,0,0,1,214.537,218.257Zm-18.314,0a1.962,1.962,0,1,1,1.962,1.96A1.961,1.961,0,0,1,196.223,218.257Zm-24.2,0a1.962,1.962,0,1,1,1.963,1.96A1.962,1.962,0,0,1,172.021,218.257Zm-20.93,0a1.962,1.962,0,1,1,1.963,1.96A1.962,1.962,0,0,1,151.091,218.257Zm-22.238,0a1.962,1.962,0,1,1,1.962,1.96A1.961,1.961,0,0,1,128.853,218.257Zm-22.239,0a1.962,1.962,0,1,1,1.963,1.96A1.961,1.961,0,0,1,106.614,218.257Zm-21.584,0a1.962,1.962,0,1,1,1.962,1.96A1.961,1.961,0,0,1,85.03,218.257Zm-19.623,0a1.962,1.962,0,1,1,1.962,1.96A1.961,1.961,0,0,1,65.408,218.257Zm-21.585,0a1.962,1.962,0,1,1,1.963,1.96A1.961,1.961,0,0,1,43.823,218.257Zm-21.584,0a1.962,1.962,0,1,1,1.962,1.96A1.961,1.961,0,0,1,22.239,218.257ZM0,218.257a1.962,1.962,0,1,1,1.962,1.96A1.961,1.961,0,0,1,0,218.257ZM325.076,196.04a1.962,1.962,0,1,1,1.962,1.96A1.961,1.961,0,0,1,325.076,196.04Zm-22.238,0A1.962,1.962,0,1,1,304.8,198,1.961,1.961,0,0,1,302.837,196.04Zm-21.585,0a1.962,1.962,0,1,1,1.962,1.96A1.961,1.961,0,0,1,281.253,196.04Zm-21.585,0A1.962,1.962,0,1,1,261.63,198,1.961,1.961,0,0,1,259.668,196.04Zm-21.585,0a1.962,1.962,0,1,1,1.962,1.96A1.961,1.961,0,0,1,238.083,196.04Zm-23.547,0A1.962,1.962,0,1,1,216.5,198,1.961,1.961,0,0,1,214.537,196.04Zm-20.276,0a1.962,1.962,0,1,1,1.962,1.96A1.961,1.961,0,0,1,194.26,196.04Zm-22.239,0a1.962,1.962,0,1,1,1.963,1.96A1.962,1.962,0,0,1,172.021,196.04Zm-20.93,0a1.962,1.962,0,1,1,1.963,1.96A1.962,1.962,0,0,1,151.091,196.04Zm-22.238,0a1.962,1.962,0,1,1,1.962,1.96A1.961,1.961,0,0,1,128.853,196.04Zm-20.276,0a1.962,1.962,0,1,1,1.962,1.96A1.961,1.961,0,0,1,108.577,196.04Zm-23.547,0A1.962,1.962,0,1,1,86.992,198,1.961,1.961,0,0,1,85.03,196.04Zm-19.623,0A1.962,1.962,0,1,1,67.369,198,1.961,1.961,0,0,1,65.408,196.04Zm-21.585,0A1.962,1.962,0,1,1,45.786,198,1.961,1.961,0,0,1,43.823,196.04Zm-21.584,0A1.962,1.962,0,1,1,24.2,198,1.961,1.961,0,0,1,22.239,196.04ZM0,196.04A1.962,1.962,0,1,1,1.962,198,1.961,1.961,0,0,1,0,196.04Zm325.076-20.911a1.962,1.962,0,1,1,1.962,1.961A1.961,1.961,0,0,1,325.076,175.128Zm-22.238,0a1.962,1.962,0,1,1,1.962,1.961A1.961,1.961,0,0,1,302.837,175.128Zm-21.585,0a1.962,1.962,0,1,1,1.962,1.961A1.961,1.961,0,0,1,281.253,175.128Zm-21.585,0a1.962,1.962,0,1,1,1.962,1.961A1.961,1.961,0,0,1,259.668,175.128Zm-22.892,0a1.962,1.962,0,1,1,1.962,1.961A1.961,1.961,0,0,1,236.776,175.128Zm-22.239,0a1.962,1.962,0,1,1,1.962,1.961A1.961,1.961,0,0,1,214.537,175.128Zm-18.314,0a1.962,1.962,0,1,1,1.962,1.961A1.961,1.961,0,0,1,196.223,175.128Zm-24.2,0a1.962,1.962,0,1,1,1.963,1.961A1.962,1.962,0,0,1,172.021,175.128Zm-20.93,0a1.962,1.962,0,1,1,1.963,1.961A1.962,1.962,0,0,1,151.091,175.128Zm-22.238,0a1.962,1.962,0,1,1,1.962,1.961A1.961,1.961,0,0,1,128.853,175.128Zm-22.239,0a1.962,1.962,0,1,1,1.963,1.961A1.961,1.961,0,0,1,106.614,175.128Zm-21.584,0a1.962,1.962,0,1,1,1.962,1.961A1.961,1.961,0,0,1,85.03,175.128Zm-19.623,0a1.962,1.962,0,1,1,1.962,1.961A1.961,1.961,0,0,1,65.408,175.128Zm-21.585,0a1.962,1.962,0,1,1,1.963,1.961A1.961,1.961,0,0,1,43.823,175.128Zm-21.584,0a1.962,1.962,0,1,1,1.962,1.961A1.961,1.961,0,0,1,22.239,175.128ZM0,175.128a1.962,1.962,0,1,1,1.962,1.961A1.961,1.961,0,0,1,0,175.128Zm325.076-21.564a1.962,1.962,0,1,1,1.962,1.96A1.961,1.961,0,0,1,325.076,153.564Zm-22.238,0a1.962,1.962,0,1,1,1.962,1.96A1.961,1.961,0,0,1,302.837,153.564Zm-21.585,0a1.962,1.962,0,1,1,1.962,1.96A1.961,1.961,0,0,1,281.253,153.564Zm-21.585,0a1.962,1.962,0,1,1,1.962,1.96A1.961,1.961,0,0,1,259.668,153.564Zm-22.892,0a1.962,1.962,0,1,1,1.962,1.96A1.961,1.961,0,0,1,236.776,153.564Zm-22.239,0a1.962,1.962,0,1,1,1.962,1.96A1.961,1.961,0,0,1,214.537,153.564Zm-18.314,0a1.962,1.962,0,1,1,1.962,1.96A1.961,1.961,0,0,1,196.223,153.564Zm-24.2,0a1.962,1.962,0,1,1,1.963,1.96A1.962,1.962,0,0,1,172.021,153.564Zm-20.93,0a1.962,1.962,0,1,1,1.963,1.96A1.962,1.962,0,0,1,151.091,153.564Zm-22.238,0a1.962,1.962,0,1,1,1.962,1.96A1.961,1.961,0,0,1,128.853,153.564Zm-22.239,0a1.962,1.962,0,1,1,1.963,1.96A1.961,1.961,0,0,1,106.614,153.564Zm-21.584,0a1.962,1.962,0,1,1,1.962,1.96A1.961,1.961,0,0,1,85.03,153.564Zm-19.623,0a1.962,1.962,0,1,1,1.962,1.96A1.961,1.961,0,0,1,65.408,153.564Zm-21.585,0a1.962,1.962,0,1,1,1.963,1.96A1.961,1.961,0,0,1,43.823,153.564Zm-21.584,0a1.962,1.962,0,1,1,1.962,1.96A1.961,1.961,0,0,1,22.239,153.564ZM0,153.564a1.962,1.962,0,1,1,1.962,1.96A1.961,1.961,0,0,1,0,153.564Zm325.076-22.217a1.962,1.962,0,1,1,1.962,1.96A1.962,1.962,0,0,1,325.076,131.347Zm-22.238,0a1.962,1.962,0,1,1,1.962,1.96A1.962,1.962,0,0,1,302.837,131.347Zm-21.585,0a1.962,1.962,0,1,1,1.962,1.96A1.962,1.962,0,0,1,281.253,131.347Zm-21.585,0a1.962,1.962,0,1,1,1.962,1.96A1.962,1.962,0,0,1,259.668,131.347Zm-22.892,0a1.962,1.962,0,1,1,1.962,1.96A1.962,1.962,0,0,1,236.776,131.347Zm-22.239,0a1.962,1.962,0,1,1,1.962,1.96A1.962,1.962,0,0,1,214.537,131.347Zm-18.314,0a1.962,1.962,0,1,1,1.962,1.96A1.962,1.962,0,0,1,196.223,131.347Zm-24.2,0a1.962,1.962,0,1,1,1.963,1.96A1.963,1.963,0,0,1,172.021,131.347Zm-20.93,0a1.962,1.962,0,1,1,1.963,1.96A1.963,1.963,0,0,1,151.091,131.347Zm-22.238,0a1.962,1.962,0,1,1,1.962,1.96A1.962,1.962,0,0,1,128.853,131.347Zm-22.239,0a1.962,1.962,0,1,1,1.963,1.96A1.962,1.962,0,0,1,106.614,131.347Zm-21.584,0a1.962,1.962,0,1,1,1.962,1.96A1.962,1.962,0,0,1,85.03,131.347Zm-19.623,0a1.962,1.962,0,1,1,1.962,1.96A1.962,1.962,0,0,1,65.408,131.347Zm-21.585,0a1.962,1.962,0,1,1,1.963,1.96A1.962,1.962,0,0,1,43.823,131.347Zm-21.584,0a1.962,1.962,0,1,1,1.962,1.96A1.962,1.962,0,0,1,22.239,131.347ZM0,131.347a1.962,1.962,0,1,1,1.962,1.96A1.962,1.962,0,0,1,0,131.347Zm22.239-22.218a1.962,1.962,0,1,1,1.962,1.96A1.961,1.961,0,0,1,22.239,109.129ZM0,109.129a1.962,1.962,0,1,1,1.962,1.96A1.961,1.961,0,0,1,0,109.129Zm325.076-.653a1.962,1.962,0,1,1,1.962,1.96A1.961,1.961,0,0,1,325.076,108.475Zm-22.238,0a1.962,1.962,0,1,1,1.962,1.96A1.961,1.961,0,0,1,302.837,108.475Zm-21.585,0a1.962,1.962,0,1,1,1.962,1.96A1.961,1.961,0,0,1,281.253,108.475Zm-21.585,0a1.962,1.962,0,1,1,1.962,1.96A1.961,1.961,0,0,1,259.668,108.475Zm-22.892,0a1.962,1.962,0,1,1,1.962,1.96A1.961,1.961,0,0,1,236.776,108.475Zm-22.239,0a1.962,1.962,0,1,1,1.962,1.96A1.961,1.961,0,0,1,214.537,108.475Zm-18.314,0a1.962,1.962,0,1,1,1.962,1.96A1.961,1.961,0,0,1,196.223,108.475Zm-24.2,0a1.962,1.962,0,1,1,1.963,1.96A1.962,1.962,0,0,1,172.021,108.475Zm-20.93,0a1.962,1.962,0,1,1,1.963,1.96A1.962,1.962,0,0,1,151.091,108.475Zm-22.238,0a1.962,1.962,0,1,1,1.962,1.96A1.961,1.961,0,0,1,128.853,108.475Zm-22.239,0a1.962,1.962,0,1,1,1.963,1.96A1.961,1.961,0,0,1,106.614,108.475Zm-21.584,0a1.962,1.962,0,1,1,1.962,1.96A1.961,1.961,0,0,1,85.03,108.475Zm-19.623,0a1.962,1.962,0,1,1,1.962,1.96A1.961,1.961,0,0,1,65.408,108.475Zm-21.585,0a1.962,1.962,0,1,1,1.963,1.96A1.961,1.961,0,0,1,43.823,108.475ZM325.076,88.218a1.962,1.962,0,1,1,1.962,1.96A1.961,1.961,0,0,1,325.076,88.218Zm-22.238,0a1.962,1.962,0,1,1,1.962,1.96A1.961,1.961,0,0,1,302.837,88.218Zm-21.585,0a1.962,1.962,0,1,1,1.962,1.96A1.961,1.961,0,0,1,281.253,88.218Zm-21.585,0a1.962,1.962,0,1,1,1.962,1.96A1.961,1.961,0,0,1,259.668,88.218Zm-22.892,0a1.962,1.962,0,1,1,1.962,1.96A1.961,1.961,0,0,1,236.776,88.218Zm-22.239,0a1.962,1.962,0,1,1,1.962,1.96A1.961,1.961,0,0,1,214.537,88.218Zm-18.314,0a1.962,1.962,0,1,1,1.962,1.96A1.961,1.961,0,0,1,196.223,88.218Zm-24.2,0a1.962,1.962,0,1,1,1.963,1.96A1.962,1.962,0,0,1,172.021,88.218Zm-20.93,0a1.962,1.962,0,1,1,1.963,1.96A1.962,1.962,0,0,1,151.091,88.218Zm-22.238,0a1.962,1.962,0,1,1,1.962,1.96A1.961,1.961,0,0,1,128.853,88.218Zm-22.239,0a1.962,1.962,0,1,1,1.963,1.96A1.961,1.961,0,0,1,106.614,88.218Zm-21.584,0a1.962,1.962,0,1,1,1.962,1.96A1.961,1.961,0,0,1,85.03,88.218Zm-19.623,0a1.962,1.962,0,1,1,1.962,1.96A1.961,1.961,0,0,1,65.408,88.218Zm-21.585,0a1.962,1.962,0,1,1,1.963,1.96A1.961,1.961,0,0,1,43.823,88.218Zm-21.584,0a1.962,1.962,0,1,1,1.962,1.96A1.961,1.961,0,0,1,22.239,88.218ZM0,88.218a1.962,1.962,0,1,1,1.962,1.96A1.961,1.961,0,0,1,0,88.218ZM325.076,66.653a1.962,1.962,0,1,1,1.962,1.961A1.961,1.961,0,0,1,325.076,66.653Zm-22.238,0a1.962,1.962,0,1,1,1.962,1.961A1.961,1.961,0,0,1,302.837,66.653Zm-21.585,0a1.962,1.962,0,1,1,1.962,1.961A1.961,1.961,0,0,1,281.253,66.653Zm-21.585,0a1.962,1.962,0,1,1,1.962,1.961A1.961,1.961,0,0,1,259.668,66.653Zm-22.892,0a1.962,1.962,0,1,1,1.962,1.961A1.961,1.961,0,0,1,236.776,66.653Zm-22.239,0a1.962,1.962,0,1,1,1.962,1.961A1.961,1.961,0,0,1,214.537,66.653Zm-18.314,0a1.962,1.962,0,1,1,1.962,1.961A1.961,1.961,0,0,1,196.223,66.653Zm-24.2,0a1.962,1.962,0,1,1,1.963,1.961A1.962,1.962,0,0,1,172.021,66.653Zm-20.93,0a1.962,1.962,0,1,1,1.963,1.961A1.962,1.962,0,0,1,151.091,66.653Zm-22.238,0a1.962,1.962,0,1,1,1.962,1.961A1.961,1.961,0,0,1,128.853,66.653Zm-22.239,0a1.962,1.962,0,1,1,1.963,1.961A1.961,1.961,0,0,1,106.614,66.653Zm-21.584,0a1.962,1.962,0,1,1,1.962,1.961A1.961,1.961,0,0,1,85.03,66.653Zm-19.623,0a1.962,1.962,0,1,1,1.962,1.961A1.961,1.961,0,0,1,65.408,66.653Zm-21.585,0a1.962,1.962,0,1,1,1.963,1.961A1.961,1.961,0,0,1,43.823,66.653ZM22.239,66A1.962,1.962,0,1,1,24.2,67.961,1.961,1.961,0,0,1,22.239,66ZM0,66a1.962,1.962,0,1,1,1.962,1.961A1.961,1.961,0,0,1,0,66ZM325.076,43.782a1.962,1.962,0,1,1,1.962,1.96A1.961,1.961,0,0,1,325.076,43.782Zm-22.238,0a1.962,1.962,0,1,1,1.962,1.96A1.961,1.961,0,0,1,302.837,43.782Zm-21.585,0a1.962,1.962,0,1,1,1.962,1.96A1.961,1.961,0,0,1,281.253,43.782Zm-21.585,0a1.962,1.962,0,1,1,1.962,1.96A1.961,1.961,0,0,1,259.668,43.782Zm-22.892,0a1.962,1.962,0,1,1,1.962,1.96A1.961,1.961,0,0,1,236.776,43.782Zm-22.239,0a1.962,1.962,0,1,1,1.962,1.96A1.961,1.961,0,0,1,214.537,43.782Zm-18.314,0a1.962,1.962,0,1,1,1.962,1.96A1.961,1.961,0,0,1,196.223,43.782Zm-24.2,0a1.962,1.962,0,1,1,1.963,1.96A1.962,1.962,0,0,1,172.021,43.782Zm-20.93,0a1.962,1.962,0,1,1,1.963,1.96A1.962,1.962,0,0,1,151.091,43.782Zm-22.238,0a1.962,1.962,0,1,1,1.962,1.96A1.961,1.961,0,0,1,128.853,43.782Zm-22.239,0a1.962,1.962,0,1,1,1.963,1.96A1.961,1.961,0,0,1,106.614,43.782Zm-21.584,0a1.962,1.962,0,1,1,1.962,1.96A1.961,1.961,0,0,1,85.03,43.782Zm-19.623,0a1.962,1.962,0,1,1,1.962,1.96A1.961,1.961,0,0,1,65.408,43.782Zm-21.585,0a1.962,1.962,0,1,1,1.963,1.96A1.961,1.961,0,0,1,43.823,43.782Zm-21.584,0a1.962,1.962,0,1,1,1.962,1.96A1.961,1.961,0,0,1,22.239,43.782ZM0,43.782a1.962,1.962,0,1,1,1.962,1.96A1.961,1.961,0,0,1,0,43.782Zm325.076-19.6a1.962,1.962,0,1,1,1.962,1.96A1.962,1.962,0,0,1,325.076,24.179Zm-22.238,0a1.962,1.962,0,1,1,1.962,1.96A1.962,1.962,0,0,1,302.837,24.179Zm-21.585,0a1.962,1.962,0,1,1,1.962,1.96A1.962,1.962,0,0,1,281.253,24.179Zm-21.585,0a1.962,1.962,0,1,1,1.962,1.96A1.962,1.962,0,0,1,259.668,24.179Zm-22.892,0a1.962,1.962,0,1,1,1.962,1.96A1.962,1.962,0,0,1,236.776,24.179Zm-22.239,0a1.962,1.962,0,1,1,1.962,1.96A1.962,1.962,0,0,1,214.537,24.179Zm-18.314,0a1.962,1.962,0,1,1,1.962,1.96A1.962,1.962,0,0,1,196.223,24.179Zm-24.2,0a1.962,1.962,0,1,1,1.963,1.96A1.963,1.963,0,0,1,172.021,24.179Zm-20.93,0a1.962,1.962,0,1,1,1.963,1.96A1.963,1.963,0,0,1,151.091,24.179Zm-22.238,0a1.962,1.962,0,1,1,1.962,1.96A1.962,1.962,0,0,1,128.853,24.179Zm-22.239,0a1.962,1.962,0,1,1,1.963,1.96A1.962,1.962,0,0,1,106.614,24.179Zm-21.584,0a1.962,1.962,0,1,1,1.962,1.96A1.962,1.962,0,0,1,85.03,24.179Zm-19.623,0a1.962,1.962,0,1,1,1.962,1.96A1.962,1.962,0,0,1,65.408,24.179Zm-21.585,0a1.962,1.962,0,1,1,1.963,1.96A1.962,1.962,0,0,1,43.823,24.179Zm-21.584,0a1.962,1.962,0,1,1,1.962,1.96A1.962,1.962,0,0,1,22.239,24.179ZM0,24.179a1.962,1.962,0,1,1,1.962,1.96A1.962,1.962,0,0,1,0,24.179ZM325.076,1.96a1.962,1.962,0,1,1,1.962,1.96A1.961,1.961,0,0,1,325.076,1.96Zm-22.238,0A1.962,1.962,0,1,1,304.8,3.92,1.961,1.961,0,0,1,302.837,1.96Zm-21.585,0a1.962,1.962,0,1,1,1.962,1.96A1.961,1.961,0,0,1,281.253,1.96Zm-21.585,0a1.962,1.962,0,1,1,1.962,1.96A1.961,1.961,0,0,1,259.668,1.96Zm-22.892,0a1.962,1.962,0,1,1,1.962,1.96A1.961,1.961,0,0,1,236.776,1.96Zm-22.239,0A1.962,1.962,0,1,1,216.5,3.92,1.961,1.961,0,0,1,214.537,1.96Zm-18.314,0a1.962,1.962,0,1,1,1.962,1.96A1.961,1.961,0,0,1,196.223,1.96Zm-24.2,0a1.962,1.962,0,1,1,1.963,1.96A1.962,1.962,0,0,1,172.021,1.96Zm-20.93,0a1.962,1.962,0,1,1,1.963,1.96A1.962,1.962,0,0,1,151.091,1.96Zm-22.238,0a1.962,1.962,0,1,1,1.962,1.96A1.961,1.961,0,0,1,128.853,1.96Zm-22.239,0a1.962,1.962,0,1,1,1.963,1.96A1.961,1.961,0,0,1,106.614,1.96Zm-21.584,0a1.962,1.962,0,1,1,1.962,1.96A1.961,1.961,0,0,1,85.03,1.96Zm-19.623,0a1.962,1.962,0,1,1,1.962,1.96A1.961,1.961,0,0,1,65.408,1.96Zm-21.585,0a1.962,1.962,0,1,1,1.963,1.96A1.961,1.961,0,0,1,43.823,1.96Zm-21.584,0A1.962,1.962,0,1,1,24.2,3.92,1.961,1.961,0,0,1,22.239,1.96ZM0,1.96A1.962,1.962,0,1,1,1.962,3.92,1.961,1.961,0,0,1,0,1.96Z"/>
</svg>
