<svg xmlns="http://www.w3.org/2000/svg" width="21.371" height="19.059" viewBox="0 0 21.371 19.059">
  <g id="star_half" transform="translate(0.185)">
    <path id="Path_Copy_6" data-name="Path Copy 6" d="M-10.447,0c.447,0,.823.611,1,1l2,5h6c.445.039.862.6,1,1s.337.722,0,1l-5,4,2,6c.1.413-.637.752-1,1-.2.133.23,0,0,0a3.357,3.357,0,0,1-1,0l-5-3S-10.894,0-10.447,0Z" transform="translate(21.447)" fill="#e8f2fe"/>
    <path id="Path_Copy_7" data-name="Path Copy 7" d="M11,0A3.64,3.64,0,0,0,9,1L7,6H1c-.445.039-.862.6-1,1s-.337.722,0,1l5,4L4,18c-.1.413-.363.752,0,1,.2.133.77,0,1,0,.2,0-.177.1,0,0l6-3S11.447,0,11,0Z" transform="translate(0)" fill="#ffc107"/>
  </g>
</svg>
