<svg xmlns="http://www.w3.org/2000/svg" width="503" height="404" viewBox="0 0 503 404">
  <g id="shape12" opacity="0.099">
    <path id="Oval_Copy_167" data-name="Oval Copy 167" d="M497,401a3,3,0,1,1,3,3A3,3,0,0,1,497,401Zm-34-2a3,3,0,1,1,3,3A3,3,0,0,1,463,399Zm-33,0a3,3,0,1,1,3,3A3,3,0,0,1,430,399Zm-33,0a3,3,0,1,1,3,3A3,3,0,0,1,397,399Zm-33,0a3,3,0,1,1,3,3A3,3,0,0,1,364,399Zm-36,0a3,3,0,1,1,3,3A3,3,0,0,1,328,399Zm-31,0a3,3,0,1,1,3,3A3,3,0,0,1,297,399Zm-34,0a3,3,0,1,1,3,3A3,3,0,0,1,263,399Zm-32,0a3,3,0,1,1,3,3A3,3,0,0,1,231,399Zm-34,0a3,3,0,1,1,3,3A3,3,0,0,1,197,399Zm-31,0a3,3,0,1,1,3,3A3,3,0,0,1,166,399Zm-36,0a3,3,0,1,1,3,3A3,3,0,0,1,130,399Zm-30,0a3,3,0,1,1,3,3A3,3,0,0,1,100,399Zm-33,0a3,3,0,1,1,3,3A3,3,0,0,1,67,399Zm-33,0a3,3,0,1,1,3,3A3,3,0,0,1,34,399ZM0,399a3,3,0,1,1,3,3A3,3,0,0,1,0,399Zm497-32a3,3,0,1,1,3,3A3,3,0,0,1,497,367Zm-34,0a3,3,0,1,1,3,3A3,3,0,0,1,463,367Zm-33,0a3,3,0,1,1,3,3A3,3,0,0,1,430,367Zm-33,0a3,3,0,1,1,3,3A3,3,0,0,1,397,367Zm-35,0a3,3,0,1,1,3,3A3,3,0,0,1,362,367Zm-34,0a3,3,0,1,1,3,3A3,3,0,0,1,328,367Zm-28,0a3,3,0,1,1,3,3A3,3,0,0,1,300,367Zm-37,0a3,3,0,1,1,3,3A3,3,0,0,1,263,367Zm-32,0a3,3,0,1,1,3,3A3,3,0,0,1,231,367Zm-34,0a3,3,0,1,1,3,3A3,3,0,0,1,197,367Zm-34,0a3,3,0,1,1,3,3A3,3,0,0,1,163,367Zm-33,0a3,3,0,1,1,3,3A3,3,0,0,1,130,367Zm-30,0a3,3,0,1,1,3,3A3,3,0,0,1,100,367Zm-33,0a3,3,0,1,1,3,3A3,3,0,0,1,67,367Zm-33,0a3,3,0,1,1,3,3A3,3,0,0,1,34,367ZM0,367a3,3,0,1,1,3,3A3,3,0,0,1,0,367Zm497-33a3,3,0,1,1,3,3A3,3,0,0,1,497,334Zm-34,0a3,3,0,1,1,3,3A3,3,0,0,1,463,334Zm-33,0a3,3,0,1,1,3,3A3,3,0,0,1,430,334Zm-33,0a3,3,0,1,1,3,3A3,3,0,0,1,397,334Zm-35,0a3,3,0,1,1,3,3A3,3,0,0,1,362,334Zm-34,0a3,3,0,1,1,3,3A3,3,0,0,1,328,334Zm-28,0a3,3,0,1,1,3,3A3,3,0,0,1,300,334Zm-37,0a3,3,0,1,1,3,3A3,3,0,0,1,263,334Zm-32,0a3,3,0,1,1,3,3A3,3,0,0,1,231,334Zm-34,0a3,3,0,1,1,3,3A3,3,0,0,1,197,334Zm-34,0a3,3,0,1,1,3,3A3,3,0,0,1,163,334Zm-33,0a3,3,0,1,1,3,3A3,3,0,0,1,130,334Zm-30,0a3,3,0,1,1,3,3A3,3,0,0,1,100,334Zm-33,0a3,3,0,1,1,3,3A3,3,0,0,1,67,334Zm-33,0a3,3,0,1,1,3,3A3,3,0,0,1,34,334ZM0,334a3,3,0,1,1,3,3A3,3,0,0,1,0,334Zm497-34a3,3,0,1,1,3,3A3,3,0,0,1,497,300Zm-34,0a3,3,0,1,1,3,3A3,3,0,0,1,463,300Zm-33,0a3,3,0,1,1,3,3A3,3,0,0,1,430,300Zm-33,0a3,3,0,1,1,3,3A3,3,0,0,1,397,300Zm-33,0a3,3,0,1,1,3,3A3,3,0,0,1,364,300Zm-36,0a3,3,0,1,1,3,3A3,3,0,0,1,328,300Zm-31,0a3,3,0,1,1,3,3A3,3,0,0,1,297,300Zm-34,0a3,3,0,1,1,3,3A3,3,0,0,1,263,300Zm-32,0a3,3,0,1,1,3,3A3,3,0,0,1,231,300Zm-34,0a3,3,0,1,1,3,3A3,3,0,0,1,197,300Zm-31,0a3,3,0,1,1,3,3A3,3,0,0,1,166,300Zm-36,0a3,3,0,1,1,3,3A3,3,0,0,1,130,300Zm-30,0a3,3,0,1,1,3,3A3,3,0,0,1,100,300Zm-33,0a3,3,0,1,1,3,3A3,3,0,0,1,67,300Zm-33,0a3,3,0,1,1,3,3A3,3,0,0,1,34,300ZM0,300a3,3,0,1,1,3,3A3,3,0,0,1,0,300Zm497-32a3,3,0,1,1,3,3A3,3,0,0,1,497,268Zm-34,0a3,3,0,1,1,3,3A3,3,0,0,1,463,268Zm-33,0a3,3,0,1,1,3,3A3,3,0,0,1,430,268Zm-33,0a3,3,0,1,1,3,3A3,3,0,0,1,397,268Zm-35,0a3,3,0,1,1,3,3A3,3,0,0,1,362,268Zm-34,0a3,3,0,1,1,3,3A3,3,0,0,1,328,268Zm-28,0a3,3,0,1,1,3,3A3,3,0,0,1,300,268Zm-37,0a3,3,0,1,1,3,3A3,3,0,0,1,263,268Zm-32,0a3,3,0,1,1,3,3A3,3,0,0,1,231,268Zm-34,0a3,3,0,1,1,3,3A3,3,0,0,1,197,268Zm-34,0a3,3,0,1,1,3,3A3,3,0,0,1,163,268Zm-33,0a3,3,0,1,1,3,3A3,3,0,0,1,130,268Zm-30,0a3,3,0,1,1,3,3A3,3,0,0,1,100,268Zm-33,0a3,3,0,1,1,3,3A3,3,0,0,1,67,268Zm-33,0a3,3,0,1,1,3,3A3,3,0,0,1,34,268ZM0,268a3,3,0,1,1,3,3A3,3,0,0,1,0,268Zm497-33a3,3,0,1,1,3,3A3,3,0,0,1,497,235Zm-34,0a3,3,0,1,1,3,3A3,3,0,0,1,463,235Zm-33,0a3,3,0,1,1,3,3A3,3,0,0,1,430,235Zm-33,0a3,3,0,1,1,3,3A3,3,0,0,1,397,235Zm-35,0a3,3,0,1,1,3,3A3,3,0,0,1,362,235Zm-34,0a3,3,0,1,1,3,3A3,3,0,0,1,328,235Zm-28,0a3,3,0,1,1,3,3A3,3,0,0,1,300,235Zm-37,0a3,3,0,1,1,3,3A3,3,0,0,1,263,235Zm-32,0a3,3,0,1,1,3,3A3,3,0,0,1,231,235Zm-34,0a3,3,0,1,1,3,3A3,3,0,0,1,197,235Zm-34,0a3,3,0,1,1,3,3A3,3,0,0,1,163,235Zm-33,0a3,3,0,1,1,3,3A3,3,0,0,1,130,235Zm-30,0a3,3,0,1,1,3,3A3,3,0,0,1,100,235Zm-33,0a3,3,0,1,1,3,3A3,3,0,0,1,67,235Zm-33,0a3,3,0,1,1,3,3A3,3,0,0,1,34,235ZM0,235a3,3,0,1,1,3,3A3,3,0,0,1,0,235Zm497-34a3,3,0,1,1,3,3A3,3,0,0,1,497,201Zm-34,0a3,3,0,1,1,3,3A3,3,0,0,1,463,201Zm-33,0a3,3,0,1,1,3,3A3,3,0,0,1,430,201Zm-33,0a3,3,0,1,1,3,3A3,3,0,0,1,397,201Zm-35,0a3,3,0,1,1,3,3A3,3,0,0,1,362,201Zm-34,0a3,3,0,1,1,3,3A3,3,0,0,1,328,201Zm-28,0a3,3,0,1,1,3,3A3,3,0,0,1,300,201Zm-37,0a3,3,0,1,1,3,3A3,3,0,0,1,263,201Zm-32,0a3,3,0,1,1,3,3A3,3,0,0,1,231,201Zm-34,0a3,3,0,1,1,3,3A3,3,0,0,1,197,201Zm-34,0a3,3,0,1,1,3,3A3,3,0,0,1,163,201Zm-33,0a3,3,0,1,1,3,3A3,3,0,0,1,130,201Zm-30,0a3,3,0,1,1,3,3A3,3,0,0,1,100,201Zm-33,0a3,3,0,1,1,3,3A3,3,0,0,1,67,201Zm-33,0a3,3,0,1,1,3,3A3,3,0,0,1,34,201ZM0,201a3,3,0,1,1,3,3A3,3,0,0,1,0,201Zm34-34a3,3,0,1,1,3,3A3,3,0,0,1,34,167ZM0,167a3,3,0,1,1,3,3A3,3,0,0,1,0,167Zm497-1a3,3,0,1,1,3,3A3,3,0,0,1,497,166Zm-34,0a3,3,0,1,1,3,3A3,3,0,0,1,463,166Zm-33,0a3,3,0,1,1,3,3A3,3,0,0,1,430,166Zm-33,0a3,3,0,1,1,3,3A3,3,0,0,1,397,166Zm-35,0a3,3,0,1,1,3,3A3,3,0,0,1,362,166Zm-34,0a3,3,0,1,1,3,3A3,3,0,0,1,328,166Zm-28,0a3,3,0,1,1,3,3A3,3,0,0,1,300,166Zm-37,0a3,3,0,1,1,3,3A3,3,0,0,1,263,166Zm-32,0a3,3,0,1,1,3,3A3,3,0,0,1,231,166Zm-34,0a3,3,0,1,1,3,3A3,3,0,0,1,197,166Zm-34,0a3,3,0,1,1,3,3A3,3,0,0,1,163,166Zm-33,0a3,3,0,1,1,3,3A3,3,0,0,1,130,166Zm-30,0a3,3,0,1,1,3,3A3,3,0,0,1,100,166Zm-33,0a3,3,0,1,1,3,3A3,3,0,0,1,67,166Zm430-31a3,3,0,1,1,3,3A3,3,0,0,1,497,135Zm-34,0a3,3,0,1,1,3,3A3,3,0,0,1,463,135Zm-33,0a3,3,0,1,1,3,3A3,3,0,0,1,430,135Zm-33,0a3,3,0,1,1,3,3A3,3,0,0,1,397,135Zm-35,0a3,3,0,1,1,3,3A3,3,0,0,1,362,135Zm-34,0a3,3,0,1,1,3,3A3,3,0,0,1,328,135Zm-28,0a3,3,0,1,1,3,3A3,3,0,0,1,300,135Zm-37,0a3,3,0,1,1,3,3A3,3,0,0,1,263,135Zm-32,0a3,3,0,1,1,3,3A3,3,0,0,1,231,135Zm-34,0a3,3,0,1,1,3,3A3,3,0,0,1,197,135Zm-34,0a3,3,0,1,1,3,3A3,3,0,0,1,163,135Zm-33,0a3,3,0,1,1,3,3A3,3,0,0,1,130,135Zm-30,0a3,3,0,1,1,3,3A3,3,0,0,1,100,135Zm-33,0a3,3,0,1,1,3,3A3,3,0,0,1,67,135Zm-33,0a3,3,0,1,1,3,3A3,3,0,0,1,34,135ZM0,135a3,3,0,1,1,3,3A3,3,0,0,1,0,135Zm497-33a3,3,0,1,1,3,3A3,3,0,0,1,497,102Zm-34,0a3,3,0,1,1,3,3A3,3,0,0,1,463,102Zm-33,0a3,3,0,1,1,3,3A3,3,0,0,1,430,102Zm-33,0a3,3,0,1,1,3,3A3,3,0,0,1,397,102Zm-35,0a3,3,0,1,1,3,3A3,3,0,0,1,362,102Zm-34,0a3,3,0,1,1,3,3A3,3,0,0,1,328,102Zm-28,0a3,3,0,1,1,3,3A3,3,0,0,1,300,102Zm-37,0a3,3,0,1,1,3,3A3,3,0,0,1,263,102Zm-32,0a3,3,0,1,1,3,3A3,3,0,0,1,231,102Zm-34,0a3,3,0,1,1,3,3A3,3,0,0,1,197,102Zm-34,0a3,3,0,1,1,3,3A3,3,0,0,1,163,102Zm-33,0a3,3,0,1,1,3,3A3,3,0,0,1,130,102Zm-30,0a3,3,0,1,1,3,3A3,3,0,0,1,100,102Zm-33,0a3,3,0,1,1,3,3A3,3,0,0,1,67,102Zm-33-1a3,3,0,1,1,3,3A3,3,0,0,1,34,101ZM0,101a3,3,0,1,1,3,3A3,3,0,0,1,0,101ZM497,67a3,3,0,1,1,3,3A3,3,0,0,1,497,67Zm-34,0a3,3,0,1,1,3,3A3,3,0,0,1,463,67Zm-33,0a3,3,0,1,1,3,3A3,3,0,0,1,430,67Zm-33,0a3,3,0,1,1,3,3A3,3,0,0,1,397,67Zm-35,0a3,3,0,1,1,3,3A3,3,0,0,1,362,67Zm-34,0a3,3,0,1,1,3,3A3,3,0,0,1,328,67Zm-28,0a3,3,0,1,1,3,3A3,3,0,0,1,300,67Zm-37,0a3,3,0,1,1,3,3A3,3,0,0,1,263,67Zm-32,0a3,3,0,1,1,3,3A3,3,0,0,1,231,67Zm-34,0a3,3,0,1,1,3,3A3,3,0,0,1,197,67Zm-34,0a3,3,0,1,1,3,3A3,3,0,0,1,163,67Zm-33,0a3,3,0,1,1,3,3A3,3,0,0,1,130,67Zm-30,0a3,3,0,1,1,3,3A3,3,0,0,1,100,67ZM67,67a3,3,0,1,1,3,3A3,3,0,0,1,67,67ZM34,67a3,3,0,1,1,3,3A3,3,0,0,1,34,67ZM0,67a3,3,0,1,1,3,3A3,3,0,0,1,0,67ZM497,37a3,3,0,1,1,3,3A3,3,0,0,1,497,37Zm-34,0a3,3,0,1,1,3,3A3,3,0,0,1,463,37Zm-33,0a3,3,0,1,1,3,3A3,3,0,0,1,430,37Zm-33,0a3,3,0,1,1,3,3A3,3,0,0,1,397,37Zm-35,0a3,3,0,1,1,3,3A3,3,0,0,1,362,37Zm-34,0a3,3,0,1,1,3,3A3,3,0,0,1,328,37Zm-28,0a3,3,0,1,1,3,3A3,3,0,0,1,300,37Zm-37,0a3,3,0,1,1,3,3A3,3,0,0,1,263,37Zm-32,0a3,3,0,1,1,3,3A3,3,0,0,1,231,37Zm-34,0a3,3,0,1,1,3,3A3,3,0,0,1,197,37Zm-34,0a3,3,0,1,1,3,3A3,3,0,0,1,163,37Zm-33,0a3,3,0,1,1,3,3A3,3,0,0,1,130,37Zm-30,0a3,3,0,1,1,3,3A3,3,0,0,1,100,37ZM67,37a3,3,0,1,1,3,3A3,3,0,0,1,67,37ZM34,37a3,3,0,1,1,3,3A3,3,0,0,1,34,37ZM0,37a3,3,0,1,1,3,3A3,3,0,0,1,0,37ZM497,3a3,3,0,1,1,3,3A3,3,0,0,1,497,3ZM463,3a3,3,0,1,1,3,3A3,3,0,0,1,463,3ZM430,3a3,3,0,1,1,3,3A3,3,0,0,1,430,3ZM397,3a3,3,0,1,1,3,3A3,3,0,0,1,397,3ZM362,3a3,3,0,1,1,3,3A3,3,0,0,1,362,3ZM328,3a3,3,0,1,1,3,3A3,3,0,0,1,328,3ZM300,3a3,3,0,1,1,3,3A3,3,0,0,1,300,3ZM263,3a3,3,0,1,1,3,3A3,3,0,0,1,263,3ZM231,3a3,3,0,1,1,3,3A3,3,0,0,1,231,3ZM197,3a3,3,0,1,1,3,3A3,3,0,0,1,197,3ZM163,3a3,3,0,1,1,3,3A3,3,0,0,1,163,3ZM130,3a3,3,0,1,1,3,3A3,3,0,0,1,130,3ZM100,3a3,3,0,1,1,3,3A3,3,0,0,1,100,3ZM67,3a3,3,0,1,1,3,3A3,3,0,0,1,67,3ZM34,3a3,3,0,1,1,3,3A3,3,0,0,1,34,3ZM0,3A3,3,0,1,1,3,6,3,3,0,0,1,0,3Z"/>
  </g>
</svg>
